<?xml version="1.0" encoding="iso-8859-1"?>
<!-- Generator: Adobe Illustrator 16.0.0, SVG Export Plug-In . SVG Version: 6.00 Build 0)  -->
<!DOCTYPE svg PUBLIC "-//W3C//DTD SVG 1.1//EN" "http://www.w3.org/Graphics/SVG/1.1/DTD/svg11.dtd">
<svg version="1.1" id="Capa_1" xmlns="http://www.w3.org/2000/svg" xmlns:xlink="http://www.w3.org/1999/xlink" x="0px" y="0px"
	 width="450.168px" height="450.168px" viewBox="0 0 450.168 450.168" style="enable-background:new 0 0 450.168 450.168;"
	 xml:space="preserve">
<g>
	<g>
		<path d="M311.33,374.239h-41.837c-2.209,0-4.291-0.381-6.357-1.183c-7.373-1.777-12.253-7.993-12.253-16.098
			c0-1.391-0.011-2.772-0.011-4.153c-37.96,0.655-75.926,0.584-113.889-0.432c2.442-86.768-9.486-172.946-10.433-259.632
			c46.019-1.425,92.048-2.377,138.088-2.861c0.005,0.457-0.035,0.883,0.016,1.373c7.316,65.93,8.805,132.17,11.08,198.382
			c6.86-0.498,13.715-0.995,20.575-1.503l3.85-0.274c-2.25-65.625-3.773-131.269-11.02-196.604
			c-0.061-0.556-0.213-1.051-0.335-1.571c7.165-0.046,14.33-0.071,21.495-0.106c1.452,43.665,1.782,87.361,3.529,130.945
			c2.59-1.647,5.697-2.546,9.166-2.546h15.056c-1.604-42.739-1.858-85.518-3.265-128.265c-0.071-2.107,33.636,5.111,37.079,7.388
			c11.837,7.815,13.995,22.1,15.097,35.249c2.631,31.372,1.828,63.741,1.006,95.845c0.995,2.051,1.64,4.331,1.782,6.824
			c0.584,9.994,0.944,19.992,1.3,29.985c0.208,5.733,0.411,11.451,0.66,17.174h20.216c-0.071-23.612-0.295-47.225-0.519-70.843
			c-0.188-19.55-0.635-39.153-0.233-58.704c0.224-10.831,1.057-22.355,0.411-33.39c-3.92-66.953-84.914-54.01-131.636-53.974
			c0.746,0-12.584-21.513-14.772-23.544c-6.591-6.122-14.401-10.192-23.044-12.507c-19.674-5.266-41.134-2.138-61.169-1.386
			c-28.787,1.074-51.369,8.922-57.432,40.484c-17.951,0.561-35.896,1.155-53.839,1.861C48.04,68.35,23.859,73.367,9.326,90.843
			c-10.087,12.131-7.856,29.77-8.216,44.674c-0.533,22.109-1.043,44.209-1.102,66.323c-0.066,25.001,0.328,49.995,1.166,74.979
			c0.713,21.298-2.755,44.026,4.941,64.42c14.959,39.659,66.905,33.382,101.156,34.683c0,0.152-0.036,0.279-0.036,0.432
			c0.516,41.156,67.329,47.555,63.008,1.086c29.082,0.412,58.161,0.279,87.242-0.233c-0.091,17.474,12.771,30.707,29.793,32.017
			c10.572,0.823,18.824-2.396,24.902-8.297c-0.117-4.51-0.274-9.009-0.427-13.427C311.6,383.086,311.452,378.663,311.33,374.239z
			 M158.334,53.913c15.531-1.424,31.141-2.054,46.74-1.736c9.287,0.188,19.464-1.706,28.599,0.365
			c5.241,1.184,17.885,13.066,19.876,13.046c-34.792,0.426-69.582,1.036-104.363,1.99C151.115,62.394,154.053,57.872,158.334,53.913
			z M45.049,348.413c-0.869-0.533-1.783-1-2.778-1.355c-1.206-0.417-1.871-0.671-4.05-1.885c-0.898-0.502-1.742-1.097-2.584-1.69
			c0.401,0.203-1.716-1.539-1.742-1.569c-2.219-2.087-3.75-4.22-5.388-7.119c-0.005-0.147,0.028-0.27,0.018-0.416
			c-4.936-75.332-5.015-150.707-1.925-226.11c7.945-8.485,17.57-13.068,28.536-14.19c5.08,84.716,9.993,169.431,11.872,254.29
			c0.01,0.437,0.104,0.823,0.15,1.239C59.78,349.21,52.412,348.87,45.049,348.413z M112.497,351.607
			c-7.068-0.254-14.134-0.478-21.195-0.787c0.125-0.777,0.208-1.579,0.188-2.442c-1.874-84.782-6.787-169.425-11.857-254.062
			c7.482-0.284,14.965-0.487,22.442-0.749C103.085,179.72,114.836,265.373,112.497,351.607z M145.624,383.618
			c-0.165,0.438-0.437,1.158-0.602,1.453c-0.015,0.03-0.015,0.04-0.031,0.061c-0.127,0.106-0.282,0.244-0.525,0.487
			c-0.033,0.03-0.038,0.036-0.063,0.066c-0.155,0.065-0.383,0.192-0.729,0.391c-0.16,0.097-0.213,0.143-0.328,0.214
			c-0.186,0.045-0.437,0.111-0.815,0.233c-0.556,0.173-1.146,0.249-1.722,0.365c-0.119,0-0.224-0.03-0.348-0.04
			c-0.147,0-1.826-0.143-2.315-0.133c-0.8-0.167-1.6-0.345-2.387-0.578c-0.082-0.025-0.099-0.025-0.17-0.046
			c-0.134-0.087-0.307-0.188-0.609-0.355c-0.213-0.138-0.348-0.229-0.477-0.31c-0.272-0.254-0.551-0.488-0.803-0.762
			c-0.045-0.046-0.056-0.051-0.091-0.087c-0.074-0.142-0.147-0.279-0.302-0.522c-0.198-0.33-0.365-0.681-0.536-1.026
			c-0.053-0.167-0.134-0.406-0.249-0.73c-0.271-0.833-0.432-1.706-0.6-2.569c0.15,0.406-0.083-1.93-0.167-2.966
			c4.671,0.142,9.346,0.142,14.02,0.249c0.198,1.792,0.249,3.569,0.16,5.367C145.87,382.42,145.745,383.05,145.624,383.618z
			 M297.463,381.598c-0.305,0.904-1.001,2.179-1.89,3.504h-9.358c-0.518-0.335-1.544-0.995-1.731-1.036
			c-0.229-0.213-0.447-0.437-0.671-0.649c0.422,0.345-1.056-1.422-1.218-1.717c-0.646-1.279-0.696-1.381-0.143-0.31
			c-0.035-0.097-0.432-2.057-0.559-2.29c-0.061-0.812-0.092-1.62-0.066-2.438c5.733-0.152,11.462-0.406,17.199-0.6
			C298.574,377.927,298.077,379.77,297.463,381.598z"/>
		<path d="M444.917,292.621l-1.041-0.64c-1.554-1.33-3.524-2.006-5.85-2.006h-26.061H387.5h-3.234l-0.178-3.717
			c-0.325-6.992-0.579-13.979-0.833-20.978c-0.355-9.933-0.711-19.875-1.295-29.797c-0.335-5.825-4.642-8.511-8.556-9.08
			l-0.59-0.132c-1.092-0.335-2.046-0.492-3.016-0.492h-31.494h-15.31c-4.875,0-7.104,2.798-8.115,5.144l-0.376,0.863l-0.172,0.143
			l-0.559,0.467c-1.976,1.62-2.956,3.92-2.931,6.835c0.168,18.088,2.021,36.074,3.819,51.298l0.477,4.042l-14.705,1.087
			l-3.561,0.254c-6.961,0.513-13.913,1.025-20.865,1.523c-2.523,0.183-5.047,0.376-7.576,0.554c-1.6,0.116-3.026,0.543-4.356,1.314
			l-0.939,0.392c-4.129,1.106-7.13,4.94-7.13,9.114v2.682c0,1.427,0.381,2.874,1.127,4.296l0.376,0.711l0.062,0.802
			c0.908,11.634,1.066,23.39,1.092,35.354c0.005,1.438,0.015,2.864,0.015,4.316c0,6.316,4.743,8.16,6.784,8.663
			c1.631,0.589,2.798,0.808,4.032,0.808h49.449l0.087,3.812c0.127,5.662,0.319,11.319,0.513,16.981
			c0.03,0.985,0.065,2.011,0.097,3.006c0.269,7.973,0.522,16.128,0.563,24.212c0.03,5.992,4.174,7.982,6.642,8.643
			c1.635,0.619,2.854,0.854,4.169,0.854h45.479c2.574,0,4.697-0.812,6.302-2.428l3.153,2.387l-2.625-2.899
			c1.823-1.833,2.646-3.956,2.646-6.535c0-14.676-0.106-30.468-0.803-46.565c0-0.03,0-0.051-0.005-0.081l-0.178-4.062h7.338h47.032
			c5.956,0,8.521-4.28,8.932-8.297l0.097-0.884l0.468-0.757c0.889-1.437,1.32-3.042,1.32-4.88v-48.154
			C450.173,295.841,447.313,293.616,444.917,292.621z M431.222,344.812h-23.333h-32.733c-7.165,0-8.622,5.932-8.896,7.749
			l-0.147,0.625c-0.375,1.152-0.518,2.3-0.441,3.539c0.325,5.164,0.579,10.502,0.777,16.193c0.289,8.364,0.467,17.504,0.527,28.163
			l0.025,3.925h-27.975l-0.102-3.788c-0.127-4.474-0.284-8.947-0.437-13.416c-0.157-4.418-0.314-8.906-0.437-13.416
			c-0.122-4.458-0.213-8.927-0.238-13.38c-0.006-0.828-0.117-1.641-0.355-2.57l-0.143-0.543l0.016-0.549
			c0.096-2.894-0.858-5.585-2.601-7.393c-1.573-1.625-3.731-2.458-6.393-2.458h-2.95h-22.795h-24.486h-0.498l-0.04-3.854
			c-0.076-8.049-0.376-15.919-0.894-23.414l-0.265-3.875l0.305-0.021l17.666-1.3c2.25-0.167,4.505-0.33,6.754-0.492
			c6.505-0.478,13.01-0.96,19.521-1.427c0.695-0.056,1.381-0.106,2.071-0.147c0.812-0.061,1.62-0.224,2.564-0.528l0.681-0.218
			l1.371,0.056c2.711,0,5.053-0.899,6.434-2.468c1.249-1.402,1.722-3.377,1.411-5.851c-2.056-16.523-4.321-35.769-5.058-55.172
			l-0.157-4.047h9.191h24.339l0.157,3.737c0.229,5.372,0.416,10.745,0.609,16.122c0.37,10.486,0.757,21.333,1.411,31.956
			c0.046,0.727,0.178,1.392,0.336,2.036l0.111,0.925c0.01,3.509,1.93,9.43,9.034,9.43h12.634h24.562h18.869v35.87H431.222z"/>
	</g>
</g>
<g>
</g>
<g>
</g>
<g>
</g>
<g>
</g>
<g>
</g>
<g>
</g>
<g>
</g>
<g>
</g>
<g>
</g>
<g>
</g>
<g>
</g>
<g>
</g>
<g>
</g>
<g>
</g>
<g>
</g>
</svg>
