<?xml version="1.0" encoding="iso-8859-1"?>
<!-- Generator: Adobe Illustrator 16.0.0, SVG Export Plug-In . SVG Version: 6.00 Build 0)  -->
<!DOCTYPE svg PUBLIC "-//W3C//DTD SVG 1.1//EN" "http://www.w3.org/Graphics/SVG/1.1/DTD/svg11.dtd">
<svg version="1.1" id="Capa_1" xmlns="http://www.w3.org/2000/svg" xmlns:xlink="http://www.w3.org/1999/xlink" x="0px" y="0px"
	 width="467.098px" height="467.098px" viewBox="0 0 467.098 467.098" style="enable-background:new 0 0 467.098 467.098;"
	 xml:space="preserve">
<g>
	<g>
		<path d="M399.697,108.075c-0.985-29.884-1.533-59.857-1.239-89.756c0.011-1.331-0.203-2.506-0.503-3.613
			c0.59-6.515-3.244-13.396-11.593-13.177C281.035,4.291,175.733,0.168,70.401,0C61.634-0.015,57.8,7.686,58.881,14.439
			c-0.353,1.176-0.591,2.44-0.577,3.88c1.592,125.685,5.909,306.275,6.048,431.985c0,2.813,0.799,5.109,2.079,6.917
			c0.774,5.331,4.604,10.044,11.527,9.871c45.526-1.127,91.071-1.863,136.564-4.093c40.542-1.985,91.074,0.676,129.824-12.558
			c13.721-4.688,25.999-11.613,36.521-21.643c19.235-18.337,25.802-42.949,27.457-68.888c1.594-24.912-1.341-51.039-1.925-73.991
			C404.897,226.625,401.647,167.357,399.697,108.075z M333.049,342.662c-7.408,0.041-14.574,5.83-11.263,14.716
			c6.662,17.885,9.709,40.096-0.533,57.198c-12.391,20.683-34.495,20.119-55.508,22.77c-12.857,1.62-26.517,0.762-39.476,1.133
			c-10.077,0.284-137.763,3.397-137.763,3.895c-0.302-121.008-4.301-296.901-5.923-417.882
			c97.248,0.422,194.466,3.761,291.709,1.681c-0.33,88.93,8.363,232.536,8.958,321.436c-15.087-4.753-30.676-6.77-46.778-5.692
			C335.217,342.002,334.1,342.291,333.049,342.662z M342.55,425.352c9.765-16.635,12.207-37.063,7.124-59.193
			c11.761,0.457,23.359,2.727,34.343,7.383c0.046,0.143,0.076,0.29,0.127,0.422C380.584,400.19,363.989,416.283,342.55,425.352z"/>
		<path d="M339.615,205.41c-0.863-0.249-1.777-0.432-2.778-0.482c-23.724-1.191-47.428-2.501-71.087-4.525V127
			c0-7.264-5.799-10.757-11.425-10.54c-0.706-0.188-1.452-0.337-2.245-0.396c-17.292-1.326-34.619-1.361-51.95-1.366
			c-15.61,0-8.475,23.384-8.818,32.768c-0.693,19.141-1.036,32.646-1.722,51.78c-18.372-0.071-42.378-0.338-60.735-1.335
			c-4.382-0.239-7.389,1.711-9.042,4.534c-1.955,1.763-3.26,4.342-3.26,7.767v45.118c0,6.997,5.385,10.512,10.816,10.567
			c0.883,0.219,1.818,0.371,2.854,0.371c19.743,0,45.112,0.152,64.83,1.025c0.927,24.715,1.244,49.449,2.336,74.164
			c0.401,8.982,9.473,12.223,15.818,9.709c14.751,1.132,29.543,1.224,44.341,1.224c5.469,0,8.79-3.301,10.019-7.333
			c0.645-1.396,1.006-3.036,0.914-4.966c-1.122-24.304-1.311-48.627-1.351-72.955c22.744,2.066,45.529,3.397,68.345,4.596
			c6.073,0.324,9.5-3.565,10.333-8.146c1.046-1.503,1.782-3.326,1.966-5.524c1.33-15.925,1.503-26.269,2.736-42.201
			C351.081,208.5,345.353,205.052,339.615,205.41z M326.442,249.369c-22.998-1.249-45.976-2.65-68.897-4.976
			c-4.729-0.478-7.8,1.706-9.329,4.844c-1.782,1.747-2.976,4.215-2.976,7.46c0,24.603,0.117,49.205,1.021,73.788
			c-9.153-0.062-18.296-0.346-27.427-0.889c-0.858-24.298-1.186-48.611-2.303-72.899c-0.322-6.906-5.769-10.41-11.148-10.537
			c-0.787-0.213-1.623-0.355-2.524-0.396c-19.586-1.077-44.826-1.3-64.429-1.351v-24.215c19.585,0.81,44.826,0.952,64.457,0.957
			c21.787-0.038,2.511-84.556,10.748-84.492c10.083,0.076,20.165,0.238,30.24,0.79v70.208c0,1.346,0.248,2.521,0.609,3.608
			c0.721,4.847,4.163,9.471,10.323,10.062c24.344,2.346,48.743,3.755,73.158,5.007C327.442,235.902,327.042,239.818,326.442,249.369
			z"/>
	</g>
</g>
<g>
</g>
<g>
</g>
<g>
</g>
<g>
</g>
<g>
</g>
<g>
</g>
<g>
</g>
<g>
</g>
<g>
</g>
<g>
</g>
<g>
</g>
<g>
</g>
<g>
</g>
<g>
</g>
<g>
</g>
</svg>
