<?xml version="1.0" encoding="iso-8859-1"?>
<!-- Generator: Adobe Illustrator 16.0.0, SVG Export Plug-In . SVG Version: 6.00 Build 0)  -->
<!DOCTYPE svg PUBLIC "-//W3C//DTD SVG 1.1//EN" "http://www.w3.org/Graphics/SVG/1.1/DTD/svg11.dtd">
<svg version="1.1" id="Capa_1" xmlns="http://www.w3.org/2000/svg" xmlns:xlink="http://www.w3.org/1999/xlink" x="0px" y="0px"
	 width="481.924px" height="481.923px" viewBox="0 0 481.924 481.923" style="enable-background:new 0 0 481.924 481.923;"
	 xml:space="preserve">
<g>
	<g>
		<path d="M375.411,44.576c-35.206-28.132-89.81-47.474-134.447-44.219c-44.64-3.255-99.244,16.087-134.447,44.219
			C73.424,71.022,55.329,111.062,50.68,152.638c-5.299,47.393,4.613,94.182,24.872,137.07
			c30.341,64.226,102.677,143.158,154.424,188.509c3.468,3.037,7.348,4.022,10.988,3.621c3.639,0.401,7.519-0.584,10.986-3.621
			c51.75-45.351,124.086-124.283,154.427-188.509c20.256-42.884,30.168-89.673,24.866-137.07
			C426.598,111.062,408.499,71.022,375.411,44.576z M404.34,180.417c-0.919,40.756-12.237,81.651-34.286,116.156
			c-29.874,46.758-85.955,113.178-129.084,153.218c-43.137-40.04-99.213-106.46-129.087-153.218
			c-22.046-34.505-33.367-75.406-34.286-116.156c-0.828-36.633,9.513-74.421,34.162-102.136
			c48.258-54.255,140.589-65.872,205.028-36.915c18.59,8.356,39.715,21.544,53.39,36.915
			C394.824,105.997,405.163,143.785,404.34,180.417z"/>
		<path d="M219.738,336.303c2.78-1.554,5.156-4.042,6.515-7.733c27.089-73.753-4.648-139.121-47.532-198.453
			c-3.633-5.027-11.362-12.748-19.769-17.968c-11.446-7.109-24.143-9.59-29.478,5.667c-29.595,84.612-3.397,172.385,73.003,221.164
			C209.26,343.306,215.8,341.046,219.738,336.303z M151.625,143.627c40.423,46.083,67.301,100.495,52.062,161.365
			C153.321,265.592,136.556,204.893,151.625,143.627z"/>
		<path d="M359.984,131.435c-5.129-11.367-18.946-37.087-34.535-20.858c-57.173,59.519-96.68,135.389-66.324,217.988
			c1.356,3.691,3.732,6.18,6.516,7.733c3.936,4.743,10.471,7.003,17.26,2.671c61.646-39.364,90.733-107.287,83.979-179.196
			C365.966,150.028,364.036,140.411,359.984,131.435z M281.687,304.993c-15.238-60.87,11.645-115.283,52.06-161.365
			C348.823,204.893,332.061,265.592,281.687,304.993z"/>
		<path d="M259.41,365.03c-11.35,9.511-24.245,10.598-35.876,0.949c-14.025-11.634-34.289,8.399-20.14,20.14
			c24.303,20.159,52.156,19.159,76.154-0.955C293.646,373.363,273.39,353.32,259.41,365.03z"/>
	</g>
</g>
<g>
</g>
<g>
</g>
<g>
</g>
<g>
</g>
<g>
</g>
<g>
</g>
<g>
</g>
<g>
</g>
<g>
</g>
<g>
</g>
<g>
</g>
<g>
</g>
<g>
</g>
<g>
</g>
<g>
</g>
</svg>
