<?xml version="1.0" encoding="iso-8859-1"?>
<!-- Generator: Adobe Illustrator 16.0.0, SVG Export Plug-In . SVG Version: 6.00 Build 0)  -->
<!DOCTYPE svg PUBLIC "-//W3C//DTD SVG 1.1//EN" "http://www.w3.org/Graphics/SVG/1.1/DTD/svg11.dtd">
<svg version="1.1" id="Capa_1" xmlns="http://www.w3.org/2000/svg" xmlns:xlink="http://www.w3.org/1999/xlink" x="0px" y="0px"
	 width="442.799px" height="442.798px" viewBox="0 0 442.799 442.798" style="enable-background:new 0 0 442.799 442.798;"
	 xml:space="preserve">
<g>
	<g>
		<path d="M397.471,16.944c-0.284-5.555-3.641-10.521-11.045-11.639c-113.573-17.098-234.381,4.89-309.205,98.899
			C5.321,194.546,5.768,318.55,41.72,423.344c0.478,1.402,1.123,2.596,1.841,3.697c1.369,5.773,5.642,10.877,13.099,11.862
			c49.8,6.556,102.017,5.139,151.154-6.566c0.792-0.051,1.571-0.035,2.356-0.091c2.496-0.184,4.57-0.97,6.322-2.093
			c55.893-14.832,107.318-43.386,145.931-89.331c77.307-91.973,74.91-214.743,35.627-322.67
			C397.887,17.701,397.658,17.355,397.471,16.944z M371.44,33.813c6.028,16.818,11.08,34.322,14.939,52.166
			c-23.109-27.583-54.4-45.742-89.636-55.299C321.829,29.36,347.046,30.548,371.44,33.813z M69.312,409.583
			c-3.636-11.06-6.833-22.257-9.585-33.54c14.046,14.767,30.374,26.837,48.302,36.008C95.128,411.802,82.197,410.975,69.312,409.583
			z M182.812,406.221c-57.76-4.28-107.011-36.18-132.99-90.535c-0.828-9.978-1.176-19.956-1.125-29.904
			c36.198,60.484,97.094,100.037,166.583,112.722C204.632,401.636,193.795,404.206,182.812,406.221z M335.189,325.858
			c-19.911,21.281-42.447,38.079-66.735,51.028c-95.537,1.209-183.061-50.384-215.283-142.28
			c6.581-37.526,20.637-73.722,44.12-106.673c12.995-18.24,28.297-33.515,45.25-46.204c50.693-2.031,102.702,1.854,149.536,22.678
			c52.344,23.268,82.497,68.914,92.754,124.172c0.26,1.387,0.717,2.539,1.25,3.601C377.118,266.364,360.833,298.447,335.189,325.858
			z M394.586,172.559c-17.011-37.48-45.036-67.867-83.913-87.976c-37.725-19.524-80.684-27.182-123.44-28.934
			c5.471-2.438,11.039-4.667,16.676-6.733c0.878,0.172,1.805,0.274,2.798,0.274c1.087,0,2.095-0.116,3.042-0.319
			c1.176,0.279,2.455,0.421,3.895,0.319C292.737,43.72,369.557,72.177,393.5,154.044c0.33,1.122,0.776,2.107,1.289,3.011
			C394.865,162.235,394.764,167.399,394.586,172.559z"/>
		<path d="M293.981,159.34c3.539-4.773,7.094-9.536,10.618-14.33c9.958-13.518-12.619-26.466-22.45-13.121
			c-3.123,4.24-6.276,8.465-9.414,12.7c-3.021-1.823-6.053-3.616-9.196-5.235c-14.884-7.653-28.041,14.782-13.127,22.449
			c2.265,1.163,4.443,2.463,6.643,3.732c-4.683,6.21-9.395,12.396-14.127,18.565c-2.956-2.199-5.911-4.403-8.856-6.617
			c-5.688-4.26-14.515-0.924-17.788,4.667c-3.89,6.642-0.993,13.543,4.664,17.783c2.044,1.528,4.088,3.052,6.132,4.575
			c-6.183,7.876-12.434,15.711-18.735,23.496c-3.562-2.397-7.109-4.814-10.674-7.19c-13.995-9.329-27,13.197-13.126,22.449
			c2.41,1.604,4.801,3.245,7.208,4.85c-6.198,7.424-12.504,14.752-18.844,22.059c-3.879-2.584-7.764-5.174-11.641-7.764
			c-13.995-9.328-27,13.202-13.126,22.449c2.45,1.63,4.9,3.266,7.348,4.9c-3.334,3.687-6.594,7.435-9.979,11.085
			c-11.382,12.269,6.962,30.696,18.388,18.388c4.55-4.91,8.942-9.942,13.411-14.924c5.88,3.92,11.755,7.84,17.636,11.755
			c13.995,9.328,27-13.202,13.126-22.449c-4.479-2.981-8.955-5.967-13.431-8.953c6.243-7.246,12.474-14.502,18.588-21.855
			c5.497,3.839,11.009,7.652,16.387,11.659c5.697,4.245,14.503,0.939,17.783-4.667c3.879-6.621,1.01-13.562-4.662-17.782
			c-4.28-3.18-8.678-6.195-13.035-9.268c6.165-7.647,12.284-15.32,18.342-23.049c4.773,3.326,9.582,6.596,14.503,9.704
			c14.218,8.987,27.248-13.513,13.126-22.45c-3.971-2.503-7.865-5.108-11.735-7.759c4.875-6.363,9.725-12.741,14.549-19.145
			c3.103,2.417,6.154,4.905,9.161,7.46c12.689,10.785,31.179-7.516,18.387-18.388C302.086,165.78,298.064,162.525,293.981,159.34z"
			/>
	</g>
</g>
<g>
</g>
<g>
</g>
<g>
</g>
<g>
</g>
<g>
</g>
<g>
</g>
<g>
</g>
<g>
</g>
<g>
</g>
<g>
</g>
<g>
</g>
<g>
</g>
<g>
</g>
<g>
</g>
<g>
</g>
</svg>
