<?xml version="1.0" encoding="iso-8859-1"?>
<!-- Generator: Adobe Illustrator 16.0.0, SVG Export Plug-In . SVG Version: 6.00 Build 0)  -->
<!DOCTYPE svg PUBLIC "-//W3C//DTD SVG 1.1//EN" "http://www.w3.org/Graphics/SVG/1.1/DTD/svg11.dtd">
<svg version="1.1" id="Capa_1" xmlns="http://www.w3.org/2000/svg" xmlns:xlink="http://www.w3.org/1999/xlink" x="0px" y="0px"
	 width="492.053px" height="492.053px" viewBox="0 0 492.053 492.053" style="enable-background:new 0 0 492.053 492.053;"
	 xml:space="preserve">
<g>
	<g>
		<path d="M39.61,213.156c17.143-0.602,33.09-12.35,36.059-27.527c0.223-1.133,0.345-2.288,0.416-3.458
			c13.109-6.053,26.197-12.157,39.151-18.542c7.582,5.914,17.412,9.361,26.555,9.039c2.818-0.099,5.588-0.525,8.288-1.19
			c24.709,26.164,49.398,52.352,73.438,79.143c-1.569,3.585-2.575,7.282-2.671,10.623c-0.604,19.773,20.939,34.713,39.578,34.059
			c17.143-0.604,33.093-12.35,36.063-27.533c1.3-6.647,0.106-13.959-4.561-21.279c-0.015-0.03-0.051-0.056-0.065-0.089
			c8.054-32.977,15.351-66.136,23.349-99.13c1.355,0.109,2.716,0.168,4.052,0.12c5.881-0.208,11.608-1.752,16.732-4.268
			c14.056,7.939,27.329,17.072,40.532,26.327c-0.544,2.006-0.939,3.994-1.001,5.855c-0.599,19.771,20.937,34.708,39.583,34.053
			c17.144-0.602,33.094-12.35,36.063-27.527c1.301-6.65,0.107-13.962-4.56-21.282c-9.852-15.435-39.11-19.182-54.897-11.509
			c-0.641,0.312-1.255,0.756-1.885,1.155c-11.963-8.381-23.982-16.671-36.541-24.139c0.904-1.985,1.605-4.049,2.021-6.192
			c1.3-6.649,0.111-13.962-4.561-21.282c-9.851-15.435-39.105-19.182-54.893-11.509c-8.576,4.167-15.899,16.704-16.188,26.266
			c-0.31,10.25,5.347,19.172,13.441,25.324c-7.643,31.395-14.63,62.944-22.196,94.356c-10.46-2.747-22.236-2.46-31.028,0.784
			c-22.656-25.25-45.872-49.985-69.167-74.653c3.567-4.073,6.114-8.831,7.129-14.011c1.3-6.649,0.114-13.959-4.562-21.281
			c-9.851-15.432-39.108-19.183-54.893-11.507c-8.569,4.164-15.897,16.701-16.189,26.263c-0.051,1.747,0.12,3.443,0.396,5.106
			c-11.55,5.68-23.206,11.139-34.891,16.542c-11.997-11.928-37.231-14.361-51.506-7.424c-8.574,4.164-15.894,16.702-16.191,26.264
			C-0.58,198.872,20.961,213.811,39.61,213.156z M397.676,174.261c0.99-0.973,1.833-2.115,2.488-3.395
			c8.404-6.23,36.379,2.231,27.705,12.726c-0.248,0.299-0.527,0.602-0.843,0.909C419.506,191.859,394.03,184.407,397.676,174.261z
			 M303.114,109.987c6.499-8.231,38.039,0.599,28.903,11.644c-0.254,0.3-0.533,0.602-0.843,0.909
			C323.091,130.449,294.217,121.25,303.114,109.987z M244.28,257.901c6.5-8.231,38.034,0.599,28.899,11.644
			c-0.249,0.3-0.528,0.6-0.838,0.909C264.262,278.36,235.384,269.159,244.28,257.901z M125.651,135.272
			c6.5-8.229,38.037,0.599,28.901,11.644c-0.251,0.302-0.531,0.602-0.838,0.909C145.633,155.729,116.755,146.531,125.651,135.272z
			 M23.462,175.759c6.508-8.231,38.039,0.599,28.907,11.644c-0.249,0.3-0.531,0.602-0.835,0.909
			C43.446,196.221,14.565,187.022,23.462,175.759z"/>
		<path d="M427.377,262.567c-0.69,0.315-1.351,0.757-2.031,1.158c-12.908-8.384-25.883-16.671-39.431-24.138
			c0.976-1.986,1.731-4.05,2.184-6.193c1.407-6.649,0.122-13.962-4.915-21.281c-10.629-15.435-42.198-19.183-59.229-11.51
			c-9.247,4.167-17.153,16.704-17.464,26.266c-0.34,10.25,5.764,19.172,14.508,25.324c-8.246,31.393-15.787,62.941-23.952,94.354
			c-11.283-2.747-23.983-2.457-33.475,0.787c-24.45-25.252-49.497-49.987-74.628-74.656c3.849-4.072,6.594-8.836,7.69-14.01
			c1.404-6.647,0.119-13.957-4.918-21.279c-10.628-15.432-42.193-19.182-59.232-11.507c-9.252,4.164-17.148,16.701-17.466,26.261
			c-0.059,1.747,0.129,3.443,0.432,5.108c-12.464,5.677-25.04,11.136-37.648,16.539c-12.946-11.928-40.175-14.36-55.571-7.424
			c-9.249,4.164-17.148,16.701-17.471,26.263c-0.65,19.77,22.587,34.708,42.706,34.054c18.501-0.6,35.703-12.35,38.91-27.528
			c0.238-1.132,0.37-2.285,0.446-3.458c14.15-6.053,28.267-12.156,42.244-18.54c8.181,5.911,18.788,9.359,28.657,9.034
			c3.037-0.097,6.033-0.522,8.938-1.188c26.667,26.167,53.304,52.354,79.237,79.141c-1.696,3.585-2.778,7.281-2.887,10.623
			c-0.65,19.773,22.587,34.713,42.706,34.053c18.499-0.599,35.703-12.35,38.912-27.527c1.402-6.647,0.117-13.96-4.926-21.282
			c-0.02-0.03-0.051-0.056-0.076-0.086c8.699-32.977,16.57-66.136,25.192-99.133c1.462,0.112,2.925,0.168,4.372,0.122
			c6.348-0.208,12.527-1.752,18.053-4.271c15.162,7.942,29.487,17.072,43.736,26.329c-0.595,2.006-1.016,3.991-1.077,5.855
			c-0.649,19.769,22.587,34.708,42.706,34.053c18.504-0.604,35.703-12.35,38.912-27.527c1.402-6.652,0.117-13.965-4.92-21.282
			C475.979,258.647,444.408,254.9,427.377,262.567z M61.229,300.952c-0.269,0.3-0.571,0.6-0.904,0.909
			c-8.721,7.906-39.877-1.29-30.28-12.553C37.061,281.077,71.088,289.902,61.229,300.952z M171.488,260.459
			c-0.272,0.3-0.571,0.604-0.904,0.909c-8.722,7.906-39.875-1.289-30.28-12.55C147.319,240.587,181.341,249.416,171.488,260.459z
			 M299.483,383.087c-0.27,0.3-0.569,0.604-0.904,0.909c-8.719,7.907-39.877-1.29-30.274-12.553
			C275.317,363.212,309.34,372.043,299.483,383.087z M362.963,235.174c-0.27,0.299-0.568,0.602-0.904,0.909
			c-8.719,7.909-39.877-1.29-30.274-12.553C338.797,215.299,372.819,224.129,362.963,235.174z M466.386,297.138
			c-0.269,0.3-0.573,0.604-0.903,0.909c-8.12,7.357-35.612-0.097-31.677-10.237c1.071-0.976,1.98-2.117,2.691-3.397
			C445.566,278.187,475.745,286.647,466.386,297.138z"/>
	</g>
</g>
<g>
</g>
<g>
</g>
<g>
</g>
<g>
</g>
<g>
</g>
<g>
</g>
<g>
</g>
<g>
</g>
<g>
</g>
<g>
</g>
<g>
</g>
<g>
</g>
<g>
</g>
<g>
</g>
<g>
</g>
</svg>
