<?xml version="1.0" encoding="iso-8859-1"?>
<!-- Generator: Adobe Illustrator 16.0.0, SVG Export Plug-In . SVG Version: 6.00 Build 0)  -->
<!DOCTYPE svg PUBLIC "-//W3C//DTD SVG 1.1//EN" "http://www.w3.org/Graphics/SVG/1.1/DTD/svg11.dtd">
<svg version="1.1" id="Capa_1" xmlns="http://www.w3.org/2000/svg" xmlns:xlink="http://www.w3.org/1999/xlink" x="0px" y="0px"
	 width="473.401px" height="473.401px" viewBox="0 0 473.401 473.401" style="enable-background:new 0 0 473.401 473.401;"
	 xml:space="preserve">
<g>
	<g>
		<path d="M8.874,244.3c28.386,15.173,55.883,34.317,82.474,52.837c28.376,19.753,57.719,40.182,88.471,56.065
			c3.125,1.609,6.172,2.428,9.064,2.428c4.154,0,7.975-1.696,11.06-4.9c5.84-6.073,8.148-16.529,7.846-24.196
			c-0.297-7.506-0.602-30.052,0.157-37.496h0.383c89.941,0,165.959,49.271,234.715,102.514c3.32,2.569,7.215,3.936,11.252,3.936
			c7.922,0,15.58-5.255,18.21-12.502c2.016-5.57,0.579-11.298-3.823-15.554c-0.427-1.554-1.031-2.985-1.844-4.356
			c-56.863-95.827-128.584-198.93-261.079-211.566c-0.338-11.771-1.262-38.156-3.128-54.703c-0.178-1.554-0.563-3.057-1.208-4.71
			c-1.907-8.236-8.61-14.18-16.052-14.18c-3.245,0-6.416,1.077-9.427,3.199c-29.904,21.053-60.578,46.397-90.248,70.909
			c-24.783,20.472-50.401,41.639-75.017,59.809c-1.577,1.16-2.917,2.539-4.093,4.202c-4.598,4.029-7.079,10.004-6.505,15.729
			C0.612,237.1,3.73,241.558,8.874,244.3z M49.526,226.943c19.121-14.223,38.636-31.123,57.551-47.502
			c20.665-17.892,41.975-36.34,62.893-51.442c0.591,12.741,0.921,30.326,0.962,40.05c0.046,10.707,8.158,16.26,15.828,16.974
			c1.305,0.333,2.569,0.521,3.854,0.576c98.861,4.291,158.684,65.069,203.334,128.519c-65.678-41.146-124.71-60.402-184.503-60.402
			c-5.121,0-10.326,0.142-15.467,0.427c-5.02,0.284-9.283,2.315-12.377,5.89c-2.834,2.301-4.746,5.597-5.548,9.547
			c-2.006,9.933-3.202,27.106-3.613,39.486c-21.314-12.502-42.274-27.335-62.596-41.721
			C90.271,253.491,70.092,239.202,49.526,226.943z"/>
	</g>
</g>
<g>
</g>
<g>
</g>
<g>
</g>
<g>
</g>
<g>
</g>
<g>
</g>
<g>
</g>
<g>
</g>
<g>
</g>
<g>
</g>
<g>
</g>
<g>
</g>
<g>
</g>
<g>
</g>
<g>
</g>
</svg>
