<?xml version="1.0" encoding="iso-8859-1"?>
<!-- Generator: Adobe Illustrator 16.0.0, SVG Export Plug-In . SVG Version: 6.00 Build 0)  -->
<!DOCTYPE svg PUBLIC "-//W3C//DTD SVG 1.1//EN" "http://www.w3.org/Graphics/SVG/1.1/DTD/svg11.dtd">
<svg version="1.1" id="Capa_1" xmlns="http://www.w3.org/2000/svg" xmlns:xlink="http://www.w3.org/1999/xlink" x="0px" y="0px"
	 width="495.165px" height="495.165px" viewBox="0 0 495.165 495.165" style="enable-background:new 0 0 495.165 495.165;"
	 xml:space="preserve">
<g>
	<g>
		<path d="M279.474,3.041c-1.949-0.386-3.763-0.348-5.397,0c-40.309-7.109-80.499-2.574-114.396,22.392
			c-33.421,24.615-52.778,66.702-55.089,107.47c-4.783,84.696,81.956,146.969,139.934,193.662c0.417,0.34,0.863,0.568,1.29,0.848
			c0.8,1.274,1.896,2.346,3.171,3.234c-2.125,7.557-4.634,15.011-7.691,22.237c-1.721,4.062-2.016,8.454-0.294,12.08
			c1.627,4.296,5.334,7.81,11.174,8.14c8.003,0.452,15.985,1.011,23.983,1.595c4.986,22.013,21.078,36.439,39.771,48.545
			c23.765,15.382,39.807,23.867,22.399,53.146c-8.328,14,13.461,26.675,21.764,12.721c14.27-23.988,18.21-49.373-4.407-69.299
			c-17.342-15.275-41.675-22.811-51.861-43.066c7.145,0.513,14.284,1,21.438,1.406c0.625,0.035,1.184-0.035,1.763-0.076
			c0.259,0.016,0.492,0.076,0.762,0.076c6.367,0,13.269-5.748,12.604-12.604c-1.331-13.73-3.769-26.807-8.714-39.466
			c0.233-0.265,0.472-0.513,0.69-0.803C403.514,229.199,434.012,33.654,279.474,3.041z M269.592,349.019
			c1.818-5.062,3.464-10.176,4.819-15.411c0.066-0.27,0.066-0.503,0.117-0.762c11.05,0.081,22.099,0.355,33.144,0.833
			c2.585,5.91,4.342,12.121,5.551,18.458C298.679,351.167,284.141,350.034,269.592,349.019z M313.339,308.689
			c-17.474-0.919-34.957-1.087-52.45-1.112c-49.716-39.923-110.304-83.105-128.15-147.484
			c-10.474-37.813,6.208-78.643,32.225-106.046c28.173-29.676,71.196-33.312,109.058-25.443c1.625,0.338,3.128,0.322,4.539,0.135
			C407.11,59.341,371.883,226.021,313.339,308.689z"/>
		<path d="M241.92,40.298c-16.691-1.587-16.542,24.43,0,26c49.721,4.722,78.884,45.336,76.695,93.597
			c-0.757,16.771,25.242,16.696,25.999,0C347.494,96.42,305.311,46.321,241.92,40.298z"/>
	</g>
</g>
<g>
</g>
<g>
</g>
<g>
</g>
<g>
</g>
<g>
</g>
<g>
</g>
<g>
</g>
<g>
</g>
<g>
</g>
<g>
</g>
<g>
</g>
<g>
</g>
<g>
</g>
<g>
</g>
<g>
</g>
</svg>
