<?xml version="1.0" encoding="iso-8859-1"?>
<!-- Generator: Adobe Illustrator 16.0.0, SVG Export Plug-In . SVG Version: 6.00 Build 0)  -->
<!DOCTYPE svg PUBLIC "-//W3C//DTD SVG 1.1//EN" "http://www.w3.org/Graphics/SVG/1.1/DTD/svg11.dtd">
<svg version="1.1" id="Capa_1" xmlns="http://www.w3.org/2000/svg" xmlns:xlink="http://www.w3.org/1999/xlink" x="0px" y="0px"
	 width="467.986px" height="467.986px" viewBox="0 0 467.986 467.986" style="enable-background:new 0 0 467.986 467.986;"
	 xml:space="preserve">
<g>
	<g>
		<path d="M449.613,68.18c-0.035-1.404-0.289-2.656-0.64-3.836c-0.716-6.231-5.053-12.157-13.056-12.594
			c-22.811-1.244-45.626-1.368-68.461-1.368c-3.621,0-6.454,1.186-8.593,3.016c-4.407,1.836-7.835,5.82-7.84,12.048
			c-0.041,124.599-1.33,249.191-1.371,373.79c0,1.563,0.274,2.945,0.67,4.235c0.863,6.078,5.2,11.76,13.021,12.197
			c24.638,1.371,49.261,2.64,73.94,2.741c0.467,0,0.857-0.116,1.3-0.152c0.478,0.051,0.949,0.152,1.437,0.152
			c20.83,0,12.705-31.3,13.233-43.767c0.722-16.966,1.204-33.937,1.503-50.906c0.59-32.855,0.457-65.72-0.051-98.574
			C453.69,199.481,451.111,133.846,449.613,68.18z M425.081,430.836c-16.016-0.299-32.011-0.979-48.012-1.822
			c0.097-117.063,1.203-234.123,1.315-351.193c14.711,0.054,29.417,0.193,44.117,0.734
			C425.427,195.982,431.104,313.413,425.081,430.836z"/>
		<path d="M322.272,157.182c-0.111-2.912-1.016-5.299-2.336-7.254c-2.025-4.02-5.799-7.224-11.354-7.81
			c-22.476-2.376-44.696-1.326-67.088,1.366c-2.569,0.308-4.718,1.224-6.533,2.471c-5.225,1.31-9.312,5.461-8.533,12.591
			c10.374,94.633,6.002,190.063,15.059,284.788c0.084,0.858,0.27,1.646,0.473,2.422c-0.138,6.947,4.25,14.011,13.223,14.011
			c14.838,0,79.552,10.303,76.678-16.396C321.45,348.258,326.071,252.584,322.272,157.182z M267.999,432.39
			c-7.449-87.483-4.529-175.515-13.091-262.917c13.457-1.173,26.894-1.609,40.38-0.955c2.915,87.981-0.477,176.166,8.09,263.872
			H267.999z"/>
		<path d="M202.141,233.141c-1.127-5.484-5.309-9.821-12.677-8.866c-19.56,2.528-39.207,4.072-58.872,5.477
			c-1.036,0.073-2.003,0.254-2.917,0.5c-6.975-0.167-13.883,4.199-13.515,13.188c2.734,67.08,5.403,134.155,6.848,201.271
			c0.063,2.854,0.878,5.189,2.123,7.13c1.092,5.723,5.388,10.714,12.936,10.674c16.9-0.092,33.764-1.274,50.663-1.371
			c2.138-0.011,3.999-0.437,5.622-1.152c8.038,2.381,18.07-1.758,17.658-12.538c-2.635-68.893-4.098-137.821-5.477-206.744
			C204.466,237.64,203.55,235.136,202.141,233.141z M148.142,434.898c-1.384-59.574-3.667-119.109-6.083-178.648
			c11.791-0.898,23.58-1.884,35.337-3.179c1.216,60.266,2.575,120.536,4.753,180.771
			C170.807,434.025,159.476,434.573,148.142,434.898z"/>
		<path d="M71.017,345.979c-13.431-1.133-26.898-1.219-40.377-1.225c-1.508,0-2.833,0.265-4.083,0.625
			c-6.197,0.736-12.027,5.073-12.35,13.065c-1.246,31.026-1.366,62.068-1.366,93.11c0,1.391,0.218,2.641,0.536,3.809
			c0.437,6.469,4.789,12.623,13.154,12.623h46.555c7.145,0,11.347-4.494,12.708-9.831c2.232-2.193,3.725-5.275,3.725-9.333v-90.367
			C89.514,347.512,79.015,343.368,71.017,345.979z M62.131,440.606H40.27c0.041-22.811,0.198-45.61,0.883-68.4
			c7,0.051,13.993,0.162,20.978,0.528V440.606z"/>
		<path d="M41.248,227.534c3.608,0,7.104-1.247,10.379-3.712C95.051,191.15,192.812,107.321,238.083,66.065
			c-0.254,7.596-0.396,14.627-0.421,21.266c-0.021,5.145,1.731,9.641,5.08,13c3.459,3.468,8.465,5.466,13.752,5.466
			c9.379,0,18.899-6.33,18.95-18.417c0.102-22.204,1.433-44.798,2.732-66.809c0.305-5.185-1.234-9.725-4.453-13.134
			c-3.275-3.473-8.15-5.492-13.416-5.538c-1.173-0.276-2.311-0.441-3.458-0.516C234.911,0.109,213.102,0,190.837,0l0,0
			c-12.105,0-18.438,9.501-18.443,18.885c-0.005,9.387,6.332,18.893,18.443,18.898c7.389,0,14.772,0.021,22.16,0.089
			C168.311,78.717,73.305,160.446,31.562,191.859c-7.051,5.304-9.646,13.926-6.787,22.5
			C27.405,222.243,34.024,227.534,41.248,227.534z"/>
	</g>
</g>
<g>
</g>
<g>
</g>
<g>
</g>
<g>
</g>
<g>
</g>
<g>
</g>
<g>
</g>
<g>
</g>
<g>
</g>
<g>
</g>
<g>
</g>
<g>
</g>
<g>
</g>
<g>
</g>
<g>
</g>
</svg>
