<?xml version="1.0" encoding="iso-8859-1"?>
<!-- Generator: Adobe Illustrator 16.0.0, SVG Export Plug-In . SVG Version: 6.00 Build 0)  -->
<!DOCTYPE svg PUBLIC "-//W3C//DTD SVG 1.1//EN" "http://www.w3.org/Graphics/SVG/1.1/DTD/svg11.dtd">
<svg version="1.1" id="Capa_1" xmlns="http://www.w3.org/2000/svg" xmlns:xlink="http://www.w3.org/1999/xlink" x="0px" y="0px"
	 width="495.947px" height="495.947px" viewBox="0 0 495.947 495.947" style="enable-background:new 0 0 495.947 495.947;"
	 xml:space="preserve">
<g>
	<g>
		<path d="M447.096,55.746C381.229-6.18,279.767,0.805,220.12,66.488c-54.136,59.613-60.854,147.53-107.074,212.315
			c-6.88,9.648-20.692,18.337-25.73,28.594c-5.758,11.721,3.682,10.237,2.92,20.713c-0.467,6.439-13.873,18.916-17.722,23.806
			c-1.355,1.722-29.412,0.564-33.916,1.763c-10.938,2.925-20.667,8.373-27.797,17.285c-32.86,41.086,15.899,78.729,57.437,65.744
			c-7.647,2.393,17.087,34.729,20.165,37.09c24.801,19.058,64.485,6.394,77.47-20.951c7.911-16.651,0.751-35.516-9.069-50.023
			c7.698-9.917,13.802-20.978,18.814-32.469c1.29-0.803,2.473-1.996,3.417-3.728c28.269-51.811,89.174-39.187,139.095-46.017
			c40.751-5.58,83.833-15.944,118.292-39.369C514.395,228.245,513.46,118.134,447.096,55.746z M135.664,410.333
			c7.927,9.969,14.863,22.187,10.003,35.044c-4.621,12.212-21.231,15.614-32.514,17.011c-18.829-6.149-25.75-19.794-23.186-40.05
			c0.437-3.458-0.579-6.17-2.372-8.084c-2.513-4.316-7.49-6.896-13.167-3.723c-18.088,10.12-36.947,11.908-52.268-3.61
			c-3.824-30.468,24.943-37.882,51.262-33.083c1.147,0.208,2.178,0.198,3.153,0.097c3.164,0.152,6.439-0.939,8.993-3.956
			c7.713-9.104,14.457-18.936,21.521-28.533c0.563,0.508,1.224,0.985,1.98,1.422c14.584,8.465,29.432,16.438,44.351,24.293
			c-4.732,9.938-10.46,19.297-17.687,27.721c-1.422,1.661-2.036,3.732-2.021,5.845C132.784,403.728,133.135,407.154,135.664,410.333
			z M474.197,183.609c-4.57,45.25-36.552,76.127-76.104,94.036c-38.374,17.383-83.02,23.577-124.745,25.537
			c-44.234,2.082-84.218,6.363-108.795,45.713c-14.112-7.414-28.122-15.011-41.924-22.988c-0.701-1.006-1.554-1.914-2.635-2.61
			c-1.229-0.787-2.56-1.427-3.88-2.062c-0.117-0.147-0.193-0.314-0.325-0.447c-1.808-2.066-3.727-4.037-5.708-5.946
			c49.632-50.2,65.272-121.249,94.4-183.744c16.138-34.632,39.151-65.186,73.523-83.162c43.854-22.932,95.654-16.651,136.491,9.432
			C457.531,84.855,479.26,133.47,474.197,183.609z"/>
		<path d="M402.282,115.732c42.99,47.39,7.247,108.453-46.417,126.022c-19.027,6.23-10.883,36.363,8.297,30.087
			c76.754-25.136,119.297-112.993,60.179-178.168C410.804,78.739,388.801,100.871,402.282,115.732z"/>
	</g>
</g>
<g>
</g>
<g>
</g>
<g>
</g>
<g>
</g>
<g>
</g>
<g>
</g>
<g>
</g>
<g>
</g>
<g>
</g>
<g>
</g>
<g>
</g>
<g>
</g>
<g>
</g>
<g>
</g>
<g>
</g>
</svg>
