<?xml version="1.0" encoding="iso-8859-1"?>
<!-- Generator: Adobe Illustrator 16.0.0, SVG Export Plug-In . SVG Version: 6.00 Build 0)  -->
<!DOCTYPE svg PUBLIC "-//W3C//DTD SVG 1.1//EN" "http://www.w3.org/Graphics/SVG/1.1/DTD/svg11.dtd">
<svg version="1.1" id="Capa_1" xmlns="http://www.w3.org/2000/svg" xmlns:xlink="http://www.w3.org/1999/xlink" x="0px" y="0px"
	 width="466.875px" height="466.875px" viewBox="0 0 466.875 466.875" style="enable-background:new 0 0 466.875 466.875;"
	 xml:space="preserve">
<g>
	<g>
		<path d="M466.341,159.155c0.361-5.987-2.812-12.05-9.571-13.137c-0.229-0.183-0.411-0.391-0.655-0.564
			c-41.406-28.949-83.015-57.63-122.806-88.798c-1.777-1.391-3.661-2.214-5.545-2.641c-1.641-0.762-3.555-1.208-5.789-1.158
			c-100.25,2.219-200.425,6.459-300.596,10.811c-2.849,0.122-5.187,1-7.066,2.336C6.8,66.096-1.447,72.479,0.216,82.254
			c12.583,74.017,16.433,148.632,14.676,223.624c-0.114,4.87,2.031,8.277,5.101,10.308c0.29,0.346,0.518,0.691,0.863,1.026
			c40.304,39.323,86.965,69.761,138.918,91.078c1.915,3.489,5.497,5.967,10.821,5.713c92.988-4.423,185.895-10.618,278.974-12.974
			c1.244-0.031,2.366-0.244,3.423-0.539c6.886,0.579,14.122-3.529,13.878-12.436c-2.026-74.972-2.026-149.933,0-224.909
			C466.899,161.668,466.677,160.374,466.341,159.155z M157.864,379.565c-43.455-19.221-82.657-46.002-116.958-79.1
			c1.29-65.811-1.94-131.276-11.187-196.345c42.271,27.101,84.134,54.817,125.916,82.665
			C157.512,251.031,159.065,315.288,157.864,379.565z M166.263,160.983c-0.734,0.062-1.389,0.234-2.059,0.392
			c-36.935-24.608-73.973-49.054-111.276-73.103c88.994-3.824,177.991-7.409,267.051-9.41c30.661,23.8,62.205,46.362,93.953,68.649
			C331.312,150.842,248.669,153.732,166.263,160.983z M440.651,375.375c-85.706,2.387-171.274,7.789-256.902,12.004
			c1.508-67.247-0.238-134.459-2.204-201.682c86.247-7.043,172.735-9.709,259.172-13.355
			C439.047,240.027,439.032,307.696,440.651,375.375z"/>
		<path d="M405.649,262.598c-27.619-21.769-47.261-44.061-75.937-63.408c-1.716-2.895-4.717-4.809-7.992-4.169
			c-3.337-0.233-6.079,2.036-7.43,5.124c-26.08,22.724-42.832,47.261-67.572,72.254c-6.86,6.932,1.884,16.417,9.536,13.919
			c1.184,0.427,2.56,0.579,4.185,0.284c8.704-1.604,17.453-2.93,26.197-4.331c-0.36,17.849,0.3,57.64-0.503,75.474
			c-0.238,5.24,3.402,7.774,7.435,7.896c0.995,0.279,2.103,0.396,3.356,0.259c15.833-1.803,24.455-2.219,35.135-3.204
			c10.725-0.34,19.337-0.985,35.267-1.138c1.264-0.01,2.346-0.274,3.3-0.665c3.981-0.619,7.287-3.58,6.404-8.755
			c-2.991-17.6-7.222-57.173-9.771-74.839c8.846,0.314,17.691,0.559,26.527,1.082c1.646,0.096,2.996-0.224,4.118-0.793
			C405.797,279.123,413.307,268.636,405.649,262.598z M356.611,259.369c-5.088-0.264-7.622,3.134-7.886,7.013
			c-0.346,1.092-0.463,2.352-0.27,3.773c2.371,17.372,6.561,56.548,9.48,73.91c-1.463-1.133-3.412-1.747-5.88-1.402
			c-9.293,1.301-15.412,1.991-21.084,2.509c-5.688,0.178-11.842,0.249-21.226,0.097c-2.494-0.041-4.353,0.812-5.668,2.112
			c0.762-17.59,0.112-56.979,0.325-74.514c0.021-1.433-0.249-2.666-0.731-3.712c-0.73-3.819-3.671-6.881-8.683-5.998
			c-5.713,1.016-11.446,1.904-17.179,2.804c17.377-17.469,27.68-34.246,45.188-50.196c19.337,13.681,31.621,29.062,51.009,44.271
			C368.204,259.851,362.4,259.668,356.611,259.369z"/>
	</g>
</g>
<g>
</g>
<g>
</g>
<g>
</g>
<g>
</g>
<g>
</g>
<g>
</g>
<g>
</g>
<g>
</g>
<g>
</g>
<g>
</g>
<g>
</g>
<g>
</g>
<g>
</g>
<g>
</g>
<g>
</g>
</svg>
