<?xml version="1.0" encoding="iso-8859-1"?>
<!-- Generator: Adobe Illustrator 16.0.0, SVG Export Plug-In . SVG Version: 6.00 Build 0)  -->
<!DOCTYPE svg PUBLIC "-//W3C//DTD SVG 1.1//EN" "http://www.w3.org/Graphics/SVG/1.1/DTD/svg11.dtd">
<svg version="1.1" id="Capa_1" xmlns="http://www.w3.org/2000/svg" xmlns:xlink="http://www.w3.org/1999/xlink" x="0px" y="0px"
	 width="475.214px" height="475.214px" viewBox="0 0 475.214 475.214" style="enable-background:new 0 0 475.214 475.214;"
	 xml:space="preserve">
<g>
	<g>
		<path d="M380.527,225.601c-15.869-90.982-107.531-133.972-191.74-110.984c-6.774,1.849-9.915,6.957-10.242,12.354
			c-51.864,28.442-81.347,87.717-71.295,148.597c12.649,76.638,95.573,114.123,165.268,97.295
			C336.358,357.44,392.399,293.671,380.527,225.601z M223.731,178.492c-0.868,2.265-0.916,4.712-0.307,7.063
			c-2.011,54.029-0.516,108.141-0.374,162.241c-39.544-5.118-74.37-32.291-86.376-73.529
			c-17.43-59.849,28.955-120.155,85.935-133.134c1.3-0.295,2.407-0.752,3.43-1.285C224.986,152.727,224.288,165.609,223.731,178.492
			z M251.806,138.519c12.756,1.569,24.988,4.986,36.312,10.136c-12.868,4.087-25.562,8.638-37.953,13.949
			C250.622,154.57,251.135,146.542,251.806,138.519z M248.906,191.294c19.956-9.689,40.938-16.651,62.266-22.826
			c1.752-0.502,3.179-1.29,4.397-2.219c8.003,6.982,15.066,15.204,20.937,24.618c-28.675,10.521-58.062,17.829-88.153,22.79
			C248.479,206.198,248.672,198.743,248.906,191.294z M270.578,343.231c-7.251,2.423-14.573,3.997-21.86,4.835
			c-0.015-4.987-0.056-9.969-0.086-14.955c20.596-3.564,41.142-7.408,61.712-11.12C298.091,331.339,284.345,338.637,270.578,343.231
			z M337.729,293.498c-2.224-0.985-4.813-1.401-7.713-0.914c-27.243,4.606-54.386,9.821-81.599,14.625
			c-0.065-6.668-0.132-13.33-0.192-19.997c34.672-4.992,68.715-12.457,102.493-21.622
			C348.038,275.491,343.6,284.876,337.729,293.498z M248.043,261.558c-0.031-7.353,0-14.7,0.025-22.049
			c34.058-5.189,67.227-13.218,99.482-25.45c1.487,4.225,2.849,8.556,3.93,13.116c0.884,3.737,1.392,7.424,1.717,11.09
			C318.586,248.01,283.639,256.343,248.043,261.558z"/>
		<path d="M252.105,57.535V14.026c0-18.702-29.003-18.702-29.003,0v43.509C223.102,76.242,252.105,76.242,252.105,57.535z"/>
		<path d="M379.836,108.401c9.309-10.862,18.535-21.79,26.924-33.393c4.642-6.423,1.127-16.143-5.205-19.845
			c-7.317-4.291-15.219-1.188-19.84,5.205c-6.937,9.598-14.69,18.545-22.384,27.522c-5.139,5.997-5.91,14.604,0,20.51
			C364.592,113.662,374.688,114.408,379.836,108.401z"/>
		<path d="M455.143,233.02h-34.805c-18.707,0-18.707,29.005,0,29.005h34.805C473.855,262.024,473.855,233.02,455.143,233.02z"/>
		<path d="M394.339,373.593c-13.151-13.334-33.656,7.186-20.505,20.51c11.588,11.751,21.779,24.694,31.9,37.71
			c4.864,6.251,15.447,5.067,20.51,0c6.108-6.109,4.85-14.279,0-20.511C416.123,398.292,405.927,385.344,394.339,373.593z"/>
		<path d="M224.554,418.655c0,14.04-0.028,28.076-1.452,42.056c-0.805,7.876,7.203,14.503,14.502,14.503
			c8.514,0,13.698-6.643,14.501-14.503c1.427-13.979,1.446-28.016,1.452-42.056C253.562,399.953,224.554,399.953,224.554,418.655z"
			/>
		<path d="M114.228,382.297c-8.47,9.882-16.94,19.759-26.103,29.005c-13.175,13.295,7.333,33.81,20.507,20.511
			c9.163-9.247,17.638-19.129,26.104-29.006c5.144-5.997,5.908-14.604,0-20.51C129.469,377.031,119.377,376.29,114.228,382.297z"/>
		<path d="M66.472,235.924H20.064c-18.705,0-18.705,29.001,0,29.001h46.407C85.177,264.925,85.177,235.924,66.472,235.924z"/>
		<path d="M96.861,139.671c16.627,8.465,31.313-16.559,14.637-25.044c-12.969-6.601-25.189-14.33-36.221-23.836
			c-14.094-12.142-34.706,8.282-20.51,20.505C67.683,122.426,81.66,131.942,96.861,139.671z"/>
	</g>
</g>
<g>
</g>
<g>
</g>
<g>
</g>
<g>
</g>
<g>
</g>
<g>
</g>
<g>
</g>
<g>
</g>
<g>
</g>
<g>
</g>
<g>
</g>
<g>
</g>
<g>
</g>
<g>
</g>
<g>
</g>
</svg>
