<?xml version="1.0" encoding="iso-8859-1"?>
<!-- Generator: Adobe Illustrator 16.0.0, SVG Export Plug-In . SVG Version: 6.00 Build 0)  -->
<!DOCTYPE svg PUBLIC "-//W3C//DTD SVG 1.1//EN" "http://www.w3.org/Graphics/SVG/1.1/DTD/svg11.dtd">
<svg version="1.1" id="Capa_1" xmlns="http://www.w3.org/2000/svg" xmlns:xlink="http://www.w3.org/1999/xlink" x="0px" y="0px"
	 width="514.481px" height="514.481px" viewBox="0 0 514.481 514.481" style="enable-background:new 0 0 514.481 514.481;"
	 xml:space="preserve">
<g>
	<g>
		<path d="M422.945,344.219c-4.387,0-8.276,1.706-10.948,4.834c-2.315,2.707-3.585,6.276-3.585,10.029
			c0,7.2,5.099,14.863,14.538,14.863c4.393,0,8.272-1.716,10.964-4.845c2.311-2.701,3.58-6.256,3.58-10.023
			C437.508,351.876,432.4,344.219,422.945,344.219z"/>
		<path d="M437.559,315c-2.33,2.707-3.6,6.256-3.6,10.034c0,7.195,5.098,14.858,14.548,14.858c4.397,0,8.277-1.717,10.953-4.85
			c2.311-2.696,3.591-6.256,3.591-10.009c0-7.211-5.094-14.863-14.549-14.863C444.105,310.166,440.215,311.877,437.559,315z"/>
		<path d="M433.609,273.411c-2.315,2.697-3.58,6.257-3.58,10.014c0,7.211,5.088,14.869,14.544,14.869
			c4.392,0,8.276-1.707,10.958-4.84c2.311-2.706,3.58-6.261,3.58-10.029c0-7.2-5.089-14.853-14.544-14.853
			C440.185,268.577,436.295,270.288,433.609,273.411z"/>
		<path d="M419.533,311.334c0-7.2-5.093-14.858-14.548-14.858c-4.388,0-8.272,1.706-10.954,4.845
			c-2.315,2.696-3.585,6.256-3.585,10.014c0,7.211,5.094,14.858,14.544,14.858c4.392,0,8.276-1.707,10.958-4.835
			C418.263,318.656,419.533,315.097,419.533,311.334z"/>
		<path d="M246.46,345.691c4.387,0,8.272-1.706,10.956-4.834c2.323-2.702,3.588-6.262,3.588-10.024
			c0-7.211-5.096-14.857-14.548-14.857c-4.39,0-8.275,1.706-10.958,4.834c-2.318,2.701-3.593,6.256-3.593,10.023
			C231.909,338.039,237.005,345.691,246.46,345.691z"/>
		<path d="M270.408,269.806c4.393,0,8.282-1.721,10.958-4.844c2.311-2.687,3.591-6.236,3.591-10.011
			c0-7.203-5.094-14.863-14.554-14.863c-4.393,0-8.272,1.721-10.948,4.842c-2.326,2.699-3.595,6.251-3.595,10.021
			C255.865,262.148,260.968,269.806,270.408,269.806z"/>
		<path d="M266.569,284.218c-2.311,2.706-3.59,6.256-3.59,10.023c0,7.206,5.093,14.858,14.548,14.858
			c4.397,0,8.277-1.706,10.953-4.839c2.321-2.697,3.596-6.257,3.596-10.02c0-7.2-5.099-14.853-14.554-14.853
			C273.134,279.378,269.245,281.095,266.569,284.218z"/>
		<path d="M211.338,346.92c4.39,0,8.274-1.706,10.958-4.844c2.323-2.691,3.598-6.257,3.598-10.014
			c0-7.206-5.101-14.868-14.551-14.868c-4.387,0-8.272,1.716-10.956,4.844c-2.318,2.701-3.593,6.267-3.593,10.034
			C196.79,339.263,201.886,346.92,211.338,346.92z"/>
		<path d="M385.586,336.124c-4.402,0-8.287,1.707-10.958,4.845c-2.315,2.691-3.591,6.251-3.591,10.014
			c0,7.206,5.099,14.863,14.554,14.863c4.388,0,8.272-1.711,10.948-4.839c2.32-2.691,3.596-6.262,3.596-10.024
			C400.135,343.772,395.026,336.124,385.586,336.124z"/>
		<path d="M411.241,282.085c4.407,0,8.282-1.706,10.958-4.834c2.315-2.697,3.595-6.257,3.595-10.02
			c0-7.2-5.098-14.855-14.559-14.855c-4.387,0-8.271,1.722-10.947,4.842c-2.311,2.696-3.591,6.241-3.591,10.019
			C396.697,274.422,401.8,282.085,411.241,282.085z"/>
		<path d="M470.637,208.568c-27.624-44.938-65.871-82.436-116.301-100.552c-53.034-19.067-102.017-10.585-143.699,14.239
			c-3.618-3.135-7.432-7.01-11.113-11.758c3.037-12.375,1.186-23.039-5.35-30.3c-6.437-7.165-16.509-11.438-26.941-11.438
			c-11.258,0-19.456,2.996-25.598,11.164c-4.144,5.522-7.741,14.96-8.678,23.653c-13.561,2.252-26.941,10.105-30.737,22.221
			c-3.623,11.583,1.686,25.083,13.51,32.316c12.812,7.836,36.788,1.892,38.483,1.483c0.358,0.223,3.854,2.297,6.594,4.085
			c-12.959,14.175-26.02,30.062-34.146,43.429c-4.639-1.782-17.067-8.32-28.231-22.724c3.037-12.375,1.181-23.033-5.35-30.297
			c-6.438-7.163-16.511-11.436-26.946-11.436c-11.258,0-19.458,2.996-25.598,11.164c-4.139,5.518-7.744,14.96-8.679,23.648
			c-13.563,2.252-26.941,10.105-30.731,22.221c-3.626,11.578,1.678,25.078,13.51,32.311c12.807,7.841,36.787,1.892,38.479,1.488
			c0.571,0.348,1.211,0.736,1.892,1.132c2.147,1.28,7.178,4.269,7.972,5.35c0.239,0.65,0.234,0.673-0.104,1.727
			c-1.066,3.318-1.445,7.046,2.958,11.814c3.179,3.439,7.65,5.669,11.966,7.817c2.818,1.411,5.489,2.742,7.368,4.199
			c3.748,2.93,7.3,6.108,10.728,9.44c-20.764,38.46-30.087,98.695,4.456,131.458c24.823,23.536,68.898,28.325,101.234,33.678
			c45.323,7.484,95.834,6.601,141.536,2.538c57.513-5.123,127.731-15.894,159.082-68.704
			C533.356,321.459,498.694,254.196,470.637,208.568z M135.697,141.052c-5.911,0-11.71-2.402-10.816-7.909
			c1.229-7.513,11.634-11.11,21.409-8.917c5.796,1.305,15.308-4.732,12.329-13.619c-3.621-8.203-3.593-15.381,3.334-18.318
			c7.028-2.974,12.192-0.338,14.081,2.147c2.592,3.418,2.442,8.181-0.49,15.465c-1.335,3.334-1.122,6.878,0.587,9.875
			c0.792,2.153,10.473,9.734,13.535,12.703c-4.471,4.4-9.338,9.277-14.201,14.353c-4.07-3.125-7.929-6.969-12.733-9.277
			C156.113,134.372,139.967,141.052,135.697,141.052z M74.37,220.72c-4.073-3.125-7.929-6.969-12.733-9.277
			c-6.627-3.181-22.762,3.509-27.035,3.509c-5.914,0-11.71-2.407-10.816-7.914c1.227-7.522,11.639-11.11,21.414-8.917
			c5.796,1.306,15.302-4.732,12.324-13.624c-3.616-8.203-3.59-15.376,3.331-18.309c7.036-2.979,12.2-0.338,14.081,2.148
			c2.6,3.413,2.445,8.181-0.482,15.465c-1.343,3.328-1.13,6.883,0.582,9.874c0.797,2.153,10.473,9.729,13.541,12.702
			C84.104,210.777,79.232,215.64,74.37,220.72z M88.436,240.156l17.118-18.269c9.656,7.183,20.701,10.682,33.606,10.682
			c11.403,0,23.13-2.658,34.152-5.388c27.903-6.883,50.678-8.881,70.198-6.203c18.314,2.506,42.294,10.732,52.552,35.67
			c10.313,25.131,6.032,53.11-11.182,72.996c-17.682,20.443-43.569,30.279-67.842,25.557c-18.299-3.58-34.86-13.959-50.62-31.742
			c-7.317-8.257-14.325-17.285-21.112-26.01C128.928,276.356,112.033,254.623,88.436,240.156z M458.491,388.514
			c-37.247,24.41-102.524,32.85-146.667,34.587c-66.26,2.62-172.06-7.668-200.41-35.582c-12.187-12.004-20.992-54.202,0.125-95.171
			c4.789,5.875,9.387,11.933,13.921,17.909c15.147,19.967,30.798,40.624,53.121,54.142c15.435,9.354,33.03,14.279,50.881,14.279
			c0.005,0,0.005,0,0.01,0c34.282,0,65.016-17.631,82.215-47.174c14.142-24.304,16.65-54.172,6.743-79.925
			c-9.272-24.021-27.817-41.53-52.217-49.287c-19.936-6.335-42.83-7.193-73.412-2.476c-6.838,1.054-13.82,2.803-20.586,4.491
			c-6.738,1.687-13.606,3.334-20.294,4.337c46.887-67.375,123.92-115.301,206.427-75.367c35.562,17.207,72.458,58.401,95.09,89.938
			C486.343,269.055,517.827,349.602,458.491,388.514z"/>
	</g>
</g>
<g>
</g>
<g>
</g>
<g>
</g>
<g>
</g>
<g>
</g>
<g>
</g>
<g>
</g>
<g>
</g>
<g>
</g>
<g>
</g>
<g>
</g>
<g>
</g>
<g>
</g>
<g>
</g>
<g>
</g>
</svg>
