<?xml version="1.0" encoding="iso-8859-1"?>
<!-- Generator: Adobe Illustrator 16.0.0, SVG Export Plug-In . SVG Version: 6.00 Build 0)  -->
<!DOCTYPE svg PUBLIC "-//W3C//DTD SVG 1.1//EN" "http://www.w3.org/Graphics/SVG/1.1/DTD/svg11.dtd">
<svg version="1.1" id="Capa_1" xmlns="http://www.w3.org/2000/svg" xmlns:xlink="http://www.w3.org/1999/xlink" x="0px" y="0px"
	 width="467.449px" height="467.449px" viewBox="0 0 467.449 467.449" style="enable-background:new 0 0 467.449 467.449;"
	 xml:space="preserve">
<g>
	<g>
		<path d="M158.995,424.208c10.603,11.218,23.138,20.195,36.701,27.498c29.259,15.752,53.839,22.236,84.033,7.388
			c16.601-8.165,32.321-19.342,42.188-30.544c28.802-32.728,40.857-87.544,46.174-129.61c5.783-45.818,3.783-93.145,2.717-139.232
			c-0.549-23.707-37.369-23.758-36.82,0c1.935,83.437,13.238,230.053-77.246,268.64c-12.99,2.103-26.373,2.012-38.646-3.239
			c-109.321-77.5-89.807-237.19-75.537-356.159c19.956-32.009,73.859-50.147,93.884-8.793
			c26.646,55.021,35.346,117.324,32.116,177.89c-1.209,22.724-3.753,45.55-8.562,67.806c-1.777,8.227-7.16,43.783-15.371,47.992
			c-31.621,16.066-41.749-80.48-43.138-95.146c-4.05-42.879-1.143-86.031,1.331-128.905c1.369-23.732-35.457-23.597-36.818,0
			c-3.214,55.675-5.883,111.081,4.674,166.136c6.822,35.581,12.208,81.781,54.654,91.394c25.633,5.809,49.074-3.052,59.57-27.33
			c11.517-26.644,13.416-58.777,16.884-87.28c3.646-29.955,5.896-59.966,3.895-90.142c-3.94-59.442-23.333-180.413-100.95-182.515
			C105.731-2.615,101.489,91.583,96.81,165.27c-3.93,61.832-0.167,122.123,19.936,181.119
			C126.256,374.302,138.487,402.505,158.995,424.208z"/>
	</g>
</g>
<g>
</g>
<g>
</g>
<g>
</g>
<g>
</g>
<g>
</g>
<g>
</g>
<g>
</g>
<g>
</g>
<g>
</g>
<g>
</g>
<g>
</g>
<g>
</g>
<g>
</g>
<g>
</g>
<g>
</g>
</svg>
