<?xml version="1.0" encoding="iso-8859-1"?>
<!-- Generator: Adobe Illustrator 16.0.0, SVG Export Plug-In . SVG Version: 6.00 Build 0)  -->
<!DOCTYPE svg PUBLIC "-//W3C//DTD SVG 1.1//EN" "http://www.w3.org/Graphics/SVG/1.1/DTD/svg11.dtd">
<svg version="1.1" id="Capa_1" xmlns="http://www.w3.org/2000/svg" xmlns:xlink="http://www.w3.org/1999/xlink" x="0px" y="0px"
	 width="486.165px" height="486.165px" viewBox="0 0 486.165 486.165" style="enable-background:new 0 0 486.165 486.165;"
	 xml:space="preserve">
<g>
	<g>
		<path d="M405.659,87.044l0.045-0.962c0.184-3.994-1.127-7.866-3.508-10.369c-2.098-2.194-4.881-3.306-8.298-3.306h-57.351
			l-0.025-2.575c-0.036-3.453-0.062-6.906-0.066-10.37c0-1.163-0.152-2.308-0.482-3.603l-0.096-0.378l0.02-0.391
			c0.198-4.004-1.106-7.894-3.493-10.399c-2.098-2.204-4.891-3.321-8.308-3.321c-10.837,0-21.673-0.048-32.504-0.094l-2.545-0.013
			l-0.045-2.542c-0.209-11.225-0.939-20.617-2.285-29.556c-0.863-5.688-6.865-9.09-12.178-9.09l-0.726,0.016l-0.625-0.066L222.521,0
			c-3.76,0-6.857,1.409-8.975,4.08c-2.542,3.225-3.473,7.993-2.417,12.449l0.183,0.769l-0.282,0.744
			c-0.566,1.534-0.863,3.072-0.863,4.57v17.514l-2.684-0.083c-11.024-0.337-22.046-0.721-33.07-1.257l-0.541-0.01
			c-1.046,0-2.084,0.145-3.265,0.457l-0.343,0.094l-0.355-0.005h-0.005c-6.162,0-12.619,3.882-12.703,12.411
			c-0.046,4.38-0.218,8.742-0.482,13.088l-0.147,2.438l-2.442,0.005c-18.943,0.054-39.207,0.401-59.077,2.549
			c-0.66,0.074-1.257,0.239-1.856,0.396l-0.848,0.13c-6.213,0-12.42,3.831-12.42,12.4v49.14c0,2.76,0.69,5.194,2.049,7.223
			l0.442,0.655v0.79c-0.016,110.388-0.401,210.073-4.987,312.12c-0.053,1.239,0.071,2.473,0.399,3.88l0.122,0.522l-0.099,0.533
			c-0.614,3.407-0.068,6.521,1.549,8.771c1.455,2.041,3.743,3.3,6.792,3.757c99.899,14.812,198.457,16.026,307.71,16.036
			c7.896,0,10.481-6.012,11.228-8.597l0.162-0.573l0.406-0.447c2.026-2.229,3.047-5.078,3.047-8.47V95.672
			c0-3.095-0.838-5.741-2.493-7.868L405.659,87.044z M234.881,25.827h29.082l0.122,2.47c0.168,3.369,0.27,6.739,0.289,10.113
			l0.016,2.643l-9.084-0.094c-5.957-0.059-11.916-0.114-17.87-0.218l-2.554-0.048V25.827z M177.886,120.094
			c0.927-7.007,1.811-23.976,2.511-37.61c0.322-6.276,0.609-11.758,0.838-15.074l0.178-2.526l2.526,0.109
			c43.127,1.851,85.69,2.153,125.273,2.193h2.569l0.025,2.57c0.289,27.782,0.838,47.172,1.544,54.598l0.279,2.963l-2.971-0.119
			c-22.643-0.927-45.677-1.571-67.954-2.188c-20.782-0.584-41.561-1.166-62.339-1.973l-2.849-0.109L177.886,120.094z
			 M155.802,143.915c2.138,2.684,5.21,4.187,8.881,4.352c26.139,1.196,52.748,1.904,78.473,2.585
			c25.753,0.681,52.382,1.389,78.569,2.59l0.68,0.015c3.717,0,6.14-1.415,7.754-3.181c2.229-0.922,4.159-2.56,5.292-4.758
			c0.111-0.218,0.208-0.442,0.305-0.67c0.218-0.525,0.426-1.056,0.559-1.627c0.233-1.066,0.391-2.143,0.548-3.214
			c1.285-1.731,1.996-3.631,2.062-5.548c0.889-0.152,1.782-0.281,2.682-0.375c0.833-0.094,1.665-0.155,2.503-0.213
			c0.772-0.051,1.549-0.119,2.326-0.155c-4.931,59.63-4.829,151.827-5.632,211.64c-20.891,0.005-41.767,0.097-62.621,1.346
			c-6.484,0.386-9.811,5.692-9.993,10.942c-0.209,0.793-0.355,1.636-0.406,2.539c-1.128,20.135-1.265,40.299-1.29,60.459
			c-39.461-0.503-78.907-1.971-118.371-2.336c-0.825-84.619,1.498-201.652-5.588-286.048h5.22h2.615h2.605
			C152.329,136.443,153.375,140.868,155.802,143.915z M332.77,366.944c-15.112,16.418-30.371,32.692-45.468,49.125
			c0.04-16.092,0.233-32.185,0.939-48.262C303.079,367.168,317.922,366.985,332.77,366.944z M384.037,460.309h-2.601
			c-98.07-0.062-186.592-1.117-276.716-13.497l-2.341-0.325l0.099-2.366c4.296-100.585,4.654-200.918,4.659-312.248
			c0-2.768-0.691-5.2-2.06-7.234l-0.441-0.655V94.74l2.407-0.178c16.051-1.184,31.895-1.396,43.902-1.455l2.96-0.01l-0.37,2.948
			c-0.114,0.917-0.259,7.774-0.368,13.287c-0.01,0.482-0.021,0.899-0.031,1.356h-2.6h-2.6h-11.441c-1.3,0-2.537,0.287-3.691,0.754
			c-5.995-1.29-12.667,2.014-11.908,10.037c8.513,90.606,5.382,213.922,6.5,304.798c0.01,0.965,0.14,1.854,0.337,2.681
			c0.01,5.393,3.359,10.775,10.062,10.806c48.977,0.173,97.918,2.519,146.896,2.696c0.355,0,0.67-0.076,1.005-0.096
			c2.945,0.695,6.186-0.031,8.948-3.058c20.621-22.657,41.771-44.777,62.397-67.436c1.199-1.32,1.976-2.731,2.428-4.158
			c1.143-1.61,1.874-3.651,1.92-6.17c1.162-67.934,0.35-168.289,6.499-236.015c0.152-1.736-0.035-3.25-0.492-4.544
			c-0.681-4.71-3.977-8.942-9.907-8.937c-4.697,0-9.363,0.083-14.021,0.411c-0.863,0.061-1.727,0.135-2.595,0.218
			c-0.863,0.082-1.727,0.15-2.59,0.254c-0.137-5.522-0.264-10.524-0.376-11.844l-0.243-2.823h46.377v362.047H384.037z"/>
		<path d="M184.589,211.83c36.825,1.222,73.656,1.349,110.497,1.349c13.411,0,13.411-21.582,0-21.582
			c-36.841,0-73.671-0.125-110.497-1.346C171.168,189.81,171.209,211.389,184.589,211.83z"/>
		<path d="M296.386,237.456c-35.571-1.254-71.081-1.165-106.597,1.346c-13.312,0.942-13.396,22.526,0,21.576
			c35.516-2.514,71.025-2.6,106.597-1.34C309.807,259.505,309.756,237.929,296.386,237.456z"/>
		<path d="M295.086,291.405c-33.804,0.096-67.593,1.249-101.397,1.346c-13.411,0.035-13.416,21.616,0,21.576
			c33.804-0.097,67.593-1.244,101.397-1.341C308.497,312.94,308.497,291.364,295.086,291.405z"/>
	</g>
</g>
<g>
</g>
<g>
</g>
<g>
</g>
<g>
</g>
<g>
</g>
<g>
</g>
<g>
</g>
<g>
</g>
<g>
</g>
<g>
</g>
<g>
</g>
<g>
</g>
<g>
</g>
<g>
</g>
<g>
</g>
</svg>
