<?xml version="1.0" encoding="iso-8859-1"?>
<!-- Generator: Adobe Illustrator 16.0.0, SVG Export Plug-In . SVG Version: 6.00 Build 0)  -->
<!DOCTYPE svg PUBLIC "-//W3C//DTD SVG 1.1//EN" "http://www.w3.org/Graphics/SVG/1.1/DTD/svg11.dtd">
<svg version="1.1" id="Capa_1" xmlns="http://www.w3.org/2000/svg" xmlns:xlink="http://www.w3.org/1999/xlink" x="0px" y="0px"
	 width="468.796px" height="468.795px" viewBox="0 0 468.796 468.795" style="enable-background:new 0 0 468.796 468.795;"
	 xml:space="preserve">
<g>
	<g>
		<path d="M440.677,55.666c-14.919-6.261-31.066-10.384-46.798-14.007c-31.271-7.193-63.958-6.942-95.258,0.203
			c-4.637,1.054-9.263,2.333-13.858,3.777c3.52,4.113,5.697,8.311,6.368,12.602c0.604,3.92,0.833,7.959,0.935,12.037
			c43.985-13.911,91.398-10.265,134.287,7.82c-39.578,23.528-91.749,22.406-134.506,4.52c-0.264,4.849-0.625,9.711-1.031,14.522
			c-0.37,4.342-0.675,8.445-0.903,12.426c49.398,18.113,107.216,15.425,152.02-11.661c-0.203,6.977-0.325,13.957-0.493,20.934
			c-46.783,25.964-103.382,29.13-151.999,7.815c-0.183,9.1-0.345,18.214-0.478,27.347c48.906,18.255,104.282,15.813,151.862-6.236
			c-0.132,8.097-0.162,16.199-0.259,24.293c-48.652,23.171-101.758,18.096-151.897,3.037c-0.056,4.742-0.092,9.5-0.132,14.254
			c1.568-0.282,3.128-0.577,4.712-0.8c6.114-0.874,12.314-1.318,18.443-1.318c28,0,54.411,9.164,76.403,24.862
			c17.636-1.717,35.094-5.627,52.166-12.292c-0.046,6.213-0.035,12.431-0.071,18.646c-9.196,6.119-18.748,11.022-28.518,14.88
			c5.784,6.525,11.014,13.609,15.574,21.186c4.326-1.909,8.617-3.95,12.832-6.251c-0.025,8.852-0.102,17.707-0.102,26.563
			c0,0.68-0.635,1.513-1.636,2.406c2.981,7.77,5.322,15.874,6.957,24.253c5.281-3.291,10.431-6.724,15.153-10.399
			c2.919-2.266,4.188-4.926,4.372-7.577c0.37-1.213,0.635-2.508,0.635-3.98c0-53.121,0.086-106.274,1.295-159.4
			c0.314-13.7,3.438-30.128,1.3-43.604C466.59,67.292,447.786,58.644,440.677,55.666z"/>
		<path d="M179.037,340.017c-0.297,0.062-0.584,0.138-0.879,0.193c-10.166,1.874-20.525,3.026-30.919,3.402
			c-2.516,0.091-5.038,0.132-7.559,0.132c-13.65,0-27.294-1.351-40.591-4.185c-11.311-2.417-22.391-6.042-32.926-10.892
			c-4.446-2.047-31.575-13.949-31.58-19.108c0-11.05-0.104-22.1-0.13-33.149c34.683,16.955,72.003,26.162,109.037,26.162
			c12.535,0,25.032-1.107,37.396-3.271c2.352-12.502,6.327-24.466,11.71-35.627c-16.374,4.61-33.124,6.926-49.949,6.926
			c-35.655,0-71.607-9.973-104.835-28.354c-1.181-0.65-2.344-1.117-3.499-1.453c-0.058-10.496-0.041-20.995-0.124-31.488
			c39.758,13.693,80.92,22.574,121.706,22.574c22.219,0,44.323-2.684,66.049-8.607c6.355-6.038,13.297-11.451,20.736-16.14
			c10.816-6.807,22.714-12.052,35.429-15.46c0.066-6.614,0.112-13.228,0.188-19.837c0.091-7.345,0.218-14.693,0.33-22.046
			c0.147-9.366,0.294-18.725,0.492-28.091c0.051-2.313,0.071-4.631,0.122-6.947c0.066-2.993,0.259-6.113,0.482-9.274
			c0.63-8.945,1.625-18.383,1.925-27.541c0.046-1.351,0.086-2.697,0.097-4.035c0.025-4.857-0.203-9.587-0.899-14.059
			c-0.554-3.61-3.184-7.145-6.799-10.422c-8.019-7.274-20.917-13.249-26.959-15.839c-18.4-7.883-38.306-13.078-57.717-17.638
			c-18.969-4.456-38.374-6.645-57.78-6.645c-20.035,0-40.081,2.328-59.689,6.9C49.731,21.367,27.706,30.421,7.795,41.643
			c-6.406,3.608-8.386,9.519-7.528,15.14c-0.188,1.104-0.302,2.262-0.256,3.532c2.986,85.028,3.141,170.097,3.141,255.171
			c0,1.854,0.322,3.488,0.784,5.012c0.226,3.342,1.8,6.692,5.388,9.547c37.003,29.422,86.376,46.128,134.78,46.128
			c14.045,0,27.998-1.462,41.548-4.372c-2.61-7.967-4.575-16.255-5.799-24.806C179.529,344.664,179.26,342.338,179.037,340.017z
			 M132.04,41.262c33.061,0,66.189,7.13,97.383,20.561c-25.438,15.442-55.109,22.473-85.143,22.473
			c-34.38,0-69.246-9.204-98.848-25.524C73.298,46.899,102.646,41.262,132.04,41.262z M32.225,88.254
			c33.106,18.23,71.226,27.782,109.108,27.782c34.688,0,69.126-8.117,99.389-24.798c2.65-1.46,5.322-2.879,7.906-4.476
			c-0.254,8.787-0.396,17.575-0.599,26.362c-2.169,1.229-4.403,2.315-6.602,3.463c-30.486,15.896-64.003,24.103-97.51,24.103
			c-37.981,0-75.893-10.399-109.261-31.646c-0.67-0.427-1.335-0.698-2-1.011C32.504,101.441,32.405,94.848,32.225,88.254z
			 M33.492,145.348c34.273,18.364,72.31,27.398,110.388,27.398c33.56,0,67.136-7.104,98.223-20.932
			c1.722-0.762,3.464-1.46,5.17-2.27c-0.168,10.196-0.203,20.393-0.32,30.589c-1.467,0.711-2.95,1.31-4.428,1.98
			c-27.853,12.692-56.838,17.997-86.039,17.997c-41.304,0-83.043-10.415-122.671-24.829
			C33.695,165.315,33.66,155.332,33.492,145.348z"/>
		<path d="M433.989,308.016c-0.889-3.89-1.924-7.709-3.112-11.466c-1.32-4.144-2.798-8.196-4.448-12.157
			c-3.611-8.652-7.927-16.889-12.99-24.496c-5.185-7.789-11.115-14.903-17.564-21.357c-10.699-10.712-22.932-19.401-36.16-25.573
			c-14.406-6.729-29.925-10.549-45.864-10.549c-5.606,0-11.288,0.447-16.94,1.32c-1.919,0.294-3.828,0.645-5.738,1.039
			c-0.944,0.198-1.858,0.437-2.787,0.657c-1.752,0.409-3.488,0.851-5.21,1.336c-1.757,0.492-3.499,1.018-5.221,1.584
			c-3.352,1.109-6.642,2.336-9.856,3.72c-7.616,3.28-14.817,7.325-21.551,12.002c-1.27,0.878-2.519,1.772-3.752,2.696
			c-0.498,0.376-0.98,0.762-1.468,1.14c-1.782,1.374-3.512,2.798-5.21,4.258c-0.922,0.795-1.846,1.577-2.748,2.399
			c-4.309,3.926-8.34,8.146-12.088,12.604c-2.356,2.809-4.588,5.729-6.703,8.725c-8.623,12.197-15.183,25.877-19.266,40.39
			c-0.541,1.909-1.028,3.829-1.478,5.759c-0.432,1.849-0.82,3.707-1.168,5.57c-0.01,0.041-0.018,0.087-0.028,0.117
			c-1.137,6.164-1.823,12.44-2.042,18.778c-0.063,1.808-0.089,3.605-0.068,5.418c0.016,1.782,0.061,3.57,0.155,5.362
			c0.192,3.696,0.53,7.409,1.061,11.126c1.021,7.135,2.679,14.035,4.763,20.729c0.521,1.665,1.076,3.306,1.658,4.945
			c0.584,1.646,1.208,3.271,1.851,4.88c19.027,47.495,64.125,80.526,114.985,80.526c5.611,0,11.283-0.4,16.869-1.203
			c28.127-4.021,66.44-27.269,83.649-50.76c19.317-26.364,26.284-59.96,19.611-94.582
			C434.827,311.276,434.37,309.662,433.989,308.016z M224.03,292.407c0.947-2.352,1.96-4.667,3.067-6.937
			c4.182-8.552,9.48-16.483,15.752-23.577c9.633-10.902,21.459-19.819,34.951-25.705c1.701-0.736,3.469-1.336,5.216-1.98
			c1.721-0.635,3.438-1.279,5.204-1.82c1.336-0.406,2.712-0.716,4.073-1.066c1.391-0.353,2.747-0.795,4.164-1.092
			c5.799-1.206,11.648-1.818,17.392-1.818c18.083,0,34.276,5.863,48.078,15.256c9.268,6.312,17.433,14.229,24.323,23.136
			c6.627,8.562,12.106,17.986,16.22,27.767c3.22,7.662,5.651,15.508,7.145,23.277c0.071,0.345,0.091,0.681,0.147,1.025
			c4.956,27.076-0.396,53.065-15.204,73.28c-13.232,18.062-44.863,37.318-66.363,40.396c-4.372,0.619-8.801,0.939-13.183,0.939
			c-39.837,0-75.266-25.934-90.576-63.358c-0.655-1.604-1.254-3.229-1.835-4.869c-0.577-1.641-1.107-3.296-1.612-4.972
			c-1.508-5.048-2.74-10.217-3.509-15.569c-0.817-5.692-1.036-11.364-0.873-16.99c0.056-1.971,0.18-3.931,0.348-5.881
			c0.175-2.011,0.322-4.026,0.614-6.012c0.851-5.769,2.25-11.4,4.035-16.885C222.342,296.733,223.162,294.57,224.03,292.407z"/>
		<path d="M266.284,303.436c2.225,6.297,6.022,11.923,10.791,16.152c1.447,1.285,2.99,2.402,4.601,3.408
			c1.533,0.954,3.123,1.787,4.768,2.452c0.32,0.127,0.635,0.31,0.96,0.427c5.805,2.102,11.842,3.417,17.605,4.479
			c0.386,11.644,0.676,23.739,0.873,36.8c-6.347-3.504-12.532-8.216-16.782-12.837c-2.361-2.579-5.316-3.94-8.557-3.94
			c-4.834,0-9.607,3.184-11.603,7.739c-1.849,4.215-1.047,8.662,2.209,12.217c8.789,9.577,21.748,18.037,34.951,22.871l0.025,3.905
			c-0.021,3.367,1.152,6.338,3.382,8.587c2.361,2.366,5.738,3.728,9.257,3.728c5.454,0,11.34-3.483,11.385-11.151l-0.005-0.741
			c10.126-0.325,18.728-3.682,25.573-10.014c11.882-10.974,19.266-26.629,18.783-39.862c-0.279-7.811-3.26-14.727-8.617-20.256
			c-0.995-1.021-2.041-2.011-3.194-2.94c-10.263-8.196-22.551-11.821-34.475-14.37c-0.132-3.402-0.289-6.8-0.421-10.207
			c-0.224-5.454-0.442-10.902-0.681-16.361c4.083,1.087,8.033,2.488,11.562,4.113c6.743,3.117,13.64-0.777,15.254-8.109
			c0.742-3.347,0.203-7.257-2.025-10.385c-1.163-1.635-2.763-3.072-4.941-4.072c-6.276-2.9-13.472-5.104-20.937-6.424v-0.106
			c-0.34-7.896-7.013-12.147-13.111-12.147c-3.255,0-6.154,1.148-8.16,3.24c-1.939,2.031-2.895,4.794-2.752,7.962l0.01,0.173
			c-2.514,0.295-4.91,0.752-7.241,1.29c-2.311,0.548-4.55,1.188-6.657,1.976c-1.828,0.675-3.549,1.467-5.21,2.32
			c-1.833,0.944-3.585,1.971-5.205,3.118c-2.285,1.614-4.367,3.433-6.205,5.448c-1.076,1.184-1.99,2.463-2.833,3.783
			c-4.348,6.805-5.647,15.366-3.474,24.171C265.477,301.1,265.873,302.268,266.284,303.436z M350.767,349.696
			c-0.01,7.531-7.195,17.215-12.137,20.571c-2.488,1.686-5.393,2.717-8.673,3.103c-0.157-13.386-0.427-25.989-0.817-38.359
			c7.449,1.971,13.137,4.443,18.123,7.841C349.629,344.465,350.771,346.7,350.767,349.696z M304.034,305.406
			c-1.62-0.345-3.235-0.721-4.824-1.117c-5.602-1.406-10.064-5.926-10.593-10.755c-0.219-1.96,0.284-3.737,1.392-5.302
			c1-1.411,2.493-2.666,4.52-3.687c2.468-1.238,5.321-2.133,8.53-2.691c0.168,3.981,0.325,7.963,0.498,11.949
			C303.719,297.672,303.876,301.537,304.034,305.406z"/>
	</g>
</g>
<g>
</g>
<g>
</g>
<g>
</g>
<g>
</g>
<g>
</g>
<g>
</g>
<g>
</g>
<g>
</g>
<g>
</g>
<g>
</g>
<g>
</g>
<g>
</g>
<g>
</g>
<g>
</g>
<g>
</g>
</svg>
