<?xml version="1.0" encoding="iso-8859-1"?>
<!-- Generator: Adobe Illustrator 16.0.0, SVG Export Plug-In . SVG Version: 6.00 Build 0)  -->
<!DOCTYPE svg PUBLIC "-//W3C//DTD SVG 1.1//EN" "http://www.w3.org/Graphics/SVG/1.1/DTD/svg11.dtd">
<svg version="1.1" id="Capa_1" xmlns="http://www.w3.org/2000/svg" xmlns:xlink="http://www.w3.org/1999/xlink" x="0px" y="0px"
	 width="476.342px" height="476.342px" viewBox="0 0 476.342 476.342" style="enable-background:new 0 0 476.342 476.342;"
	 xml:space="preserve">
<g>
	<g>
		<path d="M303.879,239.022c-3.509,4.477-7.043,8.93-10.567,13.398c27.325,23.379,48.825,42.081,56.279,49.302
			c7.912,7.663,18.85-5.428,10.999-13.035C353.136,281.467,331.427,262.592,303.879,239.022z"/>
		<path d="M375.986,345.373c-14.396-12.583-50.546-44.188-92.435-80.669c-3.55,4.443-7.149,8.847-10.739,13.249
			c41.766,36.379,77.784,67.872,92.18,80.455C373.279,365.649,384.259,352.6,375.986,345.373z"/>
		<path d="M251.048,303.968c30.401,25.567,54.883,46.245,63.993,54.141c8.312,7.216,19.296-5.834,10.998-13.035
			c-9.1-7.886-33.58-28.568-63.977-54.136C258.411,295.299,254.77,299.661,251.048,303.968z"/>
		<path d="M32.845,154.479c-0.531,0.627-0.919,1.277-1.231,1.927c-2.615,3.268-3.199,8.191,0.878,11.723
			c16.483,14.262,50.386,42.569,90.347,75.766c4.083-4.031,8.163-8.066,12.21-12.126c-37.93-31.511-69.83-58.112-85.066-71.145
			c4.151-4.913,8.325-9.796,12.502-14.684c11.387,9.504,45.945,38.405,86.145,72.085c3.989-4.078,7.914-8.201,11.867-12.31
			c-40.52-33.943-75.446-63.149-86.892-72.704c4.35-5.027,8.691-10.062,13.089-15.043c14.19,11.39,47.756,40.081,87.046,74.012
			c3.9-4.139,7.69-8.374,11.547-12.548c-39.387-34.018-73.052-62.805-87.227-74.197c3.001-3.323,5.984-6.654,9.021-9.947
			c10.728,8.965,46.639,39.037,87.78,73.699c3.827-4.207,7.727-8.358,11.512-12.606c-41.094-34.624-76.967-64.67-87.618-73.562
			c3.413-3.578,6.843-7.125,10.311-10.649c16.234,12.593,49.16,39.7,87.925,71.955c3.74-4.286,7.482-8.574,11.179-12.901
			c-39.212-32.628-72.6-60.095-89.573-73.229c-1.32-5.631-9.641-9.765-15.219-4.237c-0.932,0.919-1.836,1.866-2.763,2.788
			c-0.109-0.084-0.185-0.178-0.299-0.262c-11.306-7.874-21.899-16.613-32.423-25.489c-0.666-0.561-1.346-0.957-2.031-1.274
			c-3.273-2.666-8.378-3.399-12.159,0.462c-24.6,25.142-47.24,51.834-67.806,80.385c-0.518,0.724-0.868,1.462-1.147,2.206
			c-1.841,3.222-2.009,7.549,1.251,10.897c9.445,9.714,19.012,19.291,29.198,28.226C34.416,152.626,33.629,153.548,32.845,154.479z
			 M22.742,116.285c17.882-24.336,37.242-47.35,58.102-69.169c9.016,7.541,18.139,14.919,27.769,21.68
			c-21.658,22.519-42.152,46.085-62.383,69.896C38.088,131.547,30.333,123.996,22.742,116.285z"/>
		<path d="M457.671,323.432c-0.406-0.523-0.889-1.036-1.473-1.519c-22.358-18.321-74.697-62.343-131.226-109.763
			c-3.523,4.471-7.048,8.937-10.557,13.421c54.146,45.415,103.773,87.15,124.572,104.253c-23.449,32.484-50.454,61.81-81.11,87.615
			c-19.591-16.863-66.877-56.229-119.134-99.624c-3.806,4.239-7.635,8.454-11.535,12.613
			c53.453,44.331,101.902,84.624,122.697,102.621c0.665,0.579,1.346,0.979,2.031,1.31c1.355,1.707,3.239,2.874,5.321,3.077
			c1.011,0.798,2.27,1.412,3.849,1.681c33.789,5.779,67.675,10.639,101.926,12.528c5.459,0.305,8.942-3.813,9.648-8.054
			c0.142-0.65,0.223-1.336,0.218-2.072c-0.294-38.466-4.854-76.449-12.979-114.031C459.514,325.676,458.701,324.365,457.671,323.432
			z M376.017,424.28c26.192-22.983,49.86-48.403,70.777-76.297c2.823,15.117,4.905,30.351,6.378,45.641
			c-0.646,0.355-1.274,0.777-1.869,1.325c-11.948,11.07-22.963,22.973-33.524,35.363C403.829,428.591,389.91,426.55,376.017,424.28z
			 M438.405,432.577c5.316-5.967,10.775-11.791,16.422-17.442c0.36,6.307,0.66,12.618,0.812,18.936
			C449.881,433.654,444.143,433.136,438.405,432.577z"/>
		<path d="M235.786,291.13c3.43-4.555,6.873-9.089,10.306-13.619c3.474-4.58,7.002-9.114,10.567-13.613
			c3.529-4.454,7.149-8.831,10.847-13.157c2.082-2.428,4.107-4.891,6.266-7.267c1.315-1.452,2.646-2.895,3.961-4.353
			c3.824-4.207,7.652-8.414,11.486-12.616c3.793-4.169,7.566-8.361,11.345-12.54c3.818-4.222,7.611-8.467,11.39-12.725
			c8.658-9.76,17.144-19.675,25.415-29.8c1.625-1.991,3.312-3.925,4.921-5.939c31.879,10.641,71.391,11.088,94.313-17.694
			c22.982-28.858,20.9-65.831,7.825-98.515c-0.092-0.282-0.188-0.564-0.315-0.818c-0.132-0.317-0.243-0.64-0.376-0.952
			c-3.523-8.511-16.184-3.966-14.609,4.156c-5.859,20.269-18.194,39.793-39.607,45.732c-15.809,4.377-34.449,1.242-48.251-7.609
			c-10.842-6.952-23.872-19.06-21.993-33.444c2.742-20.908,26.639-31.128,43.955-37.445c2.326-0.848,3.691-2.376,4.301-4.138
			c6.465-2.813,6.987-13.947-1.422-14.435c-34.896-2.044-72.041,4.778-97.949,29.915c-22.165,21.505-22.805,51.021-12.608,77.731
			c0.858,2.247,1.763,4.479,2.768,6.678c1.163,2.554-14.065,21.345-16.102,24.323c-0.566,0.833-1.181,1.635-1.747,2.46
			c-3.24,4.702-6.594,9.318-9.923,13.952c-2.188,3.042-4.288,6.147-6.515,9.163c-1.013,1.371-2.1,2.694-3.121,4.06
			c-3.41,4.555-6.893,9.059-10.405,13.536c-2.963,3.79-5.954,7.556-8.991,11.288c-3.583,4.41-7.228,8.772-10.915,13.099
			c-1.518,1.785-2.958,3.631-4.497,5.397c-2.554,2.938-5.164,5.825-7.759,8.725c-3.796,4.24-7.632,8.444-11.507,12.611
			c-1.805,1.94-3.583,3.9-5.403,5.819c-2.579,2.728-5.25,5.363-7.86,8.055c-3.958,4.082-7.878,8.2-11.913,12.207
			c-0.023,0.021-0.063,0.066-0.089,0.086c-2.59,2.621-17.28,19.83-19.911,19.165c-0.165-0.041-0.333-0.071-0.505-0.112
			c-30.095-7.449-62.256-2.671-80.752,25.009c-20.045,30.017-20.061,67.781-11.768,101.737c2.003,8.186,12.854,5.662,14.457-1.203
			c1.622-0.909,2.879-2.529,3.291-4.977c3.105-18.153,8.846-43.503,28.917-49.973c13.807-4.448,28.068,6.181,36.861,15.595
			c11.197,11.979,17.644,29.752,16.184,46.083c-1.978,22.145-18.958,37.795-37.841,47.215c-8.267-0.081-10.46,13.188-1.45,15.117
			c0.333,0.071,0.67,0.127,1.003,0.193c0.277,0.081,0.561,0.127,0.858,0.167c34.512,6.967,71.254,2.347,95.497-25.466
			c20.898-23.974,18.057-56.203,6.436-83.518c-1.826-4.281-3.841-8.455-6.038-12.446c-0.81-1.468,20.375-24.242,22.505-26.878
			c1.539-1.898,3.006-3.874,4.535-5.783c3.552-4.459,7.046-8.953,10.529-13.462c2.283-2.945,4.644-5.835,6.896-8.806
			C232.795,295.116,234.288,293.121,235.786,291.13z M202.132,309.649c-6.043,7.587-12.2,15.071-18.456,22.485
			c-3.583,4.24-7.097,8.547-10.758,12.721c-2.125,2.422-2.308,5.134-1.389,7.434c-0.3,1.641-0.081,3.438,0.973,5.246
			c0.223,0.386,0.426,0.771,0.645,1.157c1.623,2.849,3.151,5.749,4.54,8.704c10.77,22.952,13.713,48.723-2.684,70.492
			c-14.287,18.967-38.146,24.268-60.989,23.171c15.267-11.507,26.708-26.918,29.272-47.144c2.829-22.358-6.414-44.148-21.008-60.656
			c-12.865-14.559-32.578-23.674-51.917-18.606c-16.082,4.22-25.758,18.307-31.692,33.805c-0.447-17.235,2.537-34.363,10.474-50.201
			c14.434-28.808,45.227-31.763,73.146-23.739c2.442,0.7,4.431,0.188,5.911-0.95c0.599-0.462,1.13-0.99,1.551-1.63
			c4.959-7.53,14.975-14.122,21.439-20.525c0.731-0.726,1.43-1.487,2.163-2.214c4.055-4.047,8.018-8.175,11.994-12.294
			c2.486-2.574,5.04-5.072,7.493-7.672c1.924-2.031,3.76-4.145,5.665-6.195c3.867-4.172,7.731-8.356,11.517-12.604
			c4.093-4.593,8.077-9.283,12.063-13.967c3.184-3.74,6.439-7.421,9.549-11.228c0.487-0.597,0.949-1.211,1.435-1.81
			c3.077-3.781,6.073-7.627,9.084-11.459c3.514-4.479,6.987-8.98,10.415-13.53c3.296-4.38,6.594-8.757,9.806-13.198
			c3.349-4.629,6.594-9.323,9.844-14.013c3.483-5.024,6.927-10.067,10.304-15.158c3.503-5.273,7.007-10.537,10.384-15.876
			c1.925-1.841,2.778-4.613,1.193-7.805c-12.929-26.01-15.574-56.83,10.166-76.226c14.143-10.659,30.453-16.681,47.489-19.352
			c-14.173,8.63-26.283,20.69-27.532,37.267c-1.503,19.937,11.019,37.679,27.659,47.708c18.875,11.377,41.965,16.541,63.444,9.724
			c19.434-6.167,32.534-20.198,41.091-37.288c5.2,22.27,4.291,46.694-11.791,64.165c-21.149,22.978-52.064,21.93-79.485,12.032
			c-1.965-0.711-3.778-0.604-5.337-0.01c-2.422-0.487-5.053,0.178-7.054,2.704c-2.863,3.607-5.875,7.056-8.805,10.592
			c-7.779,9.364-15.731,18.552-23.856,27.563c-3.813,4.227-7.612,8.465-11.461,12.662c-3.788,4.124-7.566,8.252-11.364,12.375
			c-3.845,4.182-7.653,8.415-11.481,12.622c-3.428,3.77-6.886,7.513-10.288,11.329c-0.021,0.03-0.046,0.056-0.071,0.081
			c-3.778,4.23-7.357,8.598-10.831,13.03c-3.61,4.601-7.104,9.283-10.547,14.005c-3.359,4.602-6.675,9.232-10.029,13.848
			c-3.374,4.642-6.782,9.268-10.295,13.828c-0.312,0.406-0.64,0.797-0.952,1.203C209.266,300.769,205.679,305.191,202.132,309.649z"
			/>
	</g>
</g>
<g>
</g>
<g>
</g>
<g>
</g>
<g>
</g>
<g>
</g>
<g>
</g>
<g>
</g>
<g>
</g>
<g>
</g>
<g>
</g>
<g>
</g>
<g>
</g>
<g>
</g>
<g>
</g>
<g>
</g>
</svg>
