<?xml version="1.0" encoding="iso-8859-1"?>
<!-- Generator: Adobe Illustrator 16.0.0, SVG Export Plug-In . SVG Version: 6.00 Build 0)  -->
<!DOCTYPE svg PUBLIC "-//W3C//DTD SVG 1.1//EN" "http://www.w3.org/Graphics/SVG/1.1/DTD/svg11.dtd">
<svg version="1.1" id="Capa_1" xmlns="http://www.w3.org/2000/svg" xmlns:xlink="http://www.w3.org/1999/xlink" x="0px" y="0px"
	 width="451.139px" height="451.139px" viewBox="0 0 451.139 451.139" style="enable-background:new 0 0 451.139 451.139;"
	 xml:space="preserve">
<g>
	<g>
		<path d="M323.998,349.409c-23.105,2.534-43.366,20.353-49.546,42.36c-47.479,2.702-95.032,4.951-142.595,5.398
			c-9.344-39.989-11.06-80.709-9.905-121.658c45.471-0.046,90.924-0.416,136.326-3.148c6.759,21.419,29.909,32.307,53.705,32.129
			c15.016-0.117,33.261-3.347,45.564-12.472c15.655-11.624,21.114-25.35,19.773-38.521c-2.894-28.422-37.455-54.259-69.553-50.734
			c-21.917,2.402-41.228,18.57-48.434,39.004c-45.326,2.768-90.703,3.25-136.105,3.301c2.714-48.343,7.823-96.827,7.805-144.646
			c10.037-1.787,19.974-5.174,27.617-10.841c15.653-11.624,21.111-25.349,19.771-38.521c-2.892-28.421-37.45-54.263-69.553-50.734
			C82.494,3.213,59.824,26.023,57.577,52.251c-2.432,28.411,18.377,44.859,43.066,48.825
			c-0.005,105.089-23.473,212.219,4.581,315.515c1.929,7.13,7.307,10.426,12.979,10.761c1.155,0.259,2.387,0.421,3.727,0.411
			c51.277-0.193,102.553-2.681,153.741-5.606c7.947,19.332,29.955,29.153,52.552,28.98c15.016-0.111,33.261-3.342,45.564-12.467
			c15.655-11.623,21.114-25.349,19.773-38.521C390.656,371.723,356.101,345.886,323.998,349.409z M312.689,233.418
			c31.519-3.265,47.961,33.794,10.618,41.143c-0.493-0.006-0.939-0.076-1.458-0.041
			C289.884,276.622,271.512,237.689,312.689,233.418z M113.787,30.975c31.521-3.265,47.959,33.794,10.613,41.142
			c-0.487-0.005-0.935-0.076-1.45-0.04C90.982,74.173,72.61,35.245,113.787,30.975z M339.541,421.207
			c-0.487-0.005-0.934-0.076-1.452-0.041c-31.966,2.107-50.338-36.83-9.16-41.101C360.447,376.795,376.885,413.859,339.541,421.207z
			"/>
	</g>
</g>
<g>
</g>
<g>
</g>
<g>
</g>
<g>
</g>
<g>
</g>
<g>
</g>
<g>
</g>
<g>
</g>
<g>
</g>
<g>
</g>
<g>
</g>
<g>
</g>
<g>
</g>
<g>
</g>
<g>
</g>
</svg>
