<?xml version="1.0" encoding="iso-8859-1"?>
<!-- Generator: Adobe Illustrator 16.0.0, SVG Export Plug-In . SVG Version: 6.00 Build 0)  -->
<!DOCTYPE svg PUBLIC "-//W3C//DTD SVG 1.1//EN" "http://www.w3.org/Graphics/SVG/1.1/DTD/svg11.dtd">
<svg version="1.1" id="Capa_1" xmlns="http://www.w3.org/2000/svg" xmlns:xlink="http://www.w3.org/1999/xlink" x="0px" y="0px"
	 width="484.225px" height="484.226px" viewBox="0 0 484.225 484.226" style="enable-background:new 0 0 484.225 484.226;"
	 xml:space="preserve">
<g>
	<g>
		<path d="M412.914,192.604c-0.184-0.774-0.457-1.475-0.752-2.146c0.3-0.817,0.533-1.696,0.67-2.648
			c8.506-59.63-8.987-115.27-59.255-150.791C299.252-1.37,193.91-19.877,141.838,31.451c-13.81,13.614-30.316,37.699-34.647,56.843
			c-0.079,0.345-0.071,0.667-0.119,1.005c-0.312,0.546-0.63,1.087-0.874,1.722c-5.149,13.223-13.723,22.77-25.245,30.579
			c-1.191,0.442-2.381,1.057-3.537,2.011c-12.868,10.676-18.522,25.065-17.966,41.279c-0.602,2.224-0.546,4.735,0.51,7.403
			c9.978,25.261,8.013,50.521-1.95,75.431c-0.129,0.325-0.17,0.635-0.279,0.955c-1.264,2.082-1.851,4.688-1.244,7.805
			c7.29,37.217,21.294,71.925,48.937,97.919c5.677,5.342,15.848,5.611,18.293-3.895c2.407-9.395,4.804-18.784,7.627-28.057
			c19.822,14.102,34.543,32.814,42.571,56.731c1.166,3.458,3.298,5.464,5.781,6.343c2.067,1.406,4.624,2.239,7.645,2.046
			c42.244-2.691,84.541-3.737,126.856-4.712c1.427-0.036,2.701-0.335,3.884-0.752c5.546,0.157,11.188-3.077,11.843-10.212
			c1.233-13.426,2.935-27.334,9.754-39.237c0.051-0.071,0.066-0.152,0.107-0.229c3.493-2.168,7.718-4.169,11.729-2.966
			c9.506,2.869,13.137,35.79,28.284,20.846c25.105-24.756,40.787-54.314,46.789-88.865c1.264-2.082,1.808-4.728,1.03-7.906
			L412.914,192.604z M404.149,256.002c-3.728,24.385-13.563,46.266-28.818,64.973c-3.904-5.662-9.003-10.298-15.853-13.264
			c-14.727-6.378-34.124,2.28-40.807,15.468c-5.891,11.634-8.942,23.968-10.705,36.78c-38.379,0.908-76.748,2.025-115.077,4.27
			c-11.443-29.686-33.215-53.485-61.093-68.953c-7.576-4.199-15.333,0.522-17.877,6.602c-0.264,0.502-0.536,0.984-0.744,1.563
			c-2,5.596-3.732,11.269-5.354,16.971c-13.281-19.946-22.917-41.7-27.891-65.181c11.578-29.231,12.936-59.194,2.427-88.642
			c0.074-0.845,0.089-1.708,0.01-2.577c-0.759-9.049,2.768-16.551,9.567-22.307c0.708-0.292,1.409-0.629,2.098-1.077
			c15.681-10.141,27.076-24.118,33.87-41.507c0.426-0.84,0.802-1.762,1.046-2.844c5.651-25.022,19.989-44.62,42.185-57.586
			c1.785-1.041,3.085-2.356,4.052-3.813c51.344-14.6,112.881-9.438,159.283,17.415c48.541,28.083,62.754,80.973,55.249,133.612
			c-0.285,1.97-0.092,3.691,0.416,5.194c-0.457,1.643-0.549,3.499-0.046,5.604l14.183,58.797
			C404.24,255.677,404.179,255.819,404.149,256.002z"/>
		<path d="M218.526,208.833c-0.292-0.566-0.615-1.127-0.968-1.679c-6.573-10.27-23.325-17.133-34.007-19.885
			c-0.229-0.056-0.447-0.071-0.676-0.12c-2.122-1.389-4.821-2.049-8.086-1.404c-21.747,4.326-39.933,16.765-51.146,35.957
			c-4.461,3.219-5.672,9.031-3.702,14.249c4.867,12.901,10.915,25.341,20.294,35.604c1.557,3.077,4.446,5.505,8.851,6.038
			c35.49,4.261,51.686-3.174,63.817-35.584C216.918,231.298,224.307,220.149,218.526,208.833z M184.866,251.025
			c-0.218,0.6-0.322,1.179-0.447,1.752c-9.224,2.088-18.453,2.758-27.835,2.133c-5.542-6.565-9.506-13.911-12.807-21.731
			c7.721-12.22,18.329-20.441,32.44-23.935c7.521,2.039,14.145,5.527,20.343,9.869L184.866,251.025z"/>
		<path d="M374.158,221.703c-11.217-19.192-29.401-31.631-51.15-35.957c-3.265-0.646-5.956,0.015-8.089,1.404
			c-0.224,0.048-0.447,0.063-0.67,0.12c-13.005,3.349-24.583,10.785-34.77,19.364c-5.459,4.601-6.195,11.466-4.717,18.73
			c2.214,10.862,9.379,22.614,13.151,29.054c13.894,23.623,33.662,26.426,60.788,23.166c4.403-0.528,7.298-2.956,8.852-6.038
			c9.384-10.263,15.432-22.704,20.297-35.604C379.831,230.734,378.622,224.928,374.158,221.703z M341.212,254.905
			c-2.098,2.493-20.602,0.198-23.928-1.762c-9.709-5.733-12.41-24.098-16.052-34.025c6.2-4.347,12.822-7.83,20.343-9.869
			c14.111,3.494,24.72,11.71,32.443,23.936C350.718,240.994,346.762,248.34,341.212,254.905z"/>
		<path d="M367.881,370.729c-3.646-4.418-11.988-6.154-16.325-1.559c-7.444,7.886-14.965,15.655-23.161,22.76
			c-0.086,0.045-0.172,0.061-0.269,0.106c-1.438,0.751-2.793,1.66-4.144,2.574c-0.158,0.005-0.3-0.03-0.468-0.021
			c-42.487,2.229-84.924,3.596-127.401,0.65c-1.435-0.752-3.161-1.198-5.258-1.152c-14.907,0.319-27.381-2.956-37.765-14.143
			c-1.335-1.432-2.803-2.402-4.321-3.021c-4.936-10.852-24.034-6.353-21.83,7.241c1.8,11.116,2.523,22.317,3.13,33.55
			c0.099,1.772,0.787,3.337,1.811,4.688c0.223,0.614,0.457,1.229,0.807,1.858c9.671,17.286,23.102,31.017,39.327,42.279
			c1.335,0.925,2.681,1.478,4.009,1.803c8.973,6.032,18.905,10.12,29.023,13.832c0.137,0.051,0.271,0.057,0.406,0.102
			c1.457,0.879,3.214,1.468,5.347,1.569c35.622,1.615,70.884-1.935,105.521-10.395c0.27-0.071,0.482-0.183,0.741-0.259
			c1.666,0.081,3.443-0.193,5.302-1.001c21.465-9.287,36.277-26.146,41.654-49.012c0.036-0.158,0.03-0.305,0.056-0.457
			c0.412-0.696,0.742-1.442,0.939-2.266c3.185-13.024,6.246-26.055,6.343-39.531c0.016-2.001-0.411-3.743-1.132-5.261
			C369.898,373.979,369.176,372.303,367.881,370.729z M343.253,412.48l-0.005,0.015c-0.401,0.808-0.757,1.687-0.99,2.712
			c-3.936,16.727-12.604,27.97-27.965,35.135c-0.665,0.051-1.34,0.116-2.057,0.289c-32.393,7.916-65.135,11.547-98.474,10.136
			c-0.249-0.106-0.452-0.254-0.729-0.351c-8.693-3.194-17.184-6.398-24.818-11.75c-1.242-0.874-2.506-1.402-3.76-1.747
			c-12.385-8.744-23.257-19.048-30.729-32.413c-0.256-0.457-0.561-0.822-0.848-1.224c-0.089-1.579-0.188-3.163-0.282-4.737
			c10.415,5.87,22.132,8.688,35.053,8.612c1.186,0.522,2.491,0.913,4.02,1.03c44.069,3.234,88.08,1.676,132.142-0.594
			c2.61,0.797,5.459,0.736,7.987-0.589c1.564-0.818,3.042-1.798,4.499-2.793c0.473-0.33,0.939-0.671,1.401-1.011
			c0.102-0.076,0.117-0.097,0.193-0.152c0.025-0.01,0.046-0.03,0.071-0.046c1.442-0.427,2.89-1.193,4.28-2.382
			c0.615-0.527,1.199-1.081,1.813-1.614C343.777,410.17,343.538,411.322,343.253,412.48z"/>
		<path d="M233.828,266.742c-5.736,0-12.365,5.301-11.59,11.588c1.102,8.982,0.249,17.296-2.486,25.897
			c-4.535,14.29,17.852,20.357,22.356,6.16c3.272-10.329,4.634-21.277,3.309-32.058
			C244.649,272.059,240.724,266.742,233.828,266.742z"/>
		<path d="M275.843,273.983c-0.208-14.935-23.384-14.955-23.181,0c0.183,14.051,4.153,27.629,14.984,37.176
			c11.162,9.841,27.619-6.489,16.387-16.392C277.651,289.136,275.95,282.28,275.843,273.983z"/>
	</g>
</g>
<g>
</g>
<g>
</g>
<g>
</g>
<g>
</g>
<g>
</g>
<g>
</g>
<g>
</g>
<g>
</g>
<g>
</g>
<g>
</g>
<g>
</g>
<g>
</g>
<g>
</g>
<g>
</g>
<g>
</g>
</svg>
