<?xml version="1.0" encoding="iso-8859-1"?>
<!-- Generator: Adobe Illustrator 16.0.0, SVG Export Plug-In . SVG Version: 6.00 Build 0)  -->
<!DOCTYPE svg PUBLIC "-//W3C//DTD SVG 1.1//EN" "http://www.w3.org/Graphics/SVG/1.1/DTD/svg11.dtd">
<svg version="1.1" id="Capa_1" xmlns="http://www.w3.org/2000/svg" xmlns:xlink="http://www.w3.org/1999/xlink" x="0px" y="0px"
	 width="479.18px" height="479.18px" viewBox="0 0 479.18 479.18" style="enable-background:new 0 0 479.18 479.18;"
	 xml:space="preserve">
<g>
	<g>
		<path d="M478.61,232.372c0.056-1.257,0-2.537-0.279-3.816c-1.752-7.935-5.774-15.595-12.056-20.873
			c-5.896-4.954-12.466-7.454-19.728-8.808c-1.98-1.242-4.281-1.991-6.754-1.96c-14.305,0.178-26.243,4.946-34.627,16.836
			c-1.93,2.737-2.229,6.096-1.452,9.236c-2.56,4.81-4.261,10.058-4.87,16.009c-0.898,8.846,3.636,17.321,9.445,24.019
			c-19.393,26.02-49.673,48.87-83.705,40.386c-20.713-5.165-32.352-27.93-39.37-46.083c-16.198-41.875-18.275-88.154-22.454-132.565
			c4.971-1.15,9.815-3.146,14.365-6.312c1.361-0.947,2.529-2.082,3.493-3.328c0.889-0.795,1.727-1.653,2.474-2.638
			c6.444-8.516,8.297-19.54,6.972-29.96c-0.04-0.323-0.127-0.625-0.183-0.942c0.051-1.257,0-2.537-0.279-3.816
			c-1.752-7.935-5.773-15.594-12.055-20.873c-5.896-4.953-12.467-7.457-19.729-8.808c-1.98-1.241-4.285-1.99-6.753-1.96
			c-14.305,0.178-26.246,4.946-34.627,16.836c-1.929,2.737-2.231,6.096-1.455,9.237c-2.56,4.809-4.261,10.057-4.867,16.008
			c-1.171,11.481,6.799,22.371,14.855,29.506c2.039,1.803,4.232,2.76,6.421,3.161c1.341,0.624,2.709,1.127,4.078,1.643
			c-6.5,51.066-13.843,107.168-41.927,151.29c-29.838,46.87-80.795,28.184-119.972,4.348c6.018-8.42,7.774-19.099,6.49-29.234
			c-0.041-0.32-0.125-0.625-0.183-0.939c0.053-1.26,0-2.539-0.279-3.818c-1.752-7.935-5.771-15.595-12.053-20.873
			c-5.898-4.954-12.472-7.457-19.73-8.808c-1.98-1.244-4.283-1.991-6.754-1.96c-14.305,0.178-26.243,4.946-34.626,16.836
			c-1.927,2.737-2.229,6.096-1.455,9.237c-2.559,4.809-4.258,10.057-4.867,16.009c-1.17,11.481,6.802,22.373,14.856,29.508
			c2.039,1.803,4.232,2.757,6.423,3.158c7.236,3.362,14.906,5.145,22.483,5.022c13.599,33.561,27.017,67.177,43.028,99.681
			c0.579,1.178,1.274,2.128,2.019,2.971c0.487,3.255,2.465,6.281,6.545,8.195c90.987,42.66,192.97,35.008,286.908,6.511
			c4.048-1.229,6.622-3.753,7.968-6.754c2.757-1.407,5.083-3.824,6.312-7.525c13.127-39.629,25.461-79.506,38.172-119.262
			c10.648,1.63,21.459-0.213,31.011-6.865c1.361-0.944,2.528-2.082,3.493-3.326c0.889-0.797,1.727-1.655,2.474-2.641
			c6.443-8.516,8.297-19.54,6.972-29.96C478.757,232.991,478.671,232.689,478.61,232.372z M52.664,256.688
			c-1.632,6.688-8.173,11.73-16.846,8.303c-20.586-8.12-1.915-36.414,12.972-21.658C52.702,247.212,53.73,252.306,52.664,256.688z
			 M258.784,76.938c3.915,3.88,4.951,8.97,3.88,13.355c-1.635,6.688-8.176,11.73-16.849,8.302
			C225.222,90.468,243.893,62.181,258.784,76.938z M372.592,385.409c-85.355,25.461-179.214,34.23-262.254-3.976
			c-0.236-0.854-0.541-1.712-0.972-2.58c-10.926-22.176-20.556-44.895-29.917-67.74c42.02,21.038,89.512,29.147,125.764-10.055
			c21.325-23.063,33.624-53.811,41.532-86.183c4.865,27.246,12.589,53.649,26.589,77.333c13.294,22.506,34.24,36.292,60.139,38.842
			c23.338,2.306,44.681-6.17,62.886-19.622C388.547,336.128,380.707,360.816,372.592,385.409z M451.387,241.088
			c-1.635,6.688-8.176,11.73-16.854,8.303c-20.586-8.12-1.914-36.414,12.975-21.657
			C451.423,231.612,452.458,236.703,451.387,241.088z"/>
		<path d="M292.437,342.389c0.061-1.508,0-3.031-0.341-4.561c-2.092-9.49-6.896-18.641-14.406-24.953
			c-7.053-5.92-14.908-8.916-23.582-10.526c-2.371-1.482-5.123-2.382-8.068-2.346c-17.105,0.208-31.377,5.911-41.394,20.129
			c-2.303,3.271-2.666,7.287-1.742,11.045c-3.057,5.743-5.091,12.02-5.819,19.139c-1.399,13.726,8.127,26.745,17.763,35.271
			c2.435,2.153,5.06,3.296,7.68,3.778c17.862,8.282,37.893,8.774,54.67-2.899c1.62-1.128,3.021-2.483,4.179-3.977
			c1.057-0.954,2.062-1.976,2.95-3.153c7.698-10.182,9.918-23.363,8.339-35.814C292.608,343.13,292.502,342.765,292.437,342.389z
			 M259.887,352.804c-1.955,7.998-9.771,14.021-20.147,9.928c-24.61-9.715-2.288-43.528,15.506-25.894
			C259.932,341.475,261.171,347.568,259.887,352.804z"/>
		<path d="M129.342,346.41c-16.765,0-16.765,26,0,26C146.106,372.41,146.106,346.41,129.342,346.41z"/>
		<path d="M345.136,376.31c16.767,0,16.767-25.999,0-25.999C328.373,350.311,328.373,376.31,345.136,376.31z"/>
	</g>
</g>
<g>
</g>
<g>
</g>
<g>
</g>
<g>
</g>
<g>
</g>
<g>
</g>
<g>
</g>
<g>
</g>
<g>
</g>
<g>
</g>
<g>
</g>
<g>
</g>
<g>
</g>
<g>
</g>
<g>
</g>
</svg>
