<?xml version="1.0" encoding="iso-8859-1"?>
<!-- Generator: Adobe Illustrator 16.0.0, SVG Export Plug-In . SVG Version: 6.00 Build 0)  -->
<!DOCTYPE svg PUBLIC "-//W3C//DTD SVG 1.1//EN" "http://www.w3.org/Graphics/SVG/1.1/DTD/svg11.dtd">
<svg version="1.1" id="Capa_1" xmlns="http://www.w3.org/2000/svg" xmlns:xlink="http://www.w3.org/1999/xlink" x="0px" y="0px"
	 width="497.786px" height="497.787px" viewBox="0 0 497.786 497.787" style="enable-background:new 0 0 497.786 497.787;"
	 xml:space="preserve">
<g>
	<g>
		<path d="M142.922,298.119c-23.523,35.14-45.712,71.046-66.521,107.734c-0.094,0.162-0.137,0.319-0.224,0.482
			c-8.086,8.83-3.552,24.44,8.892,18.509c39.972-19.062,80.014-37.973,119.3-58.661c-1.503-7.418-2.948-14.822-4.342-22.221
			c-29.094,15.452-58.623,29.895-88.268,44.077c16.717-28.335,34.256-56.254,52.674-83.675
			C157.242,302.343,150.066,300.266,142.922,298.119z"/>
		<path d="M135.193,187.596c7.452-1.48,14.889-2.904,22.312-4.273c-14.485-27.482-28.099-55.337-41.484-83.302
			c29.795,17.575,59.103,36.092,87.869,55.556c2.214-7.061,4.397-14.221,6.556-21.459c-36.559-24.644-73.989-47.766-112.233-69.454
			c-0.167-0.094-0.322-0.137-0.482-0.224c-8.836-8.086-24.445-3.552-18.512,8.896C97.464,111.597,115.539,149.936,135.193,187.596z"
			/>
		<path d="M238.004,170.775c-0.109,0.353-0.223,0.698-0.333,1.051c0.068-0.048,0.119-0.099,0.193-0.147
			C237.913,171.379,237.959,171.078,238.004,170.775z"/>
		<path d="M326.839,278c-0.538-0.03-1.087-0.071-1.63-0.106l0.203,0.391C325.889,278.193,326.356,278.091,326.839,278z"/>
		<path d="M408.472,112.948c-11.912,25.938-28.289,54.438-45.996,82.507c7.013,2.079,14.081,4.123,21.155,6.142
			c21.343-34.513,40.994-69.984,55.08-102.641c1.188-2.75,1.336-5.101,0.812-7.041c0.508-2.547,0.325-5.111-0.711-7.16
			c-2.817-5.562-9.602-6.271-15.609-3.011c-0.543,0.307-1.097,0.589-1.65,0.868c0.076-0.051-0.264,0.094-1.137,0.495
			c-1.585,0.69-3.185,1.325-4.784,1.98c-3.722,1.523-7.419,3.199-10.999,5.144c-24.374,13.868-52.141,29.95-80.252,45.55
			c1.655,7.462,3.209,14.776,4.672,21.896C356.875,142.316,384.311,126.542,408.472,112.948z"/>
		<path d="M355.966,232.102c-3.742-1.097-7.479-2.204-11.202-3.318c2.682,1.087,5.373,2.117,8.12,3.021
			C353.909,231.904,354.936,232.003,355.966,232.102z"/>
		<path d="M306.704,374.481c33.175,20.332,67.075,38.979,98.396,52.491c2.747,1.184,5.098,1.33,7.038,0.812
			c2.544,0.508,5.113,0.325,7.154-0.706c5.565-2.823,6.271-9.607,3.012-15.609c-0.305-0.549-0.589-1.097-0.868-1.655
			c0.051,0.076-0.092-0.265-0.487-1.138c-0.691-1.585-1.326-3.185-1.98-4.783c-1.523-3.718-3.199-7.419-5.145-10.999
			c-14.706-25.848-31.91-55.503-48.383-85.346c-7.119,1.604-14.396,3.184-21.82,4.737c16.225,29.534,33.083,58.823,47.484,84.447
			c-24.531-11.263-51.354-26.548-77.947-43.147C311.062,360.568,308.908,367.535,306.704,374.481z"/>
		<path d="M167.492,299.839c11.179,3.134,22.399,6.16,33.725,8.933c1.737,10.552,3.613,21.063,5.553,31.564
			c1.379,7.465,2.813,14.909,4.291,22.344c8.123,40.766,17.73,81.125,28.765,121.089c0.053,0.183,0.129,0.325,0.188,0.498
			c0.531,11.964,14.777,19.799,19.38,6.799c14.158-39.958,28.438-79.866,41.178-120.398c2.188-6.967,4.326-13.959,6.418-20.967
			c3.692-12.396,7.252-24.842,10.542-37.39c7.765-1.498,15.63-3.082,23.526-4.728c7.246-1.513,14.519-3.087,21.805-4.728
			c43.823-9.866,87.718-22.033,124.34-36.576c2.782-1.112,4.55-2.666,5.545-4.408c2.163-1.442,3.85-3.382,4.561-5.555
			c0.497-1.514,0.578-2.976,0.33-4.353c-0.727-4.047-4.353-7.368-9.237-8.817c-0.604-0.165-1.188-0.363-1.782-0.556
			c0.092,0.02-0.249-0.12-1.147-0.452c-1.615-0.634-3.194-1.315-4.778-1.98c-3.718-1.557-7.511-2.986-11.421-4.146
			c-27.741-7.617-59.676-16.103-91.388-25.215c-7.114-2.041-14.188-4.123-21.236-6.228c-9.715-2.902-19.337-5.85-28.686-8.856
			c-2.031-11.08-4.22-22.406-6.566-33.834c-1.482-7.249-3.041-14.539-4.656-21.845C306.674,94.52,294.137,48.627,279.02,10.578
			c-1.107-2.787-2.666-4.55-4.408-5.547c-1.437-2.163-3.377-3.846-5.561-4.56c-5.926-1.945-11.227,2.361-13.167,8.907
			c-0.167,0.604-0.365,1.191-0.559,1.785l0,0c0.016-0.094-0.116,0.254-0.452,1.148c-0.629,1.612-1.315,3.194-1.98,4.784
			c-1.554,3.709-2.986,7.51-4.144,11.415c-9.173,33.393-19.604,72.808-30.867,110.637c-2.158,7.243-4.342,14.403-6.563,21.475
			c-2.735,8.711-5.492,17.311-8.31,25.578c-13.492,2.097-26.924,4.4-40.324,6.833c-7.467,1.358-14.919,2.768-22.354,4.229
			c-42.551,8.344-84.655,18.324-126.335,29.831c-0.183,0.051-0.322,0.129-0.5,0.188c-6.982,0.305-12.518,5.286-13.368,10.296
			c-0.609,3.577,1.153,7.165,6.566,9.084c46.113,16.331,92.157,32.865,139.185,46.951
			C153.065,295.742,160.268,297.819,167.492,299.839z M56.162,238.374c31.359-8.003,63-15.132,94.897-21.33
			c7.487-1.455,14.995-2.823,22.516-4.169c7.076-1.27,14.142-2.59,21.246-3.76l24.532-3.841l7.551-22.559
			c0.973-3.021,1.93-6.119,2.892-9.184c2.234-7.102,4.446-14.282,6.624-21.551c11.299-37.711,21.805-76.9,31.113-110.133
			c11.734,31.687,21.602,70.322,29.741,108.755c1.554,7.33,3.026,14.637,4.459,21.907c1.01,5.159,2.016,10.315,2.965,15.401
			l4.393,24.295l23.064,7.335c4.062,1.254,8.176,2.49,12.283,3.725c7.095,2.13,14.233,4.237,21.394,6.312
			c29.687,8.595,59.418,16.65,85.762,23.999c1.433,0.406,2.926,0.812,4.332,1.208c-30.265,11.213-66.877,20.698-103.596,28.62
			c-7.308,1.573-14.594,3.087-21.86,4.539c-2.423,0.487-4.86,0.995-7.272,1.463l-23.292,4.388l-5.946,22.891
			c-1.904,6.962-3.981,13.854-6.008,20.77c-2.082,7.089-4.184,14.157-6.373,21.205c-9.15,29.422-19.108,58.519-29.33,87.514
			c-8.033-31.143-15.203-62.555-21.47-94.222c-1.482-7.489-2.866-15.005-4.237-22.516c-0.937-5.134-1.94-10.242-2.823-15.386
			l-3.771-23.1l-22.422-5.459c-5.69-1.463-11.357-2.981-17.009-4.529c-7.233-1.98-14.441-4.027-21.622-6.14
			C122.684,264.167,87.079,252,51.602,239.496C53.115,239.107,54.644,238.759,56.162,238.374z"/>
		<path d="M261.795,283.758L261.795,283.758c17.32,0,34.276-11.73,41.238-28.528c6.565-15.854,3.026-32.778-9.476-45.273
			c-8.308-8.315-18.458-12.703-29.346-12.703c-17.321,0-34.271,11.73-41.233,28.531c-6.568,15.848-3.026,32.776,9.473,45.278
			C240.767,279.361,250.913,283.758,261.795,283.758z M247,235.728c2.95-7.114,10.352-12.482,17.212-12.482
			c3.895,0,7.581,1.711,10.958,5.091c5.088,5.09,6.383,10.791,3.839,16.94c-2.95,7.114-10.349,12.481-17.214,12.481
			c-3.895,0-7.582-1.711-10.961-5.088C245.743,247.578,244.454,241.873,247,235.728z"/>
	</g>
</g>
<g>
</g>
<g>
</g>
<g>
</g>
<g>
</g>
<g>
</g>
<g>
</g>
<g>
</g>
<g>
</g>
<g>
</g>
<g>
</g>
<g>
</g>
<g>
</g>
<g>
</g>
<g>
</g>
<g>
</g>
</svg>
