<?xml version="1.0" encoding="iso-8859-1"?>
<!-- Generator: Adobe Illustrator 16.0.0, SVG Export Plug-In . SVG Version: 6.00 Build 0)  -->
<!DOCTYPE svg PUBLIC "-//W3C//DTD SVG 1.1//EN" "http://www.w3.org/Graphics/SVG/1.1/DTD/svg11.dtd">
<svg version="1.1" id="Capa_1" xmlns="http://www.w3.org/2000/svg" xmlns:xlink="http://www.w3.org/1999/xlink" x="0px" y="0px"
	 width="470.33px" height="470.33px" viewBox="0 0 470.33 470.33" style="enable-background:new 0 0 470.33 470.33;"
	 xml:space="preserve">
<g>
	<g>
		<path d="M371.854,225.427c-6.916-58.603-51.074-85.548-101.478-103.098c52.693-19.421,91.565-51.245,91.281-111.894
			c-0.061-13.911-21.632-13.916-21.571,0c0.295,64.795-52.821,84.475-104.918,100.688C183.07,94.91,129.952,75.23,130.249,10.436
			c0.063-13.916-21.51-13.911-21.574,0c-0.282,60.649,38.588,92.473,91.284,111.894c-50.404,17.554-94.56,44.495-101.48,103.098
			c-7.493,63.465,48.292,84.265,99.686,97.137c-21.256,9.983-40.309,23.739-59.555,37.877
			c-30.564,22.46-41.951,61.956-40.725,99.462c0.455,13.883,22.028,13.924,21.576,0c-1.706-52.277,29.915-80.293,68.368-107.546
			c14.063-9.969,30.506-15.93,47.334-20.592c16.826,4.662,33.269,10.628,47.335,20.592c38.455,27.253,70.07,55.269,68.364,107.546
			c-0.452,13.924,21.124,13.883,21.576,0c1.224-37.506-10.166-77.002-40.73-99.462c-19.24-14.138-38.298-27.894-59.555-37.877
			C323.562,309.696,379.349,288.896,371.854,225.427z M235.172,309.976c-49.531-11.934-128.93-22.917-114.511-87.372
			c12.989-58.071,64.285-73.62,114.511-88.834c50.229,15.208,101.522,30.763,114.511,88.834
			C364.104,287.059,284.7,298.042,235.172,309.976z"/>
		<path d="M160.818,37.399c47.954-1.647,95.877-1.703,143.828,0c13.919,0.495,13.873-21.078,0-21.573
			c-47.951-1.704-95.879-1.648-143.828,0C146.945,16.306,146.899,37.88,160.818,37.399z"/>
		<path d="M173.404,51.783c-13.916,0-13.916,21.573,0,21.573h120.458c13.919,0,13.919-21.573,0-21.573H173.404z"/>
		<path d="M207.566,174.043h52.135c13.919,0,13.919-21.574,0-21.574h-52.135C193.65,152.469,193.65,174.043,207.566,174.043z"/>
		<path d="M157.22,210c50.351-0.005,100.694-0.122,151.017-1.8c13.873-0.462,13.924-22.036,0-21.574
			c-50.323,1.679-100.666,1.793-151.017,1.798C143.312,188.424,143.312,210,157.22,210z"/>
		<path d="M324.426,229.773c-60.53-1.731-121.057-1.678-181.584,0c-13.883,0.386-13.918,21.963,0,21.576
			c60.532-1.681,121.06-1.736,181.584,0C338.35,251.746,338.309,230.175,324.426,229.773z"/>
		<path d="M274.088,265.736h-88.101c-13.917,0-13.917,21.576,0,21.576h88.095C287.996,287.312,287.996,265.736,274.088,265.736z"/>
		<path d="M248.916,371.81c13.913,0,13.913-21.576,0-21.576h-32.364c-13.917,0-13.917,21.576,0,21.576H248.916z"/>
		<path d="M164.413,407.762c47.385,3.271,94.648,3.387,142.036,0c13.792-0.979,13.884-22.566,0-21.571
			c-47.388,3.382-94.651,3.266-142.036,0C150.522,385.236,150.611,406.812,164.413,407.762z"/>
		<path d="M324.426,425.748c-59.331-0.106-118.655-1.696-177.988-1.798c-13.917-0.03-13.911,21.551,0,21.571
			c59.333,0.102,118.657,1.696,177.988,1.798C338.339,447.35,338.339,425.769,324.426,425.748z"/>
	</g>
</g>
<g>
</g>
<g>
</g>
<g>
</g>
<g>
</g>
<g>
</g>
<g>
</g>
<g>
</g>
<g>
</g>
<g>
</g>
<g>
</g>
<g>
</g>
<g>
</g>
<g>
</g>
<g>
</g>
<g>
</g>
</svg>
