<?xml version="1.0" encoding="iso-8859-1"?>
<!-- Generator: Adobe Illustrator 16.0.0, SVG Export Plug-In . SVG Version: 6.00 Build 0)  -->
<!DOCTYPE svg PUBLIC "-//W3C//DTD SVG 1.1//EN" "http://www.w3.org/Graphics/SVG/1.1/DTD/svg11.dtd">
<svg version="1.1" id="Capa_1" xmlns="http://www.w3.org/2000/svg" xmlns:xlink="http://www.w3.org/1999/xlink" x="0px" y="0px"
	 width="478.716px" height="478.716px" viewBox="0 0 478.716 478.716" style="enable-background:new 0 0 478.716 478.716;"
	 xml:space="preserve">
<g>
	<g>
		<path d="M378.525,90.522c-0.828-25.032-1.285-50.138-1.041-75.18c0.01-1.117-0.163-2.1-0.422-3.026
			c0.493-5.454-2.712-11.22-9.704-11.034C279.133,3.592,190.929,0.14,102.709,0c-7.343-0.013-10.557,6.436-9.646,12.093
			c-0.297,0.982-0.5,2.044-0.485,3.245c1.331,105.276,4.951,256.537,5.065,361.823c0,2.366,0.67,4.286,1.737,5.8
			c0.65,4.463,3.859,8.408,9.656,8.267c15.724-0.386,31.453-0.736,47.185-1.122c0.967-0.311,1.945-0.574,2.948-0.711
			c0.477-0.117,1.107-0.249,1.831-0.33c4.029-0.468,8.043-0.752,11.814-0.925v-19.326c-27.944,0.741-54.946,1.503-54.946,1.711
			c-0.256-101.347-3.605-248.674-4.956-350.007c81.456,0.348,162.886,3.146,244.336,1.404c-0.273,74.494,7.008,194.771,7.506,269.24
			c-12.64-3.991-25.694-5.678-39.182-4.773c-1.052,0.076-1.985,0.31-2.874,0.619c-6.205,0.03-12.208,4.88-9.43,12.329
			c5.58,14.98,8.129,33.576-0.447,47.896c-9.45,15.777-25.644,16.804-41.762,18.535v20.651c21.328-0.868,42.793-2.879,61.104-9.135
			c11.492-3.92,21.779-9.729,30.585-18.129c16.117-15.355,21.611-35.972,22.998-57.7c1.335-20.866-1.122-42.752-1.615-61.978
			C382.881,189.819,380.16,140.177,378.525,90.522z M330.66,356.275c8.181-13.938,10.222-31.041,5.967-49.576
			c9.851,0.381,19.565,2.28,28.757,6.18c0.045,0.117,0.07,0.239,0.111,0.351C362.514,335.197,348.616,348.674,330.66,356.275z"/>
		<path d="M282.79,399.646c-0.36-0.097-0.721-0.213-1.117-0.259c-6.987-0.808-13.995-1.041-21.013-1.117v-11.507v-19.981v-57.306
			c0-4.179-2.163-6.794-4.859-7.84c-1.204-1.184-2.813-1.96-4.88-1.96h-26.192h-5.583h-26.197c-2.06,0-3.672,0.776-4.878,1.96
			c-2.704,1.046-4.862,3.661-4.862,7.84v59.062v20.81v8.922c-7.015,0.076-14.025,0.31-21.013,1.117
			c-0.396,0.046-0.754,0.162-1.12,0.259c-5.959,0.376-10.981,8.801-5.345,14.508c19.4,19.646,38.801,39.288,58.201,58.93
			c1.274,3.189,4.312,5.632,7.576,5.632c0.143,0,0.282-0.005,0.422-0.016c0.142,0.011,0.282,0.016,0.421,0.016
			c3.26,0,6.302-2.442,7.576-5.632c19.403-19.642,38.801-39.283,58.204-58.93C293.773,408.452,288.751,400.022,282.79,399.646z
			 M221.935,457.941c-13.929-14.106-27.86-28.208-41.789-42.31c3.583-0.065,7.165-0.091,10.752-0.091
			c4.981,0,7.457-4.367,7.429-8.714c0.152-0.696,0.256-1.433,0.256-2.245v-9.795c-0.033-0.437-0.157-0.777-0.157-1.249
			c0-1.569,0.038-3.134,0.053-4.697c0.021-2.163,0.036-4.326,0.104-6.479v-14.224v-51.166h20.553h5.586h20.556v46.266
			c0,0.021,0.005,0.03,0.005,0.051c0.092,1.3,0.092,2.59,0.127,3.89c0.086,3.199,0.066,6.403-0.132,9.588v10.358v17.453
			c0,0.817,0.106,1.554,0.254,2.25c-0.021,4.347,2.458,8.703,7.434,8.703c3.585,0,7.171,0.03,10.75,0.097
			C249.798,429.733,235.867,443.835,221.935,457.941z"/>
	</g>
</g>
<g>
</g>
<g>
</g>
<g>
</g>
<g>
</g>
<g>
</g>
<g>
</g>
<g>
</g>
<g>
</g>
<g>
</g>
<g>
</g>
<g>
</g>
<g>
</g>
<g>
</g>
<g>
</g>
<g>
</g>
</svg>
