<?xml version="1.0" encoding="iso-8859-1"?>
<!-- Generator: Adobe Illustrator 16.0.0, SVG Export Plug-In . SVG Version: 6.00 Build 0)  -->
<!DOCTYPE svg PUBLIC "-//W3C//DTD SVG 1.1//EN" "http://www.w3.org/Graphics/SVG/1.1/DTD/svg11.dtd">
<svg version="1.1" id="Capa_1" xmlns="http://www.w3.org/2000/svg" xmlns:xlink="http://www.w3.org/1999/xlink" x="0px" y="0px"
	 width="493.229px" height="493.229px" viewBox="0 0 493.229 493.229" style="enable-background:new 0 0 493.229 493.229;"
	 xml:space="preserve">
<g>
	<g>
		<path d="M390.049,294.862l-0.416-0.736c-0.284-0.762-0.843-1.712-1.595-2.636c-0.513-1.498-1.062-3.001-1.716-4.499
			c-0.468-1.071-1.006-2.148-1.534-3.22c-2.193-4.448-4.813-8.896-7.632-13.37c0.381-0.889,0.65-1.884,0.69-3.026
			c2.625-66.25,3.723-132.553-4.026-198.523c-0.062-0.541-0.214-1.019-0.351-1.503c0.218-1.019,0.269-2.125,0.061-3.324
			c-3.128-18.189-10.48-35.223-20.164-50.848c-0.036-4.009-2.615-8.242-7.714-8.717c-67.39-6.264-134.975-4.139-202.548-4.012
			c-1.543,0-2.833,0.394-3.915,1.003c-1.559,0.203-3.113,1.008-4.456,2.694c-11.793,14.827-22.904,30.153-33.456,45.892
			c-1.693,2.539-1.668,5.009-0.681,7.036c-1.082,1.259-1.805,2.912-1.757,5.075c1.351,66.174,2.699,132.353,4.024,198.523
			c0.041,2.193,0.828,3.9,1.985,5.164c-1.97,2.717-3.89,5.434-5.761,8.141c-0.899,1.3-1.727,2.604-2.59,3.904
			c-0.947,1.428-1.871,2.859-2.76,4.281c-0.78,0.711-1.425,1.696-1.795,2.996c-1.051,2.229-0.957,4.361-0.119,6.164
			c3.209,45.021,3.75,90.749,4.238,135.014c0.167,15.168,0.333,30.336,0.609,45.504c0.015,0.898,0.175,1.782,0.502,2.762
			c0.663,4.012,3.153,8.019,8.45,8.521c67.578,6.373,149.574,6.754,221.92,7.094c21.444,0.097,42.284,0.188,62.043,0.437
			l0.152,2.575l0,0v-2.575c1.788,0,3.367-0.462,4.688-1.366l1.051-0.421c1.609-0.265,6.83-1.62,6.565-8.079
			c-2.559-61.149-5.25-121.008-10.054-180.908C391.842,297.949,391.182,296.253,390.049,294.862z M367.772,285.092
			c0.487,0.894,0.944,1.793,1.391,2.687c-9.871-0.513-19.956-0.995-30.27-1.447c-0.238-0.884-0.492-1.763-0.757-2.636
			c-0.269-0.878-0.538-1.757-0.822-2.63c-1.285-3.951-2.701-7.861-4.027-11.797c-1.34-3.98-4.697-5.61-7.997-5.529
			c-0.747-0.224-1.539-0.381-2.442-0.381h-82.302c-0.467-0.711-0.874-1.468-1.29-2.22c-1.092-1.975-2.133-3.966-3.354-5.87
			c-1.836-2.849-5.091-4.366-8.277-3.854c-0.437-0.066-0.874-0.132-1.358-0.132h-72.435c-2.364,0-4.164,0.857-5.454,2.152
			c-1.102,0.66-2.1,1.666-2.833,3.174c-2.843,5.81-5.164,11.802-7.213,17.895c-0.289,0.863-0.602,1.717-0.878,2.58
			c-0.274,0.848-0.521,1.711-0.78,2.564c-7.259-0.264-14.373-0.533-21.424-0.812c0.594-0.838,1.206-1.681,1.81-2.519
			c0.609-0.849,1.211-1.696,1.831-2.55c7.869-10.861,16.082-21.819,22.051-33.024c67.92,6.076,136.057,4.893,204.178,5.675
			c5.205,12.055,14.396,24.064,21.2,35.993C366.822,283.31,367.295,284.198,367.772,285.092z M154.208,277.658
			c0.302-0.869,0.696-1.701,1.013-2.57c0.957-2.59,1.899-5.185,3.037-7.708h66.1c1.65,2.936,3.257,5.854,5.611,8.374
			c0.276,0.294,0.594,0.533,0.906,0.771c0.238,0.325,0.536,0.609,0.83,0.894c1.274,1.224,3.011,2.036,5.294,2.036h58.61h24.201
			c0.106,0.295,0.198,0.604,0.3,0.899c0.31,0.873,0.589,1.757,0.889,2.635c0.294,0.879,0.594,1.752,0.878,2.631
			c-34.397-1.356-70.421-2.417-105.703-3.463c-21.632-0.64-42.546-1.265-62.779-1.935
			C153.677,279.374,153.911,278.506,154.208,277.658z M142.132,90.316c63.875,2.621,127.797,3.984,191.632,7.452
			c3.347,43.435,5.403,86.936,7.241,130.459c-65.211-0.681-130.438,0.238-195.466-5.266
			C144.841,178.719,145.004,134.484,142.132,90.316z M145.347,16.53c64.493-0.157,128.99-1.96,193.318,3.483
			c7.414,11.769,13.274,24.184,16.899,37.486c-77.927-6.431-155.917-13.753-234.074-8.429C129.133,38,137.001,27.093,145.347,16.53z
			 M358.226,73.823c6.348,57.297,6.216,114.838,4.286,172.372c-1.234-2.463-2.321-4.933-3.23-7.401
			c0.163-0.749,0.265-1.546,0.224-2.43c-2.021-48.467-4.194-96.918-8.068-145.279c-0.168-2.115-0.919-3.836-2.017-5.185
			c-1.168-3.112-3.849-5.672-8.073-5.91c-68.553-3.92-137.215-5.154-205.811-8.072c-2.232-0.094-4.032,0.495-5.408,1.498
			c-3.844,0.645-7.079,3.499-6.703,8.589c3.633,49.041,3.156,98.162,4.035,147.297c0.01,0.708,0.198,1.295,0.343,1.909
			c-2.63,5.116-5.761,10.177-9.141,15.196c-1.211-60.243-2.44-120.493-3.666-180.738C196.223,59.394,277.268,67.16,358.226,73.823z
			 M381.549,473.16c-16.717-0.173-34.348-0.265-52.507-0.355c-69.481-0.351-148.238-0.757-212.683-6.221l-2.341-0.193l-0.036-2.351
			c-0.193-12.151-0.328-24.298-0.47-36.45c-0.482-42.203-0.982-85.848-3.771-128.681l-0.185-2.89l2.889,0.117
			c32.067,1.32,66.953,2.355,103.888,3.458c53.52,1.6,108.869,3.25,156.374,5.835l2.28,0.116l0.178,2.28
			c3.966,51.506,6.469,102.266,9.018,162.617l0.117,2.742L381.549,473.16z"/>
		<path d="M306.207,363.801c-3.896-1.071-9.176,1.289-9.897,5.621c-0.573,3.407-1.143,6.901-2.163,10.227
			c-33.738,0.727-67.479,0.833-101.222,0.844c-1.112-3.331-7.462-6.698-8.079-10.172c-0.77-4.321-5.969-6.702-9.902-5.621
			c-4.517,1.244-6.391,5.586-5.626,9.902c0.932,5.23,2.528,10.263,4.474,15.203c0.025,0.066,0.061,0.127,0.094,0.193
			c0.546,3.488,3.098,6.606,7.668,6.606c36.67,0,78.698-0.066,115.356-0.894c0.487-0.011,0.924-0.087,1.366-0.163
			c3.204,0.498,6.819-0.787,8.271-3.823c2.772-5.814,9.592-11.7,10.648-18.017C317.916,369.381,310.762,365.055,306.207,363.801z"/>
		<path d="M186.234,162.792c0.998,1.353,2.255,2.44,3.654,3.135c1.129,0.879,2.506,1.529,4.187,1.742
			c32.108,4.123,64.257,4.4,96.578,3.577c0.274-0.005,0.514-0.066,0.772-0.094c4.058,0.551,7.292-2.084,8.779-5.812
			c1.641-4.113,3.342-8.227,4.469-12.522c1.112-4.237-1.36-8.724-5.626-9.899c-4.189-1.155-8.785,1.376-9.897,5.619
			c-0.599,2.275-1.365,4.489-2.188,6.688c-29.665,0.67-59.196,0.307-88.689-3.177c-2.747-3.869-5.397-7.8-8.345-11.534
			c-2.719-3.451-8.559-2.829-11.382,0c-3.372,3.376-2.714,7.941,0,11.385C181.154,155.205,183.611,159.25,186.234,162.792z"/>
	</g>
</g>
<g>
</g>
<g>
</g>
<g>
</g>
<g>
</g>
<g>
</g>
<g>
</g>
<g>
</g>
<g>
</g>
<g>
</g>
<g>
</g>
<g>
</g>
<g>
</g>
<g>
</g>
<g>
</g>
<g>
</g>
</svg>
