<?xml version="1.0" encoding="iso-8859-1"?>
<!-- Generator: Adobe Illustrator 16.0.0, SVG Export Plug-In . SVG Version: 6.00 Build 0)  -->
<!DOCTYPE svg PUBLIC "-//W3C//DTD SVG 1.1//EN" "http://www.w3.org/Graphics/SVG/1.1/DTD/svg11.dtd">
<svg version="1.1" id="Capa_1" xmlns="http://www.w3.org/2000/svg" xmlns:xlink="http://www.w3.org/1999/xlink" x="0px" y="0px"
	 width="491.987px" height="491.987px" viewBox="0 0 491.987 491.987" style="enable-background:new 0 0 491.987 491.987;"
	 xml:space="preserve">
<g>
	<g>
		<path d="M488.796,82.172c-13.142-17.309-27.452-33.116-42.554-46.989c-6.276-5.771-15.884-5.278-21.876,0.66
			c-0.954,0.612-1.808,1.29-2.59,2.059c-22.297,21.901-44.686,44.437-66.339,66.235c-12.35,12.438-24.709,24.877-37.114,37.262
			c-21.043-17.996-58.59-57.571-78.932-80.727c-0.421-3.121-1.915-6.109-4.332-8.604c-5.929-6.117-15.744-6.921-22.277-1.442
			c-18.715,15.683-37.069,30.46-55.134,44.772c-11.507-6.076-24.486-9.252-37.209-9.252c-35.277,0-62.393,21.776-69.081,55.481
			c-2.907,14.632-1.866,26.822,1.051,36.755C38.1,189.944,23.612,201.88,8.955,214.384c-4.464,2.351-7.759,6.723-8.686,11.596
			c-0.919,4.832,0.536,9.557,4.088,13.307c64.77,68.372,138.187,145.862,214.722,217.324c2.991,2.793,6.604,4.266,10.448,4.266
			c1.872,0,3.732-0.346,5.527-1.036c3.311-0.492,6.322-2.152,8.752-4.859c62.385-69.421,119.909-140.695,170.973-211.843
			c2.813-3.92,3.595-8.351,2.234-12.54c-0.554-2.996-2.077-5.789-4.438-8.103c-7.211-7.083-15.056-13.5-22.638-19.697
			c-3.361-2.75-6.733-5.502-10.055-8.315c32.692-29.343,67.979-59.917,105.384-86.816c5.067-3.646,7.46-9.376,6.521-15.485
			C492.076,89.553,491.67,85.947,488.796,82.172z M219.643,85.366c21.018,23.668,55.797,60.167,76.521,78.039
			c-20.013,19.74-37.019,36.15-52.971,51.1c-12.631-9.08-26.177-18.096-40.324-26.848c-4.222-2.61-9.044-2.917-13.223-1.274
			c3.291-8.292,5.24-17.809,5.24-28.744c0-16.78-5.06-30.724-13.154-41.748C194.22,106.003,206.854,95.88,219.643,85.366z
			 M76.87,146.692c5.053-25.469,25.827-34.548,43.58-34.548c4.633,0,9.27,0.594,13.753,1.742c2.034,0.521,4.009,1.191,5.959,1.945
			c1.831,0.708,3.613,1.503,5.34,2.415c3.15,1.663,6.104,3.664,8.787,6c1.315,1.146,2.549,2.387,3.725,3.692
			c1.153,1.285,2.219,2.646,3.217,4.083c4.743,6.838,7.66,15.363,7.66,25.618c0,32.761-24.069,44.387-44.681,44.387
			c-13.754,0-26.639-4.816-35.604-13.068c-1.29-1.186-2.496-2.442-3.613-3.768c-0.109-0.132-0.247-0.246-0.355-0.381
			c-1.003-1.221-1.917-2.491-2.75-3.796c-1.871-2.933-3.298-6.088-4.326-9.438c-0.556-1.82-0.973-3.707-1.28-5.642
			c-0.322-2.003-0.503-4.062-0.556-6.188C75.616,155.614,75.959,151.278,76.87,146.692z M381.346,236.245
			c-45.387,62.502-96.329,125.57-151.54,187.588c-65.282-61.667-127.77-126.868-191.239-193.804
			c9.988-8.48,19.896-16.673,29.726-24.691c13.858,14.241,34.294,22.681,55.917,22.681c12.873,0,26.113-3.166,37.61-9.699
			c-3.676,5.622-7.129,11.184-10.26,16.402c-0.978,1.622-1.638,3.326-1.985,5.091c-4.311,3.181-7.015,8.257-6.937,13.405
			c0.081,5.389,3.161,9.856,8.455,12.254l7.444,3.366c25.943,11.745,52.77,23.882,77.957,38.029
			c6.604,3.696,14.419,2.184,19.232-3.458c0.604-0.371,1.198-0.787,1.777-1.255c32.469-26.212,63.846-54.679,94.196-82.207
			l4.886-4.431c3.936,3.393,7.941,6.688,11.953,9.981C372.774,228.996,377.131,232.579,381.346,236.245z M331.43,196.444
			c-28.854,26.093-58.672,53.049-89.269,78.091c-20.041-10.72-40.718-20.357-60.489-29.33c5.091-8.348,10.266-16.427,16.077-23.874
			c13.49,8.643,25.596,16.973,36.939,25.423c0.287,0.208,0.62,0.394,0.531,0.317c6.096,4.466,14.383,4.121,19.955-1.041
			c42.03-38.875,82.983-80.13,122.587-120.028c18.88-19.009,38.359-38.636,57.762-57.805c7.312,7.33,14.152,14.871,20.419,22.498
			C412.169,123.45,371.145,160.54,331.43,196.444z"/>
	</g>
</g>
<g>
</g>
<g>
</g>
<g>
</g>
<g>
</g>
<g>
</g>
<g>
</g>
<g>
</g>
<g>
</g>
<g>
</g>
<g>
</g>
<g>
</g>
<g>
</g>
<g>
</g>
<g>
</g>
<g>
</g>
</svg>
