<?xml version="1.0" encoding="iso-8859-1"?>
<!-- Generator: Adobe Illustrator 16.0.0, SVG Export Plug-In . SVG Version: 6.00 Build 0)  -->
<!DOCTYPE svg PUBLIC "-//W3C//DTD SVG 1.1//EN" "http://www.w3.org/Graphics/SVG/1.1/DTD/svg11.dtd">
<svg version="1.1" id="Capa_1" xmlns="http://www.w3.org/2000/svg" xmlns:xlink="http://www.w3.org/1999/xlink" x="0px" y="0px"
	 width="469.75px" height="469.75px" viewBox="0 0 469.75 469.75" style="enable-background:new 0 0 469.75 469.75;"
	 xml:space="preserve">
<g>
	<g>
		<path d="M11.136,104.22c1.132,0.374,2.366,0.635,3.771,0.635c144.39,0.15,288.761,5.509,433.133,1.445
			c1.884-0.054,3.529-0.475,4.936-1.166c3.271-0.972,6.195-3.286,7.647-7.317c0.057-0.15,0.092-0.31,0.147-0.462
			c0.843-1.594,1.412-3.389,1.671-5.293c3.666-11.819,5.81-23.991,7.257-36.295c0.208-1.772-0.209-3.44-0.98-4.961
			c-1.285-4.283-4.804-7.86-10.567-8.033c-147.703-4.466-295.604-8.439-443.244,0c-0.465,0.023-0.869,0.132-1.3,0.198
			c-4.436,0.073-8.617,2.554-9.838,8.279C0.81,65.122-0.871,79.129,0.464,93.299C1.079,99.835,5.992,103.476,11.136,104.22z
			 M24.582,65.412c139.185-7.45,278.598-4.164,417.841-0.005c-0.67,5.987-1.366,11.966-2.066,17.946
			c-139.056,3.603-278.108-1.231-417.168-1.56C23.277,76.306,23.734,70.857,24.582,65.412z"/>
		<path d="M364.258,266.763c3.361-3.321,4.682-8.312,1.138-13.462c-0.519-0.751-1.092-1.437-1.62-2.179
			c-0.016-0.015-0.021-0.04-0.035-0.056c-34.627-49.394-80.974-86.447-129.537-121.488c-1.701-1.229-3.385-1.869-5.007-2.102
			c-3.166-2.209-7.312-2.6-11.524,0.604c-48.418,36.846-87.407,82.598-111.779,138.657c-2.731,6.276-0.068,12.167,4.233,15.498
			c2.615,2.58,6.292,4.169,10.748,3.539l48.624-6.951c-1.082,32.382-2.168,62.667-3.271,108.217
			c-0.365,0.975-0.645,2.021-0.718,3.214c-0.556,8.917-1.145,17.829-1.707,26.746c-2.267,7.2,1.171,15.884,10.628,14.843
			c38.263-4.205,76.482-5.738,114.958-4.479c1.401,0.045,2.631-0.168,3.778-0.488c6.327,0.493,12.908-3.285,12.649-11.455
			c-1.382-42.569-2.793-99.392-4.215-141.955c17.813-1.143,35.622-2.103,53.481-2.188
			C359.323,271.252,362.354,269.394,364.258,266.763z M289.393,250.367c-6.804,0.457-10.587,5.448-11.339,10.755
			c-0.406,1.249-0.655,2.61-0.604,4.174c1.377,41.269,2.742,96.797,4.083,138.061c-25.466-0.579-50.833,0.152-76.188,1.976
			c0.488-1.128,0.825-2.377,0.899-3.814c3.286-65.825,1.815-79.719,1.732-145.596c-0.005-6.602-5.05-9.938-10.167-10.044
			c-1.102-0.31-2.308-0.478-3.702-0.355c-12.652,1.066-25.334,1.554-38.006,2.219c19.771-34.144,44.798-64.152,74.826-90.197
			c0.198-0.173,0.328-0.365,0.51-0.541c36.704,26.883,72.026,55.447,100.402,90.962
			C317.688,248.539,303.541,249.421,289.393,250.367z"/>
	</g>
</g>
<g>
</g>
<g>
</g>
<g>
</g>
<g>
</g>
<g>
</g>
<g>
</g>
<g>
</g>
<g>
</g>
<g>
</g>
<g>
</g>
<g>
</g>
<g>
</g>
<g>
</g>
<g>
</g>
<g>
</g>
</svg>
