<?xml version="1.0" encoding="iso-8859-1"?>
<!-- Generator: Adobe Illustrator 16.0.0, SVG Export Plug-In . SVG Version: 6.00 Build 0)  -->
<!DOCTYPE svg PUBLIC "-//W3C//DTD SVG 1.1//EN" "http://www.w3.org/Graphics/SVG/1.1/DTD/svg11.dtd">
<svg version="1.1" id="Capa_1" xmlns="http://www.w3.org/2000/svg" xmlns:xlink="http://www.w3.org/1999/xlink" x="0px" y="0px"
	 width="498.642px" height="498.642px" viewBox="0 0 498.642 498.642" style="enable-background:new 0 0 498.642 498.642;"
	 xml:space="preserve">
<g>
	<g>
		<path d="M482.651,243.857c-18.057-11.342-40.38-1.354-57.543,6.579c-17.367-32.027-50.922-39.692-83.848-27.081
			c-0.975,0.056-1.98,0.2-3.047,0.551c-43.727,14.111-89.865,16.311-135.488,15.541c-23.036-0.384-46.057-1.523-69.086-2.074
			c-32.925-0.795-78.96-1.909-74.587,45.026c-8.922-1.554-17.778-3.21-26.55-4.986C5.926,272.03-0.386,296.445,0.018,316.995
			c0.65,33.104,25.636,40.314,50.818,55.624c3.585,2.047-0.681,27.32,0.683,32.52c10.374,39.608,71.539,41.635,103.59,46.723
			c46.07,7.312,93.191,8.811,139.688,5.479c38.517-2.763,76.81-9.806,112.325-25.421c34.469-15.152,84.944-47.885,64.714-92.23
			c-0.224-0.503,19.986-30.9,21.957-36.379c5.637-15.62,7.917-36.562-1.879-50.655C489.562,249.271,486.517,246.279,482.651,243.857
			z M93.298,260.143c0.018-0.01,0.033-0.021,0.054-0.03c83.484-1.712,166.824,12.015,248.092-13.264
			c1.355,0.03,2.813-0.203,4.393-0.838c23.374-9.402,44.813-7.988,58.082,13.518C303.541,299.477,188.632,301.879,81.72,286.03
			c0.31-1.671,0.348-3.433,0.036-5.21C80.004,270.857,84.521,264.316,93.298,260.143z M450.939,366.917
			c-4.382,13.213-19.362,25.567-28.355,31.869c-40.521,28.401-97.177,34.327-145.347,36.679
			c-53.542,2.61-106.29-2.961-158.755-13.66c-15.709-3.204-40.596-7.606-46.108-25.842c-12.807-42.381,71.75-23.744,90.088-22.978
			c47.568,1.98,95.052,1.665,142.272-5.332c35.947-5.327,68.771-15.478,103.17-26.537c12.339-3.977,37.389-2.285,42.939,11.634
			C452.707,357.427,452.493,362.225,450.939,366.917z M474.096,283.912c-1.976,13.985-10.68,30.356-16.956,37.75
			c-10.439-7.104-24.16-9.328-36.389-9.511c-3.473-0.051-6.094,1.198-7.937,3.103c-0.411,0.122-0.803,0.188-1.224,0.365
			c-103.957,42.224-211.252,38.888-321.022,30.163c-1.137-0.086-2.158,0.006-3.12,0.183c-0.988-0.015-1.98,0.031-2.979,0.229
			c-6.012,1.184-11.824,3.25-16.993,6.409c-0.894-0.325-1.841-0.584-2.887-0.706c-16.207-1.879-33.418-11.166-40.142-26.461
			c-16.725-38.045,36.782-19.363,55.056-16.697c0.276,0.812,0.64,1.605,1.17,2.326c4.69,6.368,8.496,13.406,14.023,19.134
			c4.337,4.499,11.857,4.356,16.214,0c4.476-4.474,4.331-11.72,0-16.214c-0.12-0.122-0.67-0.757-1.176-1.33
			c12.662,1.422,25.402,2.554,38.174,3.412c2.562,7.135,6.937,13.025,13.309,17.453c5.144,3.564,12.715,0.959,15.684-4.113
			c2.366-4.042,1.851-8.42-0.442-11.903c21.802,0.691,43.638,0.412,65.374-0.862c0.835,2.563,2.496,4.849,4.986,6.174
			c0.627,0.336,1.227,0.691,1.818,1.077c0.059,0.04,0.074,0.051,0.127,0.086c0.129,0.106,0.264,0.219,0.394,0.33
			c1.041,0.889,2.014,1.864,2.986,2.829c4.421,4.412,11.794,4.417,16.212,0c3.412-3.413,4.158-8.587,2.3-12.802
			c13.903-1.438,27.731-3.356,41.446-5.749c0.925,1.341,2.098,2.545,3.515,3.535c0.284,0.248,0.573,0.492,0.848,0.751
			c0.97,0.894,1.823,1.899,2.676,2.905c0.244,0.34,0.498,0.686,0.741,1.03c0.793,1.127,1.555,2.275,2.316,3.417
			c3.463,5.19,10.054,7.414,15.686,4.113c5.149-3.016,7.586-10.48,4.113-15.686c-1.214-1.823-2.453-3.569-3.732-5.266
			c14.686-3.291,29.209-7.216,43.519-11.771c0.111,0.116,0.183,0.243,0.294,0.355c4.388,4.306,9.374,7.921,13.762,12.228
			c4.453,4.377,11.766,4.448,16.209,0c4.387-4.388,4.458-11.832,0-16.214c-1.793-1.757-3.707-3.372-5.616-4.997
			c17.225-6.54,34.093-14.051,50.475-22.749C472.263,260.92,475.848,271.472,474.096,283.912z"/>
		<path d="M148.655,392.556c-14.787,0-14.787,22.933,0,22.933C163.445,415.488,163.445,392.556,148.655,392.556z"/>
		<path d="M231.198,403.869c-14.787,0-14.787,22.933,0,22.933C245.987,426.797,245.987,403.869,231.198,403.869z"/>
		<path d="M316.805,397.756c-14.787,0-14.787,22.932,0,22.932C331.587,420.683,331.587,397.756,316.805,397.756z"/>
		<path d="M396.285,373.295c-14.786,0-14.786,22.933,0,22.933C411.077,396.228,411.077,373.295,396.285,373.295z"/>
		<path d="M152.891,148.623c6.743,16.499-3.115,29.348-14.754,40.479c-9.407,9.003,4.867,23.229,14.249,14.249
			c20.498-19.609,28.792-41.579,16.488-68.065c-12.974-27.934-37.08-47.646-20.284-80.412c5.916-11.532-11.471-21.734-17.399-10.164
			c-12.916,25.197-10.598,48.622,3.329,72.745C140.523,127.858,148.318,137.433,152.891,148.623z"/>
		<path d="M293.284,148.623c6.743,16.499-3.113,29.348-14.752,40.479c-9.409,9.003,4.87,23.229,14.249,14.249
			c20.5-19.609,28.792-41.579,16.488-68.065c-12.975-27.934-37.079-47.646-20.281-80.412c5.91-11.532-11.477-21.734-17.402-10.164
			c-12.913,25.197-10.598,48.622,3.326,72.745C280.919,127.858,288.714,137.433,293.284,148.623z"/>
	</g>
</g>
<g>
</g>
<g>
</g>
<g>
</g>
<g>
</g>
<g>
</g>
<g>
</g>
<g>
</g>
<g>
</g>
<g>
</g>
<g>
</g>
<g>
</g>
<g>
</g>
<g>
</g>
<g>
</g>
<g>
</g>
</svg>
