<?xml version="1.0" encoding="iso-8859-1"?>
<!-- Generator: Adobe Illustrator 16.0.0, SVG Export Plug-In . SVG Version: 6.00 Build 0)  -->
<!DOCTYPE svg PUBLIC "-//W3C//DTD SVG 1.1//EN" "http://www.w3.org/Graphics/SVG/1.1/DTD/svg11.dtd">
<svg version="1.1" id="Capa_1" xmlns="http://www.w3.org/2000/svg" xmlns:xlink="http://www.w3.org/1999/xlink" x="0px" y="0px"
	 width="486.739px" height="486.739px" viewBox="0 0 486.739 486.739" style="enable-background:new 0 0 486.739 486.739;"
	 xml:space="preserve">
<g>
	<g>
		<path d="M360.644,126.271c6.708-24.252,5.459-50.386-6.108-75.616c-14.895-32.489-50.354-47.89-84.087-50.32
			c-65.736-4.725-119.804,41.102-123.6,100.239c-52.743,8.76-92.78,50.655-69.21,106.935c13.49,32.197,39.405,49.173,68.396,53.174
			c0.155,0.889,0.411,1.813,0.8,2.773c29.234,72.274,58.219,144.742,95.501,213.346c1.589,2.92,3.775,4.667,6.167,5.545
			c5.453,5.611,14.995,6.814,18.996-2.184c30.763-69.258,51.023-142.071,72.239-214.625c34.647,1.508,69.31-11.883,75.418-51.087
			C421.3,174.972,393.667,143.021,360.644,126.271z M204.07,326.601c-1.646-0.858-3.258-1.295-4.816-1.458
			c-8.95-21.378-17.743-42.838-26.436-64.327c3.125-0.387,6.246-0.935,9.372-1.58c0.612,1.646,1.638,3.25,3.227,4.738
			c16.562,15.488,33.749,30.225,51.407,44.371c-6.236,8.445-12.502,16.869-18.761,25.289
			C213.38,331.317,208.696,329.022,204.07,326.601z M230.666,396.966c-3.682-7.932-7.317-15.884-10.872-23.866
			c0.186-0.224,0.399-0.386,0.582-0.625c1.826-2.401,3.613-4.829,5.428-7.236c5.835,2.696,11.695,5.353,17.593,7.907
			C239.09,381.052,234.819,388.979,230.666,396.966z M254.682,446.11c-3.793-7.312-7.475-14.681-11.105-22.068
			c1.429-1.031,2.714-2.469,3.712-4.459c6.23-12.38,12.842-24.557,19.53-36.698c3.239,1.29,6.494,2.544,9.749,3.804
			C269.834,406.695,262.669,426.55,254.682,446.11z M284.398,362.775c-4.874-1.873-9.755-3.727-14.584-5.692
			c-2.295-2.021-5.235-3.29-8.226-3.493c-6.835-2.885-13.635-5.85-20.394-8.927c5.149-6.947,10.288-13.919,15.427-20.881
			c9.526,7.23,19.149,14.34,28.935,21.246c1.31,0.924,2.6,1.468,3.874,1.828C287.786,352.178,286.089,357.479,284.398,362.775z
			 M334.249,240.039c-1.238-0.353-2.519-0.515-3.809-0.536c-1.533-0.244-2.971-0.224-4.321-0.01
			c-7.794-3.037-15.279-6.739-22.779-10.483c-6.149-3.072-13.624-1.688-17.261,4.53c-3.306,5.636-1.625,14.19,4.525,17.263
			c7.865,3.93,15.767,7.794,23.892,11.141c-5.85,20.089-11.644,40.202-17.61,60.266c-8.552-6.059-16.966-12.289-25.289-18.626
			c4.221-5.657,8.44-11.313,12.711-16.931c9.866-12.953-12.07-25.501-21.79-12.735c-3.595,4.723-7.135,9.476-10.688,14.229
			c-14.896-12.009-29.415-24.485-43.521-37.476c4.278-1.949,8.491-4.144,12.583-6.606c13.929-8.371,1.247-30.201-12.741-21.792
			c-37.907,22.793-83.69,20.967-105.962-21.335c-20.701-39.316,9.48-68.7,46.049-75.289c1.145,6.594,2.872,13.276,5.319,20.015
			c5.517,15.173,29.909,8.62,24.336-6.708c-22.016-60.583,19.088-109.753,80.979-113.439c25.309-1.509,52.45,6.893,67.983,27.891
			c29.371,39.717,6.439,91.975-27.03,120.366c-12.426,10.547,5.516,28.31,17.845,17.846c14.233-12.067,25.689-26.456,33.783-42.154
			c22.303,11.367,39.685,31.689,39.218,57.942C390.137,237.334,358.024,243.08,334.249,240.039z"/>
	</g>
</g>
<g>
</g>
<g>
</g>
<g>
</g>
<g>
</g>
<g>
</g>
<g>
</g>
<g>
</g>
<g>
</g>
<g>
</g>
<g>
</g>
<g>
</g>
<g>
</g>
<g>
</g>
<g>
</g>
<g>
</g>
</svg>
