<?xml version="1.0" encoding="iso-8859-1"?>
<!-- Generator: Adobe Illustrator 16.0.0, SVG Export Plug-In . SVG Version: 6.00 Build 0)  -->
<!DOCTYPE svg PUBLIC "-//W3C//DTD SVG 1.1//EN" "http://www.w3.org/Graphics/SVG/1.1/DTD/svg11.dtd">
<svg version="1.1" id="Capa_1" xmlns="http://www.w3.org/2000/svg" xmlns:xlink="http://www.w3.org/1999/xlink" x="0px" y="0px"
	 width="469.193px" height="469.193px" viewBox="0 0 469.193 469.193" style="enable-background:new 0 0 469.193 469.193;"
	 xml:space="preserve">
<g>
	<g>
		<path d="M401.038,322.304c25.156-5.769,48.175-24.593,60.078-49.125c10.196-21.032,10.76-43.289,1.574-62.674
			c-21.495-45.384-73.031-65.696-114.569-65.696c-2.103,0-4.2,0.053-6.281,0.152c-50.755,2.458-91.13,37.58-126.754,68.56
			l-7.794,6.764c-22.785,19.665-87.514,62.777-131.431,62.787c-21.678,0-34.028-10.399-38.864-32.748
			c-4.253-19.654,8.345-39.408,22.993-48.759c22.938-14.652,56.503-10.361,98.274,12.189c2.806,1.519,5.751,2.283,8.755,2.283
			c8.231,0,15.742-6.084,17.861-14.468c2.003-7.909-1.419-15.566-8.703-19.499c-16.729-9.031-50.127-24.189-85.803-24.189
			c-35.167,0-62.586,15.064-79.293,43.559c-12.931,22.059-14.627,47.852-4.648,70.769c9.734,22.358,29.165,38.278,53.309,43.655
			c9.135,2.042,18.413,3.072,27.565,3.072c57.308,0,103.997-38.871,149.146-76.453c22.023-18.334,42.822-35.646,63.855-47.579
			c13.152-7.462,31.737-11.738,50.983-11.738c39.852,0,80.455,18.065,81.349,58.417c0.259,11.477-3.372,21.135-10.791,28.722
			c-9.526,9.739-25.222,15.548-41.975,15.554c-6.21,0-12.207-0.787-17.833-2.341c-26.898-7.425-52.38-26.345-75.916-45.692
			c-3.433-2.813-7.506-4.316-11.786-4.316c-8.038,0-15.538,5.241-18.22,12.735c-2.371,6.622-0.31,13.65,5.397,18.337
			c37.791,31.062,78.566,59.799,120.734,59.804C388.653,324.391,394.985,323.685,401.038,322.304z"/>
	</g>
</g>
<g>
</g>
<g>
</g>
<g>
</g>
<g>
</g>
<g>
</g>
<g>
</g>
<g>
</g>
<g>
</g>
<g>
</g>
<g>
</g>
<g>
</g>
<g>
</g>
<g>
</g>
<g>
</g>
<g>
</g>
</svg>
