<?xml version="1.0" encoding="iso-8859-1"?>
<!-- Generator: Adobe Illustrator 16.0.0, SVG Export Plug-In . SVG Version: 6.00 Build 0)  -->
<!DOCTYPE svg PUBLIC "-//W3C//DTD SVG 1.1//EN" "http://www.w3.org/Graphics/SVG/1.1/DTD/svg11.dtd">
<svg version="1.1" id="Capa_1" xmlns="http://www.w3.org/2000/svg" xmlns:xlink="http://www.w3.org/1999/xlink" x="0px" y="0px"
	 width="456.724px" height="456.724px" viewBox="0 0 456.724 456.724" style="enable-background:new 0 0 456.724 456.724;"
	 xml:space="preserve">
<g>
	<g>
		<path d="M445.822,295.066c-34.505-32.789-61.23-60.479-84.102-87.158c-6.189-7.216-13.848-11.035-22.14-11.035
			c-12.309,0-24.501,8.529-30.336,21.211c-5.804,12.624-3.915,25.948,5.18,36.557c8.404,9.811,17.717,20.124,28.3,31.346
			c-2.615-0.273-5.708-0.4-9.323-0.4c-14.066,0-33.145,2.062-47.068,3.569c-7.297,0.792-13.599,1.473-16.59,1.564
			c-14.979,0.457-22.073,0.965-28.934,1.452c-6.789,0.487-13.802,0.975-28.556,1.438c-52.641,1.64-67.679,1.69-117.5,1.873
			l-6.271,0.021l-0.005-0.081c-0.005,0-0.005,0-0.005,0l-0.163,0.015c-1.927,0.107-3.623-0.563-5.21-2.168
			c-11.761-11.902-11.144-63.619-10.841-88.474c0.079-6.533,0.134-11.689,0.01-14.858c-0.744-17.808-1.315-35.622-1.892-53.438
			c-0.978-30.268-1.998-61.571-3.816-92.338C65.316,23.158,47.98,12.172,31.497,12.172c-9.453,0-18.164,3.489-23.905,9.577
			c-5.458,5.794-8.063,13.65-7.522,22.719c1.658,28.036,2.75,60.172,3.905,94.194c1.856,54.956,3.791,111.789,8.361,157.222
			c0.036,0.33,0.094,0.645,0.213,1.279c-0.218,3.783,0.099,7.176,0.962,10.364c5.454,20.078,16.305,35.322,32.26,45.316
			c9.734,6.104,21.297,9.059,35.358,9.059c2.392,0,4.783-0.081,7.175-0.238c2.61,0.604,5.17,0.909,7.815,0.935
			c62.289,0.553,101.778-1.371,143.942-3.438c32.002-1.568,65.054-3.188,110.802-3.89c-10.227,13.568-19.302,26.69-27.654,39.979
			c-6.435,10.227-7.008,21.226-1.62,30.971c6.058,10.958,18.773,18.331,31.656,18.331c11.283,0,20.977-5.54,27.294-15.6
			c17.991-28.619,39.888-56.538,66.933-85.351c7.871-8.384,10.847-18.84,8.439-29.117
			C455.175,307.36,451.692,300.642,445.822,295.066z"/>
	</g>
</g>
<g>
</g>
<g>
</g>
<g>
</g>
<g>
</g>
<g>
</g>
<g>
</g>
<g>
</g>
<g>
</g>
<g>
</g>
<g>
</g>
<g>
</g>
<g>
</g>
<g>
</g>
<g>
</g>
<g>
</g>
</svg>
