<?xml version="1.0" encoding="iso-8859-1"?>
<!-- Generator: Adobe Illustrator 16.0.0, SVG Export Plug-In . SVG Version: 6.00 Build 0)  -->
<!DOCTYPE svg PUBLIC "-//W3C//DTD SVG 1.1//EN" "http://www.w3.org/Graphics/SVG/1.1/DTD/svg11.dtd">
<svg version="1.1" id="Capa_1" xmlns="http://www.w3.org/2000/svg" xmlns:xlink="http://www.w3.org/1999/xlink" x="0px" y="0px"
	 width="474.634px" height="474.634px" viewBox="0 0 474.634 474.634" style="enable-background:new 0 0 474.634 474.634;"
	 xml:space="preserve">
<g>
	<g>
		<path d="M453.06,13.724c-0.041-0.401-0.076-0.812-0.122-1.211c-0.762-7.234-8.033-13.327-15.381-12.424
			c-4.515,0.557-13.025,13.802-15.772,17.232c-5.601,6.975-10.796,14.231-17.285,20.432c-13.503,12.89-31.225,21.068-48.226,28.312
			c-35.942,15.312-76.124,20.799-114.508,26.53c-20.418,3.047-40.964,6.449-61.022,11.446
			c-89.165,22.219-131.099,83.088-121.45,174.725c1.716,16.352,27.507,16.52,25.761,0c-5.119-48.682,0.188-96.781,43.6-126.124
			c33.591-22.701,77.972-28.784,117.012-35.655c64.927-11.428,137.512-21.439,184.706-69.022
			c5.316,73.994,1.188,151.4-33.951,217.452c-54.228,101.936-186.641,100.133-278.517,54.751
			c31.154-36.806,68.461-69.147,108.217-98.985c13.111-9.844,0.294-32.232-13.004-22.249
			c-90.124,67.656-168.944,146.949-196.31,259.64c-3.92,16.143,20.931,22.993,24.847,6.85
			c11.456-47.179,32.529-88.138,59.823-124.705c96.634,49.526,228.108,54.654,300.804-37.495
			c61.738-78.27,60.86-194.397,50.892-288.5C453.141,14.384,453.11,14.051,453.06,13.724z"/>
	</g>
</g>
<g>
</g>
<g>
</g>
<g>
</g>
<g>
</g>
<g>
</g>
<g>
</g>
<g>
</g>
<g>
</g>
<g>
</g>
<g>
</g>
<g>
</g>
<g>
</g>
<g>
</g>
<g>
</g>
<g>
</g>
</svg>
