<?xml version="1.0" encoding="iso-8859-1"?>
<!-- Generator: Adobe Illustrator 16.0.0, SVG Export Plug-In . SVG Version: 6.00 Build 0)  -->
<!DOCTYPE svg PUBLIC "-//W3C//DTD SVG 1.1//EN" "http://www.w3.org/Graphics/SVG/1.1/DTD/svg11.dtd">
<svg version="1.1" id="Capa_1" xmlns="http://www.w3.org/2000/svg" xmlns:xlink="http://www.w3.org/1999/xlink" x="0px" y="0px"
	 width="415.153px" height="415.153px" viewBox="0 0 415.153 415.153" style="enable-background:new 0 0 415.153 415.153;"
	 xml:space="preserve">
<g>
	<g>
		<path d="M385.047,32.474C384.996,15.775,381.533,0,364.781,0c-0.482,0-0.939,0.109-1.407,0.145
			c-1.898-0.12-3.879-0.046-6.032,0.505C238.908,30.986,131.387,95.339,36.025,170.424c-5.36,4.223-6.889,9.369-6.025,14.211
			c-0.371,2.575-0.599,5.149-0.604,7.759c-0.005,5.86,2.928,11.1,7.343,14.444c0.577,0.785,1.143,1.572,1.887,2.323
			c85.564,86.296,185.217,163.39,300.518,204.876c3.747,1.346,7.089,1.382,10.019,0.6c6.87-0.106,13.66-0.63,20.469-1.899
			c8.577-1.595,13.787-10.785,13.244-19.058c0.01-0.376,0.106-0.706,0.106-1.092c0-109.187,5.81-218.302,0.624-327.456
			C383.26,57.81,385.088,44.889,385.047,32.474z M346.657,378.112c-105.606-38.522-197.16-109.954-276.208-188.668
			C152.917,125.7,245.515,71.123,345.865,41.579C353.208,153.66,347.338,265.909,346.657,378.112z"/>
	</g>
</g>
<g>
</g>
<g>
</g>
<g>
</g>
<g>
</g>
<g>
</g>
<g>
</g>
<g>
</g>
<g>
</g>
<g>
</g>
<g>
</g>
<g>
</g>
<g>
</g>
<g>
</g>
<g>
</g>
<g>
</g>
</svg>
