<?xml version="1.0" encoding="iso-8859-1"?>
<!-- Generator: Adobe Illustrator 16.0.0, SVG Export Plug-In . SVG Version: 6.00 Build 0)  -->
<!DOCTYPE svg PUBLIC "-//W3C//DTD SVG 1.1//EN" "http://www.w3.org/Graphics/SVG/1.1/DTD/svg11.dtd">
<svg version="1.1" id="Capa_1" xmlns="http://www.w3.org/2000/svg" xmlns:xlink="http://www.w3.org/1999/xlink" x="0px" y="0px"
	 width="496.183px" height="496.183px" viewBox="0 0 496.183 496.183" style="enable-background:new 0 0 496.183 496.183;"
	 xml:space="preserve">
<g>
	<g>
		<path d="M239.851,165.235c-2.623,0-5.21,0.083-7.729,0.246c-0.447,0.025-0.868,0.089-1.404,0.18
			c-1.678-0.114-3.39-0.01-5.042,0.361c-39.588,8.729-77.025,43.777-68.446,91.54c7.528,41.909,46.185,72.321,91.917,72.321l0,0
			c3.027,0,6.088-0.133,9.095-0.401c42.015-3.783,85.314-36.241,85.061-84.021C343.023,193.351,289.795,165.235,239.851,165.235z
			 M191.535,253.545c-2.618-10.095-1.305-19.618,3.895-28.319c7.008-11.72,20.716-21.094,36.762-25.177l0.218,0.01l0.353-0.02
			c2.321-0.147,4.68-0.223,7.062-0.223c29.518,0,65.282,12.105,68.934,46.225c0.979,9.196-1.742,17.788-8.109,25.532
			c-11.919,14.522-33.149,22.449-48.912,23.866C223.747,297.958,198.392,279.966,191.535,253.545z"/>
		<path d="M219.93,124.37c39.266-3.867,83.744,9.933,123.281,38.08c3.523,2.511,7.256,3.791,11.085,3.791l0,0
			c8.1,0,15.427-5.908,18.234-14.695c2.966-9.265-0.035-18.469-7.824-24.014c-51.364-36.584-114.425-51.638-170.928-40.5
			C138.163,97.987,95.05,147.276,87.527,207.775c-7.437-0.17-14.874-0.323-22.308-0.477c-15.013-0.308-30.031-0.609-45.042-1.125
			l-0.817-0.016c-12.49,0-19.192,9.864-19.357,19.609c-0.178,10.306,6.576,20.985,19.822,21.437
			c14.579,0.497,29.166,0.771,43.75,1.051c14.015,0.264,28.028,0.528,42.043,0.985l0.77,0.015c6.134,0,11.443-2.488,15.01-7.025
			c3.933-3.692,5.979-8.719,5.928-14.579C126.795,172.288,164.875,129.816,219.93,124.37z"/>
		<path d="M476.356,248.864c-14.579-0.498-29.163-0.771-43.752-1.046c-14.011-0.27-28.025-0.533-42.041-0.99l-0.767-0.016
			c-6.14,0-11.445,2.493-15.016,7.023c-3.936,3.691-5.981,8.724-5.926,14.584c0.528,55.37-37.547,97.842-92.603,103.286
			c-39.268,3.89-83.746-9.928-123.275-38.075c-3.526-2.514-7.259-3.793-11.087-3.793c-8.1,0-15.427,5.905-18.24,14.695
			c-2.963,9.268,0.036,18.469,7.825,24.014c40.025,28.503,87.146,44.204,132.688,44.204c12.897,0,25.771-1.244,38.236-3.702
			c55.619-10.958,98.727-60.245,106.257-120.754c7.435,0.178,14.868,0.325,22.312,0.482c15.011,0.305,30.021,0.604,45.037,1.122
			l0.812,0.016c12.486,0,19.189-9.867,19.362-19.611C496.353,259.99,489.599,249.321,476.356,248.864z"/>
	</g>
</g>
<g>
</g>
<g>
</g>
<g>
</g>
<g>
</g>
<g>
</g>
<g>
</g>
<g>
</g>
<g>
</g>
<g>
</g>
<g>
</g>
<g>
</g>
<g>
</g>
<g>
</g>
<g>
</g>
<g>
</g>
</svg>
