<?xml version="1.0" encoding="iso-8859-1"?>
<!-- Generator: Adobe Illustrator 16.0.0, SVG Export Plug-In . SVG Version: 6.00 Build 0)  -->
<!DOCTYPE svg PUBLIC "-//W3C//DTD SVG 1.1//EN" "http://www.w3.org/Graphics/SVG/1.1/DTD/svg11.dtd">
<svg version="1.1" id="Capa_1" xmlns="http://www.w3.org/2000/svg" xmlns:xlink="http://www.w3.org/1999/xlink" x="0px" y="0px"
	 width="449.017px" height="449.017px" viewBox="0 0 449.017 449.017" style="enable-background:new 0 0 449.017 449.017;"
	 xml:space="preserve">
<g>
	<g>
		<path d="M442.114,103.542c-2.062-2.311-5.093-3.849-9.12-3.849c-29.03,0.005-391.182,0.132-420.177,1.706
			c-5.319,0.292-8.896,3.189-10.773,6.927c-1.389,1.935-2.178,4.461-2.024,7.581c1.438,28.589,5.015,15.308,1.79,43.727
			c-0.759,6.665,3.052,10.539,7.935,11.761c1.777,0.898,3.936,1.353,6.568,1.036c28.348-3.397,389.976-5.149,418.469-6.828
			c7.805-0.459,11.872-6.5,12.263-12.596c0.305-1.112,0.528-2.293,0.539-3.618c0.132-24.689-3.443-7.502,1.173-31.791
			C449.985,111.087,446.675,106.126,442.114,103.542z M28.792,145.483c0.213-12.027-2.887-19.047-2.887-19.047
			c20.863-0.843,374.879-1.082,395.765-1.122c0,0-3.017,8.465,0.518,15.455C402.074,141.995,48.833,143.404,28.792,145.483z"/>
		<path d="M446.964,196.723c-1.874-3.737-5.454-6.634-10.771-6.926c-28.995-1.574-391.151-1.701-420.177-1.706
			c-4.029,0-7.061,1.539-9.125,3.849c-4.555,2.585-7.869,7.551-6.63,14.062c4.611,24.288,1.039,7.096,1.168,31.793
			c0.005,1.32,0.229,2.503,0.541,3.615c0.391,6.104,4.456,12.137,12.261,12.594c28.49,1.681,390.123,3.433,418.469,6.83
			c2.636,0.319,4.793-0.143,6.57-1.036c4.886-1.224,8.699-5.094,7.938-11.761c-3.22-28.419,0.355-15.138,1.792-43.727
			C449.143,201.184,448.355,198.663,446.964,196.723z M420.208,233.883c-20.043-2.082-373.284-3.493-393.396-4.712
			c3.534-6.99,0.518-15.455,0.518-15.455c20.883,0.041,374.902,0.279,395.763,1.122C423.098,214.833,420,221.854,420.208,233.883z"
			/>
		<path d="M442.114,280.336c-2.062-2.311-5.093-3.849-9.12-3.849c-29.03,0.005-391.182,0.132-420.177,1.706
			c-5.319,0.294-8.896,3.188-10.773,6.927c-1.389,1.935-2.178,4.458-2.024,7.581c1.438,28.589,5.015,15.31,1.79,43.727
			c-0.759,6.662,3.052,10.542,7.935,11.761c1.777,0.898,3.936,1.351,6.568,1.035c28.348-3.396,389.976-5.148,418.469-6.824
			c7.805-0.462,11.872-6.5,12.263-12.599c0.305-1.112,0.528-2.29,0.539-3.62c0.132-24.689-3.443-7.501,1.173-31.789
			C449.985,287.882,446.675,282.921,442.114,280.336z M28.792,322.281c0.213-12.029-2.887-19.053-2.887-19.053
			c20.863-0.843,374.879-1.076,395.765-1.117c0,0-3.017,8.46,0.518,15.447C402.074,318.787,48.833,320.199,28.792,322.281z"/>
	</g>
</g>
<g>
</g>
<g>
</g>
<g>
</g>
<g>
</g>
<g>
</g>
<g>
</g>
<g>
</g>
<g>
</g>
<g>
</g>
<g>
</g>
<g>
</g>
<g>
</g>
<g>
</g>
<g>
</g>
<g>
</g>
</svg>
