<?xml version="1.0" encoding="iso-8859-1"?>
<!-- Generator: Adobe Illustrator 16.0.0, SVG Export Plug-In . SVG Version: 6.00 Build 0)  -->
<!DOCTYPE svg PUBLIC "-//W3C//DTD SVG 1.1//EN" "http://www.w3.org/Graphics/SVG/1.1/DTD/svg11.dtd">
<svg version="1.1" id="Capa_1" xmlns="http://www.w3.org/2000/svg" xmlns:xlink="http://www.w3.org/1999/xlink" x="0px" y="0px"
	 width="488.958px" height="488.958px" viewBox="0 0 488.958 488.958" style="enable-background:new 0 0 488.958 488.958;"
	 xml:space="preserve">
<g>
	<g>
		<path d="M355.698,64.869c-2.915-4.065-7.643-5.944-12.522-5.085c-2.61-0.556-5.256-0.308-7.749,0.759
			c-45.361,19.35-90.393,41.276-133.942,62.487c-46.471,22.63-94.491,46.02-142.986,66.298c-0.97-1.498-2.288-2.75-3.945-3.76
			c-6.421-3.888-14.351-6.03-22.318-6.03c-11.555,0-22.125,4.382-29.01,12.022c-3.499,3.872-4.189,9.046-1.882,13.67
			c0,29.353,0.125,55.883,1.648,83.126c-0.14,4.148,2.024,8.252,5.781,10.974c5.208,3.763,12.472,5.829,20.472,5.829
			c7.993,0,15.792-2.097,21.388-5.763c1.046-0.686,1.945-1.504,2.481-2.22c0.203-0.167,0.398-0.345,0.597-0.538
			c4.583,1.528,9.173,3.047,13.764,4.545c-12.146,36.668-8.734,74.661-3.768,106.719c-0.063,5.575,3.222,10.034,8.564,11.623
			c14.518,4.327,26.413,7.394,37.433,9.653c0.898,0.188,1.8,0.285,2.679,0.285c2.818,0,5.454-0.96,7.637-2.778
			c4.103-2.147,8.008-6.749,7-13.446c-2.341-15.564-3.319-29.681-2.981-43.097c18.332-9.511,32.766-23.379,41.845-40.192
			c66.031,16.839,126,26.527,183.269,29.595l0.736,0.025c3.366,0,6.216-1.249,8.287-3.616c2.763-1.401,4.835-3.701,6.002-6.713
			C395.829,267.779,412.596,144.413,355.698,64.869z M127.737,338.526c1.315-6.135,2.928-11.908,4.883-17.464
			c2.562,0.711,5.131,1.407,7.701,2.098l0.952,0.259C137.497,329.096,133.028,334.093,127.737,338.526z M101.179,402.133
			c-5.111-1.274-9.859-2.529-14.376-3.813c-3.676-25.313-6.286-57.884,3.946-89.692c6.137,1.914,12.284,3.788,18.438,5.621
			C100.146,339.744,97.582,367.841,101.179,402.133z M330.048,215.903c0.604,13.753-5.723,26.332-16.706,33.692
			c-1.483-12.954-2.052-27.274-1.727-43.612c0.127-6.663,0.446-13.233,0.939-19.573C323.021,192.219,329.48,202.987,330.048,215.903
			z M353.676,209.527c-1.899-23.653-16.041-41.685-38.014-48.665c4.936-29.27,14.157-52.933,27.426-70.417
			c48.327,83.541,16.656,197.259,3.54,235.791c-13.538-11.872-23.237-29.203-28.874-51.598
			C341.509,262.737,355.87,236.86,353.676,209.527z M319.425,332.895c-77.619-7.236-158.722-26.04-261.587-60.58
			c0.475-15.945,1.14-36.392,2.103-57.305c51.542-21.272,102.436-45.999,151.674-69.906c32.037-15.564,65.104-31.621,98.127-46.629
			c-14.305,28.98-21.729,66.273-22.653,113.666C286.368,248.879,291.547,298.821,319.425,332.895z M25.751,204.892
			c0-0.031,0-0.063,0-0.089c2.491-0.8,7.129-1.097,10.24-0.655c-1.358,26.253-2.163,52.969-2.813,76.261
			c-1.145,0.138-2.742,0.244-4.535,0.244c-0.629,0-1.17-0.016-1.622-0.035C25.85,255.069,25.751,229.22,25.751,204.892z"/>
		<path d="M419.385,97.957c-4.128,0-8.394,2.432-10.877,6.192c-2.422,3.677-2.813,8.112-1.071,12.172
			c26.299,61.276,21.81,126.345-12.64,183.216c-2.279,3.773-2.432,7.998-0.396,11.604c2.229,3.955,6.814,6.616,11.405,6.616
			c4.189,0,7.744-2.071,10.023-5.834c38.477-63.526,43.092-137.164,12.975-207.352C427.002,100.369,423.565,97.957,419.385,97.957z"
			/>
		<path d="M469.566,136.986c-4.139,0-8.14,1.924-10.436,5.027c-2.117,2.856-2.665,6.464-1.543,10.166
			c11.004,36.181,9.211,71.866-5.332,106.073c-1.731,4.062-1.325,8.501,1.102,12.178c2.488,3.768,6.754,6.189,10.872,6.189
			c4.18,0,7.606-2.417,9.404-6.637c17.52-41.221,20.033-83.083,7.465-124.428C479.489,140.267,475.065,136.986,469.566,136.986z"/>
	</g>
</g>
<g>
</g>
<g>
</g>
<g>
</g>
<g>
</g>
<g>
</g>
<g>
</g>
<g>
</g>
<g>
</g>
<g>
</g>
<g>
</g>
<g>
</g>
<g>
</g>
<g>
</g>
<g>
</g>
<g>
</g>
</svg>
