<?xml version="1.0" encoding="iso-8859-1"?>
<!-- Generator: Adobe Illustrator 16.0.0, SVG Export Plug-In . SVG Version: 6.00 Build 0)  -->
<!DOCTYPE svg PUBLIC "-//W3C//DTD SVG 1.1//EN" "http://www.w3.org/Graphics/SVG/1.1/DTD/svg11.dtd">
<svg version="1.1" id="Capa_1" xmlns="http://www.w3.org/2000/svg" xmlns:xlink="http://www.w3.org/1999/xlink" x="0px" y="0px"
	 width="483.144px" height="483.144px" viewBox="0 0 483.144 483.144" style="enable-background:new 0 0 483.144 483.144;"
	 xml:space="preserve">
<g>
	<g>
		<path d="M288.177,168.533c-1.803-1.061-3.803-3.879-4.296-6.028c-2.3-10.217-6.256-19.453-11.745-27.443
			c-0.935-1.364-2.057-2.512-3.341-3.423c-2.062-1.45-4.662-2.199-5.724-2.465c-0.376-0.467-1.071-1.732-1.549-3.489
			C249.11,79.541,225.799,38.577,192.229,3.92c-2.465-2.547-5.474-3.9-8.762-3.92c-2.62,0-4.923,0.903-6.167,1.394l-0.322,0.145
			c-0.437,0.079-0.883,0.183-1.346,0.312C114.607,19.296,80.64,76.802,91.113,144.94c0.983,6.391,5.855,10.242,12.183,9.666
			c2.49-0.219,4.902-1.127,6.35-1.668c0.373-0.143,0.676-0.262,0.874-0.317c0.724-0.198,1.439-0.462,2.178-0.823
			c22.447-10.861,44.239-9.084,63.47,5.19c1.3,0.967,2.351,1.856,2.953,2.415c0.089,5.312,0.541,11.09,1.409,18.093
			c0.178,1.463,0.333,2.783,0.426,3.692c-68.273,54.111-109.535,131.87-116.232,219.079c-0.061,0.736-0.045,1.417,0.01,2.077
			l0.053,0.909c0.056,1.147,0.135,2.712,0.394,4.017c0.247,1.204,0.66,2.392,1.239,3.529c21.99,43.305,69.296,66.689,144.623,71.493
			c8.861,0.563,18.007,0.853,27.185,0.853c0.005,0,0.005,0,0.005,0c48.559,0,101.694-8.079,153.678-23.354
			c0.411-0.122,0.802-0.264,1.27-0.365c1.254-0.138,3.859-0.437,6.175-1.95c1.823-1.188,3.26-2.925,4.286-5.17
			c21.713-47.209,19.504-104.22-6.216-160.524C374.406,241.376,333.569,195.307,288.177,168.533z M199.774,199.27
			c0.587-0.465,1.092-0.947,1.356-1.27c0.361-0.244,2.232-0.927,4.712-1.181c16.945-1.727,39.263-4.098,61.642-7.14
			c2.417-0.327,6.108,0.437,7.957,1.549c97.781,58.436,135.171,171.542,108.75,240.526c-0.721,1.884-3.214,4.113-5.235,4.677
			c-48.175,13.563-98.127,20.443-148.462,20.443h-0.879c-69.182-0.106-115.217-17.752-136.823-52.455
			c-1.039-1.676-1.777-3.107-2.085-3.788C96.801,321.324,135.536,249.811,199.774,199.27z M235.45,131.664
			c-0.198,0.317-0.582,0.724-1.768,0.891c-1.435,0-3.042-1.061-3.656-2.419c-9.526-21.043-22.749-38.677-39.306-52.392
			c-2.491-2.072-5.434-3.164-8.506-3.164c-5.769,0-11.357,3.895-13.292,9.262c-1.648,4.57-0.239,9.288,3.771,12.604
			c13.357,11.075,24.075,24.699,31.839,40.477c0.254,0.51,0.284,0.993,0.099,1.404c-0.198,0.442-0.645,0.774-1.265,0.937
			l-2.163,0.577c-1.836,0.505-5.149-0.198-6.729-1.44c-16.374-12.85-34.235-19.365-53.09-19.365c-8.077,0-16.359,1.221-24.623,3.628
			c-0.774,0.219-1.777,0.511-1.798-1.143c-0.49-43.165,22.838-78.554,60.87-92.355c1.594-0.566,4.416,0.168,5.583,1.493
			c25.542,28.744,43.79,62.139,54.23,99.249C235.831,130.547,235.762,131.171,235.45,131.664z M256.912,164.394
			c-0.279,0.447-0.803,0.751-1.438,0.831c-16.973,2.184-34.053,3.988-47.334,5.324c-1.31,0-2.407-0.909-2.501-2.069
			c-0.109-1.498,1.206-3.25,2.77-3.682c13.505-3.697,27.701-6.675,42.198-8.858c0.16-0.028,0.323-0.038,0.495-0.038
			c1.671,0,3.565,1.12,4.139,2.44c0.655,1.518,1.249,3.067,1.782,4.641C257.201,163.503,257.161,163.993,256.912,164.394z"/>
		<path d="M201.511,390.272c7.97,4.713,17.976,9.206,28.183,12.634c1.622,0.549,2.938,2.474,2.823,4.113
			c-0.328,4.626-0.67,9.252-1.072,13.873c-0.353,4.159,0.894,7.917,3.608,10.888c2.877,3.128,7.155,4.996,11.451,4.996
			c6.776,0,11.534-4.417,12.124-11.242c0.38-4.479,0.716-8.952,1.035-13.432c0.092-1.325,1.163-2.279,2.747-2.279
			c0.005,0,0.011,0,0.016,0c2.122,0.142,4.235,0.223,6.317,0.223c19.936,0,34.688-7.256,42.64-20.972
			c11.735-20.251-9.182-41.975-21.684-54.949l-1.239-1.289c-6.885-7.176-14.111-13.817-21.515-20.551
			c-1.56-1.417-2.936-4.631-2.899-6.733c0.233-12.045,0.432-24.101,0.619-36.155c0.021-1.178,0.803-2.011,2.239-2.011
			c0.016,0,0.036,0,0.056,0l6.46,0.903c3.371,0.478,6.596,0.935,9.592,1.29c9.633,1.147,15.503-6.586,15.935-13.812
			c0.346-5.941-2.955-12.37-11.136-13.346c-2.666-0.314-5.702-0.741-9.009-1.208c-3.361-0.468-6.992-0.976-10.795-1.452
			c-1.544-0.193-2.818-1.65-2.793-3.179l0.192-10.141c0.076-3.613-1.056-6.718-3.265-8.973c-2.275-2.321-5.53-3.595-9.182-3.595
			c-7.162,0-14.875,4.997-15.071,14.264l-0.132,7.224c-0.025,1.485-1.315,2.785-2.869,2.899
			c-17.034,1.247-28.33,6.568-34.527,16.268c-11.71,18.342,7.924,38.669,19.662,50.805l1.305,1.356
			c3.488,3.62,7.414,7.479,11.999,11.796c1.582,1.482,2.923,4.656,2.872,6.8c-0.427,17.763-0.983,33.712-1.707,48.758
			c-0.041,0.722-0.502,1.463-1.534,1.041c-8.267-3.366-14.949-6.997-19.098-9.449c-7.64-4.515-16.438-0.285-18.798,8.353
			C193.28,380.498,195.812,386.896,201.511,390.272z M237.212,268.3l-0.229,15c-2.303-2.523-4.336-4.875-6.188-7.159
			c-1.782-2.204-3.737-4.784-5.164-7.628c2.777-1.056,5.877-1.808,9.427-2.295l0.297-0.021c0.625,0,1.036,0.289,1.275,0.528
			C237.017,267.116,237.222,267.68,237.212,268.3z M261.649,379.73c0.563-11.207,1.021-22.424,1.387-33.646
			c6.581,6.454,11.821,12.126,16.458,17.824l0.518,0.629c3.56,4.348,6.911,8.46,6.302,10.837c-0.406,1.569-2.731,3.239-6.733,4.85
			c-4.367,1.757-9.658,2.574-15.519,2.361c-0.614-0.021-1.203-0.305-1.655-0.798C261.883,381.224,261.614,380.482,261.649,379.73z"
			/>
	</g>
</g>
<g>
</g>
<g>
</g>
<g>
</g>
<g>
</g>
<g>
</g>
<g>
</g>
<g>
</g>
<g>
</g>
<g>
</g>
<g>
</g>
<g>
</g>
<g>
</g>
<g>
</g>
<g>
</g>
<g>
</g>
</svg>
