<?xml version="1.0" encoding="iso-8859-1"?>
<!-- Generator: Adobe Illustrator 16.0.0, SVG Export Plug-In . SVG Version: 6.00 Build 0)  -->
<!DOCTYPE svg PUBLIC "-//W3C//DTD SVG 1.1//EN" "http://www.w3.org/Graphics/SVG/1.1/DTD/svg11.dtd">
<svg version="1.1" id="Capa_1" xmlns="http://www.w3.org/2000/svg" xmlns:xlink="http://www.w3.org/1999/xlink" x="0px" y="0px"
	 width="476.487px" height="476.486px" viewBox="0 0 476.487 476.486" style="enable-background:new 0 0 476.487 476.486;"
	 xml:space="preserve">
<g>
	<g>
		<path d="M456.516,0c-3.148,0-6.317,1.13-9.15,3.268c-17.718,13.342-26.964,28.457-29.087,47.573
			c-0.762,6.853-0.889,13.675-1.016,20.274c-0.391,20.894-0.731,38.94-20.494,50.896c-12.274,7.419-28.554,8.496-44.301,9.537
			c-6.992,0.462-14.224,0.942-20.927,1.98c-20.905,3.255-39.704,13.65-57.365,31.725c-18.733-12.875-41.2-19.656-65.28-19.656
			c-32.177,0-64.774,11.887-91.845,33.484c-0.625,0.333-1.247,0.691-1.881,1.153c-6.391,4.649-12.995,9.219-19.642,13.822
			c-41.058,28.427-83.502,57.828-90.33,112.203c-0.137,1.076-0.173,2.147-0.109,3.184c-3.308,34.312,7.96,68.162,14.996,85.33
			c17.813,43.498,53.064,73.555,94.293,80.405c5.217,0.873,10.613,1.31,16.049,1.31c0,0,0,0,0.005,0
			c40.708,0,78.797-24.1,103.576-44.311c87.791-71.609,115.577-150.765,78.249-222.875c-3.966-7.65-8.576-14.785-13.756-21.264
			c15.442-14.736,32.672-22.041,56.716-24.209c20.652-1.861,39.269-4.129,57.95-13.058c18.336-8.767,30.879-25.89,35.317-48.213
			c1.711-8.635,1.706-17.529,1.701-26.124c-0.011-18.245-0.021-34.002,14.903-45.24c6.068-4.565,8.399-12.281,5.937-19.654
			C468.713,4.639,462.884,0,456.516,0z M271.455,345.149c-13.051,18.85-31.151,38.283-53.885,57.849
			c-21.186,18.22-53.809,39.943-88.908,39.943c-4.616,0-9.229-0.376-13.711-1.117c-44.546-7.403-64.551-57.473-71.076-78.647
			c-8.419-27.3-11.778-66.572,20.03-98.686c12.796-12.918,27.959-23.938,42.622-34.589c5.22-3.791,10.577-7.686,15.843-11.674
			C157.423,276.181,208.772,319.882,271.455,345.149z M190.306,252.299c-15.942-16.381-30.023-34.949-41.952-55.307
			c18.131-12.106,37.882-18.481,57.361-18.481c15.838,0,31.09,4.312,44.458,12.518C229.119,213.419,209.452,233.541,190.306,252.299
			z M286.242,231.04c13.812,26.683,14.324,55.297,1.533,85.114c-26.578-10.085-51.069-24.049-72.925-41.548
			c19.212-18.85,38.887-39.012,59.895-61.38C279.137,218.789,282.992,224.764,286.242,231.04z"/>
	</g>
</g>
<g>
</g>
<g>
</g>
<g>
</g>
<g>
</g>
<g>
</g>
<g>
</g>
<g>
</g>
<g>
</g>
<g>
</g>
<g>
</g>
<g>
</g>
<g>
</g>
<g>
</g>
<g>
</g>
<g>
</g>
</svg>
