<?xml version="1.0" encoding="iso-8859-1"?>
<!-- Generator: Adobe Illustrator 16.0.0, SVG Export Plug-In . SVG Version: 6.00 Build 0)  -->
<!DOCTYPE svg PUBLIC "-//W3C//DTD SVG 1.1//EN" "http://www.w3.org/Graphics/SVG/1.1/DTD/svg11.dtd">
<svg version="1.1" id="Capa_1" xmlns="http://www.w3.org/2000/svg" xmlns:xlink="http://www.w3.org/1999/xlink" x="0px" y="0px"
	 width="498.972px" height="498.972px" viewBox="0 0 498.972 498.972" style="enable-background:new 0 0 498.972 498.972;"
	 xml:space="preserve">
<g>
	<g>
		<path d="M402.826,219.848c10.42-14.127,19.54-34.862,19.656-35.18c0.985-2.615,0.879-5.522-0.31-8.062
			c-1.178-2.537-3.336-4.486-5.972-5.418c-1.544-0.541-3.204-1.148-4.951-1.788c-8.861-3.234-19.423-7.089-29.787-8.589
			c3.829-14.03,3.95-29.681,3.153-38.085c-0.264-2.813-1.66-5.398-3.869-7.155c-2.204-1.762-5.048-2.559-7.836-2.178
			c-11.014,1.444-24.572,3.458-37.851,6.723c-0.219-1.467-0.438-2.947-0.66-4.456c-1.636-11.138-3.336-22.65-7.698-33.596
			c-1.798-4.494-6.403-7.183-11.243-6.429c-13.654,2.103-24.638,11.263-34.332,19.345c-0.716,0.597-1.417,1.186-2.122,1.767
			c-4.977-7.851-10.223-15.541-15.336-23.043c-2.021-2.961-4.026-5.909-6.018-8.856c-1.935-2.866-5.162-4.588-8.62-4.588
			s-6.693,1.722-8.623,4.588c-2.849,4.223-5.481,8.668-8.028,12.975c-4.133,6.987-8.043,13.586-12.651,19.055
			c-0.422,0.5-0.78,0.922-1.087,1.27c-1.117-0.586-2.328-1.279-2.958-1.638c-9.485-5.408-19.538-13.253-28.708-20.424
			c-4.53-3.531-11.06-2.736-14.602,1.793c-1.752,2.242-2.44,4.981-2.133,7.597c-0.343,2.521-1.704,8.683-4.055,18.356
			c-0.462,1.897-0.769,3.223-0.838,3.565c-0.452,2.351-0.774,4.603-1.077,6.713c-0.297,2.077-0.675,4.781-1.102,6.19
			c-0.63,0.061-1.861,0.076-3.171-0.043c-7.249-0.649-15.183-2.61-22.858-4.507c-4.212-1.041-8.394-2.071-12.502-2.922
			c-3.41-0.703-6.977,0.353-9.458,2.828c-2.476,2.476-3.542,6.025-2.834,9.458c0.203,0.982,0.597,3.682,1.148,7.307
			c1.958,12.941,3.481,22.414,4.905,29.384c-13.878,2.105-30.488,7.607-36.323,9.821c-3.197,1.214-5.538,3.994-6.353,7.312
			c-0.817,3.323,0.114,6.9,2.392,9.458c2.61,2.932,15.625,21.101,21.246,30.366c-8.896,8.369-19.852,16.12-31.463,22.193
			c-3.064,1.607-5.129,4.628-5.512,8.066c-0.386,3.436,0.972,6.843,3.603,9.082c4.191,3.555,9.904,6.221,15.957,9.049
			c5.393,2.52,14.935,6.978,17.357,10.639c-3.087,7.089-15.168,25.842-19.868,30.737c-2.709,1.254-4.867,3.671-5.688,6.794
			c-1.457,5.551,1.856,11.243,7.414,12.7c0.005,0,0.015,0,0.021,0.005c3.963,1.036,9.589,1.564,16.1,2.174
			c6.286,0.594,18.469,1.736,23.777,3.646c-0.333,8.648-4.212,29.306-6.446,35.201c-1.96,2.27-2.933,5.362-2.402,8.551
			c0.955,5.667,6.312,9.455,11.984,8.531c4.91-0.823,10.182-2.712,15.767-4.692c6.868-2.457,14.658-5.23,20.269-5.23
			c1.643,0,2.947,0.244,3.514,0.478c3.255,3.113,4.708,19.606,5.324,26.649c0.449,5.088,0.833,9.485,1.546,12.949
			c0.988,4.834,5.25,8.307,10.187,8.307c3.648,0,3.648,0,18.806-11.887c3.542-2.783,6.609-5.19,7.089-5.551
			c3.562-2.666,9.76-7.394,12.708-6.489c4.212,4.326,16.697,21.556,19.324,27.614c-0.007,3.504,1.762,6.926,4.964,8.891
			c1.696,1.041,3.572,1.534,5.423,1.534c3.501,0,6.916-1.763,8.874-4.967c0.005-0.005,0.01-0.015,0.015-0.02
			c2.001-3.261,3.87-7.227,5.851-11.41c4.179-8.826,10.399-21.998,16.808-22.993c5.474,1.939,22.059,11.44,26.872,16.051
			c0.833,3.113,3.093,5.789,6.328,7.033c5.337,2.041,11.379-0.63,13.431-5.992l0.005-0.005c0-0.005,0-0.005,0-0.01
			c0.387-1.001,1.301-3.433,5.805-26.228c0.898-4.54,1.635-8.277,2.229-11.354c0.863,0.233,1.737,0.467,2.621,0.711
			c10.471,2.854,22.327,6.083,33.047,6.083c0.006,0,0.006,0,0.006,0c1.695,0,3.355-0.081,4.955-0.244
			c5.571-0.568,9.689-5.453,9.313-11.039c-0.162-2.428-1.411-8.703-5.337-27.614c-0.803-3.89-1.711-8.236-2.463-11.928
			c1.858-0.544,3.707-1.103,5.525-1.65c10.414-3.139,20.256-6.104,30.163-6.388c3.483-0.102,6.683-1.945,8.525-4.906
			c1.839-2.955,2.077-6.637,0.625-9.815c-4.987-10.902-12.654-21.82-20.236-31.936c2.88-1.879,6.368-4.255,10.629-7.251
			c19.788-13.908,21.591-17.052,22.566-18.748c2.382-4.134,1.63-9.366-1.808-12.672C424.483,232.747,413.597,226.11,402.826,219.848
			z M384.261,266.625c-1.417,0.314-2.803,0.939-4.032,1.879c-4.57,3.483-5.453,10.003-1.97,14.573l1.62,2.133
			c5.499,7.2,11.476,15.031,16.442,22.77c-6.632,1.396-13.035,3.326-19.317,5.221c-4.809,1.441-9.354,2.812-13.949,3.945
			c-9.841,2.407-8.027,11.481-6.57,18.773c0.803,4.012,1.925,9.425,3.087,15c0.812,3.92,1.808,8.698,2.691,13.035
			c-5.966-1.011-12.477-2.782-18.839-4.515c-5.027-1.371-9.78-2.671-14.33-3.604c-5.632-1.184-11.121,2.437-12.294,8.054
			c-0.106,0.502-0.167,0.995-0.198,1.492c-0.446,2.961-2.93,15.996-5.164,27.097c-10.953-7.262-24.684-13.96-30.098-14.025
			c-16.295,0-25.648,13.73-32.336,26.821c-6.833-10.12-15.125-20.362-18.646-22.384c-3.608-2.071-7.528-3.128-11.651-3.128
			c-10.13,0-18.755,6.449-24.44,10.705c-0.259,0.192-2.366,1.838-5.126,4.001c-1.523-15.051-4.316-30.306-15.544-36.063
			c-3.895-1.996-8.386-3.007-13.362-3.007c-7.384,0-15.013,2.204-22.11,4.632c3.021-13.848,5.715-32.012,0.929-38.334
			c-5.86-7.739-17.658-9.958-34.822-11.71c7.528-10.811,17.362-26.654,16.171-34.154c-2.153-13.573-15.13-20.647-26.664-26.116
			c9.557-6.459,18.309-13.787,25.517-21.432c7.023-7.444,0.973-16.311-10.026-32.4c-1.97-2.879-4.223-6.104-6.426-9.181
			c8.848-2.569,19.03-4.94,25.24-4.94c1.414,0,1.996,0.14,2.016,0.145c5.561,1.379,11.223-1.976,12.622-7.554
			c0.838-3.323-0.03-6.677-2.054-9.138c-1.592-4.705-3.92-18.786-5.443-28.536c7.482,1.835,15.173,3.587,22.945,4.283
			c1.384,0.127,2.658,0.183,3.844,0.183c19.474,0,21.698-15.693,22.894-24.123c0.256-1.798,0.526-3.712,0.884-5.604
			c0.089-0.391,0.322-1.363,0.645-2.689c0.51-2.084,0.978-4.019,1.409-5.825c5.7,4.202,11.623,8.262,17.587,11.659
			c5.578,3.177,9.603,5.261,14.434,5.261c7.77,0,12.428-5.527,15.823-9.566c5.354-6.371,9.681-13.505,13.817-20.478
			c6.134,9.017,12.317,18.261,17.74,27.513c1.457,2.48,3.869,4.243,6.668,4.877c2.793,0.629,5.732,0.089,8.119-1.518
			c4.275-2.887,8.439-6.355,12.467-9.714c5.235-4.367,10.593-8.833,15.898-11.73c1.509,6.142,2.479,12.682,3.469,19.469
			c0.808,5.464,1.641,11.11,2.793,16.643c0.604,2.876,2.392,5.362,4.92,6.845c2.529,1.485,5.566,1.828,8.374,0.944
			c11.004-3.458,23.517-5.829,34.256-7.487c-0.406,11.316-2.768,23.671-7.099,29.947c-2.488,3.598-2.453,8.371,0.086,11.934
			c2.539,3.567,7.043,5.156,11.248,3.991c1.3-0.358,2.879-0.539,4.692-0.539c7.322,0,16.854,2.938,25.095,5.84
			c-4.966,9.115-12.283,21.561-15.879,25.832c-2.031,0.838-3.809,2.323-5.007,4.367c-2.879,4.931-1.249,11.258,3.651,14.18
			c2.585,1.539,5.251,3.085,7.947,4.644c7.241,4.187,14.645,8.47,21.195,13.197C401.536,255.443,388.806,264.217,384.261,266.625z"
			/>
		<path d="M449.401,210.957c3.098-4.367,6.769-10.181,11.309-17.887c7.185-12.208,15.193-27.205,16.803-31.468
			c0.985-2.615,0.879-5.522-0.305-8.061c-1.183-2.537-3.336-4.492-5.972-5.418c-2.082-0.731-4.312-1.543-6.657-2.402
			c-12.873-4.695-28.482-10.395-43.219-11.809c5.738-18.121,6.581-40.116,5.316-53.562c-0.264-2.813-1.66-5.398-3.869-7.155
			c-2.214-1.765-5.048-2.574-7.835-2.179c-15.661,2.055-35.19,4.969-53.938,9.859c-0.513-3.194-0.99-6.449-1.482-9.788
			c-2.158-14.688-4.397-29.881-10.08-44.14c-1.798-4.5-6.434-7.165-11.243-6.429c-17.285,2.664-31.574,14.576-44.178,25.085
			c-2.021,1.686-4.007,3.333-5.946,4.907c-7.216-11.575-14.939-22.899-22.46-33.934c-2.727-4.004-5.454-7.998-8.143-11.989
			C255.572,1.716,252.337,0,248.879,0s-6.693,1.721-8.62,4.588c-3.755,5.563-7.254,11.468-10.636,17.179
			c-5.598,9.463-10.897,18.408-17.237,25.943c-1.618,1.917-2.661,3.062-3.344,3.738c-1.892-0.833-4.987-2.595-6.482-3.448
			c-12.944-7.368-26.52-17.981-38.813-27.583c0,0,0,0-0.005-0.005c-4.512-3.531-10.902-2.604-14.435,1.922
			c-3.453,4.421-2.615,10.875,1.643,14.468l-0.005,0.005c-3.161-2.471-3.874-5.898-3.806-7.363
			c-0.109,2.428-2.001,11.23-5.631,26.169c-0.586,2.425-0.988,4.119-1.077,4.573c-0.592,3.082-1.013,6.035-1.409,8.803
			c-1.612,11.367-1.612,11.367-6.551,11.367c-0.917,0-1.894-0.054-2.955-0.145c-9.958-0.896-20.69-3.553-31.08-6.117
			c-5.588-1.384-11.146-2.75-16.597-3.885c-3.415-0.696-6.982,0.353-9.458,2.829s-3.542,6.027-2.834,9.455
			c0.279,1.341,0.82,5.017,1.564,9.95c3.026,20.043,5.278,33.565,7.322,42.774c-18.783,2.222-43.31,10.334-51.552,13.464
			c-3.214,1.221-5.591,3.986-6.391,7.335s0.135,6.911,2.455,9.453c4.015,4.41,23.544,31.971,30.222,43.571
			c-12.471,12.152-28.185,23.436-44.861,32.162c-3.067,1.605-5.131,4.626-5.522,8.069c-0.378,3.44,0.98,6.843,3.616,9.087
			c5.241,4.438,12.677,7.906,20.545,11.588c9.831,4.596,23.069,10.775,25.578,17.291c-3.184,8.77-21.831,37.815-28.366,44.143
			c-2.981,1.173-5.383,3.697-6.261,7.038c-1.455,5.556,1.856,11.243,7.414,12.705c5.024,1.32,12.423,2.011,20.987,2.813
			c9.693,0.914,29.099,2.731,35,5.981c0.333,10.399-5.802,43.396-9.115,51.308c-2.224,2.296-3.364,5.586-2.793,8.988
			c0.952,5.657,6.236,9.45,11.981,8.526c6.261-1.057,13.17-3.52,20.487-6.129c9.453-3.372,20.175-7.19,28.276-7.19
			c2.798,0,5.012,0.437,6.782,1.34c5.414,2.773,7.751,29.366,8.526,38.105c0.589,6.713,1.104,12.507,2.014,16.94
			c0.993,4.834,5.25,8.308,10.187,8.308c3.682,0,3.682,0,23.628-15.661c4.524-3.555,8.335-6.54,8.896-6.967
			c6.385-4.783,15.277-11.659,21.091-8.836c5.492,5.18,24.313,31.21,27.368,39.223c-0.251,3.732,1.534,7.475,4.943,9.567
			c1.696,1.035,3.572,1.533,5.423,1.533c3.501,0,6.917-1.762,8.876-4.967c0.01-0.015,0.015-0.025,0.025-0.04
			c2.564-4.194,5.027-9.404,7.627-14.904c6.424-13.583,15.173-32.103,26.075-32.809c7.054,2.092,32.682,16.727,38.694,23.227
			c0.614,3.479,2.986,6.561,6.525,7.911c5.347,2.047,11.38-0.619,13.431-5.986c0.442-1.143,1.61-4.189,7.603-34.525
			c1.604-8.109,2.808-14.203,3.681-18.859c2.336,0.619,4.738,1.27,7.191,1.939c13.766,3.758,29.37,8.003,43.233,8.003
			c0.005,0,0.005,0,0.005,0c2.148,0,4.24-0.102,6.271-0.31c5.57-0.563,9.688-5.448,9.312-11.039
			c-0.208-3.185-2.315-13.554-7.073-36.445c-1.325-6.378-2.833-13.629-3.936-19.123c3.529-1.006,7.023-2.057,10.445-3.093
			c14.163-4.261,27.522-8.292,41.249-8.693c3.483-0.106,6.683-1.94,8.525-4.9c1.849-2.955,2.077-6.642,0.63-9.815
			c-7.018-15.352-18.194-30.88-28.935-45.067c4.271-2.712,9.861-6.449,17.261-11.659c25.821-18.148,28.157-22.206,29.152-23.933
			c2.382-4.139,1.635-9.376-1.812-12.687C480.402,229.022,464.69,219.808,449.401,210.957z M430.877,275.734
			c-1.574,0.284-3.108,0.935-4.464,1.971c-4.57,3.479-5.454,10.003-1.976,14.573c0.006,0,0.006,0,0.006,0l2.193,2.874
			c8.419,11.04,17.656,23.15,24.836,35.023c-10.506,1.843-20.616,4.88-30.488,7.865c-6.479,1.95-12.593,3.788-18.88,5.332
			c-9.82,2.479-8.104,11.055-6.118,20.998c1.071,5.356,2.569,12.572,4.118,20.021c1.467,7.079,3.234,15.585,4.59,22.313
			c-9.48-1.092-20.129-3.991-30.503-6.825c-6.683-1.818-12.995-3.534-18.981-4.773c-5.611-1.168-11.126,2.447-12.289,8.069
			c-0.106,0.543-0.178,1.081-0.208,1.62c-0.594,4.209-4.738,25.806-8.023,41.802c-14.554-10.319-35.484-21.084-42.609-21.176
			c-21.973,0-34.062,21.298-42.784,39.339c-9.25-14.477-22.234-31.057-27.127-33.875c-4.286-2.468-8.944-3.717-13.832-3.717
			c-12.385,0-22.927,7.892-30.613,13.64c-0.419,0.314-4.446,3.474-9.259,7.251c-0.833,0.655-1.691,1.325-2.56,2.011
			c-1.887-21.154-4.555-44.168-19.494-51.831c-4.705-2.406-10.177-3.63-16.265-3.63c-11.334,0-23.435,4.194-34.22,8.033
			c4.321-18.443,9.178-46.469,3.105-54.492c-7.617-10.069-25.573-12.548-50.122-14.863c9.943-13.898,26.038-38.435,24.519-48.027
			c-2.841-17.89-22.153-26.913-37.668-34.165c-0.561-0.264-1.13-0.527-1.691-0.792c14.586-9.27,27.977-20.146,38.729-31.557
			c6.883-7.29,2.283-15.49-13.743-38.94c-3.479-5.091-7.666-11.02-11.426-16.191c13.022-4.001,29.714-8.17,39.479-8.17
			c2.115,0,3.186,0.213,3.552,0.302c0.005,0,0.005,0,0.005,0c5.553,1.399,11.215-1.988,12.613-7.556
			c0.889-3.532-0.145-7.091-2.442-9.589c-2.519-6.695-6.449-31.509-8.444-44.587c0.353,0.089,0.706,0.178,1.059,0.259
			c11.148,2.757,22.668,5.606,34.2,6.642c1.731,0.155,3.339,0.229,4.827,0.229c22.998,0,25.489-17.603,27.142-29.249
			c0.348-2.455,0.719-5.075,1.224-7.721c0.109-0.495,0.432-1.821,0.878-3.656c1.206-4.976,2.25-9.267,3.118-12.989
			c8.82,6.655,18.113,13.233,27.431,18.537c6.972,3.973,11.958,6.574,17.56,6.574c8.767,0,14.147-6.403,18.474-11.545
			c7.452-8.851,13.436-18.959,19.225-28.734c0.576-0.983,1.158-1.95,1.726-2.917c9.229,13.535,18.726,27.508,26.946,41.535
			c1.453,2.481,3.864,4.246,6.668,4.878c2.787,0.635,5.732,0.089,8.119-1.519c5.565-3.753,11.07-8.341,16.387-12.776
			c8.409-7.013,17.042-14.21,25.791-18.026c2.732,9.572,4.24,19.837,5.819,30.559c1.066,7.254,2.169,14.747,3.692,22.041
			c0.599,2.877,2.386,5.363,4.92,6.851c2.534,1.482,5.57,1.836,8.379,0.944c16.356-5.142,35.119-8.495,50.46-10.752
			c-0.066,16.879-3.423,36.264-10.222,46.118c-2.483,3.598-2.448,8.371,0.091,11.933c2.544,3.567,7.038,5.159,11.248,3.994
			c2.041-0.566,4.463-0.854,7.21-0.854c11.583,0,26.111,4.878,38.573,9.382c-6.855,12.853-18.937,33.651-24.161,39.436
			c-2.336,0.764-4.418,2.354-5.748,4.644c-2.88,4.929-1.25,11.258,3.65,14.178c3.438,2.049,6.978,4.098,10.562,6.175
			c11.177,6.462,22.647,13.096,32.433,20.663C458.46,257.814,437.326,272.484,430.877,275.734z"/>
		<path d="M191.193,202.263c-2.147-12.624-21.314-7.254-19.182,5.289c1.927,11.331,4.064,22.609,6.385,33.847
			c-9.625-10.08-19.438-19.979-29.541-29.605c-7.863-7.492-19.116,1.438-16.74,9.735c-0.01,0.629,0.005,1.264,0.109,1.935
			c2.892,18.304,5.69,36.6,7.604,55.042c1.315,12.624,21.213,12.756,19.888,0c-1.107-10.674-2.491-21.302-4.004-31.907
			c10.775,10.996,21.299,22.244,31.615,33.695c3.963,10.902,21.747,5.616,18.776-6.424
			C200.26,250.171,195.279,226.323,191.193,202.263z"/>
		<path d="M248.234,225.792h-18.999c-0.982-5.624-1.93-11.256-2.793-16.91h7.874c12.827,0,12.827-19.888,0-19.888h-18.903
			c-7.254,0-10.395,6.353-9.442,11.88c-0.239,1.15-0.328,2.371-0.145,3.694c3.037,21.729,6.942,43.277,11.938,64.646
			c0.368,1.594,1.008,2.889,1.841,3.92c1.686,3.158,4.976,5.362,8.747,5.362h13.924c5.423,0,9.948-4.52,9.948-9.942
			c0-5.424-4.524-9.953-9.948-9.953h-6.5c-0.967-4.296-1.881-8.607-2.77-12.924h15.244
			C261.064,245.683,261.064,225.792,248.234,225.792z"/>
		<path d="M339.092,194.309c-3.255,15.884-6.058,31.834-8.53,47.837c-3.356-4.611-6.851-9.136-10.654-13.441
			c-4.377-4.956-10.187-3.603-13.67,0.157c-1.076,0.695-2.087,1.622-2.939,2.849c-2.986,4.275-5.941,8.579-8.882,12.88
			c-5.428-14.929-10.298-30.039-14.711-45.316c-3.564-12.299-22.754-7.063-19.185,5.286c6.038,20.873,12.903,41.449,20.891,61.662
			c0.097,0.238,0.233,0.421,0.33,0.655c1.112,7.464,13.076,11.969,18.84,3.712c4.285-6.14,8.511-12.314,12.751-18.489
			c4.874,6.556,9.328,13.406,13.735,20.322c2.493,8.607,18.205,7.221,19.627-3.869c2.97-23.144,6.891-46.116,11.582-68.967
			C360.846,187.075,341.672,181.746,339.092,194.309z"/>
	</g>
</g>
<g>
</g>
<g>
</g>
<g>
</g>
<g>
</g>
<g>
</g>
<g>
</g>
<g>
</g>
<g>
</g>
<g>
</g>
<g>
</g>
<g>
</g>
<g>
</g>
<g>
</g>
<g>
</g>
<g>
</g>
</svg>
