<?xml version="1.0" encoding="iso-8859-1"?>
<!-- Generator: Adobe Illustrator 16.0.0, SVG Export Plug-In . SVG Version: 6.00 Build 0)  -->
<!DOCTYPE svg PUBLIC "-//W3C//DTD SVG 1.1//EN" "http://www.w3.org/Graphics/SVG/1.1/DTD/svg11.dtd">
<svg version="1.1" id="Capa_1" xmlns="http://www.w3.org/2000/svg" xmlns:xlink="http://www.w3.org/1999/xlink" x="0px" y="0px"
	 width="479.142px" height="479.142px" viewBox="0 0 479.142 479.142" style="enable-background:new 0 0 479.142 479.142;"
	 xml:space="preserve">
<g>
	<g>
		<path d="M120.251,171.315c15.844,11.233,33.784,17.167,51.877,17.167c23.688,0,47.017-9.958,65.688-28.043
			c4.981-4.827,10.191-10.468,11.593-12.131c0.609-0.729,1.163-1.566,1.646-2.476c17.936-33.883,14.935-68.928-8.227-96.151
			c-5.499-6.457-10.369-11.933-12.121-13.627c-0.904-0.868-2.011-1.645-3.285-2.3c-16.123-8.292-32.448-12.5-48.53-12.5
			c-22.1,0-43.437,7.836-63.414,23.285c-0.899,0.696-1.671,1.455-2.285,2.247c-1.422,1.836-6.033,8.127-10.146,14.157
			C76.479,99.921,83.553,145.306,120.251,171.315z M131.753,66.127c0.406-0.432,0.767-0.883,1.102-1.34
			c1.402-1.945,7.424-7.185,14.417-10.697c15.285-7.681,32.387-9.328,49.434-4.783c7.993,2.133,19.042,8.955,24.618,15.208
			c14.432,16.161,18.986,34.974,13.177,54.398c-2.184,7.305-5.743,13.784-6.962,15.068c-13.238,17.778-31.773,27.424-52.42,27.424
			c-25.207,0-49.129-14.665-58.163-35.668C112.101,114.45,107.556,91.685,131.753,66.127z"/>
		<path d="M345.698,273.878c-7.719,0-15.432,0.157-23.131,0.629c0.488,7.43,0.976,14.863,1.341,22.298
			c1.193,24.521,1.976,49.048,2.58,73.59c0.335,13.903,0.462,27.807,0.528,41.711c-16.418,0.015-32.819,0.188-49.221,1.035
			c-0.884-35.159-2.672-79.236-4.149-105.602c-0.808-14.432-23.317-14.513-22.505,0c1.833,32.764,4.163,93.019,4.62,129.347
			c-51.562-0.193-103.118-1.006-154.68-1.184c-0.158-36.19-0.843-94.439-0.904-126.294c-0.025-14.513-22.531-14.513-22.505,0
			c0.051,23.714,0.437,62.083,0.706,95.075c-18.184,0.838-36.383,1.021-54.583,1.051c-2.544-50.525-0.589-101.042,0.421-151.604
			c4.581-9.449,11.822-16.328,21.896-19.646c31.91-3.361,63.987-4.74,96.06-5.21c32.194-0.467,64.389,0.016,96.578,0.355
			c5.383,0.056,10.766,0.021,16.147-0.01c0.6-7.462,0.731-14.935,0.741-22.422c-1.787,0.015-3.579,0.061-5.356,0.046
			c-16.56-0.15-33.119-0.368-49.673-0.516c-33.134-0.29-66.288-0.279-99.396,1.206c-18.585,0.838-37.156,2.128-55.655,4.093
			c-1.417-0.16-2.965-0.046-4.631,0.465c-16.092,4.913-29.747,15.957-36.729,31.428c-0.645,1.432-1.062,2.909-1.244,4.387
			c-0.731,1.422-1.193,3.088-1.229,5.037c-1.056,53.797-3.291,107.521,0,161.277c0.285,4.631,2.808,7.759,6.058,9.43
			c1.66,1.579,3.94,2.635,6.911,2.635c21.287,0,42.563-0.096,63.825-1.076c0.045,7.14,0.081,13.762,0.091,19.479
			c0.005,1.98,0.457,3.666,1.183,5.113c1.28,3.651,4.433,6.565,9.465,6.571c60.179,0.065,120.348,1.238,180.527,1.314
			c9.415,0.011,12.238-10.155,8.521-16.32c-0.021-2.376-0.051-4.895-0.087-7.516c17.229-0.878,34.479-1.016,51.745-1.025
			c2.722,0,4.869-0.873,6.499-2.239c6.181,0.919,13.147-2.646,13.132-10.729c-0.071-35.216-1.478-70.32-2.574-105.511
			C346.607,301.009,346.5,287.411,345.698,273.878z"/>
		<path d="M472.592,194.009l-0.868-0.635L387.195,99.45c-1.858-2.06-3.966-3.11-6.281-3.11c-4.941,0-9.709,4.832-10.009,10.141
			l-0.152,0.815c-0.086,0.361-0.188,0.713-0.224,1.102c-1.244,12.022-1.503,23.765-1.589,33.669l-0.021,2.58h-92.358
			c-6.043,0-8.155,4.258-8.785,6.088l-0.503,0.869c-1.437,1.643-2.168,3.72-2.168,6.157v49.107v22.516v21.929
			c0,2.438,0.731,4.505,2.168,6.155l0.503,0.868c0.63,1.828,2.742,6.094,8.785,6.094h45.382h23.059h23.928l0.021,2.569
			c0.086,9.907,0.346,21.652,1.59,33.667c0.04,0.396,0.137,0.762,0.223,1.122l0.152,0.808c0.3,5.306,5.068,10.136,10.009,10.136
			c2.311,0,4.418-1.047,6.276-3.108l85.396-94.56c4.027-1.81,6.774-6.172,6.53-10.384
			C479.365,200.181,476.624,195.817,472.592,194.009z M388.744,278.636l-0.106-6.611c-0.097-5.8-0.138-11.594-0.138-17.402
			c0-6.49-4.925-9.395-9.806-9.395v-2.595l-0.07,2.595l-0.641-0.076c-0.929-0.233-1.757-0.335-2.604-0.335h-33.266h-23.796h-33.611
			v-15.519v-22.716v-42.317h90.673c0.843,0,1.671-0.109,2.604-0.337l0.32-0.079h0.32c2.66,0,5.148-0.863,6.905-2.371
			c1.945-1.668,2.971-4.103,2.971-7.023c0-5.804,0.041-11.603,0.138-17.4l0.106-6.608l66.688,74.098L388.744,278.636z"/>
	</g>
</g>
<g>
</g>
<g>
</g>
<g>
</g>
<g>
</g>
<g>
</g>
<g>
</g>
<g>
</g>
<g>
</g>
<g>
</g>
<g>
</g>
<g>
</g>
<g>
</g>
<g>
</g>
<g>
</g>
<g>
</g>
</svg>
