<?xml version="1.0" encoding="iso-8859-1"?>
<!-- Generator: Adobe Illustrator 16.0.0, SVG Export Plug-In . SVG Version: 6.00 Build 0)  -->
<!DOCTYPE svg PUBLIC "-//W3C//DTD SVG 1.1//EN" "http://www.w3.org/Graphics/SVG/1.1/DTD/svg11.dtd">
<svg version="1.1" id="Capa_1" xmlns="http://www.w3.org/2000/svg" xmlns:xlink="http://www.w3.org/1999/xlink" x="0px" y="0px"
	 width="483.269px" height="483.269px" viewBox="0 0 483.269 483.269" style="enable-background:new 0 0 483.269 483.269;"
	 xml:space="preserve">
<g>
	<g>
		<path d="M31.317,434.074c1.066,0.295,2.199,0.508,3.474,0.513c138.535,0.65,276.952-10.668,415.47-4.082
			c4.347,0.208,7.444-1.528,9.389-4.123c0.143-0.168,0.26-0.366,0.392-0.539c0.173-0.269,0.355-0.527,0.508-0.807
			c0.63-1.031,1.178-2.158,1.519-3.524c9.49-37.379,17.087-74.986,20.642-113.406c0.903-2.809,0.797-6.028-0.944-9.349
			l-45.936-87.271c-1.274-2.417-2.971-3.999-4.85-4.971c-1.858-1.508-4.275-2.501-7.262-2.625
			c-6.383-0.271-12.756-0.327-19.129-0.297c-23.927-0.482-47.869-0.744-71.797-1.414c-16.777-0.467-16.732,25.532,0,25.999
			c8.947,0.249,17.895,0.376,26.853,0.531c1.411,0.521,3.026,0.794,4.874,0.696c2.961-0.155,5.911-0.29,8.872-0.427
			c14.817,0.236,29.63,0.49,44.442,0.863c11.466,21.782,22.932,43.566,34.393,65.352c-38.811,0.984-77.586,2.346-116.291,5.672
			c-2.006,0.167-3.752,0.736-5.245,1.574c-2.858,0.903-5.443,2.874-7.368,5.51c-6.383,8.738-13.248,17.001-20.957,24.566
			c-44.793,0.011-89.578,0.203-134.343,1.895c-6.545-8.679-12.261-17.971-17.504-27.477c-2.562-4.657-6.654-6.297-10.674-5.967
			c-0.629-0.062-1.254-0.133-1.945-0.102c-33.987,1.543-67.92,1.071-101.879-0.265c16.986-20.967,34.251-41.71,52.049-62.007h0.675
			c21.846,0.01,43.684,0.099,65.519,0.848c16.775,0.577,16.717-25.428,0-25.999c-23.394-0.8-46.793-0.863-70.198-0.868
			c-5.258,0-8.866,2.56-10.826,6.068c-0.391,0.353-0.795,0.649-1.17,1.076c-23.702,26.954-46.621,54.553-68.903,82.685
			c-0.69,0.874-1.211,1.772-1.643,2.687c-1.15,1.812-1.762,4.108-1.435,6.992c4.321,38.105,9.691,76.002,17.793,113.503
			C19.463,432.942,25.64,435.267,31.317,434.074z M132.953,325.507c5.938,10.09,12.487,19.707,19.761,28.934
			c0.935,1.184,2.136,2.017,3.448,2.601c1.851,1.346,4.268,2.127,7.259,2.006c47.281-1.899,94.582-2.037,141.894-2.042
			c1.036,0,1.996-0.122,2.895-0.314c2.641-0.081,5.353-1.021,7.806-3.275c9.363-8.562,17.361-18.306,24.947-28.422
			c38.634-3.147,77.333-4.468,116.072-5.433c-3.387,29.066-9.322,57.635-16.305,86.062c-133.693-5.581-267.305,4.818-401.013,4.463
			c-5.779-28.274-10.11-56.746-13.588-85.386C61.737,326.263,97.323,326.934,132.953,325.507z"/>
		<path d="M147.217,169.997c1.612,0.69,3.514,1.023,5.792,0.749c12.235-1.478,24.509-2.575,36.77-3.775
			c-2.029,24.772-4.52,80.122-7.16,104.837c-0.779,7.262,4.06,11.091,9.646,11.608c1.361,0.467,2.89,0.731,4.644,0.64
			c22.155-1.143,34.167-0.984,49.096-1.437c14.93,0.457,26.944,0.294,49.099,1.437c1.758,0.092,3.281-0.173,4.642-0.64
			c5.586-0.518,10.425-4.347,9.648-11.608c-2.646-24.715-5.139-80.064-7.16-104.837c12.259,1.201,24.532,2.298,36.765,3.775
			c2.28,0.274,4.185-0.059,5.794-0.749c10.842,2.808,22.186-11.124,12.061-20.165c-36.587-32.671-61.876-65.414-100.184-94.803
			c-2.158-4.073-6.119-6.891-10.664-6.292c-4.54-0.604-8.503,2.219-10.661,6.287c-38.306,29.384-63.594,62.131-100.178,94.803
			C125.034,158.873,136.375,172.804,147.217,169.997z M246.004,77.585c25.756,20.69,41.411,43.163,67.091,65.981
			c-8.044-0.76-16.088-1.503-24.11-2.423c-7.049-0.807-10.867,3.707-11.558,9.072c-0.574,1.488-0.843,3.225-0.695,5.22
			c1.802,24.347,4.27,79.133,6.834,103.51c-1.935-1.701-4.59-2.717-8.059-2.447c-13.024,1.01-21.581,1.437-29.503,1.681
			c-7.919-0.244-16.478-0.671-29.503-1.681c-3.468-0.27-6.122,0.751-8.056,2.447c2.564-24.377,5.035-79.168,6.837-103.51
			c0.147-1.995-0.119-3.732-0.695-5.22c-0.693-5.365-4.51-9.874-11.555-9.072c-8.023,0.914-16.067,1.663-24.11,2.423
			C204.588,120.743,220.244,98.275,246.004,77.585z"/>
	</g>
</g>
<g>
</g>
<g>
</g>
<g>
</g>
<g>
</g>
<g>
</g>
<g>
</g>
<g>
</g>
<g>
</g>
<g>
</g>
<g>
</g>
<g>
</g>
<g>
</g>
<g>
</g>
<g>
</g>
<g>
</g>
</svg>
