<?xml version="1.0" encoding="iso-8859-1"?>
<!-- Generator: Adobe Illustrator 16.0.0, SVG Export Plug-In . SVG Version: 6.00 Build 0)  -->
<!DOCTYPE svg PUBLIC "-//W3C//DTD SVG 1.1//EN" "http://www.w3.org/Graphics/SVG/1.1/DTD/svg11.dtd">
<svg version="1.1" id="Capa_1" xmlns="http://www.w3.org/2000/svg" xmlns:xlink="http://www.w3.org/1999/xlink" x="0px" y="0px"
	 width="471.406px" height="471.406px" viewBox="0 0 471.406 471.406" style="enable-background:new 0 0 471.406 471.406;"
	 xml:space="preserve">
<g>
	<g>
		<path d="M395.836,7.875c-1.69-1.175-3.747-2.087-6.25-2.574C259.011-20.346,112.638,49.52,43.442,161.842
			C10.522,215.28,2.984,280.562,27.386,338.746c13.809,32.931,37.219,64.089,64.945,86.585
			c40.04,32.488,92.355,42.944,142.439,45.442c50.051,2.504,106-1.163,146.726-34.337c22.562-18.378,36.455-42.666,44.011-70.574
			c8.938-33.021-5.321-68.375-17.062-98.64c-11.446-29.487-23.918-59.628-7.749-89.537c12.893-23.841,31.966-43.902,45.854-67.167
			C477.135,59.285,444.28,24.8,395.836,7.875z M424.456,79.231c-5.195,19.324-21.632,37.049-33.235,52.816
			c-29.346,39.873-39.034,73.474-23.182,121.948c18.062,55.207,46.134,107.506-5.22,154.837
			c-37.719,34.77-102.854,30.499-150.034,28.178c-1.663-0.081-3.146,0.106-4.55,0.401c-32.877-10.207-70.373-17.869-97.642-39.994
			c-24.664-20.018-44.546-49.738-55.71-79.257C35.419,266.685,49.76,212.957,78.75,168.41
			C139.48,75.103,270.4,16.137,380.104,37.363c1.031,0.581,2.158,1.092,3.397,1.498C402.854,45.193,431.25,53.945,424.456,79.231z"
			/>
		<path d="M280.8,298.016c-19.946,4.032-35.317,20.916-45.895,37.161c-1.356,2.087-2.125,4.148-2.422,6.139
			c-0.696,1.188-1.31,2.488-1.721,4.017c-3.87,14.346-4.207,32.118,8.343,42.519c31.646,26.212,78.48-4.327,91.495-36.014
			c5.962-14.527,2.016-31.315-8.241-42.716C311.948,297.544,295.333,295.07,280.8,298.016z M301.035,342.479
			c-0.264,0.508-0.944,2.062-1.086,2.331c-0.696,1.289-1.523,2.503-2.352,3.722c-0.203,0.295-0.289,0.437-0.416,0.635
			c-0.157,0.138-0.457,0.442-1.127,1.209c-1.138,1.305-2.387,2.514-3.637,3.722c-4.077,3.956-8.876,7.074-13.837,9.852
			c-0.706,0.071-1.392,0.102-2.128,0.264c-4.854,1.103-6.418,1.422-11.604,1.438c-0.781-0.011-1.563-0.062-2.346-0.122
			c-0.193-0.035-0.346-0.066-0.63-0.117c-0.33-0.081-0.655-0.192-0.979-0.279c-0.127-0.076-0.762-0.324-1.336-0.584
			c-0.066-0.213-0.117-0.421-0.173-0.634c0.386,1.111-0.152-3.083-0.121-3.936c0.065-1.519,0.548-3.312,1.381-6.403
			c0.178-0.646,0.218-1.25,0.314-1.869c0.229-0.31,0.493-0.554,0.711-0.889c3.788-5.819,8.049-10.938,13.224-15.604
			c1.376-1.239,3.433-2.661,6.185-4.281c0.925-0.548,1.904-1,2.874-1.467c-0.081,0.111,2.25-0.818,2.549-0.909
			c0.844-0.265,1.712-0.432,2.57-0.614c0.589-0.097,1.574-0.254,1.965-0.27c0.858-0.051,1.717,0.01,2.569,0.056
			c0.447,0.046,0.93,0.102,1.219,0.173c0.62,0.132,1.214,0.355,1.818,0.554c0.457,0.188,1.046,0.437,1.355,0.609
			c0.249,0.142,0.69,0.437,1.082,0.7c0.456,0.422,0.924,0.833,1.36,1.275c0.016,0.01,0.016,0.01,0.021,0.02
			c0.37,0.574,0.751,1.148,1.092,1.742c0.04,0.081,0.051,0.086,0.086,0.147c0.178,0.503,0.279,1.03,0.406,1.549
			c-0.203-0.417,0.041,1.919,0.127,3.656C301.995,338.31,301.452,340.843,301.035,342.479z"/>
		<path d="M123.697,294.735c-5.248,0.208-9.843,3.144-12.111,7.53c-4.108,0.686-8.163,1.808-11.948,3.174
			c-6.98,2.524-11.606,9.171-9.516,16.758c1.607,5.829,7.754,10.567,13.908,10.104c1.409,4.743,3.136,9.39,5.482,13.731
			c3.166,5.875,8.272,11.253,14.896,13.04c9.308,2.504,17.514-2.631,22.095-10.166c3.734-0.736,7.172-2.991,9.401-6.424
			c7.582-11.68,11.649-25.791,2.194-37.612C150.283,295.116,135.11,294.288,123.697,294.735z"/>
		<path d="M110.479,260.357c1.638,3.438,4.674,6.21,8.549,7.521c13.198,4.453,27.875,4.896,36.98-7.186
			c7.525-9.988,4.57-24.893,1.31-35.838c-1.503-5.035-5.479-8.757-10.295-9.864c-1.673-3.808-3.771-7.467-6.03-10.795
			c-4.177-6.137-11.763-8.971-18.596-5.071c-5.253,2.996-8.32,10.125-6.345,15.975c-4.248,2.537-8.318,5.365-11.949,8.709
			c-4.903,4.524-8.856,10.804-8.937,17.659C95.035,251.101,102.04,257.783,110.479,260.357z"/>
		<path d="M210.244,153.456c1.033-4.842,1.736-9.745,1.757-14.686c0.025-6.673-1.881-13.843-6.843-18.575
			c-6.975-6.65-16.635-6.073-24.268-1.643c-3.631-1.142-7.726-0.805-11.326,1.145c-12.246,6.629-22.566,17.077-19.921,31.979
			c2.186,12.31,15.117,20.299,25.354,25.359c4.707,2.331,10.146,1.95,14.238-0.82c3.931,1.366,8.033,2.323,12.012,2.933
			c7.335,1.122,14.579-2.506,16.374-10.167C219.006,163.089,215.875,155.992,210.244,153.456z"/>
		<path d="M268.42,115.074c1.254,7.317,6.987,13.042,14.822,12.319c6.022-0.551,11.766-5.771,12.391-11.913
			c4.92-0.551,9.795-1.435,14.487-2.979c6.337-2.087,12.538-6.167,15.452-12.373c4.104-8.719,0.503-17.699-6.113-23.539
			c-0.066-3.806-1.687-7.587-4.667-10.385c-10.161-9.521-23.339-16.006-36.633-8.782c-10.983,5.969-14.472,20.764-16.036,32.077
			c-0.721,5.205,1.361,10.245,5.286,13.246C267.349,106.911,267.739,111.108,268.42,115.074z"/>
	</g>
</g>
<g>
</g>
<g>
</g>
<g>
</g>
<g>
</g>
<g>
</g>
<g>
</g>
<g>
</g>
<g>
</g>
<g>
</g>
<g>
</g>
<g>
</g>
<g>
</g>
<g>
</g>
<g>
</g>
<g>
</g>
</svg>
