<?xml version="1.0" encoding="iso-8859-1"?>
<!-- Generator: Adobe Illustrator 16.0.0, SVG Export Plug-In . SVG Version: 6.00 Build 0)  -->
<!DOCTYPE svg PUBLIC "-//W3C//DTD SVG 1.1//EN" "http://www.w3.org/Graphics/SVG/1.1/DTD/svg11.dtd">
<svg version="1.1" id="Capa_1" xmlns="http://www.w3.org/2000/svg" xmlns:xlink="http://www.w3.org/1999/xlink" x="0px" y="0px"
	 width="492.488px" height="492.488px" viewBox="0 0 492.488 492.488" style="enable-background:new 0 0 492.488 492.488;"
	 xml:space="preserve">
<g>
	<g>
		<path d="M362.603,65.755c9.379-6.145,19.54-10.964,30.523-14.533c13.573-4.418,10.456-23.445-0.787-25.431
			c-0.584-0.284-1.143-0.584-1.803-0.803C333.435,5.931,272.067,12.218,224.058,48.22C173.209,11.938,111.273,11.989,51.325,24.988
			c-9.793,2.123-11.164,11.943-7.208,18.702c1.358,4.961,5.309,9.151,11.938,9.283c23.026,0.457,44.288,6.012,64.467,15.432
			C67.209,98.426,23.576,137.562,0.911,196.949c-4.248,11.136,7.244,17.676,16.329,14.944c2.684-0.173,5.413-1.249,7.873-3.651
			c42.69-41.68,92.691-67.349,151.992-65.501c-4.177,104.952-2.405,210.02-5.959,314.982c-0.167,4.961,2.021,8.404,5.162,10.41
			c1.414,1.447,3.234,2.646,5.621,3.356c25.761,7.647,51.625,8.912,77.551,2.046c7.531,2.042,16.737-1.894,16.407-11.928
			c-3.245-97.939-0.884-195.924-2.046-293.888c21.535,27.619,38.852,58.072,50.348,91.713c4.397,12.857,21.957,10.639,25.172,0.701
			c0.375-0.63,0.756-1.265,1.066-1.996c13.405-32.474,14.898-66.435,4.271-98.716c41.71,1.655,82.426,8.312,122.069,22.399
			c13.807,4.906,20.672-13.695,11.639-22.089C456.662,114.965,414.423,81.08,362.603,65.755z M211.396,219.379
			c12.022-10.801,24.301-21.292,36.78-31.555c0.16,21.353,0.18,42.706,0.165,64.059C235.574,241.584,223.428,230.53,211.396,219.379
			z M248.538,383.393c-12.951-11.294-25.593-22.933-38.161-34.657c12.718-15.168,25.4-30.361,37.902-45.712
			C248.246,329.814,248.29,356.605,248.538,383.393z M237.22,275.841c-12.403,15.401-24.986,30.65-37.694,45.803
			c0.27-25.76,0.519-51.526,0.889-77.281C212.358,255.239,224.509,265.848,237.22,275.841z M236.433,406.848
			c-13.086,9.455-26.081,19.032-38.847,28.924c0.556-20.814,0.967-41.629,1.267-62.454
			C211.162,384.738,223.679,395.93,236.433,406.848z M218.68,451.96c10.072-7.714,20.287-15.249,30.587-22.663
			c0.14,6.688,0.259,13.37,0.447,20.053C239.241,451.782,228.96,452.555,218.68,451.96z M338.396,133.16
			c-8.978-1.483-19.662,8.48-14.188,19.449c10.542,21.119,13.563,43.025,10.577,64.851c-17.245-36.358-40.726-69.126-68.989-98.37
			c-1.99-4.621-6.616-7.922-11.896-7.922h-18.103c-7.051,0-12.931,5.88-12.931,12.929c0,7.053,5.88,12.934,12.931,12.934h11.372
			c0.109,0.116,0.218,0.238,0.335,0.36c0.109,5.931,0.19,11.862,0.279,17.798c-0.582,0.35-1.17,0.69-1.736,1.147
			c-15.069,12.248-30.092,24.537-44.709,37.313c0.521-21.465,1.166-42.924,2.128-64.374c0.457-10.252-9.125-14.147-16.765-11.791
			c-47.23-3.819-90.065,8.577-128.135,31.829c24.887-28.929,57.688-50.302,93.234-68.354c0.094-0.046,0.163-0.112,0.254-0.162
			c8.528-3.484,12.677-17.093,2.331-23.461c-9.163-5.642-18.601-10.485-28.256-14.649c31.372,0.883,61.821,8.937,87.587,29.787
			c0.846,0.686,1.727,1.234,2.61,1.681c4.649,3.479,11.377,4.428,16.971-0.391c33.621-28.965,76.266-37.755,118.256-31.509
			c-9.028,5.575-17.509,12.075-25.339,19.687c-1.895,1.843-2.961,3.854-3.483,5.88c-3.189,6.738-1.428,15.447,7.896,17.026
			c44.595,7.566,82.35,28.879,112.523,60.255C408.924,137.044,373.865,133.49,338.396,133.16z"/>
	</g>
</g>
<g>
</g>
<g>
</g>
<g>
</g>
<g>
</g>
<g>
</g>
<g>
</g>
<g>
</g>
<g>
</g>
<g>
</g>
<g>
</g>
<g>
</g>
<g>
</g>
<g>
</g>
<g>
</g>
<g>
</g>
</svg>
