<?xml version="1.0" encoding="iso-8859-1"?>
<!-- Generator: Adobe Illustrator 16.0.0, SVG Export Plug-In . SVG Version: 6.00 Build 0)  -->
<!DOCTYPE svg PUBLIC "-//W3C//DTD SVG 1.1//EN" "http://www.w3.org/Graphics/SVG/1.1/DTD/svg11.dtd">
<svg version="1.1" id="Capa_1" xmlns="http://www.w3.org/2000/svg" xmlns:xlink="http://www.w3.org/1999/xlink" x="0px" y="0px"
	 width="465.721px" height="465.721px" viewBox="0 0 465.721 465.721" style="enable-background:new 0 0 465.721 465.721;"
	 xml:space="preserve">
<g>
	<g>
		<path d="M78.088,437.208c-1.707,7.581,2.516,17.311,12.657,18.321c95.715,9.496,192.364,19.2,286.732-5.032
			c6.444-1.655,9.405-6.449,9.685-11.527c27.375-136.77,14.482-274.982,0.33-412.083c-0.041-0.411-0.163-0.767-0.233-1.158
			c0.102-5.408-2.804-10.572-9.781-11.999C283.774-5.439,178.264-4.403,84.844,16c-7.427,1.625-10.266,7.455-9.735,13.254
			C54.6,164.313,61.61,302.088,78.088,437.208z M100.862,40.522c82.893-16.909,177.412-17.91,260.559-2.158
			c13.594,128.747,24.882,259.338,0.437,387.77c-84.727,19.86-171.537,11.994-257.38,3.469
			C89.117,300.966,81.909,169.107,100.862,40.522z"/>
		<path d="M122.317,372.373c2.544,3.57,6.5,5.759,11.148,6.181l0.64,0.056c35.36,3.209,71.919,6.525,107.927,6.525l0,0
			c35.449,0,66.537-3.256,95.034-9.948c6.149-1.442,10.248-5.916,10.786-11.725c18.981-87.113,10.78-194.243,0.248-287.586
			c-0.035-0.269-0.086-0.539-0.137-0.787c-0.203-6.21-4.499-10.958-11.126-12.203c-31.687-5.926-65.222-8.932-99.686-8.932
			c-37.351,0-73.818,3.499-108.397,10.41c-8.043,1.61-11.304,7.744-11.06,13.375c-17.748,107.617-4.588,233.525,2.059,283.655
			C119.135,365.182,120.062,369.214,122.317,372.373z M145.63,89.717c28.894-5.144,60.499-7.86,91.66-7.86
			c28.604,0,56.361,2.188,82.563,6.489c8.389,73.636,17.082,178.725,0.614,261.709c-23.872,4.85-49.8,7.206-79.12,7.206
			c-30.044,0-60.062-2.407-93.112-5.383C141.963,302.409,130.637,187.24,145.63,89.717z"/>
		<path d="M234.033,396.748c-19.886,0-19.886,30.833,0,30.833C253.916,427.581,253.916,396.748,234.033,396.748z"/>
	</g>
</g>
<g>
</g>
<g>
</g>
<g>
</g>
<g>
</g>
<g>
</g>
<g>
</g>
<g>
</g>
<g>
</g>
<g>
</g>
<g>
</g>
<g>
</g>
<g>
</g>
<g>
</g>
<g>
</g>
<g>
</g>
</svg>
