<?xml version="1.0" encoding="iso-8859-1"?>
<!-- Generator: Adobe Illustrator 16.0.0, SVG Export Plug-In . SVG Version: 6.00 Build 0)  -->
<!DOCTYPE svg PUBLIC "-//W3C//DTD SVG 1.1//EN" "http://www.w3.org/Graphics/SVG/1.1/DTD/svg11.dtd">
<svg version="1.1" id="Capa_1" xmlns="http://www.w3.org/2000/svg" xmlns:xlink="http://www.w3.org/1999/xlink" x="0px" y="0px"
	 width="484.984px" height="484.984px" viewBox="0 0 484.984 484.984" style="enable-background:new 0 0 484.984 484.984;"
	 xml:space="preserve">
<g>
	<g>
		<path d="M473.851,148.544c-0.894-9.259-7.292-14.553-14.116-15.878c-1.503-0.569-3.113-1.001-4.951-1.082
			c-29.178-1.363-58.356-2.559-87.544-3.572c-38.979-36.374-80.507-69.69-122.89-102.017c-2.011-3.27-5.502-5.626-10.524-5.626
			s-8.513,2.356-10.524,5.626c-42.833,32.743-84.446,67.027-127.276,99.765c-24.486,0.576-48.972,1.315-73.453,2.427
			c-9.63,0.437-14.681,8.221-15.231,16.224c-0.343,1.285-0.582,2.648-0.66,4.128c-4.694,93.234-7.711,186.501-6.353,279.875
			c0.025,1.838,0.343,3.463,0.774,4.986c-0.978,9.09,4.05,19.561,15.114,20.459c152.134,12.304,305.677,18.275,457.097-5.692
			c8.901-1.412,12.197-8.541,11.4-15.803c0.208-1.229,0.31-2.539,0.259-3.95C482.011,335.061,482.844,241.57,473.851,148.544z
			 M233.835,50.45c31.981,24.453,63.353,49.617,93.45,76.302c-62.718-1.777-125.449-2.559-188.174-1.8
			C170.698,100.138,201.956,74.893,233.835,50.45z M32.039,421.183c-1.043-86.62,1.597-173.144,5.799-259.634
			c135.201-5.497,270.476-2.661,405.621,3.468c7.1,83.86,6.998,168.063,9.425,252.185
			C313.62,437.712,171.909,432.121,32.039,421.183z"/>
		<path d="M424.6,186.908c-0.7-6.833-5.743-10.732-11.115-11.71c-1.184-0.421-2.453-0.734-3.896-0.799
			c-113.34-4.961-226.81-7.323-340.199-2.501c-7.582,0.322-11.555,6.062-11.992,11.963c-0.269,0.947-0.457,1.95-0.518,3.047
			c-3.691,68.749-6.068,137.519-5.004,206.372c0.023,1.355,0.272,2.549,0.609,3.671c-0.769,6.703,3.187,14.432,11.898,15.092
			c119.741,9.069,240.605,13.478,359.79-4.204c7.008-1.036,9.603-6.297,8.973-11.649c0.163-0.903,0.239-1.873,0.209-2.909
			C431.019,324.437,431.679,255.499,424.6,186.908z M76.842,387.943c-0.822-63.866,1.252-127.671,4.565-191.445
			c106.419-4.057,212.896-1.965,319.27,2.559c5.586,61.835,5.516,123.928,7.425,185.956
			C298.483,400.13,186.938,396.006,76.842,387.943z"/>
		<path d="M391.628,353.199c-14.472-25.684-33.169-48.586-55.74-67.567c-5.362-4.519-11.791-3.676-16.285-0.437
			c-0.909,0.487-1.808,1.031-2.65,1.686c-11.934,9.222-23.588,18.799-35.16,28.457c-10.131-18.636-21.389-36.581-34.703-53.471
			c-4.118-5.22-13.446-4.57-17.689,0c-27.027,29.117-49.045,61.931-70.744,95.09c-2.432,3.718-2.511,7.333-1.242,10.38
			c-0.114,6.348,3.9,12.999,12.043,13.437c41.692,2.239,83.365,1.254,125.07,0c0.04,0,0.071-0.011,0.106-0.011
			c28.741-0.021,57.473-0.173,86.199-1.239c9.389-0.345,13.273-9.008,11.699-16.046C393.721,360.441,393.7,356.875,391.628,353.199z
			 M188.822,356.55c15.155-22.896,30.745-45.382,48.644-66.211c14.655,20.626,26.432,43.071,37.191,65.978
			C246.038,357.069,217.431,357.455,188.822,356.55z M301.759,355.738c-2.717-5.94-5.459-11.852-8.308-17.696
			c10.963-9.217,22.033-18.286,33.261-27.173C340.854,324,353,338.757,363.374,355.017
			C342.839,355.541,322.304,355.703,301.759,355.738z"/>
		<path d="M179.803,259.521c2.475-11.548-1.341-22.63-8.5-30.682c-7.993-8.982-20.155-14.19-32.37-12.047
			c-22.948,4.03-36.543,29.089-26.218,50.96c7.224,15.289,34.663,21.713,48.942,15.396
			C170.955,279.041,177.698,269.316,179.803,259.521z M154.804,255.438c-4.167,6.921-12.33,5.697-16.224,0.416
			c-1.363-1.848-2.201-4.194-2.163-6.865C136.661,232.138,161.875,243.675,154.804,255.438z"/>
	</g>
</g>
<g>
</g>
<g>
</g>
<g>
</g>
<g>
</g>
<g>
</g>
<g>
</g>
<g>
</g>
<g>
</g>
<g>
</g>
<g>
</g>
<g>
</g>
<g>
</g>
<g>
</g>
<g>
</g>
<g>
</g>
</svg>
