<?xml version="1.0" encoding="iso-8859-1"?>
<!-- Generator: Adobe Illustrator 16.0.0, SVG Export Plug-In . SVG Version: 6.00 Build 0)  -->
<!DOCTYPE svg PUBLIC "-//W3C//DTD SVG 1.1//EN" "http://www.w3.org/Graphics/SVG/1.1/DTD/svg11.dtd">
<svg version="1.1" id="Capa_1" xmlns="http://www.w3.org/2000/svg" xmlns:xlink="http://www.w3.org/1999/xlink" x="0px" y="0px"
	 width="485.221px" height="485.221px" viewBox="0 0 485.221 485.221" style="enable-background:new 0 0 485.221 485.221;"
	 xml:space="preserve">
<g>
	<g>
		<path d="M269.91,225.265c-2.762-3.278-6.981-5.284-11.669-5.819c-13.37-1.529-26.837-1.488-40.278-1.493
			c-9.12,0-13.863,6.703-14.338,13.759c-0.343,1.279-0.581,2.63-0.581,4.144v221.471c0,3.372,0.957,6.124,2.47,8.312
			c1.384,5.977,5.995,11.075,13.939,11.075h40.281c9.15,0,13.894-6.754,14.34-13.838c0.335-1.254,0.569-2.584,0.579-4.067
			c0.224-48.271,2.904-171.737,4.474-219.978C279.371,231.523,275.196,227.011,269.91,225.265z M244.995,446.88h-12.116V247.884
			c5.357,0.076,10.707,0.305,16.054,0.65C247.486,289.559,245.505,405.834,244.995,446.88z"/>
		<path d="M262.395,123.165c-8.531-3.225-17.707-3.463-27.467-0.698c-3.042-0.975-6.307-0.706-9.333,0.812
			c-18.796,9.407-35.566,29.838-27.975,52.471c6.441,19.215,27.746,26.037,44.036,26.037l0,0c6.49,0,12.833-1.008,18.341-2.912
			c11.705-4.052,22.191-13.561,27.36-24.829c4.337-9.447,4.753-19.197,1.193-28.19C284.535,135.722,275.983,128.295,262.395,123.165
			z M220.732,167.249c-1.455-4.342,0.048-8.901,4.474-13.556c1.082-0.312,2.064-0.733,2.978-1.284
			c5.259-3.151,14.31-6.828,22.516-6.828c7.531,0,12.568,3.083,14.98,9.173c1.143,2.869,0.995,5.891-0.422,8.976
			c-2.731,5.951-9.343,10.511-14.33,12.237c-2.584,0.896-5.938,1.389-9.442,1.389C233.473,177.356,223.233,174.711,220.732,167.249z
			"/>
		<path d="M366.97,81.918c-2.66-6.363-8.612-8.856-14.157-8.511c-2.082-0.053-4.275,0.373-6.525,1.569
			c-12.705,6.749-25.537,13.253-38.104,20.269c-15.473,8.643,3.701,32.567,6.819,43.757c5.551,19.9,2.107,40.865-9.044,58.191
			c-0.833,1.29-1.315,2.564-1.65,3.813c-0.731,0.746-1.27,1.663-1.884,2.516c-3.915,4.055-5.702,10.956-2.138,15.684
			c8.663,11.481,19.632,20.419,32.225,27.357c2.188,1.204,4.326,1.666,6.357,1.666c3.393,0.446,7.019-0.519,10.172-3.697
			C393.132,200.284,389.598,136.024,366.97,81.918z M337.123,219.039c-3.24-2.158-6.368-4.514-9.187-7.165
			c0.122-0.495,0.284-0.978,0.351-1.488c0.025-0.036,0.056-0.061,0.081-0.099c19.662-30.569,19.515-66.6,3.601-98.401
			c5.185-2.778,10.395-5.512,15.595-8.252C360.954,142.585,364.071,185.88,337.123,219.039z"/>
		<path d="M427.78,8.539c-2.407-0.053-4.937,0.374-7.536,1.569c-14.686,6.751-29.523,13.256-44.052,20.274
			c-13.396,6.479-1.833,25.715,2.839,32.76c9.882,14.914,17.199,29.727,22.363,46.898c9.46,31.468,11.045,61.659,0.69,93.244
			c-6.17,18.821-16.671,36.444-28.451,52.288c-0.965,1.289-1.523,2.564-1.915,3.813c-0.843,0.746-1.468,1.665-2.173,2.519
			c-4.524,4.053-6.597,10.953-2.474,15.681c10.02,11.481,22.684,20.419,37.237,27.355c2.533,1.208,5.002,1.665,7.348,1.665
			c3.92,0.447,8.109-0.513,11.756-3.691c93.195-80.943,64.606-195.073,20.723-285.862C441.063,10.687,434.182,8.196,427.78,8.539z
			 M409.646,277.418c-3.743-2.158-7.363-4.515-10.618-7.166c0.143-0.492,0.325-0.975,0.406-1.487
			c0.025-0.035,0.061-0.061,0.086-0.097c56.463-75.941,48.795-144.476,4.164-221.646c5.992-2.778,12.015-5.512,18.027-8.251
			C455.018,122.593,482.926,199.385,409.646,277.418z"/>
		<path d="M180.918,201.012c-0.337-1.254-0.822-2.523-1.653-3.813c-11.149-17.326-14.591-38.291-9.044-58.191
			c3.121-11.194,22.292-35.114,6.822-43.757c-12.568-7.02-25.4-13.52-38.11-20.269c-2.247-1.196-4.441-1.622-6.521-1.569
			c-5.547-0.345-11.496,2.148-14.16,8.511c-22.63,54.106-26.159,118.365,17.93,162.625c3.161,3.169,6.779,4.139,10.171,3.691
			c2.031,0.005,4.169-0.462,6.357-1.665c12.596-6.939,23.557-15.877,32.22-27.358c3.567-4.728,1.777-11.624-2.138-15.683
			C182.186,202.675,181.64,201.759,180.918,201.012z M148.102,219.039c-26.951-33.165-23.831-76.459-10.443-115.405
			c5.2,2.74,10.413,5.479,15.595,8.252c-15.917,31.801-16.067,67.826,3.605,98.401c0.025,0.038,0.051,0.063,0.076,0.099
			c0.069,0.51,0.231,0.993,0.355,1.488C154.472,214.525,151.342,216.886,148.102,219.039z"/>
		<path d="M113.501,259.391c-0.389-1.254-0.95-2.523-1.912-3.813c-11.783-15.849-22.282-33.467-28.455-52.288
			c-10.346-31.585-8.772-61.781,0.693-93.244c5.162-17.171,12.474-31.983,22.363-46.897c4.669-7.041,16.234-26.276,2.833-32.758
			c-14.528-7.02-29.358-13.525-44.046-20.276c-2.6-1.196-5.134-1.623-7.536-1.569c-6.411-0.343-13.287,2.147-16.364,8.513
			C-2.797,107.841-31.387,221.971,61.81,302.919c3.656,3.174,7.838,4.139,11.758,3.691c2.351,0.006,4.819-0.456,7.348-1.665
			c14.553-6.937,27.226-15.874,37.234-27.355c4.123-4.728,2.054-11.623-2.468-15.681
			C114.973,261.057,114.344,260.132,113.501,259.391z M75.579,277.418C2.293,199.385,30.207,122.593,63.516,38.771
			c6.012,2.739,12.032,5.479,18.022,8.251c-44.63,77.17-52.298,145.7,4.167,221.646c0.025,0.036,0.061,0.062,0.089,0.097
			c0.076,0.508,0.264,0.995,0.404,1.487C82.941,272.904,79.329,275.265,75.579,277.418z"/>
	</g>
</g>
<g>
</g>
<g>
</g>
<g>
</g>
<g>
</g>
<g>
</g>
<g>
</g>
<g>
</g>
<g>
</g>
<g>
</g>
<g>
</g>
<g>
</g>
<g>
</g>
<g>
</g>
<g>
</g>
<g>
</g>
</svg>
