<?xml version="1.0" encoding="iso-8859-1"?>
<!-- Generator: Adobe Illustrator 16.0.0, SVG Export Plug-In . SVG Version: 6.00 Build 0)  -->
<!DOCTYPE svg PUBLIC "-//W3C//DTD SVG 1.1//EN" "http://www.w3.org/Graphics/SVG/1.1/DTD/svg11.dtd">
<svg version="1.1" id="Capa_1" xmlns="http://www.w3.org/2000/svg" xmlns:xlink="http://www.w3.org/1999/xlink" x="0px" y="0px"
	 width="484.072px" height="484.072px" viewBox="0 0 484.072 484.072" style="enable-background:new 0 0 484.072 484.072;"
	 xml:space="preserve">
<g>
	<g>
		<path d="M399.407,93.002c-0.914-0.244-1.879-0.422-2.966-0.417c-45.082,0.038-90.159,0.556-135.242,1.115V13.029
			c0-0.505-0.086-0.952-0.137-1.424c-0.183-6.063-5.383-12.688-13.284-11.456c-19.398,3.032-38.085,9.666-54.243,20.957
			c-11.125,7.771-0.538,26.174,10.709,18.318c11.04-7.71,23.014-12.814,35.749-16.074v70.589
			c-50.384,0.63-100.762,1.255-151.151,1.295c-5.906,0.005-9.247,3.961-10.055,8.455c-0.629,0.604-1.229,1.28-1.762,2.1
			c-5.469,8.483-9.714,18.979-6.347,29.084c3.59,10.763,14.233,16.047,24.623,18.319c1.666,0.363,3.219,0.363,4.626,0.078
			c0.488,0.107,1.021,0.16,1.544,0.214c10.704,83.992,23.729,225.978,39.456,309.18c0.833,4.408,3.605,6.724,6.851,7.414
			c0.929,0.559,1.955,1.036,3.209,1.32c64.312,14.655,130.474,17.412,195.238,3.981c5.403-1.117,7.657-5.119,7.602-9.309
			c0.817-1.381,1.376-2.99,1.513-4.899c5.82-84.701,23.537-226.156,35.42-310.087c0.096-0.676,0.102-1.315,0.086-1.95
			c3.188-0.307,6.383-0.541,9.572-0.868c6.027-0.622,9.358-5.22,10.008-9.979c5.643-13.342,6.14-27.891-2.173-40.454
			C405.967,94.381,402.671,92.982,399.407,93.002z M334.561,456.083c-57.777,10.999-116.794,8.298-174.129-4.311
			c-4.57-24.37-8.882-107.115-12.99-131.551c30.239,9.38,58.844,6.094,89.509-6.586c37.095-15.335,70.025-36.521,111.686-31.585
			C342.68,320.45,337.435,417.282,334.561,456.083z M351.902,261.404c-0.599-0.178-1.198-0.351-1.868-0.438
			c-73.545-9.719-133.038,66.984-205.46,35.922c-0.35-0.152-0.701-0.219-1.051-0.335c-1.935-11.913-3.823-23.831-5.662-35.759
			c65.673,49.789,140.604-48.792,214.662-28.046c1.427,0.401,2.747,0.475,3.98,0.357
			C354.954,242.534,353.42,251.973,351.902,261.404z M359.814,212.937c-0.528-0.234-1.052-0.472-1.656-0.645
			c-37.516-10.509-72.396,3.298-106.287,18.943c-40.923,18.896-81.42,39.853-115.757-1.632c-1.041-1.251-2.168-2.12-3.332-2.704
			c-3.519-24.168-6.896-48.358-9.988-72.589c82.258,2.892,164.613,3.412,246.667-3.225
			C366.476,171.734,363.175,192.34,359.814,212.937z M391.942,127.822c-96.364,9.39-193.191,8.361-289.846,4.537
			c-0.762-0.03-1.473,0.033-2.148,0.127c-2.57-0.589-5.038-1.254-7.363-2.544c-1.666-0.929-0.579-0.279-1.808-1.538
			c0.69,0.713,0.122-0.516-0.056-0.691c-0.345-2.496,2.255-7.551,4.621-11.217c0.016-0.03,0.025-0.056,0.041-0.089
			c99.051-0.175,198.081-2.447,297.138-2.595C394.04,118.352,393.745,123.074,391.942,127.822z"/>
	</g>
</g>
<g>
</g>
<g>
</g>
<g>
</g>
<g>
</g>
<g>
</g>
<g>
</g>
<g>
</g>
<g>
</g>
<g>
</g>
<g>
</g>
<g>
</g>
<g>
</g>
<g>
</g>
<g>
</g>
<g>
</g>
</svg>
