<?xml version="1.0" encoding="iso-8859-1"?>
<!-- Generator: Adobe Illustrator 16.0.0, SVG Export Plug-In . SVG Version: 6.00 Build 0)  -->
<!DOCTYPE svg PUBLIC "-//W3C//DTD SVG 1.1//EN" "http://www.w3.org/Graphics/SVG/1.1/DTD/svg11.dtd">
<svg version="1.1" id="Capa_1" xmlns="http://www.w3.org/2000/svg" xmlns:xlink="http://www.w3.org/1999/xlink" x="0px" y="0px"
	 width="470.609px" height="470.608px" viewBox="0 0 470.609 470.608" style="enable-background:new 0 0 470.609 470.608;"
	 xml:space="preserve">
<g>
	<g>
		<path d="M228.625,376.518c8.777,3.118,16.727,2.823,24.466-2.585c15.884-11.095,27.481-34.226,35.987-51.028
			c24.796-48.972,34.312-109.542,43.869-163.227c3.29-18.491,2.833-44.536,11.43-61.608c2.275-4.517,1.062-8.788-1.843-11.778
			c-5.027-5.738-15.793-6.394-19.956,1.457c-18.21,34.32-45.642,65.201-66.182,98.36c-21.094,34.033-39.641,69.965-50.978,108.481
			c-4.471,15.193-16.315,44.102-10.831,60.047C197.208,362.264,221.092,373.837,228.625,376.518z M227.44,302.653
			c5.299-18.56,12.631-36.638,21.01-54.01c8.485-17.587,18.205-34.664,28.533-51.231c5.185-8.317,10.501-16.572,15.95-24.72
			c4.042-6.037,14.812-16.452,16.011-23.483c-5.291,31.009-9.562,62.353-17.098,92.711c-8.16,32.905-15.874,81.628-43.854,104.312
			c-7.165,5.81-22.627,7.5-28.32-0.965c-0.208-0.31-0.406-0.635-0.589-0.97C213.12,333.197,224.352,313.479,227.44,302.653z"/>
		<path d="M11.631,379.798c23.795,0.056,47.568,0.808,71.348,1.6c15.516,0.523,15.47-23.531,0-24.049
			c-23.78-0.793-47.553-1.544-71.348-1.6C-3.88,355.713-3.875,379.763,11.631,379.798z"/>
		<path d="M14.383,257.901c22.051,10.953,44.483,21.119,66.537,32.067c13.842,6.875,26.03-13.868,12.136-20.77
			c-22.054-10.948-44.485-21.114-66.537-32.067C12.677,230.267,0.487,251.005,14.383,257.901z"/>
		<path d="M114.562,191.09c10.412,11.538,27.368-5.527,17.008-17.008c-14.19-15.724-28.723-31.121-43.287-46.497
			c-10.687-11.278-27.665,5.756-17.009,17.009C85.838,159.965,100.376,175.366,114.562,191.09z"/>
		<path d="M238.512,156.933c-1.617-26.712-3.164-53.417-4.009-80.166c-0.49-15.47-24.544-15.518-24.05,0
			c0.846,26.749,2.392,53.458,4.009,80.166C215.392,172.34,239.447,172.429,238.512,156.933z"/>
		<path d="M370.473,205.52c12.152-12.957,24.334-25.896,36.877-38.479c10.958-10.994-6.048-28-17.006-17.009
			c-12.543,12.583-24.725,25.52-36.877,38.479C342.875,199.809,359.845,216.856,370.473,205.52z"/>
		<path d="M385.22,295.62c24.582,0.736,49.165,0.803,73.758,0.803c15.508,0,15.508-24.05,0-24.05
			c-24.593,0-49.176-0.065-73.758-0.802C369.702,271.109,369.748,295.158,385.22,295.62z"/>
		<path d="M452.559,381.402c-25.339-0.935-50.063-4.174-74.564-10.796c-14.996-4.047-21.354,19.154-6.394,23.191
			c26.517,7.165,53.542,10.639,80.963,11.654C468.078,406.025,468.016,381.977,452.559,381.402z"/>
		<path d="M241.372,335.178c16.768,0,16.768-25.999,0-25.999C224.601,309.179,224.601,335.178,241.372,335.178z"/>
	</g>
</g>
<g>
</g>
<g>
</g>
<g>
</g>
<g>
</g>
<g>
</g>
<g>
</g>
<g>
</g>
<g>
</g>
<g>
</g>
<g>
</g>
<g>
</g>
<g>
</g>
<g>
</g>
<g>
</g>
<g>
</g>
</svg>
