<?xml version="1.0" encoding="iso-8859-1"?>
<!-- Generator: Adobe Illustrator 16.0.0, SVG Export Plug-In . SVG Version: 6.00 Build 0)  -->
<!DOCTYPE svg PUBLIC "-//W3C//DTD SVG 1.1//EN" "http://www.w3.org/Graphics/SVG/1.1/DTD/svg11.dtd">
<svg version="1.1" id="Capa_1" xmlns="http://www.w3.org/2000/svg" xmlns:xlink="http://www.w3.org/1999/xlink" x="0px" y="0px"
	 width="430.798px" height="430.798px" viewBox="0 0 430.798 430.798" style="enable-background:new 0 0 430.798 430.798;"
	 xml:space="preserve">
<g>
	<g>
		<path d="M430.613,389.3c-18.702-121.947-35.637-244.154-46.377-367.089c0.746-2.742,0.351-5.377-0.854-7.68
			c-1.803-9.521-11.842-10.92-19.042-6.657c-1.97,0.863-3.844,2.178-5.443,4.171C249.807,147.776,119.694,264.25,3.716,393.784
			c-4.591,5.128-4.504,11.399-2.034,16.32c-0.581,6.972,3.385,14.005,12.388,13.827c135.574-2.661,271.806,11.05,405.956-14.949
			c7.744-1.503,10.812-7.684,10.319-13.746C430.816,393.448,430.943,391.463,430.613,389.3z M38.007,396.384
			C143.68,280.55,259.206,173.905,359.913,53.595c1.833,19.474,3.869,38.928,5.977,58.369c-5.215,0.079-10.42,0.475-15.574,1.562
			c-17.209,3.633-11.385,30.315,5.865,26.669c4.291-0.903,8.398-1.076,12.715-0.998c1.93,16.768,4.002,33.517,6.089,50.267
			c-4.672,1.076-9.358,2.146-14.035,3.222c-17.134,3.933-11.34,30.615,5.859,26.67c3.89-0.894,7.77-1.782,11.654-2.677
			c1.767,13.559,3.701,27.102,5.55,40.654c-5.18,0.971-10.272,2.306-15.31,4.104c-6.998,2.509-12.152,8.297-10.4,16.265
			c1.442,6.571,9.247,12.924,16.266,10.405c4.331-1.549,8.708-2.773,13.146-3.707c2.072,14.751,4.316,29.482,6.454,44.229
			c-5.24,0.909-10.415,2.144-15.549,3.961c-7.008,2.479-12.142,8.312-10.399,16.265c1.441,6.587,9.236,12.888,16.265,10.405
			c4.397-1.554,8.978-2.828,13.604-3.768c1.427,9.633,2.747,19.271,4.215,28.898C281.85,405.605,159.696,395.521,38.007,396.384z"/>
		<path d="M328.333,161.367c0.34-1.99,0.091-3.994-0.727-5.87c-1.233-4.804-5.331-7.987-10.42-7.987
			c-2.229,0-4.448,0.594-6.449,1.721c-1.726,0.807-3.209,1.973-4.412,3.468c-32.479,40.413-69.406,78.122-105.109,114.587
			c-24.209,24.725-49.249,50.298-72.757,76.561c-3.161,3.534-4.02,8.277-2.364,12.67c0.076,2.909,1.127,5.631,2.979,7.637
			c2.059,2.24,4.997,3.469,8.543,3.469c0.005,0,0.005,0,0.01,0c19.786-0.391,39.603-0.081,59.415,0.229
			c13.238,0.208,26.477,0.416,39.699,0.416c0.005,0,0.011,0,0.011,0c31.057,0,67.836-0.975,105.266-8.231
			c5.729-1.106,9.491-5.794,9.415-11.552c0.249-1.366,0.27-2.783,0.046-4.2C343.755,293.936,334.157,227.714,328.333,161.367z
			 M326.23,338.327c-32.382,5.221-64.765,5.921-89.702,5.921c-13.14,0-26.302-0.213-39.456-0.427
			c-11.893-0.192-23.79-0.386-35.678-0.421c18.748-20.221,38.225-40.146,57.132-59.494c29.625-30.306,60.164-61.555,88.377-94.387
			C311.251,232.746,317.318,279.423,326.23,338.327z"/>
	</g>
</g>
<g>
</g>
<g>
</g>
<g>
</g>
<g>
</g>
<g>
</g>
<g>
</g>
<g>
</g>
<g>
</g>
<g>
</g>
<g>
</g>
<g>
</g>
<g>
</g>
<g>
</g>
<g>
</g>
<g>
</g>
</svg>
