<?xml version="1.0" encoding="iso-8859-1"?>
<!-- Generator: Adobe Illustrator 16.0.0, SVG Export Plug-In . SVG Version: 6.00 Build 0)  -->
<!DOCTYPE svg PUBLIC "-//W3C//DTD SVG 1.1//EN" "http://www.w3.org/Graphics/SVG/1.1/DTD/svg11.dtd">
<svg version="1.1" id="Capa_1" xmlns="http://www.w3.org/2000/svg" xmlns:xlink="http://www.w3.org/1999/xlink" x="0px" y="0px"
	 width="494.289px" height="494.289px" viewBox="0 0 494.289 494.289" style="enable-background:new 0 0 494.289 494.289;"
	 xml:space="preserve">
<g>
	<g>
		<path d="M338.784,182.4c-20.119-25.926-47.85-39.717-78.292-40.74c-1.031-0.495-2.169-0.907-3.534-1.097
			c-74.642-10.524-143.209,56.375-133.135,131.88c8.14,60.986,67.288,96.664,125.365,87.295
			c51.368-8.282,104.434-45.052,113.69-99.102C367.86,231.542,356.297,204.977,338.784,182.4z M337.981,262.008
			c-8.495,37.811-47.433,62.642-82.425,71.884c-41.787,11.034-81.72-5.108-101.55-43.676
			c-27.396-53.275,19.068-117.144,73.468-125.974c2.651,2.752,6.556,4.332,11.314,3.313
			C291.863,156.188,350.54,206.117,337.981,262.008z"/>
		<path d="M101.261,71.03c-10.526-11.57-27.604,5.606-17.123,17.123c13.482,14.815,25.228,30.912,36.851,47.192
			c8.993,12.591,30.011,0.515,20.911-12.223C129.083,105.188,116.12,87.358,101.261,71.03z"/>
		<path d="M263.426,91.7c1.087-21.855-0.452-43.404-4.067-64.973c-2.574-15.376-25.908-8.836-23.354,6.437
			c3.25,19.41,4.174,38.884,3.199,58.531C238.428,107.315,262.65,107.241,263.426,91.7z"/>
		<path d="M386.836,92.827c-14.939,12.513-29.396,25.578-44.798,37.532c-5.226,4.057-4.229,12.898,0,17.125
			c5.099,5.101,11.918,4.044,17.123,0c15.396-11.961,29.858-25.021,44.798-37.534C415.949,99.911,398.719,82.87,386.836,92.827z"/>
		<path d="M80.594,234.574c-23.049-2.516-45.971-5.957-69.02-8.476c-15.513-1.693-15.351,22.539,0,24.215
			c23.049,2.514,45.971,5.962,69.02,8.475C96.102,260.484,95.945,236.25,80.594,234.574z"/>
		<path d="M116.856,366.995c-23.105,16.971-46.575,33.434-70.224,49.643c-12.791,8.765-0.695,29.762,12.223,20.905
			c23.648-16.209,47.119-32.666,70.224-49.642C141.524,378.766,129.464,357.732,116.856,366.995z"/>
		<path d="M223.463,391.979c0.091,24.223,1.122,48.424,1.213,72.646c0.056,15.615,24.273,15.62,24.217,0
			c-0.091-24.217-1.127-48.423-1.213-72.646C247.624,376.364,223.407,376.359,223.463,391.979z"/>
		<path d="M361.583,339.828c-11.634-10.329-28.822,6.733-17.123,17.123c20.292,18.026,39.522,37.145,58.118,56.908
			c10.72,11.396,27.812-5.764,17.122-17.123C401.106,376.974,381.875,357.85,361.583,339.828z"/>
		<path d="M482.577,230.941c-27.857,0-55.705,0.094-83.543,1.211c-15.563,0.625-15.62,24.844,0,24.214
			c27.838-1.117,55.686-1.203,83.543-1.214C498.192,255.152,498.192,230.941,482.577,230.941z"/>
	</g>
</g>
<g>
</g>
<g>
</g>
<g>
</g>
<g>
</g>
<g>
</g>
<g>
</g>
<g>
</g>
<g>
</g>
<g>
</g>
<g>
</g>
<g>
</g>
<g>
</g>
<g>
</g>
<g>
</g>
<g>
</g>
</svg>
