<?xml version="1.0" encoding="iso-8859-1"?>
<!-- Generator: Adobe Illustrator 16.0.0, SVG Export Plug-In . SVG Version: 6.00 Build 0)  -->
<!DOCTYPE svg PUBLIC "-//W3C//DTD SVG 1.1//EN" "http://www.w3.org/Graphics/SVG/1.1/DTD/svg11.dtd">
<svg version="1.1" id="Capa_1" xmlns="http://www.w3.org/2000/svg" xmlns:xlink="http://www.w3.org/1999/xlink" x="0px" y="0px"
	 width="449.818px" height="449.817px" viewBox="0 0 449.818 449.817" style="enable-background:new 0 0 449.818 449.817;"
	 xml:space="preserve">
<g>
	<g>
		<path d="M73.244,427.017c1.467,6.368,6.822,10.156,13.233,9.531c63.063,9.177,111.304,13.27,156.374,13.27
			c0.005,0,0.005,0,0.011,0c54.131,0,101.417-6.145,144.56-18.789c7.16-2.103,9.76-8.358,9.222-13.832
			c0.233-0.925,0.376-1.818,0.422-2.717c3.407-65.979,7.52-136.445,12.572-215.426c3.515-54.916-2.98-170.47-21.479-190.599
			c-1.777-1.94-3.702-3.1-5.733-3.463c-0.305-0.307-0.67-0.625-1.233-1.107c-2.895-2.425-6.47-3.344-9.942-2.569
			c-48.495-0.031-97.797-0.348-145.477-0.655C177.354,0.343,127.291,0.02,78.042,0c-1.632,0-3.191,0.264-4.649,0.789
			c-6.451-0.706-12.245,2.689-14.604,8.628C33.625,72.719,38.437,147.565,42.674,213.604
			C47.453,287.84,57.738,359.643,73.244,427.017z M80.66,26.388c48.378,0.033,97.533,0.35,145.085,0.655
			c46.141,0.297,93.824,0.604,140.78,0.65c15.056,45.697,19.702,134.282,15.325,191.178c-3.179,41.284-5.271,83.035-7.292,123.405
			c-1.097,21.896-2.194,43.818-3.469,65.821c-38.866,10.358-81.268,15.396-129.544,15.396c-41.814,0-87.839-3.798-144.705-11.943
			c-13.65-61.545-22.744-126.431-27.789-198.289C65.081,156.576,60.14,86.176,80.66,26.388z"/>
		<path d="M107.792,361.907c1.43,6.21,6.703,10.11,13.005,9.698c47.37,6.881,83.659,9.953,117.611,9.953h0.005
			c40.984,0,76.814-4.661,109.531-14.254c6.068-1.777,9.704-7.033,9.298-13.269c0.152-0.711,0.244-1.401,0.279-2.103
			c2.564-49.591,5.652-102.524,9.45-161.837c2.61-40.814-1.97-129.291-16.991-145.628c-1.771-1.922-3.579-2.902-5.148-3.364
			l-0.396-0.363c-2.844-2.376-6.373-3.339-9.882-2.684c-36.287-0.025-72.589-0.259-108.876-0.493
			c-37.034-0.241-74.067-0.48-111.104-0.5c-1.354,0-2.653,0.188-3.89,0.557c-6.042-0.363-11.387,3.031-13.594,8.569
			C77.913,94.433,81.548,151.06,84.755,201.024C88.343,256.98,96.097,311.107,107.792,361.907z M118.861,63.386
			c35.51,0.03,71.026,0.259,106.536,0.487c34.52,0.218,69.041,0.441,103.565,0.485c10.623,34.528,13.843,98.625,10.654,140.163
			c-2.393,31.087-3.972,62.499-5.495,92.876c-0.781,15.641-1.568,31.301-2.462,47.012c-28.315,7.312-59.185,10.867-94.237,10.867
			c-30.714,0-64.493-2.742-106.049-8.623c-9.953-45.438-16.61-93.348-20.327-146.324
			C108.124,158.729,104.511,107.231,118.861,63.386z"/>
		<path d="M232.806,387.521c-13.411,0-13.411,20.799,0,20.799S246.217,387.521,232.806,387.521z"/>
	</g>
</g>
<g>
</g>
<g>
</g>
<g>
</g>
<g>
</g>
<g>
</g>
<g>
</g>
<g>
</g>
<g>
</g>
<g>
</g>
<g>
</g>
<g>
</g>
<g>
</g>
<g>
</g>
<g>
</g>
<g>
</g>
</svg>
