<?xml version="1.0" encoding="iso-8859-1"?>
<!-- Generator: Adobe Illustrator 16.0.0, SVG Export Plug-In . SVG Version: 6.00 Build 0)  -->
<!DOCTYPE svg PUBLIC "-//W3C//DTD SVG 1.1//EN" "http://www.w3.org/Graphics/SVG/1.1/DTD/svg11.dtd">
<svg version="1.1" id="Capa_1" xmlns="http://www.w3.org/2000/svg" xmlns:xlink="http://www.w3.org/1999/xlink" x="0px" y="0px"
	 width="465.572px" height="465.572px" viewBox="0 0 465.572 465.572" style="enable-background:new 0 0 465.572 465.572;"
	 xml:space="preserve">
<g>
	<g>
		<path d="M118.977,236.178c-0.076-0.132-0.163-0.218-0.239-0.34c30.773-52.887,51.329-110.481,76.998-165.88
			c3.915-8.455-4.636-16.082-11.268-14.403c-0.081-0.005-0.142-0.031-0.213-0.036c-22.364-1.586-44.798-1.716-67.167-3.199
			c-4.286-0.285-7.038,1.858-8.343,4.778c-1.173,0.729-2.255,1.754-3.138,3.174C70.975,115.733,38.75,172.688,1.661,226.583
			c-1.488,2.163-1.874,4.278-1.559,6.203c-0.314,1.925,0.071,4.047,1.559,6.205c37.089,53.897,69.314,110.853,103.946,166.313
			c0.883,1.417,1.965,2.443,3.138,3.169c1.305,2.925,4.062,5.068,8.343,4.778c22.369-1.482,44.803-1.609,67.167-3.193
			c1.487-0.107,2.792-0.493,3.92-1.066c6.408,0.056,13.122-6.917,9.161-14.498C170.062,342.277,147.429,287.796,118.977,236.178z
			 M121.08,393.854c-33.474-53.72-64.8-108.771-100.508-161.068C56.279,180.493,87.61,125.44,121.08,71.72
			c17.28,1.031,34.591,1.409,51.876,2.326c-23.673,52.94-43.863,107.392-73.752,157.333c-2.833,4.738-1.112,9.268,2.229,11.913
			c0.208,0.849,0.493,1.701,0.97,2.575c26.151,47.443,47.433,97.283,71.874,145.585C156.554,392.417,138.802,392.798,121.08,393.854
			z"/>
		<path d="M463.909,226.583c-37.095-53.895-69.314-110.85-103.946-166.311c-0.884-1.419-1.966-2.445-3.144-3.174
			c-1.305-2.92-4.057-5.063-8.338-4.778c-22.368,1.483-44.803,1.612-67.166,3.199c-0.076,0.005-0.143,0.031-0.214,0.036
			c-6.637-1.679-15.183,5.949-11.268,14.403c25.664,55.398,46.225,112.993,76.992,165.88c-0.071,0.127-0.157,0.213-0.233,0.34
			c-28.447,51.618-51.09,106.1-78.354,158.316c-3.961,7.581,2.747,14.549,9.16,14.498c1.128,0.573,2.433,0.959,3.921,1.066
			c22.363,1.584,44.798,1.711,67.166,3.193c4.286,0.29,7.033-1.854,8.338-4.778c1.179-0.726,2.26-1.752,3.144-3.169
			c34.632-55.461,66.852-112.416,103.946-166.313c1.487-2.163,1.868-4.28,1.559-6.205
			C465.777,230.861,465.392,228.741,463.909,226.583z M344.485,393.854c-17.718-1.057-35.47-1.433-53.192-2.402
			c24.44-48.302,45.718-98.142,71.874-145.585c0.478-0.869,0.767-1.727,0.975-2.575c3.337-2.646,5.062-7.17,2.225-11.913
			c-29.879-49.941-50.074-104.388-73.742-157.333c17.285-0.917,34.596-1.3,51.871-2.326
			c33.479,53.72,64.805,108.768,100.509,161.066C409.29,285.084,377.959,340.135,344.485,393.854z"/>
	</g>
</g>
<g>
</g>
<g>
</g>
<g>
</g>
<g>
</g>
<g>
</g>
<g>
</g>
<g>
</g>
<g>
</g>
<g>
</g>
<g>
</g>
<g>
</g>
<g>
</g>
<g>
</g>
<g>
</g>
<g>
</g>
</svg>
