<?xml version="1.0" encoding="iso-8859-1"?>
<!-- Generator: Adobe Illustrator 16.0.0, SVG Export Plug-In . SVG Version: 6.00 Build 0)  -->
<!DOCTYPE svg PUBLIC "-//W3C//DTD SVG 1.1//EN" "http://www.w3.org/Graphics/SVG/1.1/DTD/svg11.dtd">
<svg version="1.1" id="Capa_1" xmlns="http://www.w3.org/2000/svg" xmlns:xlink="http://www.w3.org/1999/xlink" x="0px" y="0px"
	 width="490.529px" height="490.529px" viewBox="0 0 490.529 490.529" style="enable-background:new 0 0 490.529 490.529;"
	 xml:space="preserve">
<g>
	<g>
		<path d="M310.751,383.453c5.575-62.281,21.438-220.635,20.713-283.604c-0.401-34.444-15.168-106.676-64.958-99.328
			c-38.298,5.652-40.289,71.112-42.203,99.427c-4.1,60.728,3.169,221.108,21.691,279.033
			c-21.612,12.588-39.753,32.361-33.809,59.274c5.151,23.349,28.14,39.567,49.091,47.556c21.216,8.089,48.322,6.748,63.77-11.669
			C348.815,445.796,337.318,404.883,310.751,383.453z M243.95,122.38c0.333-21.465-2.034-93.656,25.578-101.684
			c17.412-5.063,33.113,27.457,36.516,39.098c7.16,24.529,5.413,51.963,3.769,77.124c-0.417,6.36-0.965,14.2-1.625,23.141
			c-21.439-2.347-42.635-1.75-63.854,1.29C243.924,145.759,243.797,132.317,243.95,122.38z M305.673,464.564
			c-10.893,9.536-30.062,5.423-41.828,0.279c-13.837-6.048-27.773-16.905-31.851-32.053c-5.21-19.367,17.171-32.783,31.343-39.867
			c6.054-3.026,6.277-9.115,3.504-13.578c0.097-1.234-0.03-2.574-0.497-4.017c-11.862-36.597-18.781-126.779-21.323-193.177
			c20.5-3.168,40.949-3.62,61.611-1.473c-5.058,65.902-13.481,166.365-16.798,206.796c-0.264,3.158,0.736,5.535,2.387,7.175
			c0.706,0.93,1.564,1.803,2.696,2.549C316.188,411.189,327.289,445.623,305.673,464.564z"/>
		<path d="M283.995,401.896c-11.487-6.987-21.938,11.004-10.491,17.961c11.344,6.906,15.741,15.438,10.815,28.122
			c-4.859,12.522,15.255,17.895,20.059,5.53C312.654,432.182,302.62,413.23,283.995,401.896z"/>
		<path d="M162.618,125.619c10.991,0,21.965,0.1,32.931,1.003c13.391,1.107,13.302-23.036,0-24.133
			c-10.966-0.904-21.944-1.003-32.931-1.003C149.202,101.486,149.202,125.619,162.618,125.619z"/>
		<path d="M162.618,188.975h32.931c13.416,0,13.416-24.133,0-24.133h-32.931C149.202,164.842,149.202,188.975,162.618,188.975z"/>
		<path d="M199.017,252.33c13.416,0,13.416-24.138,0-24.138h-32.931c-13.416,0-13.416,24.138,0,24.138H199.017z"/>
		<path d="M205.085,290.542h-32.931c-13.411,0-13.411,24.141,0,24.141h32.931C218.496,314.683,218.496,290.542,205.085,290.542z"/>
	</g>
</g>
<g>
</g>
<g>
</g>
<g>
</g>
<g>
</g>
<g>
</g>
<g>
</g>
<g>
</g>
<g>
</g>
<g>
</g>
<g>
</g>
<g>
</g>
<g>
</g>
<g>
</g>
<g>
</g>
<g>
</g>
</svg>
