<?xml version="1.0" encoding="iso-8859-1"?>
<!-- Generator: Adobe Illustrator 16.0.0, SVG Export Plug-In . SVG Version: 6.00 Build 0)  -->
<!DOCTYPE svg PUBLIC "-//W3C//DTD SVG 1.1//EN" "http://www.w3.org/Graphics/SVG/1.1/DTD/svg11.dtd">
<svg version="1.1" id="Capa_1" xmlns="http://www.w3.org/2000/svg" xmlns:xlink="http://www.w3.org/1999/xlink" x="0px" y="0px"
	 width="467.766px" height="467.766px" viewBox="0 0 467.766 467.766" style="enable-background:new 0 0 467.766 467.766;"
	 xml:space="preserve">
<g>
	<g>
		<path d="M392.328,132.788c4.728-15.666,4.859-31.552-2.56-46.954c-7.059-14.665-22.338-23.369-37.562-28.345
			c-0.95-22.998-12.132-42.056-35.003-50.714c-21.47-8.127-45.371,0.457-63.302,13.909C216.759-18.792,161.917,2.822,136.464,47
			c-50.303-9.546-87.732,32.812-79.62,81.68c-21.627,11.986-35.505,31.892-30.356,58.036c4.735,24.039,27.736,39.872,50.13,47.456
			c-2.199,18.027,1.77,36.354,17.504,47.859c16.021,11.716,36.627,11.634,55.289,6.901c0.853,10.526,1.686,21.059,2.399,31.58
			c-6.896-2.062-13.733-4.316-20.708-6.114c-5.429-1.401-9.707,0.722-12.302,4.175c-2.236,1.6-4.019,3.92-5.035,6.713
			c-3.628,9.978-6.068,20.332-9.696,30.311c-0.599,1.655-0.68,3.361-0.401,5.007c-0.323,3.087,0.629,6.357,3.521,9.217
			c14.043,13.903,29.279,26.431,45.44,37.785c-1.102,15.025-3.006,30.021-6.124,44.98c-3.184,15.254,20.185,21.744,23.376,6.449
			c12.578-60.275,7.779-120.598,2.861-181.441c-0.348-4.307-2.501-7.379-5.367-9.298c-2.084-4.966-6.982-8.404-13.617-6.032
			c-13.624,4.874-29.635,8.784-43.206,1.66c-12.558-6.592-11.509-22.349-8.564-34.027c0.498-1.993,0.513-3.819,0.186-5.477
			c-0.01-4.738-2.6-9.268-8.653-10.649c-17.303-3.958-35.835-12.492-42.691-30.196c-6.926-17.882,8.955-29.795,23.26-36.554
			c5.903-1.561,10.732-6.926,8.503-14.498C71.476,94.83,97.302,61.061,137.061,72.06c5.289,3.41,12.469,3.186,15.841-4.146
			c15.272-33.269,58.211-65.933,86.93-26.71c2.148,8.003,12.68,13.82,20.286,6.129c25.142-25.41,70.371-27.117,67.807,18.101
			c-0.076,1.389,0.097,2.604,0.386,3.745c0.543,4.133,3.169,7.874,8.516,9.158c12.848,3.092,25.075,7.835,32.007,19.738
			c6.546,11.243,1.563,25.951-2.89,36.876c-2.036,4.997-0.538,8.98,2.488,11.512c1,1.315,2.392,2.491,4.301,3.397
			c32.286,15.303,52.166,45.255,43.234,81.423c-9.43,38.191-47.261,46.434-80.212,35.338c-5.235-4.824-14.081-5.657-18.291,2.438
			c-6.286,12.08-15.046,25.075-29.812,26.73c-14.086,1.579-25.38-9.644-33.586-19.489c-10.023-12.02-27.083,5.226-17.146,17.144
			c9.122,10.942,20.508,20.067,33.664,24.171c-4.687,45.98-8.922,91.922-8.119,138.202c0.269,15.62,24.517,15.646,24.247,0
			c-0.792-45.818,3.347-91.308,7.973-136.826c16.361-3.093,28.919-14.351,37.958-27.938c41.878,12.786,87.782-1.153,104.047-45.423
			C453.218,200.624,432.119,155.476,392.328,132.788z M153.8,378.498c-8.622-6.662-16.831-13.802-24.74-21.332
			c1.813-5.521,3.46-11.101,5.182-16.651c6.325,1.904,12.611,3.936,19.002,5.606C153.701,356.922,153.894,367.713,153.8,378.498z"/>
		<path d="M187.292,71.496c-15.635,0-15.635,24.248,0,24.248C202.927,95.744,202.932,71.496,187.292,71.496z"/>
		<path d="M315.808,132.112c15.635,0,15.635-24.248,0-24.248C300.168,107.865,300.168,132.112,315.808,132.112z"/>
		<path d="M141.227,208.492c15.635,0,15.635-24.247,0-24.247C125.589,184.245,125.589,208.492,141.227,208.492z"/>
		<path d="M238.214,155.146c-15.635,0-15.635,24.248,0,24.248C253.852,179.394,253.852,155.146,238.214,155.146z"/>
		<path d="M350.963,208.492c-15.636,0-15.636,24.248,0,24.248C366.598,232.74,366.598,208.492,350.963,208.492z"/>
		<path d="M272.157,255.773c15.641,0,15.641-24.242,0-24.242C256.522,231.531,256.522,255.773,272.157,255.773z"/>
		<path d="M126.679,109.076c-15.638,0-15.638,24.247,0,24.247C142.313,133.323,142.313,109.076,126.679,109.076z"/>
	</g>
</g>
<g>
</g>
<g>
</g>
<g>
</g>
<g>
</g>
<g>
</g>
<g>
</g>
<g>
</g>
<g>
</g>
<g>
</g>
<g>
</g>
<g>
</g>
<g>
</g>
<g>
</g>
<g>
</g>
<g>
</g>
</svg>
