<?xml version="1.0" encoding="iso-8859-1"?>
<!-- Generator: Adobe Illustrator 16.0.0, SVG Export Plug-In . SVG Version: 6.00 Build 0)  -->
<!DOCTYPE svg PUBLIC "-//W3C//DTD SVG 1.1//EN" "http://www.w3.org/Graphics/SVG/1.1/DTD/svg11.dtd">
<svg version="1.1" id="Capa_1" xmlns="http://www.w3.org/2000/svg" xmlns:xlink="http://www.w3.org/1999/xlink" x="0px" y="0px"
	 width="482.222px" height="482.223px" viewBox="0 0 482.222 482.223" style="enable-background:new 0 0 482.222 482.223;"
	 xml:space="preserve">
<g>
	<g>
		<path d="M241.759,156.269c7.056-0.394,13.632-5.35,15.988-12.048c2.071-5.885,0.421-11.824-4.535-16.279L146.197,31.625
			c-2.976-6.068-9.516-10.26-16.104-10.26c-0.312,0-0.62,0.011-0.63,0.025c-7.013-0.414-13.924,3.88-17.034,10.229L5.405,127.941
			c-4.951,4.456-6.604,10.395-4.529,16.279c2.356,6.698,8.935,11.654,15.922,12.081c0.645,0.155,1.295,0.307,2.008,0.383
			c13,1.343,26.055,1.701,36.45,1.82v283.679c0,7.099,3.819,12.73,10.255,15.147c2.854,2.335,6.322,3.528,10.316,3.528h106.983
			c3.936,0,7.493-1.219,10.316-3.528c6.426-2.417,10.255-8.049,10.255-15.147V158.505c10.395-0.12,23.45-0.477,36.445-1.82
			C240.528,156.609,241.166,156.457,241.759,156.269z M88.354,141.581c-0.058-4.644-1.795-9.016-4.804-12.042
			c-2.945-2.96-6.926-4.529-11.514-4.529c-4.393,0-8.782-0.016-13.17-0.063l70.447-63.396l70.447,63.396
			c-4.387,0.048-8.777,0.063-13.169,0.063c-4.588,0-8.564,1.563-11.515,4.529c-3.008,3.031-4.745,7.404-4.804,12.042
			c-0.317,1.371-0.472,2.684-0.472,4.004V427.28H88.826V145.584C88.826,144.264,88.671,142.952,88.354,141.581z"/>
		<path d="M465.482,325.938c-0.67-0.162-1.335-0.319-2.071-0.396c-12.979-1.341-26.04-1.696-36.444-1.823V40.044
			c0-7.109-3.824-12.735-10.253-15.153c-2.818-2.305-6.383-3.527-10.318-3.527H299.412c-3.996,0-7.464,1.186-10.312,3.527
			c-6.434,2.417-10.258,8.043-10.258,15.153V323.72c-10.399,0.122-23.465,0.482-36.447,1.823c-0.744,0.081-1.414,0.233-1.935,0.411
			c-7.056,0.396-13.634,5.353-15.991,12.05c-2.069,5.891-0.421,11.816,4.535,16.28l107.016,96.309
			c2.971,6.068,9.512,10.263,16.107,10.263c0.31,0,0.614-0.005,0.63-0.025c0.314,0.021,0.619,0.025,0.935,0.025
			c6.586,0,13.121-4.194,16.102-10.257l107.019-96.314c4.956-4.458,6.611-10.39,4.535-16.28
			C478.985,331.307,472.409,326.351,465.482,325.938z M393.863,340.64c0.061,4.642,1.797,9.014,4.804,12.045
			c2.945,2.955,6.921,4.524,11.517,4.524c4.393,0,8.774,0.025,13.167,0.071l-70.446,63.389l-70.447-63.389
			c4.393-0.046,8.78-0.071,13.173-0.071c4.59,0,8.562-1.569,11.512-4.524c3.011-3.031,4.748-7.408,4.804-12.045
			c0.319-1.366,0.472-2.681,0.472-4.001V54.945h80.974v281.698C393.39,337.959,393.547,339.273,393.863,340.64z"/>
	</g>
</g>
<g>
</g>
<g>
</g>
<g>
</g>
<g>
</g>
<g>
</g>
<g>
</g>
<g>
</g>
<g>
</g>
<g>
</g>
<g>
</g>
<g>
</g>
<g>
</g>
<g>
</g>
<g>
</g>
<g>
</g>
</svg>
