<?xml version="1.0" encoding="iso-8859-1"?>
<!-- Generator: Adobe Illustrator 16.0.0, SVG Export Plug-In . SVG Version: 6.00 Build 0)  -->
<!DOCTYPE svg PUBLIC "-//W3C//DTD SVG 1.1//EN" "http://www.w3.org/Graphics/SVG/1.1/DTD/svg11.dtd">
<svg version="1.1" id="Capa_1" xmlns="http://www.w3.org/2000/svg" xmlns:xlink="http://www.w3.org/1999/xlink" x="0px" y="0px"
	 width="481.905px" height="481.904px" viewBox="0 0 481.905 481.904" style="enable-background:new 0 0 481.905 481.904;"
	 xml:space="preserve">
<g>
	<g>
		<path d="M417.171,11.229c-0.818-6.822-6.444-10.366-11.873-10.653C404.217,0.238,403.054,0,401.734,0
			c-90.779,0.111-198.379,2.641-289.155,1.406c-1.571-0.021-2.94,0.267-4.171,0.724c-6.375-1.439-14.061,2.034-14.076,10.509
			c-0.025,14.508-0.16,29.016-0.348,43.523c-10.473,3.458-19.905,9.48-27.065,19.062c-16.364,21.912,1.513,49.582,18.075,64.666
			c2.323,2.115,4.893,2.968,7.389,2.988c-0.061,2.955-0.12,5.913-0.183,8.866c-9.191,3.11-17.511,8.018-23.732,15.6
			c-17.272,21.056-3.13,46.59,12.319,63.782c1.846,2.054,3.915,3.046,5.989,3.379c1.239,1.399,2.519,2.747,3.969,3.93
			c-0.01,1.417-0.021,2.829-0.036,4.24c-13.083,3.626-24.722,10.685-31.283,23.176c-13.541,25.756,11.148,49.146,31.582,60.794
			c0.018,0.701,0.043,1.392,0.054,2.087c-9.699,4.794-17.971,11.735-22.912,21.881c-11.73,24.09,8.097,46.007,26.261,59.57
			c0.302,4.697,0.635,9.409,0.973,14.106c-0.386,1.234-0.562,2.625-0.406,4.229c1.518,15.569,4.311,30.712,9.973,45.347
			c1.97,5.099,6.416,7.302,10.795,7.348c1.153,0.417,2.417,0.696,3.875,0.69c97.314-0.051,194.646-1.559,291.569-10.953
			c0.741-0.07,1.422-0.223,2.082-0.406c5.692,0.295,11.608-3.193,11.604-10.541c0-12.802-0.051-25.583-1.366-38.329
			c-0.111-1.071-0.381-2.031-0.716-2.935C423.127,282.884,433.522,146.583,417.171,11.229z M79.813,275.277
			c2.303-4.378,6.142-7.379,10.743-9.445c-0.036,11.293-0.01,22.587,0.083,33.875C82.24,293.324,74.872,284.682,79.813,275.277z
			 M87.389,179.803c1.285-1.326,2.75-2.438,4.286-3.463c-0.213,10.761-0.406,21.513-0.579,32.271
			C84.363,199.823,78.805,188.68,87.389,179.803z M88.649,359.662c0.815-1.675,1.871-3.188,3.098-4.569
			c0.256,7.896,0.551,15.792,0.906,23.684C88.065,373.027,85.371,366.391,88.649,359.662z M92.947,116.08
			c-7.482-8.476-13.134-18.974-6.639-29.526c1.815-2.953,4.352-5.194,7.322-6.926C93.427,91.781,93.199,103.928,92.947,116.08z
			 M123.288,459.993c-1.693-5.403-3.072-10.866-4.148-16.412c89.209,0.528,194.298,9.674,283.427-7.8
			c0.203,4.662,0.319,9.323,0.37,13.985C309.95,458.358,216.616,459.912,123.288,459.993z M400.368,413.367
			c-86.62,17.9-192.668,8.354-280.443,7.77c-0.109-0.01-0.219-0.03-0.328-0.03h-1.98c-1.851-25.735-3.011-51.476-3.717-77.227
			c6.551-1.543,13.145-2.305,18.334-2.787c14.3-1.32,14.424-23.791,0-22.46c-6.022,0.559-12.413,1.396-18.775,2.717
			c-0.346-19.875-0.516-39.746-0.437-59.626c6.099-0.097,11.913,0.33,16.404,0.762c14.419,1.387,14.285-21.084,0-22.46
			c-5.146-0.487-10.648-0.701-16.239-0.533c0.229-23.252,0.625-46.512,1.092-69.771c7.838-0.635,15.742-0.289,22.163,0.13
			c14.465,0.942,14.378-21.521,0-22.458c-6.853-0.447-14.264-0.546-21.711,0.02c0.516-24.277,1.041-48.561,1.432-72.838
			c6.947-0.125,13.721,0.561,18.875,1.231c14.33,1.866,14.147-20.617,0-22.458c-6.126-0.794-12.375-1.165-18.57-0.962
			c0.114-9.493,0.208-18.984,0.256-28.48c87.466,1.072,191.76-1.221,279.213-1.424C410.219,152.354,400.931,283.051,400.368,413.367
			z"/>
		<path d="M232.802,200.25c9.465,6.708,20.188,10.255,30.993,10.255c14.158,0,28.092-5.949,39.243-16.745
			c3.188-3.087,6.185-6.375,6.896-7.221c0.381-0.454,0.731-0.98,1.031-1.551c10.725-20.249,8.922-41.198-4.937-57.48
			c-3.249-3.826-6.148-7.081-7.21-8.104c-0.569-0.546-1.265-1.036-2.057-1.447c-9.618-4.943-19.362-7.449-28.96-7.449
			c-13.203,0-25.936,4.674-37.854,13.888c-0.566,0.437-1.051,0.914-1.435,1.414c-0.901,1.155-3.621,4.877-6.028,8.412
			C206.605,157.534,210.845,184.681,232.802,200.25z M240.239,137.887c0.264-0.274,0.487-0.556,0.69-0.835
			c0.812-1.125,4.301-4.146,8.364-6.188c8.952-4.494,18.966-5.461,28.934-2.798c4.657,1.241,11.091,5.215,14.351,8.866
			c8.43,9.438,11.096,20.423,7.703,31.755c-1.224,4.096-3.295,7.985-4.021,8.739c-7.779,10.443-18.616,16.09-30.682,16.09
			c-14.741,0-28.728-8.564-34.007-20.83C228.743,166.098,226.1,152.826,240.239,137.887z"/>
		<path d="M369.987,284.6c-0.087-2.559-0.143-5.129-0.198-7.698c-0.178-7.678-0.36-15.619-1.112-23.43
			c-0.274-2.812-0.69-6.489-1.503-10.074c-1.3-5.736-3.393-10.242-6.389-13.779c-4.94-5.834-14.863-10.653-23.094-11.225
			c-5.724-0.391-11.553-0.262-17.362-0.112c-2.92,0.074-5.845,0.147-8.739,0.147l-30.899-0.312
			c-5.966-0.053-11.938-0.089-17.904-0.089c-15.818,0-28.874,0.254-41.094,0.807c-11.804,0.528-22.557,1.32-32.86,2.407
			c-1.127-0.094-2.323,0.046-3.488,0.401c-10.555,3.222-19.068,10.519-23.361,20.022c-0.427,0.939-0.724,1.914-0.886,2.899
			c-0.513,1.147-0.79,2.387-0.815,3.707c-0.109,5.605-0.239,11.212-0.375,16.812c-0.607,25.842-1.231,52.567,0.381,78.917
			c0.203,3.271,1.896,6.002,4.674,7.557c1.519,1.32,3.453,2.021,5.606,2.021c11.318,0,23.311-0.04,35.213-0.528l0.041,8.826
			c0,1.498,0.333,2.914,0.848,3.89c1.236,3.514,4.248,5.621,8.054,5.626c17.877,0.021,35.759,0.203,53.644,0.392
			c17.753,0.178,35.516,0.36,53.273,0.381h0.005c3.204,0,5.9-1.523,7.404-4.18c1.508-2.666,1.579-6.027,0.233-8.76l-0.016-1.3
			c9.567-0.421,19.093-0.487,28.01-0.487c1.687,0,3.245-0.427,4.575-1.249c0.138,0.005,0.27,0.005,0.406,0.005l0,0
			c2.59,0,5.043-0.979,6.744-2.676c1.64-1.641,2.509-3.85,2.503-6.368c-0.04-16.904-0.599-34.032-1.147-50.597L369.987,284.6z
			 M310.696,354.523c-14.173-0.061-28.345-0.197-42.518-0.335c-14.625-0.137-29.244-0.284-43.866-0.335
			c-0.053-9.364-0.145-20.814-0.244-32.256c-0.132-14.857-0.256-29.711-0.277-39.953c-0.015-9.277-11.309-11.09-16.021-6.367
			c-1.643,1.645-2.511,3.849-2.506,6.377c0.02,10.177,0.145,24.928,0.277,39.721l0.119,14.091
			c-9.526,0.386-18.943,0.482-27.228,0.513c-1.082-23.795-0.518-47.966,0.023-71.376c0.114-5.058,0.233-10.115,0.333-15.178
			c2.458-4.794,6.134-8.059,10.94-9.714c16.785-1.762,34.703-2.725,56.371-3.037c16.564-0.238,33.139-0.056,49.703,0.125
			l12.37,0.104c3.174,0,6.353-0.025,9.521-0.045c3.163-0.025,6.321-0.051,9.485-0.051l3.56-0.008c5.57,0,10.872,0.297,14.498,3.846
			c3.417,3.347,4.271,7.12,4.544,12.116c0.178,3.261,0.396,6.53,0.609,9.801c0.26,3.91,0.519,7.835,0.706,11.756
			c0.625,12.74,1.112,26.562,1.523,43.518c0.183,7.349,0.259,14.69,0.305,22.044c-7.373,0.021-15.686,0.111-24.003,0.478
			c-0.514-19.251-1.504-44.006-2.393-59.956c-0.508-9.186-11.836-10.882-16.311-6.159c-1.589,1.671-2.346,3.899-2.203,6.448
			C309.056,299.57,310.356,332.963,310.696,354.523z"/>
	</g>
</g>
<g>
</g>
<g>
</g>
<g>
</g>
<g>
</g>
<g>
</g>
<g>
</g>
<g>
</g>
<g>
</g>
<g>
</g>
<g>
</g>
<g>
</g>
<g>
</g>
<g>
</g>
<g>
</g>
<g>
</g>
</svg>
