<?xml version="1.0" encoding="iso-8859-1"?>
<!-- Generator: Adobe Illustrator 16.0.0, SVG Export Plug-In . SVG Version: 6.00 Build 0)  -->
<!DOCTYPE svg PUBLIC "-//W3C//DTD SVG 1.1//EN" "http://www.w3.org/Graphics/SVG/1.1/DTD/svg11.dtd">
<svg version="1.1" id="Capa_1" xmlns="http://www.w3.org/2000/svg" xmlns:xlink="http://www.w3.org/1999/xlink" x="0px" y="0px"
	 width="463.671px" height="463.671px" viewBox="0 0 463.671 463.671" style="enable-background:new 0 0 463.671 463.671;"
	 xml:space="preserve">
<g>
	<g>
		<path d="M363.136,39.351C295.02-8.499,203.931-3.532,125.684,7.045c-13.162,1.777-15.117,15.673-9.272,24.204
			C46.696,69.547,2.899,143.848,0.477,229.529c-3.463,122.562,85.645,217.835,205.094,232.552
			c139.32,17.158,260.216-107.212,257.682-242.829C461.902,147,421.385,80.27,363.136,39.351z M335.796,65.206
			c1.279-1.409,2.163-2.896,2.869-4.395c10.877,6.213,20.931,13.629,30.102,22.005c-42.949,36.529-85.726,73.204-131.9,105.673
			c-2.93,2.064-4.83,4.616-5.982,7.353c-11.06-5.502-22.054-11.108-32.504-17.524c9.846-7.749,19.667-15.523,29.559-23.225
			c0.218-0.17,0.36-0.393,0.563-0.576c11.832,3.936,25.253,2.953,36.084-3.91c16.372-10.364,27.624-30.892,25.192-49.881
			c0.848-0.322,1.695-0.635,2.559-1.114C308.537,90.576,323.334,78.959,335.796,65.206z M228.742,90.958
			c11.506-2.874,25.298-1.465,34.728,5.627c11.086,8.34-2.706,28.954-10.872,34.121c-9.668,6.122-20.398,1.945-27.177-6.243
			C216.621,113.817,221.379,100.708,228.742,90.958z M285.422,47.062c2.555-1.632,4.337-3.633,5.586-5.796
			c5.596,1.549,11.161,3.232,16.656,5.23c-9.552,9.64-20.099,17.773-32.078,24.456c-1.386,0.774-2.519,1.668-3.529,2.62
			c-5.621-3.318-12.156-5.253-18.951-6.241C263.917,60.646,274.713,53.917,285.422,47.062z M243.447,34.266
			c-27.192,16.889-54.588,33.436-81.364,50.968C178.455,52.315,209.263,36.485,243.447,34.266z M198.802,101.036
			c-2.062,10.521-0.822,21.418,4.449,31.544c-10.74,8.381-21.424,16.851-32.149,25.26c-0.325-0.302-0.665-0.577-0.99-0.883
			c-8.704-8.341-13.792-17.336-15.93-26.853c0.879-0.411,1.757-0.854,2.641-1.463C170.604,119.116,184.649,109.996,198.802,101.036z
			 M249.109,429.464c-16.768,2.147-33.921,2.346-51.14,0.224C94.607,416.962,28.974,325.071,31.803,224.893
			c2.32-82.07,51.039-148.904,122.643-176.597c-11.836,13.418-21.125,29.81-26.817,49.132
			c-13.812,46.882,19.941,81.616,56.66,104.434c43.366,26.956,97.386,40.667,121.059,89.812
			C332.733,348.511,303.754,412.657,249.109,429.464z M324.497,404.968c5.175-8.566,9.466-18.012,12.71-28.315
			c1.509-4.788,2.621-9.668,3.529-14.589c3.012-0.345,6.053-1.462,8.887-3.706c22.82-18.068,45.569-36.222,67.801-55.005
			C399.209,346.871,365.695,382.503,324.497,404.968z M432.308,225.822c0.157,8.419-0.33,16.661-1.224,24.776
			c-2.777,0.527-5.556,1.771-8.13,4.098c-26.137,23.566-53.451,45.727-80.983,67.633c-0.904-7.743-2.382-15.427-4.55-22.927
			c32.504-24.379,63.814-50.211,94.765-76.512C432.222,223.867,432.287,224.845,432.308,225.822z M426.925,183.918
			c-33.656,28.833-67.491,57.442-102.823,84.198c-4.099-7.068-8.796-13.771-14.107-19.946c37.379-29.341,72.59-61.21,107.958-92.925
			C421.644,164.584,424.619,174.184,426.925,183.918z M400.829,126.091c-37.998,33.997-75.621,68.408-115.813,99.826
			c-7.521-5.294-15.401-10.047-23.506-14.46c45.047-32.354,87.266-68.228,129.504-104.134c4.225,5.555,8.125,11.367,11.75,17.354
			C402.114,125.124,401.459,125.527,400.829,126.091z"/>
		<path d="M207.46,302.753c-4.484,1.473-6.535,4.555-6.81,7.952c-13.629,18.434-15.28,41.838-1.051,61.032
			c12.939,17.448,38.608,22.48,56.883,10.902c21.531-13.64,34.276-44.874,18.545-67.039
			C260.723,295.452,228.147,295.964,207.46,302.753z M244.488,362.745c-9.663,6.124-20.393,1.945-27.172-6.24
			c-8.805-10.644-4.052-23.75,3.311-33.5c11.507-2.874,25.299-1.468,34.729,5.627C266.451,336.963,252.654,357.576,244.488,362.745z
			"/>
	</g>
</g>
<g>
</g>
<g>
</g>
<g>
</g>
<g>
</g>
<g>
</g>
<g>
</g>
<g>
</g>
<g>
</g>
<g>
</g>
<g>
</g>
<g>
</g>
<g>
</g>
<g>
</g>
<g>
</g>
<g>
</g>
</svg>
