<?xml version="1.0" encoding="iso-8859-1"?>
<!-- Generator: Adobe Illustrator 16.0.0, SVG Export Plug-In . SVG Version: 6.00 Build 0)  -->
<!DOCTYPE svg PUBLIC "-//W3C//DTD SVG 1.1//EN" "http://www.w3.org/Graphics/SVG/1.1/DTD/svg11.dtd">
<svg version="1.1" id="Capa_1" xmlns="http://www.w3.org/2000/svg" xmlns:xlink="http://www.w3.org/1999/xlink" x="0px" y="0px"
	 width="481.905px" height="481.904px" viewBox="0 0 481.905 481.904" style="enable-background:new 0 0 481.905 481.904;"
	 xml:space="preserve">
<g>
	<g>
		<path d="M417.171,11.229c-0.818-6.822-6.444-10.366-11.873-10.653C404.217,0.238,403.054,0,401.734,0
			c-90.779,0.111-198.379,2.641-289.155,1.406c-1.571-0.021-2.94,0.267-4.171,0.724c-6.375-1.439-14.061,2.034-14.076,10.509
			c-0.025,14.508-0.16,29.016-0.348,43.523c-10.473,3.458-19.905,9.48-27.065,19.062c-16.364,21.912,1.513,49.582,18.075,64.666
			c2.323,2.115,4.893,2.968,7.389,2.988c-0.061,2.955-0.12,5.913-0.183,8.866c-9.191,3.11-17.511,8.018-23.732,15.6
			c-17.272,21.056-3.13,46.59,12.319,63.782c1.846,2.054,3.915,3.046,5.989,3.379c1.239,1.399,2.519,2.747,3.969,3.93
			c-0.01,1.417-0.021,2.829-0.036,4.24c-13.083,3.626-24.722,10.685-31.283,23.176c-13.541,25.756,11.148,49.146,31.582,60.794
			c0.018,0.701,0.043,1.392,0.054,2.087c-9.699,4.794-17.971,11.735-22.912,21.881c-11.73,24.09,8.097,46.007,26.261,59.57
			c0.302,4.697,0.635,9.409,0.973,14.106c-0.386,1.234-0.562,2.625-0.406,4.229c1.518,15.569,4.311,30.712,9.973,45.347
			c1.97,5.099,6.416,7.302,10.795,7.348c1.153,0.417,2.417,0.696,3.875,0.69c97.314-0.051,194.646-1.559,291.569-10.953
			c0.741-0.07,1.422-0.223,2.082-0.406c5.692,0.295,11.608-3.193,11.604-10.541c0-12.802-0.051-25.583-1.366-38.329
			c-0.111-1.071-0.381-2.031-0.716-2.935C423.127,282.884,433.522,146.583,417.171,11.229z M79.813,275.277
			c2.303-4.378,6.142-7.379,10.743-9.445c-0.036,11.293-0.01,22.587,0.083,33.875C82.24,293.324,74.872,284.682,79.813,275.277z
			 M87.389,179.803c1.285-1.326,2.75-2.438,4.286-3.463c-0.213,10.761-0.406,21.513-0.579,32.271
			C84.363,199.823,78.805,188.68,87.389,179.803z M88.649,359.662c0.815-1.675,1.871-3.188,3.098-4.569
			c0.256,7.896,0.551,15.792,0.906,23.684C88.065,373.027,85.371,366.391,88.649,359.662z M92.947,116.08
			c-7.482-8.476-13.134-18.974-6.639-29.526c1.815-2.953,4.352-5.194,7.322-6.926C93.427,91.781,93.199,103.928,92.947,116.08z
			 M123.288,459.993c-1.693-5.403-3.072-10.866-4.148-16.412c89.209,0.528,194.298,9.674,283.427-7.8
			c0.203,4.662,0.319,9.323,0.37,13.985C309.95,458.358,216.616,459.912,123.288,459.993z M400.368,413.367
			c-86.62,17.9-192.668,8.354-280.443,7.77c-0.109-0.01-0.219-0.03-0.328-0.03h-1.98c-1.851-25.735-3.011-51.476-3.717-77.227
			c6.551-1.543,13.145-2.305,18.334-2.787c14.3-1.32,14.424-23.791,0-22.46c-6.022,0.559-12.413,1.396-18.775,2.717
			c-0.346-19.875-0.516-39.746-0.437-59.626c6.099-0.097,11.913,0.33,16.404,0.762c14.419,1.387,14.285-21.084,0-22.46
			c-5.146-0.487-10.648-0.701-16.239-0.533c0.229-23.252,0.625-46.512,1.092-69.771c7.838-0.635,15.742-0.289,22.163,0.13
			c14.465,0.942,14.378-21.521,0-22.458c-6.853-0.447-14.264-0.546-21.711,0.02c0.516-24.277,1.041-48.561,1.432-72.838
			c6.947-0.125,13.721,0.561,18.875,1.231c14.33,1.866,14.147-20.617,0-22.458c-6.126-0.794-12.375-1.165-18.57-0.962
			c0.114-9.493,0.208-18.984,0.256-28.48c87.466,1.072,191.76-1.221,279.213-1.424C410.219,152.354,400.931,283.051,400.368,413.367
			z"/>
		<path d="M198.64,163.523c-1.805-3.489-4.94-5.492-8.604-5.492c-5.149,0-10.006,3.926-11.014,8.737
			c-7.025,22.026-13.982,45.692-22.566,76.72c-0.907,3.271-0.351,6.47,1.564,8.979c2.054,2.701,5.548,4.377,9.12,4.377
			c4.847,0,8.668-2.925,9.973-7.652c0.629-2.27,1.28-4.54,1.93-6.81l0.67-2.366c8.528,0.609,17.097,0.726,24.694,0.762
			c1.17,4.28,2.303,8.571,3.428,12.877c1.236,4.764,5.022,7.719,9.874,7.719l0,0c3.547,0,7.041-1.665,9.115-4.356
			c1.945-2.509,2.544-5.708,1.691-8.988C220.13,215.781,211.843,189.061,198.64,163.523z M198.135,219.282
			c-4.342-0.074-8.445-0.208-12.396-0.412c1.856-6.375,3.737-12.746,5.646-19.103C193.694,205.83,195.931,212.282,198.135,219.282z"
			/>
		<path d="M292.633,211.19c0-5.324-3.59-10.717-10.45-10.717h-36.059c-6.858,0-10.451,5.393-10.451,10.717
			c0,5.319,3.588,10.712,10.451,10.712h36.059C289.039,221.902,292.633,216.51,292.633,211.19z"/>
		<path d="M358.744,156.863c-1.112-0.375-2.3-0.563-3.539-0.563h-41.472c-6.86,0-10.445,5.393-10.445,10.717
			s3.585,10.717,10.445,10.717h26.177c-14.854,20.716-31.006,41.985-49.282,64.872c-0.878,1.106-1.538,2.366-1.898,3.539
			l-0.229,0.727c-0.965,3.311-0.355,7.134,1.589,10.003c1.839,2.707,4.707,4.378,8.236,4.708c18.575,1.771,37.15,3.549,55.716,5.393
			c0.411,0.04,0.808,0.061,1.188,0.061l0,0c5.275,0,9.15-3.844,9.425-9.358c0.264-5.353-3.185-11.415-10.101-12.101
			c-11.847-1.184-23.704-2.321-35.556-3.453l-0.787-0.076c20.216-25.781,36.663-47.939,51.547-69.454
			c2.188-3.166,2.503-6.782,0.857-9.912C368.519,158.656,363.471,156.145,358.744,156.863z"/>
	</g>
</g>
<g>
</g>
<g>
</g>
<g>
</g>
<g>
</g>
<g>
</g>
<g>
</g>
<g>
</g>
<g>
</g>
<g>
</g>
<g>
</g>
<g>
</g>
<g>
</g>
<g>
</g>
<g>
</g>
<g>
</g>
</svg>
