<?xml version="1.0" encoding="iso-8859-1"?>
<!-- Generator: Adobe Illustrator 16.0.0, SVG Export Plug-In . SVG Version: 6.00 Build 0)  -->
<!DOCTYPE svg PUBLIC "-//W3C//DTD SVG 1.1//EN" "http://www.w3.org/Graphics/SVG/1.1/DTD/svg11.dtd">
<svg version="1.1" id="Capa_1" xmlns="http://www.w3.org/2000/svg" xmlns:xlink="http://www.w3.org/1999/xlink" x="0px" y="0px"
	 width="467.904px" height="467.904px" viewBox="0 0 467.904 467.904" style="enable-background:new 0 0 467.904 467.904;"
	 xml:space="preserve">
<g>
	<g>
		<path d="M421.487,94.604C386.373,63.28,339.93,63.45,298.067,72.926c-1.909,0.432-3.469,1.222-4.778,2.219
			c-14.604,2.768-29.158,5.451-43.89,6.583c5.49-16.27,13.919-31.734,25.608-46.268c11.37-14.14-8.606-34.381-20.093-20.099
			c-16.593,20.629-28.417,42.8-35.166,66.435c-15.163-1.071-30.123-3.806-45.135-6.652c-1.311-0.998-2.869-1.788-4.778-2.219
			C127.973,63.45,81.527,63.28,46.413,94.604C15.531,122.146,2.864,164.865,0.409,207.949
			c-5.434,95.42,43.638,204.465,122.338,244.113c1.305,0.66,2.582,0.996,3.847,1.204c1.752,1.406,3.832,2.442,6.33,2.818
			c36.315,5.423,70.269-5.891,99.851-29.869c0.143-0.111,0.257-0.243,0.376-0.365c0.269-0.056,0.541-0.102,0.8-0.163
			c0.267,0.062,0.536,0.107,0.808,0.163c0.119,0.122,0.233,0.254,0.373,0.365c29.579,23.979,63.541,35.292,99.854,29.869
			c2.498-0.376,4.57-1.412,6.322-2.818c1.264-0.208,2.544-0.544,3.849-1.204c78.698-39.648,127.777-148.693,122.339-244.113
			C465.036,164.865,452.372,122.146,421.487,94.604z M441.216,227.726c-3.54,80.433-42.346,164.818-109.37,198.587
			c-0.178,0.086-0.3,0.208-0.462,0.3c-30.757,3.62-57.595-5.602-82.934-26.146c-1.274-1.026-2.523-1.63-3.763-2.067
			c-0.792-0.492-1.625-0.914-2.509-1.219c-2.514-1.965-5.375-2.782-8.224-2.508c-2.844-0.27-5.71,0.548-8.221,2.508
			c-0.883,0.305-1.716,0.727-2.511,1.219c-1.237,0.438-2.491,1.041-3.76,2.067c-25.344,20.545-52.179,29.767-82.931,26.146
			c-0.167-0.092-0.292-0.214-0.467-0.3C69.033,392.544,30.227,308.158,26.685,227.726c-1.567-35.579,5.284-73.448,26.941-100.447
			c27.033-33.7,70.815-33.944,107.448-25.961c1.389,1.117,3.13,1.95,5.268,2.356c15.864,2.999,31.74,6.135,47.766,7.617
			c-1.145,11.113-1.274,22.506-0.282,34.188c-6.505-1.528-12.977-3.882-19.373-7.279c-16.178-8.589-30.534,15.942-14.348,24.544
			c31.491,16.722,63.647,16.836,95.821,1.892c16.605-7.716,2.164-32.207-14.345-24.537c-6.419,2.983-12.857,4.948-19.281,6.124
			c-1.025-11.705-0.898-23.118,0.376-34.218c19.809-0.772,39.359-4.633,58.884-8.325c2.138-0.406,3.88-1.239,5.267-2.356
			c36.632-7.983,80.414-7.736,107.449,25.961C435.935,154.277,442.784,192.146,441.216,227.726z"/>
		<path d="M177.231,367.789c-7.926,7.662-17.349,12.187-27.834,15.289c-17.535,5.19-10.062,32.627,7.553,27.406
			c15.186-4.499,28.932-11.537,40.378-22.607C210.521,375.121,190.401,355.048,177.231,367.789z"/>
		<path d="M381.996,180.774c11.456,70.013,1.32,148.32-65.471,186.685c-15.879,9.125-1.574,33.682,14.346,24.536
			c78.683-45.193,92.073-135.982,78.53-218.782C406.446,155.166,379.066,162.852,381.996,180.774z"/>
	</g>
</g>
<g>
</g>
<g>
</g>
<g>
</g>
<g>
</g>
<g>
</g>
<g>
</g>
<g>
</g>
<g>
</g>
<g>
</g>
<g>
</g>
<g>
</g>
<g>
</g>
<g>
</g>
<g>
</g>
<g>
</g>
</svg>
