<?xml version="1.0" encoding="iso-8859-1"?>
<!-- Generator: Adobe Illustrator 16.0.0, SVG Export Plug-In . SVG Version: 6.00 Build 0)  -->
<!DOCTYPE svg PUBLIC "-//W3C//DTD SVG 1.1//EN" "http://www.w3.org/Graphics/SVG/1.1/DTD/svg11.dtd">
<svg version="1.1" id="Capa_1" xmlns="http://www.w3.org/2000/svg" xmlns:xlink="http://www.w3.org/1999/xlink" x="0px" y="0px"
	 width="447.146px" height="447.146px" viewBox="0 0 447.146 447.146" style="enable-background:new 0 0 447.146 447.146;"
	 xml:space="preserve">
<g>
	<g>
		<path d="M438.208,234.104c-8.942-52.346-44.935-83.398-91.86-97.616c3.377,1.025,22.47-25.271,26.629-29.564
			c5.591,6.198,11.156,12.426,16.533,18.812c1.879,2.232,4.002,3.428,6.14,3.839c6.043,2.359,13.563,0.513,15.341-7.619
			c4.682-21.49,10.257-42.772,14.939-64.26c0.416-1.891,0.406-3.65,0.076-5.245c4.829-7.63-1.58-21.008-13.289-18.431
			c-20.84,4.598-41.162,10.816-61.271,17.936c-0.944,0.338-1.787,0.754-2.559,1.229c-7.089,2.537-12.218,12.52-5.708,20.251
			c4.489,5.332,9.1,10.547,13.751,15.727c-0.097,0.086-0.203,0.15-0.3,0.244c-9.49,9.597-17.509,20.497-27.08,30.069
			C316.682,61.356,284.427,15.51,220.894,3.945C153.252-8.37,83.392,12.171,15.38,11.183c-15.429-0.223-15.404,23.684,0,23.907
			c10.575,0.158,21.122-0.233,31.661-0.8c0.089,0.094,0.14,0.198,0.234,0.292l183.589,183.584l-23.168,23.163h-42.874
			c-15.422,0-15.422,23.912,0,23.912h39.593c3.399,13.904,6.088,27.944,8.655,42.036c2.762,15.152,25.806,8.714,23.054-6.363
			c-2.732-15.04-5.616-30.03-9.352-44.854c7-6.997,13.992-13.989,20.99-20.992l162.662,162.663c2.026,2.025,4.251,3.077,6.47,3.407
			c-0.157,11.517-0.065,23.013,0.493,34.469c0.741,15.346,24.658,15.422,23.917,0C438.076,368.802,449.521,300.382,438.208,234.104z
			 M400.529,61.653c-2.433,10.644-4.946,21.261-7.47,31.879c-6.992-7.8-14.04-15.559-21.018-23.384
			C381.467,67.062,390.952,64.215,400.529,61.653z M78.515,31.993c36.958-3.379,73.834-8.17,111.007-7.243
			c73.232,1.82,108.382,47.215,119.655,115.092c-20.475,20.467-40.938,40.939-61.403,61.406L78.515,31.993z M417.738,371.214
			L264.684,218.157l62.124-62.126c53.349,12.291,84.259,43.356,90.54,100.01C421.562,294.1,419.217,332.708,417.738,371.214z"/>
	</g>
</g>
<g>
</g>
<g>
</g>
<g>
</g>
<g>
</g>
<g>
</g>
<g>
</g>
<g>
</g>
<g>
</g>
<g>
</g>
<g>
</g>
<g>
</g>
<g>
</g>
<g>
</g>
<g>
</g>
<g>
</g>
</svg>
