<?xml version="1.0" encoding="iso-8859-1"?>
<!-- Generator: Adobe Illustrator 16.0.0, SVG Export Plug-In . SVG Version: 6.00 Build 0)  -->
<!DOCTYPE svg PUBLIC "-//W3C//DTD SVG 1.1//EN" "http://www.w3.org/Graphics/SVG/1.1/DTD/svg11.dtd">
<svg version="1.1" id="Capa_1" xmlns="http://www.w3.org/2000/svg" xmlns:xlink="http://www.w3.org/1999/xlink" x="0px" y="0px"
	 width="494.474px" height="494.474px" viewBox="0 0 494.474 494.474" style="enable-background:new 0 0 494.474 494.474;"
	 xml:space="preserve">
<g>
	<g>
		<path d="M473.069,303.011c-5.032,0-9.785,1.944-13.74,5.621c-51.933,48.276-123.314,104.276-215.195,108.917
			c-4.133,0.214-8.315,0.315-12.489,0.315c-68.233,0.005-128.844-26.934-162.143-72.036c-26.431-35.82-35.045-80.729-24.252-126.462
			c12.314-52.161,49.135-99.437,96.093-123.372c25.781-13.142,54.096-20.088,81.882-20.088c74.598,0,133.025,48.073,145.396,119.629
			c4.839,27.964-2.169,98.188-28.122,129.021c-7.993,9.49-17.103,14.305-27.086,14.305h-0.005c-4.931,0-10.217-1.158-15.731-3.453
			c-2.656-19.393-1.066-41.919,0.614-65.699c3.752-53.08,7.632-107.958-34.484-139.532c-1.839-1.887-3.926-3.321-6.221-4.273
			l-0.295-0.188c-1.31-0.833-2.612-1.658-4.009-2.435c-5.264-2.92-11.024-3.468-16.349-1.58c-1.577,0.125-3.09,0.422-4.603,0.889
			c-55.452,17.228-108.692,53.105-142.425,95.984c-16.702,21.226-24.387,49.906-20.05,74.839
			c3.486,20.058,14.224,36.241,31.054,46.788c10.057,6.308,21.726,9.507,34.678,9.507c37.917,0,76.677-27.016,91.579-38.629
			c12.7-9.896,23.74-21.886,32.613-35.327c-0.188,2.56-0.376,5.108-0.563,7.627c-1.823,24.567-3.55,47.779-0.695,65.466
			c-0.265,7.292,3.28,13.659,9.811,17.56c14.959,8.917,29.655,13.446,43.681,13.446c59.427,0,93.582-80.44,98.853-137.56
			c5.027-54.436-9.942-105.36-42.142-143.379c-30.763-36.333-75.759-58.406-126.688-62.144c-5.695-0.421-11.456-0.635-17.123-0.635
			c-118.34,0-214.735,88.824-224.233,206.605c-4.286,53.144,11.824,101.151,46.59,138.829
			c44.349,48.073,116.644,76.774,193.382,76.774c0,0,0,0,0.005,0c4.992,0,10.037-0.127,14.99-0.381
			c96.73-4.885,175.008-66.745,232.395-120.095c6.104-5.677,8.013-13.486,5.093-20.91
			C489.903,308.744,481.656,303.011,473.069,303.011z M198.988,281.384c-12.807,10.866-39.834,27.035-61.799,27.035
			c-7.848,0-14.378-2.093-19.405-6.211c-6.886-5.642-10.339-12.309-10.547-20.367c-0.523-19.896,19.271-45.202,37.966-62.251
			c26.316-23.999,59.247-43.889,91.002-55.059C249.308,195.675,246.068,241.443,198.988,281.384z"/>
	</g>
</g>
<g>
</g>
<g>
</g>
<g>
</g>
<g>
</g>
<g>
</g>
<g>
</g>
<g>
</g>
<g>
</g>
<g>
</g>
<g>
</g>
<g>
</g>
<g>
</g>
<g>
</g>
<g>
</g>
<g>
</g>
</svg>
