<?xml version="1.0" encoding="iso-8859-1"?>
<!-- Generator: Adobe Illustrator 16.0.0, SVG Export Plug-In . SVG Version: 6.00 Build 0)  -->
<!DOCTYPE svg PUBLIC "-//W3C//DTD SVG 1.1//EN" "http://www.w3.org/Graphics/SVG/1.1/DTD/svg11.dtd">
<svg version="1.1" id="Capa_1" xmlns="http://www.w3.org/2000/svg" xmlns:xlink="http://www.w3.org/1999/xlink" x="0px" y="0px"
	 width="492.878px" height="492.878px" viewBox="0 0 492.878 492.878" style="enable-background:new 0 0 492.878 492.878;"
	 xml:space="preserve">
<g>
	<g>
		<path d="M450.361,218.61c-2.351-1.026-4.859-1.564-7.444-1.607l-0.33-0.046c-17.483-4.946-36.074-9.262-56.832-13.188
			l-2.189-0.416l1.442-1.707c0.706-0.835,1.361-1.623,1.95-2.338c17.265-21.013,38.75-47.154,44.407-72.704
			c3.092-13.977,3.133-37.684-6.454-46.613c-4.773-4.445-10.791-6.608-18.403-6.608c-12.101,0-26.512,5.664-38.085,10.219
			c-2.392,0.939-4.544,2.329-6.397,4.124l-0.274,0.203c-16.026,8.953-32.981,19.535-50.384,31.448l-1.858,1.27l-0.168-2.247
			c-0.213-2.744-0.426-5.174-0.635-7.165c-2.793-27.05-6.276-60.715-21.19-82.786c-7.978-11.809-25.445-28.439-39.298-28.439
			l-0.545,0.01c-20.388,0.68-31.09,23.884-39.7,42.525c-1.076,2.349-1.647,4.847-1.696,7.414l-0.056,0.348
			c-4.882,16.313-9.341,34.17-13.228,53.07l-0.427,2.075l-1.655-1.315c-39.273-31.275-72.869-43.98-99.884-37.719
			c-12.952,2.996-21.325,9.224-24.859,18.517c-7.452,19.535,5.36,52.917,38.077,99.229l1.265,1.787l-2.179,0.252
			c-49.502,5.715-82.007,20.477-96.619,43.876c-7.041,11.278-8.554,21.597-4.481,30.676c8.549,19.073,41.213,33.616,97.086,43.229
			l2.164,0.371l-1.364,1.717c-30.965,39.039-43.511,72.463-37.298,99.34c4.192,18.104,14.211,26.908,30.648,26.908
			c18.705,0,45.405-11.689,79.371-34.759l1.704-1.163l0.312,2.047c6.756,44.468,21.99,73.981,45.28,87.702
			c36.965,21.794,63.213-9.496,78.341-91.988l0.4-2.168l1.701,1.401c22.201,18.189,45.824,36.389,69.259,41.568
			c5.327,1.178,11.634,1.833,17.768,1.833c13.432,0,23.938-3.021,28.849-8.282c13.081-14.04,3.828-37.576-3.605-56.487
			c-0.955-2.422-2.301-4.514-4.129-6.397l-0.198-0.274c-8.814-15.782-19.189-32.438-30.838-49.506L376.42,314l2.225-0.183
			c1.081-0.097,2.092-0.184,3.011-0.279c27.061-2.641,60.748-5.937,82.812-20.013c12.07-7.693,28.869-24.42,28.401-37.526
			C492.178,236.824,468.993,226.727,450.361,218.61z M42.409,261.986c-7.272-3.534-10.94-8.079-10.885-13.502
			c0.094-9.74,12.677-19.906,25.105-25.662c16.608-7.69,37.849-12.398,64.94-14.394l0.698-0.051l0.426,0.546
			c9.364,11.999,19.921,24.78,31.37,37.993l0.817,0.942l-0.906,0.858c-12.672,11.928-23.585,22.892-33.388,33.515l-0.462,0.508
			l-0.68-0.102C96.403,279.255,66.812,273.848,42.409,261.986z M171.098,369.125c-23.399,16.753-42.612,27.432-60.468,33.611
			c-3.067,1.062-5.87,1.595-8.341,1.595c-4.44,0-7.876-1.681-10.196-5.007c-5.662-8.109-3.052-23.567,0.906-34.343
			c6.302-17.184,17.996-35.525,35.736-56.091l0.459-0.528l0.686,0.092c12.395,1.528,25.806,2.869,39.867,3.986l1.231,0.096
			l-0.041,1.229c-0.577,20.164-0.348,37.896,0.695,54.223l0.054,0.721L171.098,369.125z M172.669,276.265
			c-0.213,3.6-0.427,7.383-0.635,11.293l-0.079,1.356l-1.351-0.127c-6.188-0.604-12.37-1.285-18.532-1.996l-2.643-0.31l1.858-1.895
			c5.151-5.25,10.278-10.328,15.208-15.213c0.521-0.519,1.051-1.016,1.587-1.529c0.487-0.462,0.978-0.924,1.445-1.391l0.967-0.95
			l2.651,2.92L172.669,276.265z M176.059,227.996l-0.041,0.521l-3.785,3.4l-0.988-0.922c-6.152-7.358-12.065-14.771-17.544-21.688
			l-1.643-2.084l2.655-0.021c7.363-0.073,14.571-0.038,21.508-0.005l1.425,0.005l0.14,1.419
			C177.166,215.096,176.589,221.552,176.059,227.996z M187.464,133.094c-2.575,15.452-4.837,31.612-6.911,49.413l-0.137,1.186
			l-1.188-0.033c-16.089-0.432-30.945-0.379-44.569,0.167l-0.686,0.025l-0.406-0.546c-13.903-18.687-31.001-43.429-39.872-69.081
			c-2.308-6.675-2.113-11.979,0.576-15.754c2.808-3.945,8.3-6.032,15.866-6.032c6.353,0,14.122,1.513,21.307,4.151
			c17.037,6.249,35.216,17.798,55.583,35.307l0.551,0.478L187.464,133.094z M215.042,124.134
			c3.931-20.461,8.389-40.403,13.249-59.268c0.978-3.786,2.072-7.629,3.359-11.753c0.074-0.223,0.109-0.437,0.147-0.65
			c0.036-0.213,0.084-0.422,0.135-0.64c3.945-9.717,8.673-19.908,15.609-19.908c1.399,0,2.803,0.424,4.194,1.262
			c4.697,2.838,13.243,8.693,17.605,15.975c6.083,10.143,8.546,23.514,10.72,35.312l0.325,1.717
			c2.788,15.056,4.778,31.468,6.067,50.163l0.051,0.711l-0.568,0.426c-10.491,7.731-21.332,16.062-32.22,24.748l-0.949,0.751
			l-0.817-0.878c-13.091-14.086-25.03-26.108-36.506-36.768l-0.531-0.49L215.042,124.134z M205.46,183.287
			c1.43-10.681,2.719-19.515,4.05-27.81l0.401-2.486l1.792,1.762c5.304,5.2,10.433,10.37,15.351,15.34
			c1.221,1.239,2.432,2.506,3.641,3.781c0.939,0.983,1.872,1.97,2.818,2.943l0.983,1.011l-1.082,0.898
			c-2.699,2.234-5.372,4.486-8.046,6.738l-0.394,0.333l-8.366-0.511c-3.173-0.175-6.505-0.353-9.927-0.528l-1.409-0.074
			L205.46,183.287z M196.193,347.687c-0.244-10.44-0.213-20.638-0.16-31.037l0.045-2.427l1.354,0.07
			c6.535,0.366,13.061,0.691,19.561,0.965l0.515,0.021l0.353,0.366c2.877,2.925,5.715,5.778,8.519,8.581l1.003,1.006l-1.092,0.914
			c-9.153,7.627-18.383,15.062-27.439,22.109l-2.506,1.95L196.193,347.687z M275.927,372.645c-3.6,23.354-9.368,53.304-21.997,77.84
			c-3.713,7.211-8.463,10.867-14.115,10.867c-10.295,0-21.091-12.604-27.215-25.085c-7.277-14.838-12.002-33.226-14.442-56.213
			l-0.076-0.727l0.582-0.447c13.914-10.603,28.891-22.851,44.511-36.384l0.904-0.781l0.853,0.827
			c10.75,10.445,21.333,20.459,30.594,28.939l0.519,0.478L275.927,372.645z M282.824,318.092
			c-0.798,7.937-1.727,16.168-2.763,24.471l-0.314,2.523l-1.864-1.736c-5.535-5.169-10.968-10.354-16.147-15.406l-0.99-0.971
			l1.03-0.929c3.352-3.021,6.668-6.053,9.974-9.09l0.376-0.346l10.847,0.062L282.824,318.092z M287.831,237.444
			c-0.3,11.334-0.768,22.871-1.407,34.297l-0.03,0.518l-0.371,0.351c-7.119,6.81-14.538,13.716-22.683,21.109l-0.381,0.355
			l-0.519-0.016c-11.415-0.219-23.181-0.614-34.964-1.173l-0.521-0.03l-0.358-0.371c-10.26-10.664-19.52-20.606-28.315-30.401
			l-0.363-0.401l0.031-0.544c0.401-6.683,0.917-13.834,1.623-22.498l0.043-0.515l0.378-0.343
			c11.227-10.202,21.835-19.495,32.433-28.401l0.394-0.333l0.521,0.031c10.509,0.609,21.249,1.384,31.917,2.303l0.514,0.043
			l0.345,0.383c7.308,8.206,14.513,16.537,21.419,24.763l0.314,0.374L287.831,237.444z M283.286,190.074
			c-2.016-0.193-4.027-0.386-6.048-0.556l-0.519-0.043l-8.195-9.183l1.498-1.158c5.25-4.047,10.501-8.097,15.803-12.035l2.016-1.496
			l0.066,2.506c0.167,7.008,0.279,14.008,0.324,20.992l0.011,1.435L283.286,190.074z M311.554,148.556
			c18.367-12.832,36.704-24.839,54.502-35.68c3.377-2.049,6.927-4.093,10.553-6.068c0.208-0.109,0.386-0.239,0.563-0.363
			c0.167-0.119,0.34-0.241,0.533-0.355c6.286-2.813,13.278-5.726,18.57-5.726c5.494,0,7.348,3.184,7.932,5.85
			c1.132,5.154,2.691,14.998,0.452,23.057c-3.113,11.232-10.923,22.336-17.813,32.136l-0.985,1.404
			c-8.064,11.477-17.204,23.107-27.944,35.566l-0.473,0.546l-0.716-0.109c-13.294-2.044-27.568-3.91-43.64-5.715l-1.143-0.13
			l-0.016-1.152c-0.122-14.546-0.446-28.724-0.944-42.14l-0.025-0.709L311.554,148.556z M338.397,220.044l-1.706,1.81
			c-5.769,6.124-11.573,12.058-15.976,16.551l-1.011,1.028l-0.919-1.112c-2.199-2.656-4.408-5.293-6.616-7.924l-0.315-0.371
			l0.005-0.482c0.057-3.925,0.102-7.81,0.122-11.641l0.011-1.473l2.63,0.338c7.003,0.909,14.238,1.846,21.317,2.912L338.397,220.044
			z M309.651,292.925c0.233-4.052,0.456-8.114,0.649-12.151l0.025-0.513l6.86-6.774l2.229,2.895
			c3.955,5.14,7.911,10.278,11.75,15.483l1.473,2.006l-2.473,0.061c-6.408,0.193-12.807,0.3-19.195,0.365l-1.391,0.021
			L309.651,292.925z M383.555,369.654c2.021,3.331,4.067,6.881,6.073,10.547c0.112,0.214,0.233,0.381,0.355,0.554
			c0.122,0.178,0.249,0.355,0.36,0.549c3.758,8.414,7.46,17.671,4.819,22.892c-0.955,1.873-2.615,3.092-4.951,3.6
			c-3.29,0.727-8.338,1.59-13.685,1.59c-3.524,0-6.673-0.381-9.375-1.128c-11.227-3.117-22.332-10.928-32.123-17.818l-1.411-0.99
			c-9.496-6.667-19.357-14.319-30.123-23.368l-0.543-0.457l0.091-0.711c1.966-14.717,3.621-30.605,4.932-47.205l0.096-1.188
			l1.188-0.016c13.386-0.178,26.238-0.503,38.191-0.959l0.716-0.031l0.406,0.584C361.014,333.966,372.785,351.972,383.555,369.654z
			 M459.674,259.909c-2.844,4.438-8.704,12.513-15.976,16.625c-10.146,5.738-23.521,8.064-35.317,10.121l-1.696,0.299
			c-13.781,2.407-28.467,4.164-44.884,5.378l-0.727,0.056l-0.421-0.579c-8.074-11.009-16.864-22.495-26.137-34.123l-0.721-0.904
			l0.802-0.822c10.547-10.773,20.505-21.214,29.6-31.037l0.482-0.518l0.701,0.124c21.49,3.826,42.563,8.242,62.606,13.114
			c3.813,0.929,7.662,1.965,11.75,3.166c0.244,0.068,0.462,0.109,0.681,0.145c0.193,0.038,0.396,0.074,0.6,0.119
			c8.617,3.304,17.782,7.239,19.61,12.794C461.279,255.862,460.958,257.898,459.674,259.909z"/>
	</g>
</g>
<g>
</g>
<g>
</g>
<g>
</g>
<g>
</g>
<g>
</g>
<g>
</g>
<g>
</g>
<g>
</g>
<g>
</g>
<g>
</g>
<g>
</g>
<g>
</g>
<g>
</g>
<g>
</g>
<g>
</g>
</svg>
