<?xml version="1.0" encoding="iso-8859-1"?>
<!-- Generator: Adobe Illustrator 16.0.0, SVG Export Plug-In . SVG Version: 6.00 Build 0)  -->
<!DOCTYPE svg PUBLIC "-//W3C//DTD SVG 1.1//EN" "http://www.w3.org/Graphics/SVG/1.1/DTD/svg11.dtd">
<svg version="1.1" id="Capa_1" xmlns="http://www.w3.org/2000/svg" xmlns:xlink="http://www.w3.org/1999/xlink" x="0px" y="0px"
	 width="456.708px" height="456.708px" viewBox="0 0 456.708 456.708" style="enable-background:new 0 0 456.708 456.708;"
	 xml:space="preserve">
<g>
	<g>
		<path d="M444.389,160.832c-0.036-0.332-0.097-0.649-0.214-1.284c0.214-3.801-0.106-7.196-0.97-10.364
			c-5.443-20.066-16.3-35.317-32.26-45.316c-9.729-6.093-21.292-9.064-35.358-9.064c-2.392,0-4.783,0.089-7.175,0.241
			c-2.62-0.604-5.18-0.912-7.811-0.932c-62.276-0.536-101.788,1.378-143.958,3.443c-31.996,1.569-65.041,3.187-110.783,3.895
			c10.222-13.573,19.301-26.697,27.652-39.986c6.434-10.229,7.01-21.231,1.623-30.971c-6.058-10.966-18.776-18.329-31.656-18.329
			c-11.283,0-20.977,5.538-27.299,15.6c-17.991,28.62-39.882,56.538-66.928,85.349c-7.871,8.389-10.846,18.839-8.439,29.114
			c0.724,7.129,4.207,13.848,10.077,19.428c34.518,32.793,61.241,60.489,84.104,87.154c6.188,7.221,13.848,11.034,22.14,11.034
			c12.309,0,24.496-8.526,30.331-21.206c5.804-12.624,3.92-25.945-5.174-36.554c-8.511-9.927-17.631-20.03-28.302-31.346
			c2.61,0.272,5.705,0.401,9.318,0.401c14.071,0,33.154-2.064,47.09-3.577c7.29-0.79,13.586-1.473,16.577-1.559
			c14.985-0.46,22.084-0.963,28.947-1.453c6.787-0.482,13.802-0.978,28.544-1.439c52.531-1.638,67.521-1.696,117.189-1.866
			l6.652-0.025l0.01,0.066l0.563-0.025c1.731,0,3.28,0.716,4.732,2.188c11.761,11.908,11.146,63.62,10.842,88.479
			c-0.076,6.53-0.137,11.689-0.01,14.854c0.746,17.798,1.314,35.611,1.894,53.405c0.975,30.279,1.99,61.596,3.813,92.368
			c1.244,21.002,18.581,31.991,35.063,31.991c9.45,0,18.164-3.493,23.907-9.582c5.459-5.794,8.059-13.649,7.516-22.714
			c-1.655-28.03-2.742-60.144-3.9-94.146C450.889,263.123,448.964,206.28,444.389,160.832z"/>
	</g>
</g>
<g>
</g>
<g>
</g>
<g>
</g>
<g>
</g>
<g>
</g>
<g>
</g>
<g>
</g>
<g>
</g>
<g>
</g>
<g>
</g>
<g>
</g>
<g>
</g>
<g>
</g>
<g>
</g>
<g>
</g>
</svg>
