<?xml version="1.0" encoding="iso-8859-1"?>
<!-- Generator: Adobe Illustrator 16.0.0, SVG Export Plug-In . SVG Version: 6.00 Build 0)  -->
<!DOCTYPE svg PUBLIC "-//W3C//DTD SVG 1.1//EN" "http://www.w3.org/Graphics/SVG/1.1/DTD/svg11.dtd">
<svg version="1.1" id="Capa_1" xmlns="http://www.w3.org/2000/svg" xmlns:xlink="http://www.w3.org/1999/xlink" x="0px" y="0px"
	 width="487.081px" height="487.081px" viewBox="0 0 487.081 487.081" style="enable-background:new 0 0 487.081 487.081;"
	 xml:space="preserve">
<g>
	<g>
		<path d="M481.021,364.143c-53.68-90.47-121.399-187.817-246.587-199.288c-0.299-10.564-1.173-36.475-2.973-52.506
			c-0.168-1.473-0.541-2.892-1.051-4.024c-1.6-7.447-7.554-12.85-14.175-12.85c-2.838,0-5.619,0.947-8.282,2.818
			c-28.183,19.843-57.12,43.752-85.107,66.87c-23.409,19.344-47.619,39.341-70.888,56.518c-1.419,1.046-2.631,2.298-3.702,3.826
			c-4.078,3.537-6.375,8.998-5.87,14.015c0.472,4.664,3.217,8.564,7.736,10.981c26.853,14.36,52.836,32.448,77.962,49.942
			c26.759,18.631,54.436,37.896,83.401,52.856c2.791,1.437,5.504,2.173,8.064,2.173c3.618,0,6.957-1.482,9.656-4.291
			c5.293-5.504,7.383-15.04,7.109-22.053c-0.297-7.774-0.599-30.463,0.274-36.501l1.328-0.005
			c85.221,0,157.171,46.621,222.234,96.999c2.94,2.28,6.389,3.489,9.958,3.489c7.044,0,13.848-4.662,16.169-11.091
			c1.817-5.007,0.522-9.973-3.56-13.746C482.336,366.778,481.783,365.417,481.021,364.143z M417.104,321.173
			c-63.647-40.711-120.53-59.743-178.135-59.743c-4.819,0-9.707,0.132-14.543,0.406c-4.466,0.249-8.262,2.062-10.986,5.256
			c-2.519,2.011-4.222,4.931-4.936,8.45c-1.985,9.83-3.13,27.202-3.442,38.912c-20.706-12.015-41.053-26.41-60.766-40.365
			c-18.896-13.375-38.395-27.177-58.252-38.904c18.428-13.599,37.287-29.925,55.561-45.748c20.061-17.375,40.776-35.307,61.085-49.8
			c0.62,12.093,0.957,29.8,1,39.836c0.035,9.638,7.21,14.47,13.799,14.896c1.274,0.348,2.496,0.541,3.745,0.597
			C317.317,199.139,374.47,259.48,417.104,321.173z"/>
		<path d="M11.841,264.249c47.52,32.997,94.57,66.699,143.503,97.589c11.192,7.068,24.56-8.902,13.223-16.052
			c-47.896-30.234-93.98-63.149-140.467-95.476c-0.437-0.711-0.957-1.412-1.623-2.088c-8.295-8.389-7.482-15.462,0.65-23.646
			c0.254-0.254,0.427-0.53,0.65-0.797c1.033-0.427,2.059-0.975,3.036-1.803c44.13-37.415,87.717-75.477,133.465-110.929
			c10.592-8.206-4.243-22.817-14.706-14.706c-45.742,35.452-89.334,73.517-133.464,110.928c-0.104,0.089-0.165,0.188-0.264,0.277
			c-1.181,0.497-2.336,1.236-3.417,2.323c-14.658,14.742-16.577,33.02-4.544,48.563C8.269,260.552,9.459,262.593,11.841,264.249z"/>
	</g>
</g>
<g>
</g>
<g>
</g>
<g>
</g>
<g>
</g>
<g>
</g>
<g>
</g>
<g>
</g>
<g>
</g>
<g>
</g>
<g>
</g>
<g>
</g>
<g>
</g>
<g>
</g>
<g>
</g>
<g>
</g>
</svg>
