<?xml version="1.0" encoding="iso-8859-1"?>
<!-- Generator: Adobe Illustrator 16.0.0, SVG Export Plug-In . SVG Version: 6.00 Build 0)  -->
<!DOCTYPE svg PUBLIC "-//W3C//DTD SVG 1.1//EN" "http://www.w3.org/Graphics/SVG/1.1/DTD/svg11.dtd">
<svg version="1.1" id="Capa_1" xmlns="http://www.w3.org/2000/svg" xmlns:xlink="http://www.w3.org/1999/xlink" x="0px" y="0px"
	 width="469.327px" height="469.327px" viewBox="0 0 469.327 469.327" style="enable-background:new 0 0 469.327 469.327;"
	 xml:space="preserve">
<g>
	<g>
		<path d="M282.075,0.016c-54.255,2.6-108.552,2.783-162.866,2.788c-6.16,0-9.661,4.107-10.534,8.792
			c-0.363,1.123-0.615,2.339-0.597,3.737c1.361,121.074-2.96,276.707-10.841,397.553c-5.327,6.266-2.684,18.651,8.059,18.651
			c0.477,0,0.898-0.081,1.346-0.138c1.805,0.046,3.714-0.324,5.664-1.386c25.649-13.894,52.232-30.783,79.392-41.36
			c26.581,13.122,53.558,30.585,80.588,42.746c1.884,0.849,3.717,1.117,5.464,1.031c6.032,0.727,12.68-2.798,12.685-10.644
			c0.081-124.359,2.707-282.109,2.783-406.469c0-1.222-0.209-2.298-0.508-3.311C293.358,6,289.854-0.36,282.075,0.016z
			 M268.232,405.273c-22.475-10.176-44.879-25.72-66.999-36.678c-2.29-3.25-6.215-5.027-11.212-3.108
			c-23.712,9.11-47.047,24.253-69.782,35.516c7.195-113.741,11.159-262.016,10.161-375.95c46.85-0.041,93.686-0.373,140.508-2.339
			C270.736,139.102,268.512,288.881,268.232,405.273z"/>
		<path d="M364.501,51.202c-0.833-0.206-1.716-0.353-2.696-0.358c-16.052-0.084-32.078-0.312-48.094-1.544
			c-13.385-1.028-13.4,19.776-0.106,20.8c13.376,1.028,26.771,1.346,40.177,1.478c-2.122,123.526-3.65,247.041-4.342,370.583
			c-12.369-6.018-24.963-11.562-37.587-17.052c-12.161-5.286-22.861,12.573-10.588,17.91c17.972,7.81,35.896,15.686,53.172,24.968
			c8.587,4.616,16.493-3.595,15.64-10.861c0.011-0.219,0.066-0.411,0.071-0.635c0.665-131.743,2.311-263.445,4.606-395.168
			C374.865,54.594,369.711,51.22,364.501,51.202z"/>
		<path d="M237.201,422.625c-9.123,5.805-18.293,11.517-27.639,16.925c1.061-8.271,2.181-16.539,2.986-24.847
			c1.295-13.345-19.515-13.223-20.8,0c-1.434,14.768-3.879,29.417-5.2,44.199c-0.858,9.572,9.557,12.192,15.986,8.054
			c0.322-0.127,0.637-0.214,0.965-0.371c15.271-7.754,29.759-16.813,44.198-25.999C258.98,433.411,248.551,415.399,237.201,422.625z
			"/>
	</g>
</g>
<g>
</g>
<g>
</g>
<g>
</g>
<g>
</g>
<g>
</g>
<g>
</g>
<g>
</g>
<g>
</g>
<g>
</g>
<g>
</g>
<g>
</g>
<g>
</g>
<g>
</g>
<g>
</g>
<g>
</g>
</svg>
