<?xml version="1.0" encoding="iso-8859-1"?>
<!-- Generator: Adobe Illustrator 16.0.0, SVG Export Plug-In . SVG Version: 6.00 Build 0)  -->
<!DOCTYPE svg PUBLIC "-//W3C//DTD SVG 1.1//EN" "http://www.w3.org/Graphics/SVG/1.1/DTD/svg11.dtd">
<svg version="1.1" id="Capa_1" xmlns="http://www.w3.org/2000/svg" xmlns:xlink="http://www.w3.org/1999/xlink" x="0px" y="0px"
	 width="466.875px" height="466.876px" viewBox="0 0 466.875 466.876" style="enable-background:new 0 0 466.875 466.876;"
	 xml:space="preserve">
<g>
	<g>
		<path d="M466.341,159.156c0.36-5.987-2.813-12.05-9.572-13.137c-0.229-0.183-0.406-0.391-0.654-0.564
			c-41.406-28.949-83.015-57.63-122.806-88.798c-1.777-1.391-3.662-2.214-5.546-2.641c-1.64-0.762-3.555-1.208-5.789-1.158
			c-100.249,2.219-200.425,6.459-300.593,10.811c-2.852,0.122-5.19,1-7.069,2.336C6.8,66.097-1.447,72.479,0.216,82.255
			c12.583,74.017,16.432,148.632,14.675,223.624c-0.114,4.87,2.031,8.277,5.101,10.308c0.29,0.346,0.521,0.691,0.863,1.026
			c40.304,39.323,86.968,69.761,138.918,91.078c1.914,3.489,5.497,5.967,10.821,5.713c92.987-4.423,185.895-10.618,278.974-12.974
			c1.244-0.031,2.366-0.244,3.423-0.539c6.886,0.579,14.122-3.529,13.878-12.436c-2.031-74.972-2.031-149.933,0-224.909
			C466.905,161.669,466.682,160.375,466.341,159.156z M157.872,379.565c-43.452-19.221-82.657-46.002-116.961-79.1
			c1.29-65.811-1.94-131.276-11.184-196.345c42.269,27.101,84.132,54.817,125.913,82.665
			C157.517,251.031,159.073,315.288,157.872,379.565z M166.269,160.983c-0.729,0.062-1.389,0.234-2.059,0.392
			c-36.935-24.608-73.974-49.054-111.271-73.103c88.989-3.824,177.991-7.409,267.051-9.41c30.661,23.8,62.2,46.362,93.953,68.649
			C331.318,150.843,248.674,153.732,166.269,160.983z M440.663,375.376c-85.707,2.387-171.275,7.789-256.9,12.004
			c1.508-67.247-0.241-134.459-2.207-201.682c86.247-7.043,172.735-9.709,259.172-13.355
			C439.052,240.027,439.032,307.696,440.663,375.376z"/>
		<path d="M390.73,275.137c-1.203-0.432-2.604-0.589-4.25-0.284c-8.846,1.64-17.737,2.996-26.613,4.433
			c0.34-18.139-0.381-58.579,0.421-76.703c0.234-5.332-3.468-7.896-7.561-8.018c-1.016-0.274-2.139-0.401-3.413-0.254
			c-16.087,1.849-24.852,2.28-35.703,3.296c-10.892,0.35-19.636,1.021-35.835,1.198c-1.285,0.015-2.382,0.279-3.356,0.68
			c-4.042,0.63-7.394,3.636-6.49,8.902c3.058,17.879,7.409,58.092,10.02,76.048c-8.993-0.314-17.981-0.554-26.964-1.066
			c-1.671-0.097-3.042,0.233-4.185,0.808c-8.028-1.549-15.653,9.125-7.86,15.244c28.096,22.089,48.083,44.716,77.246,64.348
			c1.746,2.94,4.798,4.88,8.135,4.225c3.382,0.233,6.175-2.071,7.541-5.215c26.477-23.13,43.472-48.078,68.583-73.509
			C407.401,282.221,398.5,272.593,390.73,275.137z M322.99,346.914c-19.667-13.878-32.174-29.498-51.892-44.925
			c5.896,0.178,11.791,0.355,17.682,0.66c5.17,0.264,7.739-3.199,8.003-7.14c0.351-1.107,0.467-2.387,0.269-3.834
			c-2.427-17.651-6.732-57.458-9.719-75.104c1.488,1.153,3.469,1.777,5.982,1.417c9.439-1.331,15.655-2.031,21.418-2.575
			c5.779-0.188,12.035-0.264,21.571-0.127c2.539,0.041,4.429-0.823,5.759-2.148c-0.762,17.875-0.051,57.904-0.249,75.723
			c-0.021,1.463,0.259,2.717,0.741,3.768c0.747,3.88,3.738,6.993,8.836,6.084c5.799-1.036,11.629-1.945,17.453-2.869
			C351.213,313.623,340.763,330.685,322.99,346.914z"/>
	</g>
</g>
<g>
</g>
<g>
</g>
<g>
</g>
<g>
</g>
<g>
</g>
<g>
</g>
<g>
</g>
<g>
</g>
<g>
</g>
<g>
</g>
<g>
</g>
<g>
</g>
<g>
</g>
<g>
</g>
<g>
</g>
</svg>
