<?xml version="1.0" encoding="iso-8859-1"?>
<!-- Generator: Adobe Illustrator 16.0.0, SVG Export Plug-In . SVG Version: 6.00 Build 0)  -->
<!DOCTYPE svg PUBLIC "-//W3C//DTD SVG 1.1//EN" "http://www.w3.org/Graphics/SVG/1.1/DTD/svg11.dtd">
<svg version="1.1" id="Capa_1" xmlns="http://www.w3.org/2000/svg" xmlns:xlink="http://www.w3.org/1999/xlink" x="0px" y="0px"
	 width="458.765px" height="458.765px" viewBox="0 0 458.765 458.765" style="enable-background:new 0 0 458.765 458.765;"
	 xml:space="preserve">
<g>
	<g>
		<path d="M104.258,44.173c-2.138-1.831-4.972-3.016-8.592-3.016c-22.835,0-45.656,0.129-68.461,1.368
			c-8.003,0.437-12.339,6.363-13.056,12.594c-0.35,1.181-0.604,2.432-0.64,3.836c-1.498,65.666-4.078,131.296-5.098,196.975
			c-0.508,32.85-0.635,65.709-0.051,98.574c0.299,16.971,0.787,33.936,1.508,50.901c0.523,12.472-7.597,43.772,13.228,43.772
			c0.493,0,0.96-0.102,1.442-0.152c0.442,0.03,0.833,0.152,1.3,0.152c24.679-0.112,49.302-1.376,73.936-2.742
			c7.825-0.437,12.157-6.124,13.02-12.197c0.396-1.29,0.67-2.671,0.67-4.235c-0.035-124.604-1.325-249.194-1.366-373.792
			C112.088,49.993,108.66,46.009,104.258,44.173z M38.036,421.609c-6.017-117.418-0.345-234.856,2.585-352.274
			c14.701-0.541,29.406-0.681,44.117-0.734c0.107,117.065,1.214,234.128,1.315,351.195C70.058,420.629,54.052,421.31,38.036,421.609
			z"/>
		<path d="M228.16,136.734c-1.818-1.246-3.961-2.163-6.53-2.47c-22.389-2.691-44.62-3.743-67.09-1.366
			c-5.551,0.586-9.323,3.791-11.354,7.81c-1.331,1.95-2.224,4.337-2.336,7.254c-3.798,95.405,0.822,191.079-9.592,286.189
			c-2.879,26.7,61.839,16.397,76.677,16.397c8.973,0,13.36-7.059,13.218-14.011c0.203-0.776,0.391-1.559,0.472-2.422
			c9.059-94.725,4.692-190.155,15.062-284.786C237.468,142.196,233.386,138.047,228.16,136.734z M195.123,423.163h-35.378
			c8.567-87.702,5.174-175.886,8.089-263.869c13.487-0.655,26.918-0.219,40.375,0.954
			C199.643,247.653,202.567,335.685,195.123,423.163z"/>
		<path d="M335.448,221.019c-0.92-0.244-1.879-0.424-2.92-0.498c-19.673-1.409-39.309-2.948-58.869-5.477
			c-7.373-0.95-11.558,3.387-12.68,8.866c-1.412,2-2.321,4.499-2.382,7.563c-1.381,68.929-2.839,137.847-5.474,206.745
			c-0.417,10.775,9.612,14.919,17.655,12.532c1.625,0.716,3.483,1.143,5.622,1.157c16.899,0.092,33.764,1.28,50.662,1.366
			c7.552,0.046,11.848-4.951,12.939-10.674c1.238-1.93,2.057-4.271,2.122-7.124c1.438-67.121,4.108-134.201,6.841-201.271
			C349.331,225.226,342.42,220.854,335.448,221.019z M314.983,425.677c-11.334-0.325-22.663-0.873-34.012-1.057
			c2.173-60.24,3.539-120.51,4.753-180.775c11.755,1.3,23.541,2.274,35.337,3.179C318.645,306.562,316.37,366.102,314.983,425.677z"
			/>
		<path d="M436.561,336.162c-1.244-0.366-2.569-0.63-4.078-0.63c-13.481,0-26.948,0.097-40.38,1.229
			c-7.998-2.62-18.499,1.534-18.499,12.467v90.368c0,4.057,1.493,7.149,3.723,9.338c1.36,5.332,5.57,9.831,12.71,9.831h46.555
			c8.363,0,12.715-6.154,13.152-12.624c0.319-1.173,0.538-2.417,0.538-3.809c0-31.046-0.122-62.083-1.371-93.104
			C448.59,341.235,442.761,336.898,436.561,336.162z M400.989,431.379v-67.867c6.987-0.365,13.979-0.478,20.977-0.528
			c0.686,22.791,0.844,45.591,0.884,68.396H400.989z"/>
		<path d="M439.435,110.035c-1.447-11.108-10.323-16.084-18.479-16.084c-5.769,0-11.345,2.42-14.899,6.469
			c-3.361,3.821-4.818,8.922-4.107,14.368c0.868,6.655,1.858,13.53,3.062,21.048C354.968,100.534,247.532,29.526,200.369,2.511
			C197.459,0.843,194.473,0,191.502,0c-7.526,0-14.082,5.591-16.291,13.911c-2.458,9.239,1.158,18.194,9.222,22.811
			c45.331,25.974,149.771,95.24,199.194,130.209c-7.317,0.988-14.646,1.925-21.973,2.844c-11.801,1.483-16.605,11.268-16.077,19.733
			c0.559,8.909,6.973,17.925,18.149,17.925c0.848,0,1.721-0.051,2.625-0.167c22.119-2.775,43.762-5.598,65.349-9.587
			c1.132-0.213,2.239-0.521,3.356-0.937c5.134-0.696,9.653-3.217,12.491-6.998c2.864-3.811,3.87-8.569,2.859-13.993
			C446.417,154.249,442.288,132.025,439.435,110.035z"/>
	</g>
</g>
<g>
</g>
<g>
</g>
<g>
</g>
<g>
</g>
<g>
</g>
<g>
</g>
<g>
</g>
<g>
</g>
<g>
</g>
<g>
</g>
<g>
</g>
<g>
</g>
<g>
</g>
<g>
</g>
<g>
</g>
</svg>
