<?xml version="1.0" encoding="iso-8859-1"?>
<!-- Generator: Adobe Illustrator 16.0.0, SVG Export Plug-In . SVG Version: 6.00 Build 0)  -->
<!DOCTYPE svg PUBLIC "-//W3C//DTD SVG 1.1//EN" "http://www.w3.org/Graphics/SVG/1.1/DTD/svg11.dtd">
<svg version="1.1" id="Capa_1" xmlns="http://www.w3.org/2000/svg" xmlns:xlink="http://www.w3.org/1999/xlink" x="0px" y="0px"
	 width="484.805px" height="484.804px" viewBox="0 0 484.805 484.804" style="enable-background:new 0 0 484.805 484.804;"
	 xml:space="preserve">
<g>
	<g>
		<path d="M383.449,412.936c-30.63-24.756-68.837-59.235-90.205-84.488c21.998-35.759,38.202-71.604,48.205-106.649
			c15.041-52.717,9.953-105.302-14.325-148.087c-21.073-37.11-59.798-76.901-103.575-73.509
			c-61.981,4.794-93.219,71.444-87.96,187.672c2.133,47.151,16.369,94.354,42.333,140.441
			c-20.733,25.507-53.948,60.611-77.614,84.411c-5.048,5.083-5.038,13.295,0.028,18.352l48.769,48.77
			c2.438,2.442,5.74,3.809,9.193,3.809c0.005,0,0.01,0,0.016,0c3.458-0.005,6.764-1.387,9.204-3.834
			c15.104-15.193,46.034-47.246,67.976-72.661c16.204,16.854,36.668,34.282,53.73,48.82l7.312,6.24
			c1.579,1.331,5.012,4.51,8.683,7.906c6.434,5.937,10.826,9.969,13.198,11.848c2.382,1.894,5.24,2.828,8.089,2.828
			c3.347,0,6.673-1.285,9.196-3.804l48.769-48.769c2.605-2.605,3.986-6.195,3.788-9.877
			C388.065,418.673,386.313,415.251,383.449,412.936z M326.007,453.935c-1.086-1.005-2.168-1.995-3.147-2.915
			c-4.037-3.722-7.815-7.2-9.481-8.602l-7.291-6.221c-20.221-17.225-45.388-38.669-61.038-57.173c-2.468-2.92-6.104-4.61-9.925-4.61
			c-0.043,0-0.083,0-0.124,0c-3.87,0.04-7.521,1.797-9.963,4.803c-15.818,19.47-43.955,49.622-66.798,72.996l-30.382-30.387
			c17.992-18.407,54.4-56.441,76.043-84.396c3.265-4.22,3.623-10.004,0.899-14.594c-26.624-44.834-41.162-90.635-43.222-136.139
			c-6.121-134.935,37.46-158.521,63.978-160.57c1.071-0.084,2.133-0.125,3.194-0.125c28.594,0,58.65,30.407,75.758,60.547
			c20.81,36.663,25.045,82.162,11.934,128.117c-10.044,35.224-26.903,71.47-50.094,107.737c-2.956,4.61-2.697,10.582,0.645,14.924
			c19.891,25.877,58.092,60.926,88.956,86.666L326.007,453.935z"/>
		<path d="M272.806,118.263c-8.674-17.049-19.475-31.199-32.129-42.061c-0.868-0.744-1.82-1.394-3.29-2.252
			c-3.105-1.808-6.822-2.26-10.255-1.237c-3.443,1.019-6.307,3.42-7.919,6.63c-0.358,0.718-0.713,1.419-1.018,2.028
			c-0.863,1.087-1.566,2.338-2.059,3.722c-4.235,11.918-7.371,24.621-9.326,37.772c-3.644,24.481-3.862,58.196-0.566,85.907
			c0.66,5.548,3.479,21.455,7.546,32.583c3.121,8.525,6.833,17.438,11.367,27.259c2.069,4.488,6.51,7.424,11.456,7.551
			c0.119,0.005,0.233,0.005,0.353,0.005c4.809,0,9.234-2.661,11.491-6.932c7.774-14.711,14.26-29.31,19.286-43.378
			C279.219,193.699,290.177,152.4,272.806,118.263z M243.251,217.119c-1.653,4.629-3.479,9.323-5.481,14.076
			c-2.864-8.419-5.147-20.769-5.715-25.497c-2.994-25.212-2.806-56.962,0.47-79.005c0.909-6.094,2.1-12.073,3.572-17.882
			c4.981,6.236,9.511,13.337,13.538,21.241C262.497,155.345,252.981,189.865,243.251,217.119z"/>
	</g>
</g>
<g>
</g>
<g>
</g>
<g>
</g>
<g>
</g>
<g>
</g>
<g>
</g>
<g>
</g>
<g>
</g>
<g>
</g>
<g>
</g>
<g>
</g>
<g>
</g>
<g>
</g>
<g>
</g>
<g>
</g>
</svg>
