<?xml version="1.0" encoding="iso-8859-1"?>
<!-- Generator: Adobe Illustrator 16.0.0, SVG Export Plug-In . SVG Version: 6.00 Build 0)  -->
<!DOCTYPE svg PUBLIC "-//W3C//DTD SVG 1.1//EN" "http://www.w3.org/Graphics/SVG/1.1/DTD/svg11.dtd">
<svg version="1.1" id="Capa_1" xmlns="http://www.w3.org/2000/svg" xmlns:xlink="http://www.w3.org/1999/xlink" x="0px" y="0px"
	 width="486.165px" height="486.165px" viewBox="0 0 486.165 486.165" style="enable-background:new 0 0 486.165 486.165;"
	 xml:space="preserve">
<g>
	<g>
		<path d="M405.639,87.052l0.046-0.962c0.188-3.994-1.122-7.869-3.504-10.364c-2.097-2.194-4.89-3.313-8.303-3.313h-57.34
			l-0.025-2.572c-0.041-3.458-0.066-6.911-0.071-10.369c0-1.155-0.147-2.298-0.478-3.608l-0.091-0.375l0.015-0.384
			c0.203-4.004-1.102-7.889-3.488-10.399c-2.098-2.207-4.896-3.323-8.312-3.323c-10.832,0-21.668-0.046-32.499-0.094l-2.545-0.01
			l-0.056-2.542c-0.213-11.268-0.939-20.66-2.28-29.556c-0.863-5.69-6.87-9.09-12.182-9.09l-0.731,0.01l-0.635-0.074L222.501,0
			c-3.757,0-6.858,1.409-8.97,4.083c-2.546,3.219-3.473,7.992-2.422,12.454l0.183,0.769l-0.277,0.744
			c-0.571,1.539-0.868,3.077-0.868,4.57v17.511l-2.679-0.082c-11.027-0.337-22.051-0.724-33.076-1.259l-0.546-0.016
			c-1.041,0-2.069,0.145-3.25,0.457l-0.343,0.094l-0.353-0.005l0,0c-6.162,0-12.621,3.885-12.71,12.418
			c-0.046,4.373-0.219,8.734-0.478,13.081l-0.145,2.44l-2.44,0.005c-18.918,0.053-39.171,0.396-59.08,2.542
			c-0.683,0.074-1.3,0.251-1.924,0.417l-0.785,0.114c-6.215,0-12.423,3.834-12.423,12.403v49.132c0,2.762,0.69,5.195,2.054,7.229
			l0.437,0.655v0.792c-0.015,110.385-0.401,210.066-4.981,312.123c-0.058,1.244,0.069,2.479,0.396,3.87l0.12,0.527l-0.094,0.533
			c-0.619,3.407-0.068,6.521,1.544,8.771c1.462,2.036,3.75,3.3,6.797,3.752c99.894,14.822,198.457,16.031,307.71,16.041
			c7.901,0,10.486-6.012,11.228-8.597l0.167-0.573l0.412-0.457c2.021-2.22,3.047-5.068,3.047-8.46V95.677
			c0-3.093-0.844-5.741-2.499-7.866L405.639,87.052z M234.861,25.839h29.087l0.122,2.468c0.167,3.364,0.264,6.741,0.289,10.11
			l0.016,2.641l-9.445-0.099c-5.84-0.056-11.674-0.114-17.509-0.218l-2.555-0.045V25.839H234.861z M177.871,120.102
			c0.927-7.005,1.806-23.97,2.511-37.604c0.323-6.276,0.609-11.764,0.838-15.082l0.178-2.526l2.531,0.109
			c43.092,1.846,85.675,2.148,125.274,2.194h2.564l0.025,2.569c0.172,16.077,0.594,44.552,1.549,54.598l0.279,2.963l-2.976-0.12
			c-22.633-0.924-45.667-1.569-67.936-2.193c-20.79-0.582-41.579-1.166-62.358-1.97l-2.849-0.109L177.871,120.102z M384.017,460.318
			h-2.6c-98.111-0.071-186.656-1.127-276.717-13.497l-2.346-0.325l0.104-2.366c4.301-100.691,4.654-200.986,4.654-312.25
			c0-2.762-0.69-5.199-2.054-7.233l-0.437-0.655V94.748l2.407-0.178c16.016-1.181,31.87-1.399,43.896-1.45l2.961-0.01l-0.371,2.948
			c-0.114,0.919-0.254,7.8-0.368,13.332c-0.188,9.001-0.292,13.363-0.437,14.439c-0.328,2.396-0.239,4.763,0.264,7.025l0.109,0.51
			l-0.091,0.521c-0.782,4.289,0.29,8.902,2.791,12.042c2.138,2.681,5.21,4.189,8.886,4.357c26.142,1.196,52.743,1.902,78.473,2.584
			c25.753,0.681,52.382,1.389,78.569,2.59l0.676,0.016c3.722,0,6.139-1.415,7.749-3.184c2.229-0.919,4.158-2.557,5.301-4.755
			c0.107-0.219,0.209-0.444,0.3-0.673c0.219-0.526,0.432-1.054,0.559-1.628c0.233-1.056,0.355-2.12,0.523-3.181
			c1.614-2.153,2.437-4.575,2.138-6.947c-0.244-1.925-0.432-9.044-0.665-18.893c-0.138-5.756-0.285-11.71-0.406-13.134l-0.244-2.824
			h46.377V460.318z"/>
		<path d="M328.682,195.873c-1.168,0.551-2.158,1.249-3.031,2.117c-46.234,46.215-85.62,84.619-126.941,121.272L177.663,293.7
			c-2.442-2.961-5.21-3.585-7.102-3.585c-2.148,0-4.321,0.817-6.162,2.306l-0.322,0.172c-11.794,7.597-22.844,13.97-33.799,19.5
			c-3.28,1.66-5.22,4.52-5.393,7.906c-1.445,3.763-0.521,7.683,2.526,10.593c9.755,9.333,18.845,19.667,27.64,29.671
			c9.656,10.979,19.649,22.348,30.63,32.519c0.417,0.386,0.843,0.716,1.275,1.016c1.866,2.387,4.456,3.748,7.18,3.748
			c1.978,0,3.895-0.69,5.706-2.052c30.638-23.12,57.937-49.186,78.294-69.305c5.977-5.9,11.974-11.801,17.981-17.696
			c21.018-20.662,42.756-42.021,63.327-63.708c1.229-1.295,2.077-2.788,2.534-4.441c1.98-3.205,1.858-6.917-0.371-10.27
			c-7.089-10.677-13.269-20.686-18.88-30.595c-1.854-3.278-4.961-5.154-8.516-5.154
			C332.236,194.329,330.236,194.905,328.682,195.873z M331.525,221.659c2.504,4.128,5.267,8.518,8.363,13.302
			c-14.938,15.556-30.563,30.963-45.696,45.877c-8.084,7.972-16.163,15.939-24.176,23.958c-22.653,22.662-47.368,46.564-74.87,68.05
			c-8.792-8.663-17.087-18.078-25.126-27.188c-6.116-6.937-12.418-14.087-18.948-20.917c5.507-3.036,11.101-6.321,16.965-9.952
			l21.99,26.7c2.45,2.98,5.228,3.605,7.12,3.605c2.351,0,4.684-0.96,6.619-2.707c0.629-0.365,1.201-0.777,1.736-1.249
			C249.684,302.444,292.141,260.927,331.525,221.659z"/>
	</g>
</g>
<g>
</g>
<g>
</g>
<g>
</g>
<g>
</g>
<g>
</g>
<g>
</g>
<g>
</g>
<g>
</g>
<g>
</g>
<g>
</g>
<g>
</g>
<g>
</g>
<g>
</g>
<g>
</g>
<g>
</g>
</svg>
