<?xml version="1.0" encoding="iso-8859-1"?>
<!-- Generator: Adobe Illustrator 16.0.0, SVG Export Plug-In . SVG Version: 6.00 Build 0)  -->
<!DOCTYPE svg PUBLIC "-//W3C//DTD SVG 1.1//EN" "http://www.w3.org/Graphics/SVG/1.1/DTD/svg11.dtd">
<svg version="1.1" id="Capa_1" xmlns="http://www.w3.org/2000/svg" xmlns:xlink="http://www.w3.org/1999/xlink" x="0px" y="0px"
	 width="478.649px" height="478.649px" viewBox="0 0 478.649 478.649" style="enable-background:new 0 0 478.649 478.649;"
	 xml:space="preserve">
<g>
	<g>
		<path d="M461.349,51.331c-1.646-3.951-5.048-6.411-9.333-6.754c-6.195-0.477-12.188-0.337-18.905,0.366
			C423.619,16.349,401.099,0,371.012,0c-3.682,0-7.506,0.243-11.359,0.726c-2.021,0.252-3.854,1.046-5.353,2.306
			c-1.625,0.795-2.955,2.036-3.971,3.679c-2.25,3.667-5.221,7.033-9.552,10.827c-0.066,0-0.097,0-0.132,0
			c-14.833,0.574-29.655,1.294-44.479,2.013c-32.479,1.577-66.072,3.209-99.086,3.209c-18.11,0-34.622-0.48-50.439-1.462
			c-6.213-6.203-12.375-12.235-19.062-17.867c-3.232-2.724-7.653-3.41-11.121-1.698C83.09-1.582,58.729,13.487,49.048,43.355
			c-0.193,0.274-0.371,0.556-0.516,0.858c-0.589,1.226-1.12,2.47-1.582,3.702c-7.612,0.282-15.163,0.307-22.858,0.307
			c-2.089,0-3.989,0.518-5.637,1.544c-4.872,1.181-7.959,5.136-7.924,10.212c0.068,10.846,1.102,21.586,3.077,31.912
			c0.178,0.914,0.47,1.777,0.878,2.625c-0.061,2.958,0.952,5.766,2.821,7.805c1.927,2.089,4.575,3.199,7.716,3.199l15.069-0.013
			c0.015,0.069,0.03,0.132,0.045,0.198c30.275,128.26,58.711,243.568,100.135,355.634c-0.355,3.072,0.493,6.271,2.328,8.688
			c1.861,2.458,4.649,3.961,7.83,4.25c31.793,2.899,62.987,4.372,92.719,4.372c42.135,0,83.378-2.955,122.529-8.784
			c0.111-0.021,0.213-0.041,0.325-0.066c5.388,0.706,10.191-2.311,11.694-7.541c24.385-84.934,35.271-173.728,45.793-259.591
			c3.971-32.332,8.059-65.74,12.822-98.5c6.454-0.427,12.903-0.879,19.357-1.394c0.741-0.056,1.416-0.196,1.706-0.279
			c3.042,0,5.916-1.145,7.886-3.13c1.899-1.92,2.885-4.489,2.854-7.437c-0.127-13.814-2.117-26.799-5.895-38.583
			C461.974,52.544,461.623,51.762,461.349,51.331z M340.858,20.131v0.01l0,0V20.131z M116.125,21.251
			c0.706,0.099,1.376,0.119,2.049,0.074c4.814,4.293,9.974,9.207,16.136,15.369c1.335,1.333,2.874,2.211,4.575,2.617
			c1.378,0.851,2.922,1.336,4.59,1.445c16.724,1.106,34.205,1.643,53.446,1.643c33.116,0,66.747-1.638,99.267-3.22
			c14.879-0.726,29.772-1.45,44.666-2.026c0.568-0.023,1.138-0.094,1.706-0.213c2.874,0.462,5.997-0.432,8.531-2.476
			c5.688-4.593,10.263-9.376,13.954-14.592c23.552-1.612,39.908,7.452,47.937,27.056c-61.851,3.375-126.676,5.086-192.76,5.086
			c-48.99,0-100.254-0.937-152.451-2.793C74.62,27.646,91.715,17.803,116.125,21.251z M358.854,449.096
			c-36.119,5.291-74.488,7.973-114.076,7.973c-26.835,0-55.221-1.229-84.404-3.656c-7.125-19.337-13.83-38.755-20.253-58.295
			c79.089,3.813,159.438,10.644,235.105-15.325C370.524,403.09,365.197,426.245,358.854,449.096z M402.521,197.307
			c-6.419,52.306-12.995,105.726-22.643,158.628c-79.1,30.422-163.516,21.886-246.554,18.067
			c-20.959-66.359-38.676-134.444-56.109-206.272c109.253,11.913,221.705,19.733,329.637-5.345
			C405.385,174.111,403.938,185.79,402.521,197.307z M409.67,140.4c-109.542,27.246-224.398,18.396-335.44,6.213
			c-0.754-0.083-1.45-0.073-2.118-0.02c-3.25-13.541-6.495-27.19-9.76-41.022c34.008,0.203,68.525,0.818,101.938,1.409
			c40.873,0.729,83.134,1.478,124.693,1.478c46.864,0,87.93-0.983,125.42-2.996C412.758,117.062,411.199,128.731,409.67,140.4z
			 M289.059,86.815c-41.487,0-83.696-0.754-124.507-1.478c-40.84-0.727-83.078-1.476-124.616-1.476l-5.812,0.005
			c-0.754-4.441-1.275-9.064-1.592-14.015c8.206-0.046,16.89-0.224,25.578-0.894c0.853-0.062,1.711-0.229,2.554-0.488
			c5.25-1.607,15.282-0.787,24.486,0.285c4.223,0.49,8.206,0.957,11.552,1.056c12.507,0.368,25.022,0.676,37.529,0.942
			c24.631,0.513,49.617,0.815,74.248,0.889l11.887,0.015c46.868,0,93.417-0.869,138.357-2.575c1.509-0.056,5.921-0.294,12.005-0.63
			c18.976-1.038,54.309-2.973,68.426-2.973c2.005,0,3.234,0.04,4.001,0.089c1.346,5.334,2.265,10.684,2.783,16.244
			C399.402,85.218,349.466,86.815,289.059,86.815z"/>
		<path d="M280.375,303.714c-9.263-6.663-20.764-9.247-30.94-6.968c-0.446,0.107-0.868,0.224-1.274,0.361
			c-0.64-0.33-1.158-1.143-1.757-3.651c0.01-0.346,0.01-0.706-0.03-1.087c-2.509-23.211-26.797-45.153-49.973-45.153
			c-9.194,0-17.565,3.534-24.222,10.232c-22.417,22.546,2.262,53.268,11.555,64.841c14.924,18.564,34.604,33.362,58.508,43.955
			c6.36,2.823,13.083,4.311,19.431,4.311c0.005,0,0.005,0,0.005,0c17.148,0,30.442-10.537,34.703-27.486
			C299.966,328.738,293.689,313.296,280.375,303.714z M275.408,335.553c-0.035,1.097-0.157,2.112-0.243,2.782l-0.335,1.234
			c-0.112,0.36-0.184,0.726-0.203,1c-1.433,5.129-5.022,8.063-11.248,9.181c-0.233-0.091-0.473-0.162-0.716-0.223
			c-34.878-8.846-61.385-31.438-78.795-67.156c0.167-3.326,1.341-6.018,3.687-8.46c0.172-0.183,0.317-0.371,0.297-0.401l0.586-0.487
			c5.413-5.195,11.124-5.495,18.636-1.117c0.797,0.782,1.643,1.411,2.585,1.909c9.059,4.804,14.086,11.232,14.954,19.104
			c0.021,0.213,0.063,0.416,0.114,0.675c-0.129,1.224-0.066,2.453,0.198,3.672c3.166,14.37,13.149,22.982,26.408,21.896
			c1.817-0.142,3.574-0.68,5.118-1.533c1.3-0.167,2.595-0.243,3.9,0.011c2.27,0.432,3.758,1.492,4.626,2.315
			c0.198,0.183,0.37,0.284,0.381,0.294l10.15,10.242c0.168,0.793,0.27,1.58,0.325,2.402
			C275.581,333.806,275.439,334.679,275.408,335.553z"/>
		<path d="M228.125,203.172c-0.178,0.229-0.317,0.457-0.401,0.63l-0.495,0.592c-10.263,14.611-8.927,32.39,3.501,46.407
			c0.518,0.574,1.092,1.097,1.731,1.574c10.237,13.183,24.295,19.764,40.332,19.124c0.32-0.016,0.609-0.062,1.031-0.122
			c2.656,0.233,3.529,0.609,3.936,1.168c-0.076,0.416-0.127,0.854-0.162,1.311c-0.828,11.902,3.65,22.592,12.324,29.34
			c0.229,0.173,0.457,0.315,0.619,0.381l0.478,0.417c9.374,7.094,17.595,11.816,27.253,11.816c4.072,0,8.084-0.854,12.243-2.61
			c9.303-3.92,15.93-10.775,19.169-19.824c3.799-10.654,2.514-23.771-3.447-35.084c-11.096-21.023-29.107-39.816-49.424-51.552
			c-12.522-7.229-26.36-13.228-38.964-16.895c-1.589-0.462-3.26-0.571-4.763-0.348c-0.798-0.041-1.641-0.01-2.549,0.135
			C241.462,191.193,233.708,195.883,228.125,203.172z M270.29,252.518v-0.011V252.518L270.29,252.518z M244.014,217.863
			c2.582-3.164,7.26-3.824,10.732-3.824c4.484,0,9.694,1.109,14.3,3.042c5.484,2.305,10.658,4.89,15.381,7.681
			c10.689,6.304,19.814,13.753,27.137,22.14l0.812,0.935c7.262,8.312,15.493,17.731,18.185,28.121
			c1.65,6.368-0.868,13.32-5.987,16.523c-4.204,2.646-9.317,2.184-14.122-1.37c-0.914-0.671-1.904-1.29-2.914-1.92
			c-1.458-0.914-2.834-1.777-3.885-2.782c-3.153-3.002-3.367-6.968-3.621-11.558c-0.192-3.677-0.396-7.48-2.138-11.162
			c-3.854-8.145-12.654-13.426-23.536-14.126l-0.706-0.021c-0.99,0-1.98,0.122-2.935,0.386c-0.168-0.021-0.361-0.046-0.681-0.011
			l-0.787,0.011c-11.37,0-24.618-10.273-26.759-20.741C241.467,224.169,241.98,220.358,244.014,217.863z"/>
	</g>
</g>
<g>
</g>
<g>
</g>
<g>
</g>
<g>
</g>
<g>
</g>
<g>
</g>
<g>
</g>
<g>
</g>
<g>
</g>
<g>
</g>
<g>
</g>
<g>
</g>
<g>
</g>
<g>
</g>
<g>
</g>
</svg>
