<?xml version="1.0" encoding="iso-8859-1"?>
<!-- Generator: Adobe Illustrator 16.0.0, SVG Export Plug-In . SVG Version: 6.00 Build 0)  -->
<!DOCTYPE svg PUBLIC "-//W3C//DTD SVG 1.1//EN" "http://www.w3.org/Graphics/SVG/1.1/DTD/svg11.dtd">
<svg version="1.1" id="Capa_1" xmlns="http://www.w3.org/2000/svg" xmlns:xlink="http://www.w3.org/1999/xlink" x="0px" y="0px"
	 width="486.165px" height="486.165px" viewBox="0 0 486.165 486.165" style="enable-background:new 0 0 486.165 486.165;"
	 xml:space="preserve">
<g>
	<g>
		<path d="M405.672,87.049l0.046-0.962c0.183-3.994-1.127-7.866-3.509-10.369c-2.097-2.193-4.89-3.306-8.303-3.306h-57.346
			l-0.03-2.575c-0.035-3.453-0.061-6.906-0.065-10.369c0-1.163-0.152-2.308-0.478-3.603l-0.102-0.378l0.025-0.391
			c0.198-3.999-1.102-7.883-3.494-10.395c-2.092-2.204-4.89-3.32-8.312-3.32c-10.836,0-21.673-0.049-32.504-0.094l-2.544-0.01
			l-0.046-2.544c-0.208-11.225-0.935-20.617-2.28-29.557c-0.863-5.687-6.865-9.089-12.182-9.089l-0.731,0.005l-0.625-0.066
			L222.525,0c-3.76,0-6.858,1.409-8.975,4.08c-2.542,3.225-3.474,7.993-2.417,12.449l0.183,0.769l-0.282,0.744
			c-0.571,1.534-0.868,3.072-0.868,4.57v17.514l-2.684-0.083c-11.024-0.337-22.046-0.721-33.07-1.257l-0.541-0.01
			c-1.046,0-2.084,0.145-3.265,0.457l-0.343,0.094l-0.355-0.005h-0.005c-6.162,0-12.619,3.882-12.703,12.411
			c-0.046,4.38-0.218,8.742-0.482,13.088l-0.147,2.438l-2.442,0.005c-18.943,0.054-39.207,0.401-59.077,2.549
			c-0.66,0.074-1.257,0.239-1.856,0.396l-0.848,0.13c-6.213,0-12.42,3.831-12.42,12.4v49.14c0,2.76,0.69,5.194,2.049,7.223
			l0.442,0.655v0.79c-0.016,110.388-0.401,210.073-4.987,312.12c-0.058,1.239,0.071,2.473,0.399,3.88l0.119,0.522l-0.097,0.533
			c-0.614,3.407-0.068,6.521,1.549,8.771c1.455,2.041,3.743,3.3,6.792,3.757c99.899,14.812,198.457,16.026,307.71,16.036
			c7.901,0,10.486-6.012,11.228-8.597l0.167-0.573l0.406-0.447c2.021-2.229,3.047-5.078,3.047-8.47V95.677
			c0-3.095-0.838-5.741-2.498-7.868L405.672,87.049z M234.89,25.832h29.087l0.116,2.47c0.173,3.369,0.27,6.739,0.29,10.113
			l0.021,2.643l-9.085-0.094c-5.962-0.058-11.92-0.114-17.875-0.218l-2.554-0.049V25.832z M177.895,120.1
			c0.927-7.008,1.811-23.976,2.511-37.61c0.323-6.276,0.609-11.758,0.838-15.074l0.178-2.526l2.526,0.109
			c43.127,1.851,85.696,2.153,125.274,2.194h2.569l0.025,2.569c0.299,27.787,0.837,47.177,1.548,54.598l0.279,2.963l-2.976-0.12
			c-22.638-0.927-45.676-1.571-67.953-2.188c-20.782-0.584-41.561-1.165-62.34-1.973l-2.849-0.109L177.895,120.1z M384.045,460.318
			h-2.6c-98.076-0.065-186.598-1.122-276.722-13.502l-2.341-0.32l0.099-2.366c4.296-100.584,4.654-200.923,4.659-312.252
			c0-2.76-0.69-5.2-2.059-7.239l-0.437-0.655V94.74l2.407-0.178c16.046-1.184,31.89-1.396,43.896-1.455l2.96-0.01l-0.371,2.948
			c-0.114,0.917-0.259,7.774-0.368,13.287c-0.188,9.036-0.292,13.416-0.442,14.493c-0.328,2.396-0.239,4.763,0.269,7.013
			l0.109,0.515l-0.094,0.521c-0.78,4.289,0.292,8.902,2.792,12.042c2.133,2.684,5.205,4.192,8.881,4.357
			c26.139,1.196,52.748,1.904,78.473,2.584c25.753,0.681,52.382,1.389,78.569,2.59l0.681,0.016c3.717,0,6.139-1.415,7.754-3.182
			c2.229-0.922,4.158-2.56,5.296-4.758c0.106-0.219,0.203-0.442,0.305-0.671c0.219-0.525,0.432-1.056,0.554-1.627
			c0.238-1.057,0.355-2.123,0.528-3.184c1.619-2.153,2.442-4.581,2.138-6.947c-0.244-1.925-0.432-9.041-0.665-18.895
			c-0.147-6.022-0.29-11.705-0.406-13.131l-0.244-2.824h46.377V460.318z"/>
		<path d="M328.71,195.868c-1.162,0.551-2.152,1.242-3.031,2.115c-46.234,46.212-85.62,84.617-126.939,121.271l-21.043-25.543
			c-2.447-2.976-5.215-3.6-7.102-3.6c-2.138,0-4.311,0.817-6.152,2.3l-0.328,0.183c-11.834,7.617-22.884,13.99-33.794,19.494
			c-3.28,1.661-5.22,4.52-5.397,7.907c-1.435,3.758-0.516,7.683,2.526,10.593c9.767,9.343,18.859,19.682,27.654,29.686
			c9.656,10.979,19.639,22.338,30.615,32.499c0.417,0.386,0.843,0.726,1.274,1.025c1.861,2.387,4.451,3.737,7.175,3.737
			c1.983,0,3.9-0.69,5.705-2.051c30.658-23.136,57.948-49.186,78.3-69.295c5.885-5.818,11.796-11.618,17.701-17.433
			c21.114-20.743,42.949-42.197,63.612-63.987c1.224-1.292,2.071-2.785,2.528-4.438c1.976-3.205,1.854-6.917-0.37-10.265
			c-7.084-10.674-13.264-20.685-18.88-30.595c-1.849-3.275-4.962-5.154-8.516-5.154C332.26,194.321,330.265,194.9,328.71,195.868z
			 M294.221,280.833c-8.089,7.972-16.163,15.935-24.176,23.957c-22.658,22.674-47.391,46.575-74.87,68.045
			c-8.777-8.652-17.072-18.047-25.101-27.162c-6.126-6.941-12.433-14.096-18.969-20.937c5.522-3.047,11.116-6.337,16.971-9.952
			l21.99,26.705c2.455,2.971,5.228,3.6,7.119,3.6c2.352,0,4.685-0.965,6.614-2.706c0.63-0.36,1.196-0.777,1.737-1.255
			c44.156-38.674,86.618-80.201,126.007-119.474c2.498,4.118,5.226,8.435,8.373,13.299
			C324.973,250.512,309.348,265.919,294.221,280.833z"/>
	</g>
</g>
<g>
</g>
<g>
</g>
<g>
</g>
<g>
</g>
<g>
</g>
<g>
</g>
<g>
</g>
<g>
</g>
<g>
</g>
<g>
</g>
<g>
</g>
<g>
</g>
<g>
</g>
<g>
</g>
<g>
</g>
</svg>
