<?xml version="1.0" encoding="iso-8859-1"?>
<!-- Generator: Adobe Illustrator 16.0.0, SVG Export Plug-In . SVG Version: 6.00 Build 0)  -->
<!DOCTYPE svg PUBLIC "-//W3C//DTD SVG 1.1//EN" "http://www.w3.org/Graphics/SVG/1.1/DTD/svg11.dtd">
<svg version="1.1" id="Capa_1" xmlns="http://www.w3.org/2000/svg" xmlns:xlink="http://www.w3.org/1999/xlink" x="0px" y="0px"
	 width="456.754px" height="456.754px" viewBox="0 0 456.754 456.754" style="enable-background:new 0 0 456.754 456.754;"
	 xml:space="preserve">
<g>
	<g>
		<path d="M443.128,296.767c-36.064-26.055-74.113-48.148-114.534-66.374c-8.46-24.445-16.336-49.129-24.993-73.026
			c-17.819-49.2-35.109-98.573-51.228-148.358c-2.98-9.216-12.669-10.76-19.28-7.337c-3.047,1.33-5.576,3.956-6.658,8.206
			c-18.583,72.777-49.175,140.426-80.42,208.004c-0.993,0.386-1.94,0.863-2.803,1.468c-1.835,0.157-3.755,0.776-5.7,2.016
			c-39.357,25.029-80.773,46.25-122.197,67.598c-2.447,1.26-4.07,2.94-5.121,4.794c-3.468,3.595-4.715,8.871-0.843,14.289
			c52.217,72.996,133.066,122.562,218.363,147.673c1.025,0.3,2.008,0.478,2.945,0.549c2.239,0.746,4.88,0.69,7.865-0.549
			c77.267-32.255,163.308-65.201,209.264-139.873c2.818-4.575,2.412-9.013,0.305-12.481
			C447.271,300.917,445.677,298.611,443.128,296.767z M240.395,55.539c6.489,19.24,13.142,38.435,19.891,57.589
			c-0.457,0.117-0.894,0.168-1.371,0.335c-13.233,4.646-26.568,5.306-39.41,0.762C227.07,94.913,234.123,75.388,240.395,55.539z
			 M188.982,186.174c32.301,8.191,64.589,8.079,95.356-5.697c3.383,9.526,6.668,19.139,9.948,28.776
			c-1.254,0.355-2.523,0.858-3.813,1.717c-33.946,22.587-78.104,19.164-114.268,3.255
			C180.495,204.887,184.771,195.543,188.982,186.174z M145.449,281.107c5.507,1.655,11.09,3.184,16.701,4.631
			c51.181,20.1,105.589,18.85,156.176-7.246c0.208-0.111,0.355-0.248,0.549-0.355c3.93,10.045,8.028,20.008,12.496,29.757
			c-55.197,25.131-148.124,35.45-195.522-5.58C139.01,295.218,142.234,288.166,145.449,281.107z M232.909,430.115
			c-73.546-21.967-145.144-63.637-193.084-124.582c29.586-15.265,59.069-30.666,87.714-47.606
			c-5.969,13.01-11.88,26.055-17.654,39.166c-0.419,0.955-0.721,1.895-0.924,2.829c-2.277,4.423-2.277,9.988,2.09,14.66
			c56.211,60.199,177.895,46.112,243.68,10.704c6.886-3.712,7.657-10.547,5.078-16.006c-0.184-1.432-0.549-2.89-1.275-4.377
			c-6.362-12.975-12.024-26.396-17.325-40.03c27.137,13.66,53.125,29.433,78.104,46.814
			C376.23,373.176,299.878,402.207,232.909,430.115z"/>
	</g>
</g>
<g>
</g>
<g>
</g>
<g>
</g>
<g>
</g>
<g>
</g>
<g>
</g>
<g>
</g>
<g>
</g>
<g>
</g>
<g>
</g>
<g>
</g>
<g>
</g>
<g>
</g>
<g>
</g>
<g>
</g>
</svg>
