<?xml version="1.0" encoding="iso-8859-1"?>
<!-- Generator: Adobe Illustrator 16.0.0, SVG Export Plug-In . SVG Version: 6.00 Build 0)  -->
<!DOCTYPE svg PUBLIC "-//W3C//DTD SVG 1.1//EN" "http://www.w3.org/Graphics/SVG/1.1/DTD/svg11.dtd">
<svg version="1.1" id="Capa_1" xmlns="http://www.w3.org/2000/svg" xmlns:xlink="http://www.w3.org/1999/xlink" x="0px" y="0px"
	 width="489.101px" height="489.101px" viewBox="0 0 489.101 489.101" style="enable-background:new 0 0 489.101 489.101;"
	 xml:space="preserve">
<g>
	<g>
		<path d="M179.626,387.677c-0.386-96.051-4.812-192.05-3.75-288.1c7.873-1.976,15.401-5.037,21.482-9.546
			c15.729-11.679,21.218-25.476,19.867-38.714c-2.912-28.569-37.635-54.527-69.9-50.993C120.811,3.228,98.031,26.155,95.769,52.52
			c-2.735,31.956,23.777,48.855,52.277,49.942c-0.949,95.562,3.438,191.069,3.786,286.626
			c-21.833,6.906-39.197,27.132-41.157,49.968c-2.849,33.266,25.999,50.271,55.789,50.043c15.092-0.117,33.436-3.361,45.801-12.532
			c15.729-11.68,21.221-25.477,19.87-38.715C229.749,414.408,205.928,392.75,179.626,387.677z M152.274,31.137
			c31.689-3.286,48.208,33.966,10.677,41.35c-0.495-0.005-0.947-0.076-1.463-0.046C129.354,74.553,110.894,35.428,152.274,31.137z
			 M177.847,459.017c-0.488-0.005-0.939-0.076-1.455-0.046c-32.136,2.112-50.59-37.019-9.209-41.304
			C198.859,414.387,215.386,451.634,177.847,459.017z"/>
		<path d="M340.819,387.677c-0.386-96.051-4.809-192.05-3.747-288.1c7.871-1.976,15.401-5.037,21.479-9.546
			c15.731-11.679,21.221-25.476,19.87-38.714c-2.914-28.569-37.638-54.527-69.903-50.993c-26.512,2.904-49.292,25.832-51.557,52.196
			c-2.731,31.956,23.78,48.855,52.278,49.942c-0.95,95.562,3.438,191.069,3.788,286.626c-21.836,6.906-39.197,27.132-41.157,49.968
			c-2.849,33.266,25.999,50.271,55.786,50.043c15.092-0.117,33.438-3.361,45.804-12.532c15.727-11.68,21.221-25.477,19.87-38.715
			C390.944,414.408,367.124,392.75,340.819,387.677z M313.469,31.137c31.687-3.286,48.205,33.966,10.674,41.35
			c-0.492-0.005-0.944-0.076-1.462-0.046C290.547,74.553,272.088,35.428,313.469,31.137z M339.042,459.017
			c-0.487-0.005-0.938-0.076-1.457-0.046c-32.134,2.112-50.587-37.019-9.206-41.304
			C360.054,414.387,376.579,451.634,339.042,459.017z"/>
	</g>
</g>
<g>
</g>
<g>
</g>
<g>
</g>
<g>
</g>
<g>
</g>
<g>
</g>
<g>
</g>
<g>
</g>
<g>
</g>
<g>
</g>
<g>
</g>
<g>
</g>
<g>
</g>
<g>
</g>
<g>
</g>
</svg>
