<?xml version="1.0" encoding="iso-8859-1"?>
<!-- Generator: Adobe Illustrator 16.0.0, SVG Export Plug-In . SVG Version: 6.00 Build 0)  -->
<!DOCTYPE svg PUBLIC "-//W3C//DTD SVG 1.1//EN" "http://www.w3.org/Graphics/SVG/1.1/DTD/svg11.dtd">
<svg version="1.1" id="Capa_1" xmlns="http://www.w3.org/2000/svg" xmlns:xlink="http://www.w3.org/1999/xlink" x="0px" y="0px"
	 width="481.904px" height="481.904px" viewBox="0 0 481.904 481.904" style="enable-background:new 0 0 481.904 481.904;"
	 xml:space="preserve">
<g>
	<g>
		<path d="M417.168,11.229c-0.817-6.822-6.443-10.366-11.872-10.653C404.215,0.238,403.052,0,401.731,0
			c-90.774,0.111-198.376,2.641-289.15,1.406c-1.571-0.021-2.938,0.267-4.171,0.724c-6.375-1.439-14.061,2.034-14.076,10.509
			c-0.025,14.508-0.16,29.016-0.348,43.523C83.512,59.62,74.08,65.643,66.92,75.225c-16.364,21.912,1.513,49.582,18.075,64.666
			c2.326,2.115,4.893,2.968,7.389,2.988c-0.061,2.955-0.12,5.913-0.181,8.866c-9.193,3.11-17.514,8.018-23.732,15.6
			c-17.275,21.056-3.13,46.59,12.317,63.782c1.846,2.054,3.915,3.046,5.992,3.379c1.236,1.399,2.516,2.747,3.966,3.93
			c-0.01,1.417-0.021,2.829-0.036,4.24c-13.083,3.626-24.72,10.685-31.283,23.176c-13.541,25.756,11.148,49.146,31.585,60.794
			c0.015,0.701,0.041,1.392,0.051,2.087c-9.697,4.794-17.971,11.735-22.91,21.881c-11.732,24.09,8.094,46.007,26.258,59.57
			c0.302,4.697,0.635,9.409,0.973,14.106c-0.386,1.234-0.562,2.625-0.406,4.229c1.518,15.569,4.311,30.712,9.973,45.347
			c1.97,5.099,6.418,7.302,10.795,7.348c1.155,0.417,2.417,0.696,3.875,0.69c97.314-0.051,194.651-1.559,291.569-10.953
			c0.741-0.07,1.422-0.223,2.082-0.406c5.692,0.295,11.608-3.193,11.604-10.541c0-12.802-0.051-25.583-1.366-38.329
			c-0.111-1.071-0.381-2.031-0.716-2.935C423.125,282.884,433.52,146.583,417.168,11.229z M79.811,275.277
			c2.303-4.378,6.142-7.379,10.742-9.445c-0.035,11.293-0.01,22.587,0.084,33.875C82.245,293.324,74.877,284.682,79.811,275.277z
			 M87.392,179.803c1.285-1.326,2.752-2.438,4.286-3.463c-0.213,10.761-0.406,21.513-0.579,32.271
			C84.36,199.823,78.808,188.68,87.392,179.803z M88.651,359.662c0.815-1.675,1.871-3.188,3.098-4.569
			c0.256,7.896,0.553,15.792,0.906,23.684C88.067,373.027,85.371,366.391,88.651,359.662z M92.945,116.08
			c-7.482-8.476-13.134-18.974-6.64-29.526c1.815-2.953,4.352-5.194,7.323-6.926C93.425,91.781,93.196,103.928,92.945,116.08z
			 M123.288,459.993c-1.696-5.403-3.075-10.866-4.151-16.412c89.21,0.528,194.299,9.674,283.428-7.8
			c0.203,4.662,0.324,9.323,0.37,13.985C309.952,458.358,216.614,459.912,123.288,459.993z M400.37,413.367
			c-86.62,17.9-192.668,8.354-280.441,7.77c-0.109-0.01-0.218-0.03-0.328-0.03h-1.983c-1.851-25.735-3.011-51.476-3.717-77.227
			c6.551-1.543,13.145-2.305,18.334-2.787c14.3-1.32,14.424-23.791,0-22.46c-6.02,0.559-12.41,1.396-18.775,2.717
			c-0.343-19.875-0.516-39.746-0.437-59.626c6.099-0.097,11.913,0.33,16.404,0.762c14.419,1.387,14.285-21.084,0-22.46
			c-5.146-0.487-10.648-0.701-16.239-0.533c0.229-23.252,0.625-46.512,1.092-69.771c7.838-0.635,15.742-0.289,22.163,0.13
			c14.467,0.942,14.378-21.521,0-22.458c-6.853-0.447-14.264-0.546-21.708,0.02c0.513-24.277,1.038-48.561,1.429-72.838
			c6.947-0.125,13.721,0.561,18.875,1.231c14.33,1.866,14.15-20.617,0-22.458c-6.126-0.794-12.375-1.165-18.568-0.962
			c0.114-9.493,0.208-18.984,0.254-28.48c87.461,1.072,191.755-1.221,279.208-1.424C410.222,152.354,400.929,283.051,400.37,413.367
			z"/>
		<path d="M203.38,153.035c-0.982,0.675-1.772,1.442-2.48,2.242c-0.343,0.239-0.701,0.422-1.036,0.706
			c-59.09,49.244-33.726,148.432,41.771,160.934c26.495,4.393,63.249,4.561,89.131-2.976c15.203-4.428,8.729-28.183-6.546-23.729
			c-37.698,10.984-75.534,9.861-109.717-10.628c-0.406-0.538-0.817-1.071-1.348-1.584c-32.124-31.017-30.008-76.142,4.103-104.612
			c0.045-0.041,0.079-0.083,0.124-0.125c42.511-27.805,120.899-20.337,124.469,41.667c0.011,0.201,0.066,0.374,0.092,0.577
			c-0.035,0.487-0.106,0.952-0.092,1.47c0.422,11.232-4.28,18.872-14.522,22.303c-10.669-2.491-16.834-8.922-19.749-20.444
			c-0.33-1.285-0.832-2.366-1.406-3.349c-2.077-8.935-6.018-17.171-12.903-23.93c-8.516-8.345-20.185-11.913-31.844-13.068
			c-1.122-0.297-2.306-0.5-3.646-0.473c-0.452,0.01-0.869,0.099-1.311,0.114c-0.935-0.041-1.869-0.104-2.788-0.114
			c-1.985-0.033-3.727,0.333-5.215,0.988c-18.055,3.24-31.928,14.642-39.689,31.725c-14.18,31.207,24.953,57.835,51.054,60.593
			c0.574,0.065,1.123-0.005,1.676-0.051c0.133,0.005,0.244,0.046,0.376,0.051c11.999,0.406,22.577-2.493,32.021-9.948
			c2.89-2.285,5.149-5.088,6.998-8.165c6.438,5.403,14.243,9.191,23.323,10.496c0.568,0.081,1.137,0.106,1.701,0.137
			c1.767,0.396,3.717,0.417,5.864-0.137c21.973-5.692,35.516-24.069,34.668-46.728c-0.005-0.17-0.051-0.31-0.062-0.478
			c0.031-0.521,0.102-1.013,0.062-1.569C361.818,134.175,262.479,112.299,203.38,153.035z M283.409,229.275
			c-1.554,13.482-8.403,17.869-21.53,17.433c-0.538-0.021-1.006,0.062-1.498,0.097c-0.183-0.025-0.36-0.076-0.543-0.097
			c-28.399-3.144-38.268-41.398-3.896-43.937c15.94,0.863,26.472,8.201,27.472,25.474c0.011,0.198,0.066,0.361,0.092,0.553
			C283.471,228.963,283.43,229.113,283.409,229.275z"/>
	</g>
</g>
<g>
</g>
<g>
</g>
<g>
</g>
<g>
</g>
<g>
</g>
<g>
</g>
<g>
</g>
<g>
</g>
<g>
</g>
<g>
</g>
<g>
</g>
<g>
</g>
<g>
</g>
<g>
</g>
<g>
</g>
</svg>
