<?xml version="1.0" encoding="iso-8859-1"?>
<!-- Generator: Adobe Illustrator 16.0.0, SVG Export Plug-In . SVG Version: 6.00 Build 0)  -->
<!DOCTYPE svg PUBLIC "-//W3C//DTD SVG 1.1//EN" "http://www.w3.org/Graphics/SVG/1.1/DTD/svg11.dtd">
<svg version="1.1" id="Capa_1" xmlns="http://www.w3.org/2000/svg" xmlns:xlink="http://www.w3.org/1999/xlink" x="0px" y="0px"
	 width="484.919px" height="484.92px" viewBox="0 0 484.919 484.92" style="enable-background:new 0 0 484.919 484.92;"
	 xml:space="preserve">
<g>
	<g>
		<path d="M472.114,431.787c-118.022,0.132-301.012,4.438-422.688,3.697c-5.741-0.041-10.3-4.733-10.217-10.476
			c1.757-116.729-6.063-275.555-12.71-389.42c-0.988-16.968-27.464-17.062-26.472,0C7.093,156.66,15.596,325.435,12.382,446.793
			c-0.025,1.03,0.045,1.995,0.208,2.899c0.282,1.584,1.668,6.805,5.299,9.587c1.98,1.514,4.555,2.474,7.731,2.509
			c125.916,1.564,320.596-3.393,446.499-3.534C489.186,458.243,489.186,431.767,472.114,431.787z"/>
		<path d="M48.418,113.071c3.915,97.16,11.611,194.124,15.094,291.305c0.021,0.549,0.068,1.082,0.145,1.595
			c0.132,0.874-0.2,6.876,3.601,11.187c2.125,2.407,5.286,3.997,9.483,3.986c105.917-0.299,264.722-10.049,370.614-3.412
			c3.458,0.213,6.205-0.701,8.252-2.306c3.808-2.99,6.479-10.187,6.667-14.188c0.102-2.193-0.406-4.55-1.717-6.946
			c-15.478-28.265-29.021-57.442-41.781-87.001c-2.279-5.276-3.864-11.36-4.361-13.492c-0.285-1.219-0.772-2.438-1.479-3.646
			c-3.396-5.799-12.223-8.958-18.107-4.753c-7.46,5.322-14.976,10.572-22.572,15.686c-4.763,3.21-11.044,1.752-13.893-3.234
			c-12.229-21.368-23.207-43.387-32.312-66.333c-0.391-0.978-0.858-1.866-1.387-2.666c-0.919-1.389-2.66-3.621-3.904-4.946
			c-0.772-0.817-1.625-1.523-2.555-2.064c-6.789-3.979-13.767-0.998-18.113,4.743c-5.306,7.007-10.963,13.738-16.944,20.172
			c-3.91,4.21-9.826,3.616-13.046-1.143c-19.429-28.713-39.055-57.29-58.315-86.12c-0.109-0.16-0.229-0.305-0.348-0.442
			c-0.208-0.233-0.759-1.792-1.612-3.285c-0.521-0.909-1.14-1.747-1.874-2.481c-5.39-5.393-13.243-4.695-18.717-0.005
			c-6.215,5.324-12.273,10.697-18.035,16.359c-4.098,4.024-10.047,3.755-13.52-0.82c-26.04-34.325-52.346-68.451-78.231-102.9
			c-0.805-1.071-1.694-1.973-2.641-2.709c-1.648-1.29-3.974-2.663-4.862-3.6c-0.536-0.561-1.082-1.123-1.627-1.668
			c-5.091-5.101-13.619-5.101-18.72-0.005c-0.701,0.701-1.3,1.473-1.8,2.288c-0.841,1.374-2.511,4.139-3.222,6.386
			c-0.401,1.264-0.625,2.664-0.625,4.212l-0.005,24.709c0,1.358,0.178,2.6,0.492,3.735
			C47.019,101.267,48.184,107.335,48.418,113.071z M80.78,111.096c23.707,31.155,47.553,62.205,71.074,93.503
			c6.411,8.531,17.973,6.363,22.993,0.16c0.576-0.597,1.127-1.231,1.627-1.917c3.431-4.672,7.348-8.971,11.507-13.053
			c4.103-4.024,10.217-3.215,13.432,1.543c20.492,30.348,41.256,60.506,61.596,90.949c4.316,6.46,11.445,7.181,17.001,4.708
			c5.245-2.342,10.679-10.263,14.731-14.33c2.366-2.377,4.691-4.794,6.972-7.257c3.9-4.215,8.78-3.493,11.191,1.717
			c10.269,22.2,21.882,43.695,34.805,64.602c1.955,3.179,4.581,5.007,7.394,5.789c5.119,1.411,10.562-1.077,11.908-1.61
			c0.771-0.299,1.549-0.69,2.331-1.183c5.677-3.575,11.258-7.282,16.782-11.06c4.743-3.24,10.39-1.641,12.695,3.62
			c7.927,18.113,16.204,36.059,25.055,53.726c2.569,5.139,0.051,9.063-5.692,8.865c-96.604-3.325-226.285,3.286-318.201,4.576
			c-5.741,0.081-10.583-4.525-10.821-10.263c-3.75-90.373-10.628-180.594-14.27-270.977C74.661,107.47,77.301,106.522,80.78,111.096
			z"/>
	</g>
</g>
<g>
</g>
<g>
</g>
<g>
</g>
<g>
</g>
<g>
</g>
<g>
</g>
<g>
</g>
<g>
</g>
<g>
</g>
<g>
</g>
<g>
</g>
<g>
</g>
<g>
</g>
<g>
</g>
<g>
</g>
</svg>
