<?xml version="1.0" encoding="iso-8859-1"?>
<!-- Generator: Adobe Illustrator 16.0.0, SVG Export Plug-In . SVG Version: 6.00 Build 0)  -->
<!DOCTYPE svg PUBLIC "-//W3C//DTD SVG 1.1//EN" "http://www.w3.org/Graphics/SVG/1.1/DTD/svg11.dtd">
<svg version="1.1" id="Capa_1" xmlns="http://www.w3.org/2000/svg" xmlns:xlink="http://www.w3.org/1999/xlink" x="0px" y="0px"
	 width="453.079px" height="453.079px" viewBox="0 0 453.079 453.079" style="enable-background:new 0 0 453.079 453.079;"
	 xml:space="preserve">
<g>
	<g>
		<path d="M363.074,7.065c-0.995-0.264-2.047-0.447-3.179-0.515C267.821,0.758,175.673-2.7,83.49,2.68
			c-8.663,0.505-13.256,7.083-13.858,13.842c-1.592,2.169-2.574,4.956-2.574,8.389c0.099,142.018,3.697,255,5.695,396.997
			c-3.656,8.389,0.561,20.859,12.665,21.484c73.428,3.773,129.534,5.891,202.959,9.669c1.854,0.091,3.474-0.173,4.956-0.609
			c3.088-0.092,6.267-1.147,9.161-3.636c27.385-23.471,54.537-47.134,79.257-73.453c3.036-3.234,4.153-6.851,3.986-10.313
			c0.218-1.179,0.34-2.423,0.259-3.799c-7.505-122.927-5.921-217.113-7.729-340.193C378.125,11.496,370.477,6.852,363.074,7.065z
			 M297.416,414.936c-1.311-15.355-2.834-30.686-4.799-45.971c19.088-3.316,38.404-4.042,57.808-3.158
			C333.458,382.935,315.61,399.118,297.416,414.936z M272.924,343.397c-8.354,1.955-11.197,8.892-10.12,15.427
			c-0.173,1.376-0.224,2.808,0,4.342c2.939,19.885,4.712,39.893,6.296,59.92c-58.688-2.936-106.033-4.961-167.469-7.932
			c-1.98-137.689-5.365-246.358-5.558-384.065c84.492-4.207,168.959-1.295,253.36,3.831c1.412,110.398,0.584,191.864,6.307,302.145
			C327.944,335.395,300.086,337.034,272.924,343.397z"/>
		<path d="M135.956,101.635c17.778,0,35.551,0.046,53.298,1.3c16.74,1.186,16.623-24.823,0-25.999
			c-17.748-1.254-35.521-1.3-53.298-1.3C119.186,75.636,119.191,101.635,135.956,101.635z"/>
		<path d="M189.254,147.133c16.727,1.285,16.603-24.725,0-25.999c-16.884-1.295-33.758-2.501-50.698-2.6
			c-16.771-0.099-16.76,25.9,0,25.999C155.496,144.633,172.37,145.839,189.254,147.133z"/>
		<path d="M193.154,190.032c16.623-1.186,16.74-27.195,0-25.999c-16.067,1.143-32.078,0.02-48.099-1.3
			c-16.717-1.384-16.582,24.631,0,26C161.077,190.053,177.087,191.175,193.154,190.032z"/>
		<path d="M310.151,213.432c-53.304,0-106.602,0.079-159.896,1.3c-16.739,0.386-16.775,26.385,0,25.999
			c53.293-1.224,106.592-1.3,159.896-1.3C326.918,239.431,326.918,213.432,310.151,213.432z"/>
		<path d="M310.151,262.83c-51.511,3.636-103.104,2.671-154.695,2.6c-16.77-0.025-16.765,25.975,0,26
			c51.592,0.07,103.185,1.035,154.695-2.601C326.776,287.651,326.888,261.646,310.151,262.83z"/>
		<path d="M317.951,89.935c-0.025-7.696-5.524-11.814-11.456-12.444c-1.828-1.127-4.042-1.855-6.743-1.855h-62.398
			c-9.198,0-13.317,7.82-12.423,14.881c-0.299,1.031-0.518,2.117-0.576,3.318c-1.265,25.984-1.3,51.988-1.3,77.998
			c0,3.433,1.123,6.124,2.859,8.147c1.736,4.191,5.52,7.452,11.44,7.452c24.278-0.005,48.54-0.119,72.798-1.3
			c8.851-0.432,12.984-7.945,12.451-14.787c0.213-1.348,0.305-2.752,0.086-4.266C319.057,141.517,318.052,115.726,317.951,89.935z
			 M249.068,161.407c0.035-19.931,0.203-39.856,0.99-59.772h42.097c0.375,19.758,1.563,39.415,3.818,59.044
			C280.343,161.194,264.713,161.364,249.068,161.407z"/>
		<path d="M228.253,317.429h-71.498c-16.77,0-16.77,25.999,0,25.999h71.498C245.021,343.428,245.021,317.429,228.253,317.429z"/>
	</g>
</g>
<g>
</g>
<g>
</g>
<g>
</g>
<g>
</g>
<g>
</g>
<g>
</g>
<g>
</g>
<g>
</g>
<g>
</g>
<g>
</g>
<g>
</g>
<g>
</g>
<g>
</g>
<g>
</g>
<g>
</g>
</svg>
