<?xml version="1.0" encoding="iso-8859-1"?>
<!-- Generator: Adobe Illustrator 16.0.0, SVG Export Plug-In . SVG Version: 6.00 Build 0)  -->
<!DOCTYPE svg PUBLIC "-//W3C//DTD SVG 1.1//EN" "http://www.w3.org/Graphics/SVG/1.1/DTD/svg11.dtd">
<svg version="1.1" id="Capa_1" xmlns="http://www.w3.org/2000/svg" xmlns:xlink="http://www.w3.org/1999/xlink" x="0px" y="0px"
	 width="465.957px" height="465.957px" viewBox="0 0 465.957 465.957" style="enable-background:new 0 0 465.957 465.957;"
	 xml:space="preserve">
<g>
	<g>
		<path d="M2.81,370.522c-0.787,5.154-0.361,10.303,2.401,14.944c0.086,0.147,0.203,0.264,0.295,0.396
			c2.219,4.285,6.423,7.464,12.781,7.394c130.438-1.396,260.876,8.784,391.202,0c2.899-0.193,5.312-1.092,7.333-2.392
			c7.18-0.503,14.121-5.332,14.396-14.584c2.107-72.885,7.444-57.605,11.39-130.402c0.254-4.697-1.325-8.232-3.854-10.664
			c-9.288,3.696-18.129,8.271-26.695,13.492c-3.691,65.033-8.43,47.021-10.725,114.574c-111.979,6.881-224.035,0.371-336.101-0.416
			c1.539-0.361,3.077-0.752,4.596-1.219c12.792-3.9,7.328-23.979-5.53-20.054c-10.501,3.204-21.577,3.128-32.484,3.098
			c-0.218-11.05-0.411-21.434-0.579-31.204h30.625c13.416,0,13.416-20.799,0-20.799H30.917c-0.188-13.452-0.325-25.994-0.401-38.131
			h38.283c13.411,0,13.411-20.799,0-20.799H30.434c-0.01-10.827,0.021-21.632,0.102-32.854c12.451,0.69,24.907,0.792,37.389,0.792
			c13.416,0.005,13.416-20.794,0-20.799c-12.421,0-24.811-0.106-37.191-0.782c0.142-12.278,0.33-25.263,0.568-39.486
			c14.224-0.32,28.452-0.462,42.686-0.462c13.411,0,13.411-20.799,0-20.799c-14.112,0-28.224,0.142-42.325,0.457
			c0.112-5.779,0.219-11.73,0.34-17.936c80.521,1.772,163.841,3.372,244.388,3.479c0.35,0,0.645-0.082,0.975-0.096
			c1.071-10.029,1.442-20.063,0.614-30.128c-0.533-0.051-1.021-0.163-1.589-0.163c-85.478-0.107-173.728-1.899-259.175-3.793
			C8.279,70.988,3.47,77.193,2.688,84.043c-0.482,1.447-0.828,2.991-0.863,4.748c-2.433,116.474-2.433,160.154,0,276.628
			C1.865,367.323,2.241,368.999,2.81,370.522z"/>
		<path d="M458.487,165.636c-44.355-32.738-90.606-62.774-135.673-94.506c-7.394-5.205-14.523,0.386-16.017,7.343
			c-0.411,1.006-0.741,2.077-0.878,3.285c-1.463,12.954-2.29,25.938-2.631,38.958C198.042,129.425,139.534,207.154,88.5,293.17
			c-0.741,1.244-1.147,2.468-1.391,3.661c-10.689,8.906,5.052,24.212,16.214,15.563c58.564-45.352,121.465-85.828,197.432-84.843
			c1.848,0.025,1.061,22.587,0.949,25.567c-0.386,9.78,5.124,25.73,18.301,18.932c48.738-25.167,92.013-59.301,140.355-85.148
			c8.089-4.327,6.495-13.675,0.995-18.225C460.62,167.576,459.706,166.535,458.487,165.636z M324.449,244.111
			c-0.097-9.618-1.102-19.205-3.026-28.721c-0.579-2.843-1.925-4.839-3.661-6.16c-1.803-2.204-4.51-3.752-8.109-3.95
			c-66.232-3.687-123.141,22.216-175.698,57.432c42.421-63.749,94.014-116.469,178.512-120.13c0.989-0.041,1.898-0.208,2.757-0.441
			c5.291-0.376,10.318-3.946,10.344-10.781c0.041-10.121,0.432-20.22,1.112-30.295c35.891,24.888,72.214,49.14,107.628,74.707
			C396.937,197.333,362.021,222.9,324.449,244.111z"/>
	</g>
</g>
<g>
</g>
<g>
</g>
<g>
</g>
<g>
</g>
<g>
</g>
<g>
</g>
<g>
</g>
<g>
</g>
<g>
</g>
<g>
</g>
<g>
</g>
<g>
</g>
<g>
</g>
<g>
</g>
<g>
</g>
</svg>
