<?xml version="1.0" encoding="iso-8859-1"?>
<!-- Generator: Adobe Illustrator 16.0.0, SVG Export Plug-In . SVG Version: 6.00 Build 0)  -->
<!DOCTYPE svg PUBLIC "-//W3C//DTD SVG 1.1//EN" "http://www.w3.org/Graphics/SVG/1.1/DTD/svg11.dtd">
<svg version="1.1" id="Capa_1" xmlns="http://www.w3.org/2000/svg" xmlns:xlink="http://www.w3.org/1999/xlink" x="0px" y="0px"
	 width="486.506px" height="486.506px" viewBox="0 0 486.506 486.506" style="enable-background:new 0 0 486.506 486.506;"
	 xml:space="preserve">
<g>
	<g>
		<path d="M466.387,211.747c6.256-0.894,9.125-5.04,9.399-9.719c0.132-0.884,0.193-1.815,0.143-2.818
			c-1.625-33.289-6.871-65.991-14.762-98.355c-0.046-0.167-0.117-0.297-0.163-0.457c-0.67-5.819-4.758-10.92-12.375-10.384
			c-37.825,2.646-79.303,4.971-122.268,7.109c14.641-8.751,27.99-19.786,39.421-34.677c12.192-15.876,31.118-50.262,1.371-60.268
			c-24.532-8.246-55.355,8.737-75.454,21.051c-22.16,13.581-41.954,31.651-55.944,53.489c-13.149-19.421-31.115-34.858-53.75-44.199
			c-23.379-9.646-53.22-14.314-76.484-1.81c-22.323,12.002-16.603,36.805-2.496,52.562c8.008,8.947,18.707,16.572,29.81,22.468
			c-38.775,1.668-76.21,3.329-110.596,5.075c-6.167,0.312-10.047,4.067-11.664,8.623c-1.716,2.037-2.78,4.768-2.636,8.277
			c1.27,30.336,2.58,60.667,3.9,90.998c0.312,7.109,5.205,11.174,10.664,12.241c1.731,1.102,3.786,1.871,6.236,2.059
			c4.42,0.338,8.965,0.6,13.472,0.884C57.91,313.458,79.91,391.943,82.038,473.501c0.167,6.357,4.024,10.293,8.727,11.821
			c1.589,0.741,3.44,1.173,5.573,1.179c123.268,0.299,242.405-13.848,363.55-31.661c1.758-0.265,3.189-0.817,4.434-1.523
			c7.236,1.071,14.96-3.001,14.208-12.31c-5.586-69.232-17.671-158.433-28.071-227.046
			C455.83,213.227,461.151,212.496,466.387,211.747z M352.071,26.434c1.752-0.165,3.443-0.13,5.134,0.094
			c-0.762,9.433-12.796,21.46-18.153,27.776c-21.937,25.854-55.132,35.759-86.833,45.354
			C270.266,64.186,313.337,30.125,352.071,26.434z M116.263,57.3c-0.833-2.346,0.104-3.499,4.486-5.245
			c36.67-14.587,78.305,13.746,97.72,45.539c-29.18-5.896-57.957-4.243-84.043-21.693C127.894,71.539,119.018,65.09,116.263,57.3z
			 M37.361,207.575c-1.036-23.788-2.059-47.578-3.06-71.369c60.413-3.032,131.251-5.845,202.063-8.932
			c2.681,1.846,6.183,2.575,10.321,1.27c2.141-0.67,4.264-1.343,6.391-2.008c65.105-2.887,129.488-6.025,185.021-9.829
			c5.372,23.582,9.308,47.284,11.131,71.389C326.687,205.267,161.053,216.104,37.361,207.575z M246.533,233.227
			c23.128-1.265,46.213-2.887,69.027-4.753c0.482,0.69,1.011,1.368,1.676,2.023c14.097,13.911,29.143,26.723,44.691,38.905h-19.896
			c-3.021,0-5.479,0.863-7.408,2.244c-3.926,0.979-7.43,3.702-9.029,8.597c-3.306,10.096-6.042,20.307-8.322,30.636
			c-27.183-18.25-51.104-40.188-71.717-65.826c0.371-2.43,0.767-4.854,1.115-7.292C246.895,236.149,246.795,234.651,246.533,233.227
			z M221.044,234.471c-4.273,29.152-10.544,57.798-18.324,86.143c-7.546-9.852-15.173-19.646-23.092-29.203
			c-4.702-5.678-10.862-5.281-15.401-1.98c-9.1,3.768-18.268,7.327-27.528,10.623c5.017-20.855,8.023-42.051,8.803-63.571
			C170.306,236.293,195.617,235.583,221.044,234.471z M451.514,429.993c-114.687,17.001-227.531,28.614-344.008,30.341
			c-3.869-76.362-23.424-150.318-38.547-225.043c16.453,0.665,33.327,1.066,50.549,1.19c-1.031,26.319-5.735,51.831-13.472,77.119
			c-4.654,8.795,2.209,22.638,14.563,19.037c15.61-4.555,30.841-10.15,45.895-16.265c9.963,12.324,19.609,24.897,29.123,37.587
			c0.328,0.442,0.708,0.833,1.066,1.239c5.128,8.084,20.307,9.014,23.993-3.047c7.472-24.471,13.898-49.129,19-74.098
			c22.566,24.913,48.642,46.144,77.597,63.668c1.97,1.188,3.895,1.752,5.743,1.889c6.602,2.56,14.527,0.544,15.955-8.358
			c2.163-13.522,5.266-26.776,9.171-39.856h51.089c9.75,0,13.787-8.78,12.203-16.144c-0.381-3.479-2.082-6.881-5.643-9.384
			c-19.539-13.771-38.287-28.427-55.954-44.427c25.73-2.438,50.887-5.19,75.002-8.173
			C434.457,281.157,445.669,365.624,451.514,429.993z"/>
	</g>
</g>
<g>
</g>
<g>
</g>
<g>
</g>
<g>
</g>
<g>
</g>
<g>
</g>
<g>
</g>
<g>
</g>
<g>
</g>
<g>
</g>
<g>
</g>
<g>
</g>
<g>
</g>
<g>
</g>
<g>
</g>
</svg>
