<?xml version="1.0" encoding="iso-8859-1"?>
<!-- Generator: Adobe Illustrator 16.0.0, SVG Export Plug-In . SVG Version: 6.00 Build 0)  -->
<!DOCTYPE svg PUBLIC "-//W3C//DTD SVG 1.1//EN" "http://www.w3.org/Graphics/SVG/1.1/DTD/svg11.dtd">
<svg version="1.1" id="Capa_1" xmlns="http://www.w3.org/2000/svg" xmlns:xlink="http://www.w3.org/1999/xlink" x="0px" y="0px"
	 width="475.45px" height="475.45px" viewBox="0 0 475.45 475.45" style="enable-background:new 0 0 475.45 475.45;"
	 xml:space="preserve">
<g>
	<g>
		<path d="M345.475,9.887C309.329,3.323,270.254,0,229.331,0c-19.713,0-39.873,0.787-59.928,2.331l-0.691,0.051
			c-38.224,2.94-139.756,10.74-139.809,69.898c-0.005,4.949,0.551,10.228,1.881,15.62C34.748,193.917,64.568,347.16,100.5,443.53
			c0.114,0.315,0.292,0.559,0.421,0.863c1.117,5.891,4.951,11.263,12.292,13.584c86.401,27.273,180.345,18.463,267.939,1.731
			c4.306-0.822,7.454-2.722,9.597-5.221c2.854-2.051,5.2-5.088,6.582-9.221c33.768-101.621,47.021-264.337,49.164-371.398
			c0-0.406,0.062-0.805,0.051-1.211C446.028,35.838,391.298,18.199,345.475,9.887z M171.894,43.855l0.696-0.051
			c19.002-1.467,38.09-2.206,56.736-2.206c38.435,0,75.017,3.105,108.719,9.216c34.49,6.259,58.474,16.44,65.628,22.716
			c-0.589,0.65-1.386,1.445-2.452,2.382c-27.401,24.014-87.007,37.782-163.564,37.782c-2.874,0-6.307,0.036-10.212,0.074
			c-4.961,0.051-10.702,0.109-17.009,0.109c-0.073,0-0.147,0-0.223,0c-15.445,0-61.469-0.043-96.484-8.935
			C85.03,97.659,70.492,86.676,70.502,72.315C70.502,72.102,73.279,51.437,171.894,43.855z M365.375,425.732
			c-76.221,14.142-157.384,21.119-232.787-0.057c-28.703-77.799-53.497-197.183-62.363-292.658
			c9.112,4.692,20.005,8.881,33.266,12.245c36.053,9.158,78.302,10.215,106.944,10.215c6.467,0,12.35-0.059,17.43-0.109
			c3.743-0.038,7.036-0.074,9.811-0.074c44.384,0,120.462-4.773,170.836-33.863C404.084,218.919,391.354,344.134,365.375,425.732z"
			/>
	</g>
</g>
<g>
</g>
<g>
</g>
<g>
</g>
<g>
</g>
<g>
</g>
<g>
</g>
<g>
</g>
<g>
</g>
<g>
</g>
<g>
</g>
<g>
</g>
<g>
</g>
<g>
</g>
<g>
</g>
<g>
</g>
</svg>
