<?xml version="1.0" encoding="iso-8859-1"?>
<!-- Generator: Adobe Illustrator 16.0.0, SVG Export Plug-In . SVG Version: 6.00 Build 0)  -->
<!DOCTYPE svg PUBLIC "-//W3C//DTD SVG 1.1//EN" "http://www.w3.org/Graphics/SVG/1.1/DTD/svg11.dtd">
<svg version="1.1" id="Capa_1" xmlns="http://www.w3.org/2000/svg" xmlns:xlink="http://www.w3.org/1999/xlink" x="0px" y="0px"
	 width="464.971px" height="464.971px" viewBox="0 0 464.971 464.971" style="enable-background:new 0 0 464.971 464.971;"
	 xml:space="preserve">
<g>
	<g>
		<path d="M445.892,55.829c-14.091,9.318-28.056,18.819-42,28.355c-21.216-27.678-53.39-43.508-89.153-41.723
			c-44.418,2.214-76.805,36.534-97.01,73.765C193.674,81.518,157.9,51.076,113.656,53.61c-40.248,2.303-73.626,26.283-90.479,62.721
			c-21.912,47.375-8.033,104.604,20.759,145.9c8.886,12.751,18.771,24.485,29.338,35.521c-14.878,9.917-29.983,19.464-45.448,28.416
			c0.47-7.059,0.792-14.132,0.838-21.221c0.114-16.768-25.885-16.758-26,0c-0.099,14.346-1.305,28.619-2.6,42.898
			c-0.64,7.028,3.613,10.994,8.851,12.076c0.978,0.68,2.037,1.305,3.296,1.762c13.03,4.742,26.03,9.48,38.494,15.589
			c14.993,7.354,28.172-15.071,13.122-22.449c-6.251-3.067-12.637-5.814-19.081-8.439c16.183-9.501,31.991-19.606,47.552-30.123
			c40.825,37.227,88.735,67.207,130.766,103.048c4.042,3.442,8.658,3.966,12.697,2.731c3.22-0.111,6.49-1.366,9.252-4.286
			c54.548-57.649,122.502-104.529,161.328-175.307c22.231-40.512,30.442-92.993,10.902-135.96
			c13.867-9.48,27.761-18.934,41.776-28.198C472.932,69.08,459.922,46.554,445.892,55.829z M362.304,262.866
			c-35.922,49.307-86.945,86.782-129.834,130.128c-47.172-38.359-101.704-70.111-142.559-115.163
			c-31.433-34.657-61.212-83.944-48.721-132.901c8.079-31.668,32.918-62.71,68.045-64.724c45.27-2.592,76.665,30.999,97.284,67.692
			c3.436,6.117,9.318,7.394,14.47,5.799c4.583,0.124,9.123-2.044,11.486-7.566c16.58-38.687,44.209-75.438,89.494-77.695
			c24.532-1.224,45.564,12.172,59.931,30.782c-19.312,13.203-38.669,26.317-58.321,39.009c-0.812-6.334-6.286-11.372-12.816-11.372
			c-7.089,0-13,5.914-13,13v19.5c0,2.575,0.793,4.981,2.133,7.02c1.468,3.639,4.718,6.452,8.714,8.117
			c-2.366-0.982,1.909,1.039,2.326,1.252c1.351,0.713,2.671,1.498,3.991,2.272c2.473,1.457,4.916,2.95,7.475,4.266
			c6.307,3.239,14.066,1.688,17.783-4.664c3.189-5.446,1.808-13.267-3.433-16.958c19.616-12.677,38.958-25.771,58.234-38.958
			c0.538,1.27,1.081,2.539,1.563,3.819C414.201,172.864,389.847,225.047,362.304,262.866z"/>
	</g>
</g>
<g>
</g>
<g>
</g>
<g>
</g>
<g>
</g>
<g>
</g>
<g>
</g>
<g>
</g>
<g>
</g>
<g>
</g>
<g>
</g>
<g>
</g>
<g>
</g>
<g>
</g>
<g>
</g>
<g>
</g>
</svg>
