<?xml version="1.0" encoding="iso-8859-1"?>
<!-- Generator: Adobe Illustrator 16.0.0, SVG Export Plug-In . SVG Version: 6.00 Build 0)  -->
<!DOCTYPE svg PUBLIC "-//W3C//DTD SVG 1.1//EN" "http://www.w3.org/Graphics/SVG/1.1/DTD/svg11.dtd">
<svg version="1.1" id="Capa_1" xmlns="http://www.w3.org/2000/svg" xmlns:xlink="http://www.w3.org/1999/xlink" x="0px" y="0px"
	 width="449.219px" height="449.219px" viewBox="0 0 449.219 449.219" style="enable-background:new 0 0 449.219 449.219;"
	 xml:space="preserve">
<g>
	<g>
		<path d="M403.545,356.448c26.654-75.113,37.825-165.436,9.855-241.313C383.706,34.586,313.131-4.944,224.602,0.495
			C136.081-4.949,65.501,34.581,35.806,115.135c-27.964,75.877-16.791,166.2,9.869,241.313
			c-12.157,11.41-24.682,22.455-36.176,34.489c-5.916,6.186-2.104,14.274,3.9,17.032c0.074,0.091,0.127,0.183,0.193,0.273
			c9.338,11.437,18.694,22.856,28.672,33.8c2.491,2.727,5.414,3.61,8.188,3.311c3.786,4.159,10.417,5.819,15.439,0.589
			c28.262-29.401,57.104-58.27,86-87.098c0.62-0.614,1.133-1.249,1.554-1.899c3.052-2.939,4.395-7.367,1.518-12.004
			c-45.217-73.026-34.078-191.348,69.642-204.66c103.723,13.312,114.864,131.629,69.644,204.66
			c-2.874,4.637-1.533,9.064,1.519,12.004c0.422,0.65,0.939,1.285,1.554,1.899c28.899,28.828,57.742,57.696,86.001,87.098
			c5.027,5.23,11.654,3.57,15.442-0.589c2.772,0.3,5.702-0.584,8.19-3.311c9.973-10.943,19.332-22.363,28.67-33.8
			c0.066-0.091,0.117-0.183,0.193-0.273c6.002-2.758,9.815-10.847,3.899-17.032C428.224,378.903,415.692,367.858,403.545,356.448z
			 M393.14,425.473c-25.034-25.918-50.475-51.47-76.002-76.951c-1.711-1.711,18.382-49.297,19.778-55.31
			c4.424-19.058,5.643-38.663,3.215-58.051c-4.688-37.488-22.267-74.934-57.209-95.065c-21.805-12.562-47.61-23.519-72.025-18.387
			c-105.528,22.163-126.135,142.31-78.815,226.818c-25.527,25.486-50.97,51.039-76.002,76.952
			c-8.089-8.973-15.795-18.245-23.435-27.568c9.953-9.766,20.393-19.062,30.524-28.66c0.581-0.559,1.071-1.133,1.488-1.722
			c3.654-2.066,5.916-5.941,4.049-10.999c-25.225-68.38-35.307-145.108-17.793-216.278c9.031-36.722,30.112-72.625,63.808-93.737
			C185.037,2.455,314.782,8.008,367.303,75.545c14.239,18.309,25.537,42.513,30.996,64.706
			c17.514,71.175,7.435,147.898-17.793,216.283c-1.858,5.058,0.396,8.933,4.052,10.999c0.417,0.589,0.904,1.163,1.488,1.722
			c10.131,9.598,20.571,18.896,30.523,28.66C408.938,407.233,401.224,416.5,393.14,425.473z"/>
		<path d="M225.933,37.503c-2.372,0-4.735,0.19-7.056,0.562c-3.557-2.763-8.554-2.648-11.898,0.515
			c-13.576,12.812-17.268,30.054-9.394,43.922c4.997,8.803,14.49,13.853,26.05,13.853c5.918,0,11.946-1.295,17.446-3.735
			c9.582-4.258,16.523-11.349,19.037-19.461c2.031-6.563,1.016-13.426-2.936-19.848C251.099,43.409,239.415,37.503,225.933,37.503z
			 M242.934,67.329c-0.863,3.816-6.287,7.493-10.959,9.292c-2.684,1.033-5.443,1.579-7.987,1.579c-3.549,0-8.376-1.059-11.25-6.119
			c-2.793-4.92-0.645-10.369,2.021-14.424c0.942,0,1.895-0.162,2.839-0.47c8.915-2.932,17.628-1.17,23.376,4.888
			C242.68,63.875,243.325,65.592,242.934,67.329z"/>
		<path d="M121.936,79.102c-2.372,0-4.735,0.19-7.056,0.562c-3.557-2.763-8.559-2.648-11.898,0.516
			c-13.576,12.812-17.268,30.054-9.394,43.922c4.997,8.803,14.49,13.853,26.05,13.853c5.918,0,11.948-1.295,17.445-3.735
			c9.584-4.258,16.526-11.349,19.037-19.461c2.034-6.563,1.018-13.426-2.933-19.847C147.105,85.008,135.42,79.102,121.936,79.102z
			 M138.939,108.927c-0.863,3.816-6.287,7.493-10.961,9.292c-2.684,1.034-5.444,1.58-7.988,1.58c-3.549,0-8.376-1.059-11.25-6.119
			c-2.793-4.921-0.645-10.37,2.021-14.424c0.942,0,1.894-0.163,2.838-0.47c8.919-2.933,17.623-1.17,23.379,4.887
			C138.686,105.475,139.331,107.19,138.939,108.927z"/>
		<path d="M80.769,165.397c-1.539,0-3.083,0.114-4.596,0.337c-2.714-1.906-6.416-1.727-8.891,0.62
			c-9.552,9.011-12.126,21.162-6.563,30.965c3.562,6.271,10.291,9.864,18.486,9.864c4.148,0,8.376-0.904,12.235-2.615
			c6.754-3.006,11.651-8.023,13.437-13.787c1.455-4.705,0.739-9.623-2.085-14.21C98.491,169.573,90.259,165.397,80.769,165.397z
			 M91.564,186.379c-0.495,2.179-3.958,4.591-6.967,5.746c-1.731,0.665-3.516,1.018-5.149,1.018c-3.197,0-5.538-1.262-6.957-3.748
			c-1.623-2.866-0.447-6.106,1.127-8.627c0.574-0.041,1.155-0.155,1.731-0.343c5.789-1.904,11.377-0.774,15.079,3.115
			C91.709,184.896,91.689,185.813,91.564,186.379z"/>
		<path d="M390.769,190.762c1.447-4.689,0.736-9.582-2.077-14.152c-4.28-6.97-12.472-11.129-21.922-11.129
			c-1.533,0-3.062,0.114-4.57,0.338c-2.722-1.909-6.397-1.701-8.86,0.62c-9.506,8.975-12.07,21.069-6.53,30.823
			c3.544,6.241,10.252,9.824,18.402,9.824c4.134,0,8.338-0.899,12.182-2.605C384.112,201.494,388.992,196.497,390.769,190.762z
			 M377.49,186.379c-0.487,2.164-3.931,4.555-6.921,5.708c-1.717,0.668-3.494,1.016-5.113,1.016c-3.185,0-5.516-1.254-6.917-3.728
			c-1.609-2.846-0.446-6.058,1.117-8.562c0.574-0.04,1.147-0.154,1.722-0.343c5.754-1.896,11.313-0.769,14.995,3.101
			C377.637,184.906,377.617,185.813,377.49,186.379z"/>
		<path d="M358.919,114.757c2.031-6.563,1.016-13.426-2.935-19.847c-6.084-9.902-17.768-15.813-31.25-15.813
			c-2.371,0-4.738,0.19-7.059,0.562c-3.555-2.763-8.557-2.648-11.897,0.515c-13.573,12.812-17.265,30.054-9.395,43.922
			c4.997,8.803,14.493,13.853,26.05,13.853c5.922,0,11.949-1.295,17.448-3.735C349.459,129.96,356.401,122.869,358.919,114.757z
			 M341.731,108.927c-0.863,3.816-6.287,7.493-10.958,9.292c-2.687,1.034-5.444,1.58-7.988,1.58c-3.549,0-8.378-1.059-11.253-6.119
			c-2.793-4.921-0.645-10.37,2.021-14.424c0.944,0,1.895-0.163,2.839-0.47c8.922-2.933,17.63-1.17,23.379,4.887
			C341.477,105.475,342.122,107.19,341.731,108.927z"/>
	</g>
</g>
<g>
</g>
<g>
</g>
<g>
</g>
<g>
</g>
<g>
</g>
<g>
</g>
<g>
</g>
<g>
</g>
<g>
</g>
<g>
</g>
<g>
</g>
<g>
</g>
<g>
</g>
<g>
</g>
<g>
</g>
</svg>
