<?xml version="1.0" encoding="iso-8859-1"?>
<!-- Generator: Adobe Illustrator 16.0.0, SVG Export Plug-In . SVG Version: 6.00 Build 0)  -->
<!DOCTYPE svg PUBLIC "-//W3C//DTD SVG 1.1//EN" "http://www.w3.org/Graphics/SVG/1.1/DTD/svg11.dtd">
<svg version="1.1" id="Capa_1" xmlns="http://www.w3.org/2000/svg" xmlns:xlink="http://www.w3.org/1999/xlink" x="0px" y="0px"
	 width="481.679px" height="481.679px" viewBox="0 0 481.679 481.679" style="enable-background:new 0 0 481.679 481.679;"
	 xml:space="preserve">
<g>
	<g>
		<path d="M100.936,229.042c0.015,0.016,0.021,0.036,0.036,0.051c34.626,49.394,80.973,86.448,129.539,121.491
			c1.701,1.229,3.384,1.868,5.007,2.102c3.166,2.209,7.312,2.601,11.522-0.604c48.424-36.846,87.412-82.599,111.781-138.654
			c2.732-6.276,0.071-12.167-4.229-15.503c-2.615-2.58-6.292-4.169-10.75-3.535l-48.622,6.947
			c1.082-32.377,2.168-62.662,3.271-108.212c0.365-0.98,0.645-2.026,0.716-3.214c0.559-8.917,1.147-17.834,1.706-26.751
			c2.271-7.201-1.168-15.879-10.628-14.838c-38.263,4.199-76.484,5.733-114.96,4.474c-1.401-0.046-2.63,0.167-3.778,0.492
			c-6.325-0.497-12.908,3.286-12.647,11.456c1.379,42.563,2.793,99.387,4.212,141.955c-17.811,1.138-35.62,2.097-53.481,2.188
			c-4.237,0.021-7.269,1.879-9.173,4.509c-3.364,3.316-4.684,8.308-1.137,13.461C99.834,227.611,100.411,228.296,100.936,229.042z
			 M175.323,229.79c6.807-0.457,10.587-5.449,11.342-10.75c0.406-1.249,0.655-2.61,0.604-4.179
			c-1.378-41.264-2.742-96.791-4.083-138.06c25.463,0.584,50.833-0.147,76.187-1.976c-0.487,1.127-0.822,2.376-0.898,3.818
			c-3.285,65.826-1.812,79.719-1.731,145.596c0.005,6.597,5.053,9.938,10.166,10.039c1.102,0.315,2.311,0.478,3.702,0.361
			c12.654-1.066,25.334-1.554,38.008-2.224c-19.773,34.145-44.797,64.155-74.829,90.2c-0.198,0.173-0.328,0.36-0.51,0.538
			c-36.704-26.883-72.026-55.446-100.402-90.962C147.031,231.623,161.176,230.739,175.323,229.79z"/>
		<path d="M478.164,333.969c0-0.879-0.102-1.696-0.274-2.458c2.245-6.18-0.787-14.31-9.262-14.01
			c-0.203,0.005-0.406,0.021-0.609,0.025c-0.087,0-0.168-0.025-0.254-0.025c-0.219,0-0.427,0.051-0.646,0.071
			c-25.583,0.938-51.1,2.635-76.489,5.996c-7.759,1.031-10.938,8.745-9.521,14.503c0.006,0.087-0.015,0.147-0.01,0.229
			c0.559,9.856,1.438,19.678,2.382,29.488c-95.669,0.142-191.313,2.478-286.929,5.642c1.29-15.793-1.196-31.367-2.313-47.266
			c-0.421-5.972-4.431-9.974-10.4-10.4c-23.389-1.66-46.758-2.468-70.198-1.731c-5.553,0.178-8.777,3.875-9.725,8.1
			c-1.008,1.519-1.617,3.417-1.543,5.764c0.898,30.016,2.387,60.169-2.232,89.966c-0.566,3.677,0.63,6.739,2.643,8.988
			c1.643,2.473,4.367,4.22,8.262,4.185c151.674-1.478,303.526,8.282,454.987-3.469c1.3-0.097,2.432-0.427,3.478-0.868h1.722
			c5.667,0,10.399-4.732,10.399-10.399c0-0.239-0.091-0.457-0.106-0.69c0.138-0.858,0.208-1.763,0.106-2.772
			C479.144,386.597,478.235,360.324,478.164,333.969z M21.908,410.174c2.539-23.704,2.257-47.408,1.597-71.254
			c14.305,1.035,28.625,1.797,42.957,2.438c0.056,15.879,1.595,31.615,3.887,47.377c0.018,0.117,0.059,0.203,0.079,0.314
			c0.541,4.708,3.834,9.044,9.953,9.055c104.583,0.162,209.183,4.895,313.723,0c0.965-0.046,1.843-0.219,2.666-0.457
			c5.245,0.066,10.176-3.225,9.465-9.943c-1.442-13.761-2.752-27.537-3.722-41.345c16.097-1.041,32.209-1.797,48.327-2.462
			c-0.65,21.357,0.462,42.532,3.564,63.672C310.413,417.715,166.084,409.26,21.908,410.174z"/>
	</g>
</g>
<g>
</g>
<g>
</g>
<g>
</g>
<g>
</g>
<g>
</g>
<g>
</g>
<g>
</g>
<g>
</g>
<g>
</g>
<g>
</g>
<g>
</g>
<g>
</g>
<g>
</g>
<g>
</g>
<g>
</g>
</svg>
