<?xml version="1.0" encoding="iso-8859-1"?>
<!-- Generator: Adobe Illustrator 16.0.0, SVG Export Plug-In . SVG Version: 6.00 Build 0)  -->
<!DOCTYPE svg PUBLIC "-//W3C//DTD SVG 1.1//EN" "http://www.w3.org/Graphics/SVG/1.1/DTD/svg11.dtd">
<svg version="1.1" id="Capa_1" xmlns="http://www.w3.org/2000/svg" xmlns:xlink="http://www.w3.org/1999/xlink" x="0px" y="0px"
	 width="483.27px" height="483.27px" viewBox="0 0 483.27 483.27" style="enable-background:new 0 0 483.27 483.27;"
	 xml:space="preserve">
<g>
	<g>
		<path d="M435.834,208.912c-1.274-2.417-2.976-3.999-4.854-4.971c-1.854-1.508-4.275-2.501-7.256-2.625
			c-19.77-0.843-39.467-0.015-59.21,1.018c-15.711,0.823-15.798,25.329,0,24.501c17.499-0.914,34.967-1.6,52.471-1.175
			c11.745,22.32,23.491,44.643,35.241,66.961c-38.811,0.99-77.586,2.351-116.291,5.672c-2.006,0.172-3.747,0.741-5.25,1.579
			c-2.859,0.903-5.438,2.874-7.368,5.51c-6.383,8.733-13.249,16.996-20.946,24.562c-44.799,0.011-89.581,0.203-134.349,1.895
			c-6.545-8.673-12.261-17.971-17.501-27.477c-2.564-4.652-6.657-6.297-10.677-5.962c-0.627-0.066-1.251-0.138-1.945-0.106
			c-33.984,1.543-67.92,1.071-101.879-0.26c16.988-20.972,34.251-41.71,52.049-62.009h37.58c15.798,0,15.798-24.501,0-24.501H83.796
			c-3.067,0-5.522,0.942-7.399,2.428c-1.508,0.635-2.976,1.666-4.326,3.199c-23.702,26.956-46.624,54.555-68.903,82.687
			c-0.693,0.874-1.213,1.777-1.643,2.691c-1.15,1.809-1.765,4.108-1.437,6.993c4.321,38.104,9.694,76.002,17.788,113.503
			c1.587,7.348,7.759,9.673,13.444,8.475c1.069,0.295,2.199,0.508,3.474,0.513c138.532,0.65,276.95-10.669,415.467-4.077
			c4.342,0.208,7.449-1.528,9.395-4.123c0.137-0.168,0.259-0.366,0.386-0.544c0.178-0.264,0.36-0.522,0.513-0.808
			c0.625-1.025,1.173-2.158,1.519-3.523c9.485-37.374,17.087-74.981,20.637-113.401c0.903-2.809,0.802-6.028-0.944-9.349
			L435.834,208.912z M440.729,403.056c-133.693-5.581-267.305,4.818-401.013,4.458c-5.776-28.274-10.108-56.751-13.586-85.391
			c35.612,1.563,71.196,2.239,106.825,0.812c5.939,10.09,12.484,19.707,19.758,28.934c0.937,1.184,2.138,2.017,3.448,2.601
			c1.856,1.346,4.268,2.122,7.259,2.006c47.281-1.899,94.582-2.042,141.894-2.047c1.036,0,1.996-0.117,2.899-0.31
			c2.641-0.081,5.348-1.026,7.806-3.275c9.358-8.566,17.361-18.312,24.948-28.422c38.633-3.153,77.337-4.468,116.066-5.433
			C453.647,346.061,447.712,374.629,440.729,403.056z"/>
		<path d="M235.34,280.28c2.158,4.072,6.119,6.891,10.664,6.286c4.54,0.604,8.506-2.214,10.664-6.286
			c38.303-29.381,63.592-62.134,100.179-94.804c10.125-9.044-1.219-22.973-12.061-20.164c-1.609-0.693-3.514-1.026-5.789-0.752
			c-12.238,1.478-24.512,2.575-36.77,3.775c2.026-24.771,4.52-80.118,7.16-104.832c0.781-7.264-4.062-11.093-9.648-11.613
			c-1.361-0.467-2.89-0.727-4.642-0.64c-22.155,1.145-34.169,0.99-49.099,1.437c-14.929-0.452-26.938-0.292-49.097-1.437
			c-1.757-0.092-3.28,0.172-4.644,0.64c-5.583,0.521-10.425,4.342-9.646,11.613c2.648,24.714,5.139,80.062,7.16,104.832
			c-12.261-1.201-24.532-2.298-36.767-3.775c-2.277-0.274-4.182,0.059-5.794,0.752c-10.841-2.809-22.181,11.12-12.058,20.164
			C171.746,218.146,197.037,250.889,235.34,280.28z M203.029,194.17c7.045,0.805,10.862-3.707,11.552-9.075
			c0.579-1.487,0.843-3.224,0.698-5.22c-1.805-24.347-4.271-79.133-6.833-103.51c1.932,1.701,4.585,2.722,8.054,2.45
			c13.025-1.008,21.584-1.435,29.503-1.678c7.922,0.244,16.479,0.67,29.509,1.678c3.468,0.271,6.118-0.754,8.053-2.45
			c-2.564,24.377-5.032,79.168-6.834,103.51c-0.143,1.996,0.121,3.732,0.695,5.22c0.695,5.368,4.509,9.875,11.558,9.075
			c8.022-0.917,16.066-1.666,24.11-2.422c-25.675,22.815-41.33,45.291-67.086,65.98c-25.752-20.69-41.411-43.16-67.087-65.98
			C186.96,192.505,195.006,193.249,203.029,194.17z"/>
	</g>
</g>
<g>
</g>
<g>
</g>
<g>
</g>
<g>
</g>
<g>
</g>
<g>
</g>
<g>
</g>
<g>
</g>
<g>
</g>
<g>
</g>
<g>
</g>
<g>
</g>
<g>
</g>
<g>
</g>
<g>
</g>
</svg>
