<?xml version="1.0" encoding="iso-8859-1"?>
<!-- Generator: Adobe Illustrator 16.0.0, SVG Export Plug-In . SVG Version: 6.00 Build 0)  -->
<!DOCTYPE svg PUBLIC "-//W3C//DTD SVG 1.1//EN" "http://www.w3.org/Graphics/SVG/1.1/DTD/svg11.dtd">
<svg version="1.1" id="Capa_1" xmlns="http://www.w3.org/2000/svg" xmlns:xlink="http://www.w3.org/1999/xlink" x="0px" y="0px"
	 width="497.312px" height="497.312px" viewBox="0 0 497.312 497.312" style="enable-background:new 0 0 497.312 497.312;"
	 xml:space="preserve">
<g>
	<g>
		<path d="M248.832,491.99c8.349,2.163,16.925,3.377,25.547,3.758c3.946,2.031,8.771,2.346,13.792-0.63
			c126.203-74.763,192.349-258.608,196.681-402.76c4.651-8.927,0.305-22.274-11.228-22.879c-3.514-0.726-7.262-0.343-10.532,1.13
			c-76.266,10.286-155.979,2.075-206.338-63.018c-2.468-3.187-5.459-4.902-8.544-5.562c-2.534-1.557-5.7-2.346-9.48-1.909
			c-5.314,0.614-8.876,3.328-10.936,6.868c-1.597,0.792-3.146,1.815-4.565,3.293c-52.352,54.55-121.795,76.604-196.035,76.162
			c-8.178-0.764-16.841,4.078-16.562,14.663C14.475,247.132,95.192,460.77,248.832,491.99z M42.018,116.748
			c75.403-1.93,144.281-27.805,198.582-80.91c54.304,61.586,134.125,75.056,213.225,66.725c-0.355,6.66-0.93,13.264-1.569,19.853
			c-135.846,7.914-271.329,22.968-407.553,20.944C43.516,134.432,42.607,125.541,42.018,116.748z M448.177,153.276
			c-17.93,106.433-74.564,252.663-170.152,312.009c-1.625-0.025-3.204-0.071-4.707-0.157c-0.787-0.193-1.574-0.371-2.442-0.442
			c-3.393-0.284-6.724-0.736-10.045-1.254c-1.812-0.396-3.671-0.843-5.661-1.386c-1.529-0.422-2.961-0.554-4.337-0.559
			C139.173,435.985,72.616,282.117,49.976,174.05C183.059,175.594,315.45,161.145,448.177,153.276z"/>
		<path d="M171.74,324.904v-43.812c17.544,9.369,34.083,20.403,49.158,33.53c12.542,10.928,30.955-7.333,18.331-18.327
			c-15.782-13.751-32.821-25.704-51.026-35.784c10.248-11.662,20.99-23.008,33.284-32.425c5.596-4.289,8.559-11.06,4.649-17.73
			c-3.235-5.522-12.111-8.96-17.732-4.648c-13.477,10.326-25.359,22.079-36.663,34.527v-31.981c0-16.717-25.923-16.717-25.923,0
			v116.651C145.817,341.616,171.74,341.616,171.74,324.904z"/>
		<path d="M279.747,305.46c-0.102-20.881-1.057-41.721-2.326-62.545c7.896,8.688,15.661,17.503,23.399,26.35
			c1.117,1.274,2.315,2.152,3.534,2.833c5.627,3.818,14.127,4.001,18.981-3.296c7.023-10.566,13.99-21.154,21.165-31.6
			c1.234,19.469-0.005,39.009-3.809,58.33c-3.219,16.331,21.765,23.288,24.994,6.892c6.692-33.967,6.692-67.969,0-101.938
			c-2.315-11.783-15.838-11.461-22.089-4.311c-1.356,0.843-2.646,1.924-3.758,3.375c-10.369,13.462-19.865,27.507-29.255,41.639
			c-12.648-14.34-25.471-28.525-38.958-42.101c-9.379-9.45-22.851,0.238-22.041,10.564c-0.124,0.911-0.155,1.884-0.084,2.917
			c2.204,30.94,4.175,61.86,4.322,92.887C253.9,322.172,279.823,322.177,279.747,305.46z"/>
	</g>
</g>
<g>
</g>
<g>
</g>
<g>
</g>
<g>
</g>
<g>
</g>
<g>
</g>
<g>
</g>
<g>
</g>
<g>
</g>
<g>
</g>
<g>
</g>
<g>
</g>
<g>
</g>
<g>
</g>
<g>
</g>
</svg>
