<?xml version="1.0" encoding="iso-8859-1"?>
<!-- Generator: Adobe Illustrator 16.0.0, SVG Export Plug-In . SVG Version: 6.00 Build 0)  -->
<!DOCTYPE svg PUBLIC "-//W3C//DTD SVG 1.1//EN" "http://www.w3.org/Graphics/SVG/1.1/DTD/svg11.dtd">
<svg version="1.1" id="Capa_1" xmlns="http://www.w3.org/2000/svg" xmlns:xlink="http://www.w3.org/1999/xlink" x="0px" y="0px"
	 width="477.646px" height="477.647px" viewBox="0 0 477.646 477.647" style="enable-background:new 0 0 477.646 477.647;"
	 xml:space="preserve">
<g>
	<g>
		<path d="M364.76,70.021c-4.921-0.619-9.902-0.937-14.803-0.937c-42.964,0-76.169,22.968-98.314,45.318
			c-21.307-43.45-54.604-71.354-94.714-79.054c-6.233-1.196-12.677-1.806-19.162-1.806c-48.238,0-100.476,34.576-124.212,82.215
			c-23.945,48.068-16.14,100.514,23.222,155.887c39.644,55.771,89.126,104.297,136.968,151.212l9.813,9.623
			c3.745,7.108,10.872,11.623,18.568,11.623c0,0,0,0,0.005,0c3.189,0,6.345-0.767,9.372-2.27l17.268-8.587
			c60.014-29.782,122.083-60.586,177.042-101.331c54.567-40.462,78.246-87.91,70.355-141.033
			C468.229,137.371,424.381,77.529,364.76,70.021z M437.243,220.647c-1.945,45.458-52.948,78.049-86.691,99.619
			c-46.001,29.402-95.415,54.223-143.417,78.125c-38.938-38.272-79.059-77.865-114.211-120.703
			c-25.405-30.966-63.797-77.759-51.572-121.567c11.044-39.57,51.859-81.943,95.006-81.943c2.772,0,5.565,0.18,8.29,0.533
			c49.924,6.51,71.668,56.126,79.094,78.935c-0.322,4.593,1.145,9.084,4.238,12.85c4.103,4.991,10.473,7.975,17.031,7.975
			c6.82,0,12.989-3.296,16.956-9.041c11.496-16.691,43.086-55.516,88.006-55.516c4.732,0,9.531,0.45,14.259,1.338
			C408.344,119.509,439.157,175.818,437.243,220.647z"/>
		<path d="M286.747,189.806c-21.317-2.684-39.857,8.211-53.405,23.564c-8.071-19.154-22.427-35.68-43.846-39.789
			c-25.151-4.827-52.014,13.576-62.982,35.589c-12.083,24.253-4.436,47.957,10.552,69.04c19.687,27.69,44.407,51.308,68.55,75.032
			c1.277,2.915,4.72,5.108,8.422,3.266c30.866-15.382,62.345-30.361,90.167-50.979c20.779-15.406,35.389-35.576,31.412-62.377
			C332.002,218.827,312.157,193.007,286.747,189.806z"/>
	</g>
</g>
<g>
</g>
<g>
</g>
<g>
</g>
<g>
</g>
<g>
</g>
<g>
</g>
<g>
</g>
<g>
</g>
<g>
</g>
<g>
</g>
<g>
</g>
<g>
</g>
<g>
</g>
<g>
</g>
<g>
</g>
</svg>
