<?xml version="1.0" encoding="iso-8859-1"?>
<!-- Generator: Adobe Illustrator 16.0.0, SVG Export Plug-In . SVG Version: 6.00 Build 0)  -->
<!DOCTYPE svg PUBLIC "-//W3C//DTD SVG 1.1//EN" "http://www.w3.org/Graphics/SVG/1.1/DTD/svg11.dtd">
<svg version="1.1" id="Capa_1" xmlns="http://www.w3.org/2000/svg" xmlns:xlink="http://www.w3.org/1999/xlink" x="0px" y="0px"
	 width="498.881px" height="498.881px" viewBox="0 0 498.881 498.881" style="enable-background:new 0 0 498.881 498.881;"
	 xml:space="preserve">
<g>
	<g>
		<path d="M398.621,4.708c-0.717-1.29-1.625-2.193-2.626-2.828c-2.493-2.125-6.067-2.48-9.13-0.904
			c-5.169,2.661-9.841,6.167-15.006,8.828c-2.482,1.275-3.798,3.934-3.879,6.614c-1.412,2.138-1.711,4.921,0.142,7.79
			c0.519,0.802,1.036,1.597,1.564,2.396c-16.833,16.76-33.916,33.261-50.785,49.982c-5.91-5.667-11.831-11.321-17.747-16.983
			c-3.407-3.265-7.617-2.62-10.456-0.312c-0.563,0.317-1.127,0.698-1.711,1.239c-19.708,18.167-39.494,36.262-58.635,55.04
			c-10.141,9.948-22.089,18.18-31.349,29.026c-3.89,4.555-10.313,10.922-11.555,17.074c-0.239,1.181,0.686,19.116,3.448,16.369
			c-8.658,8.607-17.669,16.849-26.332,25.458c-0.355,0.355-0.63,0.724-0.901,1.095c-2.605,2.179-3.773,5.751-1.222,9.415
			c10.443,15.028,21.955,29.249,33.908,43.094c3.567,4.128,8.371,2.859,11.124-0.386c0.089-0.056,0.183-0.081,0.274-0.138
			c2.928-1.828,5.736-3.839,8.582-5.778c-2.648,15.239-6.081,30.306-9.679,45.458c-1.846,4.026-0.774,9.663,4.68,11.44
			c7.883,2.569,15.95,4.494,23.836,7.059c1.655,0.543,3.136,0.518,4.43,0.143c3.179,0.091,6.246-1.595,7.109-5.688
			c4.52-21.389,9.833-42.563,15.891-63.563c0.473-1.633,0.406-3.088,0.031-4.373c13.451-11.798,27.004-23.488,40.288-35.442
			c29.468,31.819,26.289,70.828,7.312,106.714c-9.161,17.341-18.986,37.902-32.408,52.359
			c-16.239,17.483-38.696,13.832-60.255,14.04c-31.397,0.3-62.751,1.803-94.158,1.417c-7.358-0.086-9.407,8.059-6.188,12.721
			c-0.079,10.892-0.774,21.769-0.858,32.666c-16.65,17.758-32.136,36.49-47.05,55.726c-5.225,3.814-3.664,14.355,4.659,14.533
			c86.823,1.869,184.3,5.825,271.017-0.883c0.33-0.025,0.63-0.112,0.944-0.168c5.586,0.279,11.426-5.525,7.688-11.786
			c-2.555-4.275-5.353-8.343-8.257-12.319c13.243-11.725,14.848-28.437,1.441-41.197c-1.731-1.65-3.676-2.265-5.534-2.174
			c-10.726-2.6-21.49-0.781-29.534,6.779c-3.306-3.036-6.632-6.048-10.009-9.014v-1.848c0.519-1.331,0.681-2.869,0.29-4.596
			c-0.132-0.579-0.168-1.163-0.29-1.742v-4.271c74.017-50.982,122.628-184.63,46.226-251.093
			c7.022-7.666,13.873-15.514,20.307-23.771c2.955-3.791,1.97-8.315-0.533-11.174c-0.325-0.625-0.706-1.236-1.234-1.825
			c-3.117-3.489-6.388-6.833-9.587-10.237c14.289-15.082,28.325-30.39,40.751-47.04c0.167,0.231,0.324,0.47,0.497,0.698
			c0.401,0.541,0.838,0.998,1.3,1.399c1.915,2.635,5.444,4.42,8.562,3.136c5.916-2.44,16.534-7.666,21.155-12.157
			c0.873-0.848,1.432-1.879,1.812-2.971c1.783-2.204,2.347-5.261,0.32-8.424C421.532,34.1,407.405,20.506,398.621,4.708z
			 M203.151,240.548c-8.132-9.618-16.052-19.406-23.42-29.623c7.076-6.896,14.279-13.649,21.312-20.591
			c8.846,10.861,17.608,21.797,26.5,32.623C219.703,229.229,211.591,235.104,203.151,240.548z M233.101,297.512
			c-3.255-0.97-6.52-1.904-9.785-2.838c3.963-16.824,7.696-33.673,10.146-50.793c0.264-1.876-0.058-3.552-0.759-4.971
			c1.647-1.28,3.349-2.491,4.977-3.791c2.838,3.359,5.687,6.718,8.584,10.031C241.343,262.474,236.976,279.932,233.101,297.512z
			 M133.017,396.294c0.076,1.6,137.07-3.519,151.487-4.24c0.319,7.739,1.325,16.371,1.325,24.283v2.382
			c-47.568,3.265-105.812,1.726-153.457,1.427C132.547,412.194,132.875,404.247,133.017,396.294z M337.492,442.621
			c4.896,5.86,3.361,10.953-1.879,16.047c-4.027-4.672-8.19-9.228-12.562-13.599C327.194,441.737,331.941,441.245,337.492,442.621z
			 M332.409,480.036c-77.149,5.078-165.006,2.315-242.245,0.467c12.226-15.295,24.872-30.225,38.309-44.493
			c49.741,0.238,110.065,2.021,159.723-1.549C304.215,448.46,319.907,462.881,332.409,480.036z M300.306,394.203
			c0.146-3.25,0.37-6.5,0.675-9.729c0.533-5.764-4.413-8.166-8.876-7.282c-0.838-0.314-1.763-0.518-2.823-0.518h-2.164
			c43.519-56.355,80.826-123.857,27.503-181.561c7.647-7.114,15.102-14.419,22.404-21.881
			C402.282,230.93,362.805,345.327,300.306,394.203z M252.997,228.625c-17.222-20.076-33.487-40.954-50.412-61.278
			c29.041-32.344,60.956-61.769,92.886-91.2c19.291,18.433,38.618,36.835,56.579,56.579
			C322.862,168.524,287.657,198.253,252.997,228.625z M345.921,103.173c-5.149-5.226-10.339-10.415-15.595-15.536
			c15.493-15.361,31.148-30.549,46.642-45.905c3.229,4.738,6.453,9.48,9.658,14.233C374.418,72.828,360.241,88.089,345.921,103.173z
			 M408.761,54.811c-0.198,0.129-0.417,0.234-0.614,0.358c-8.12-11.253-15.763-22.833-23.329-34.469
			c1.133-0.696,2.275-1.394,3.397-2.1c6.77,12.108,18.921,21.995,26.259,33.766C414.341,52.455,408.934,54.696,408.761,54.811z"/>
		<path d="M291.561,102.701l29.569,29.562c-3.103,4.789-6.819,8.98-11.369,12.703c-3.296,2.693-2.783,8.251,0,11.029
			c3.229,3.229,7.743,2.688,11.029,0c7.038-5.756,12.68-13.005,16.818-21.082c2.057-4.019,0.462-7.81-2.331-9.968
			c-0.366-0.711-0.823-1.419-1.488-2.079L302.59,91.667C295.471,84.547,284.442,95.582,291.561,102.701z"/>
	</g>
</g>
<g>
</g>
<g>
</g>
<g>
</g>
<g>
</g>
<g>
</g>
<g>
</g>
<g>
</g>
<g>
</g>
<g>
</g>
<g>
</g>
<g>
</g>
<g>
</g>
<g>
</g>
<g>
</g>
<g>
</g>
</svg>
