<?xml version="1.0" encoding="iso-8859-1"?>
<!-- Generator: Adobe Illustrator 16.0.0, SVG Export Plug-In . SVG Version: 6.00 Build 0)  -->
<!DOCTYPE svg PUBLIC "-//W3C//DTD SVG 1.1//EN" "http://www.w3.org/Graphics/SVG/1.1/DTD/svg11.dtd">
<svg version="1.1" id="Capa_1" xmlns="http://www.w3.org/2000/svg" xmlns:xlink="http://www.w3.org/1999/xlink" x="0px" y="0px"
	 width="482.314px" height="482.313px" viewBox="0 0 482.314 482.313" style="enable-background:new 0 0 482.314 482.313;"
	 xml:space="preserve">
<g>
	<g>
		<path d="M464.823,75.148c-135.805,2.098-313.885,7.069-449.652,2.555c-5.558-0.188-8.747,3.29-9.681,7.441
			c-0.119,0.353-0.277,0.686-0.345,1.059c-0.884,4.667-1.242,9.297-1.242,14.03c-3.504,49.774-2.75,146.447-3.9,196.296
			c-0.041,1.823,0.328,3.372,0.967,4.697c1.107,4.058,4.238,7.688,9.433,8.303c138.367,16.396,319.098,4.123,457.589-3.899
			c2.468-0.147,4.474-0.98,6.032-2.234c4.606-0.584,8.628-3.859,8.268-9.897c-3.266-53.976-3.463-154.812-3.469-208.864
			C478.823,76.347,470.891,73.194,464.823,75.148z M20.927,289.843c0.947-47.626,0.426-142.062,3.775-189.609
			c0-0.5,0.021-0.998,0.025-1.498c130.362,3.91,302.939-0.571,433.322-2.671c0.051,47.484,0.452,141.747,3.052,189.172
			C328.388,293.053,153.528,304.184,20.927,289.843z"/>
		<path d="M284.83,194.377c-10.502-8.391-23.491-12.111-36.747-14.825c-0.442-11.095-0.889-22.193-1.384-33.289
			c5.773,1.27,11.304,3.125,16.001,5.299c11.491,5.304,17.687-13.312,6.348-18.548c-6.729-3.105-14.787-5.522-23.232-6.822
			c-0.035-0.771-0.073-1.541-0.099-2.305c-0.541-12.495-20.111-13.81-19.565-1.186c0.035,0.907,0.076,1.811,0.114,2.714
			c-12.553,1.011-24.41,5.195-32.522,14.091c-14.945,16.387-3.867,44.684,15.465,51.684c6.401,2.318,13.162,3.712,20,4.918
			c0.521,14.98,0.843,29.968,1.039,44.961c-8.962-4.215-17.118-10.438-22.186-15.965c-8.548-9.308-23.234,3.664-14.675,12.995
			c8.574,9.344,22.338,18.661,37.013,23.679c-0.01,2.001,0.045,3.991,0.036,5.986c-0.069,12.589,19.494,13.843,19.57,1.184
			c0.005-1.147-0.035-2.295-0.021-3.443c10.069,0.209,19.683-2.519,27.452-9.698C294.041,240.48,305.868,211.193,284.83,194.377z
			 M219.91,173.92c-12.464-3.121-19.306-18.578-5.423-25.552c3.841-1.93,8.152-2.988,12.646-3.463
			c0.452,10.303,0.873,20.601,1.29,30.904C225.536,175.235,222.688,174.619,219.91,173.92z M263.044,242.1
			c-3.95,2.677-8.47,3.799-13.197,3.845c-0.163-15.402-0.485-30.804-1-46.195c8.191,1.886,16.097,4.56,23.176,9.394
			C283.829,217.2,271.236,236.527,263.044,242.1z"/>
		<path d="M467.56,310.83c-150.745,12.924-302.254,19.576-453.258,6.932c-13.373-1.117-13.264,19.688,0,20.8
			c151.004,12.639,302.513,5.986,453.258-6.932C480.819,330.492,480.925,309.678,467.56,310.83z"/>
		<path d="M467.56,342.029c-150.745,12.924-302.254,19.575-453.258,6.932c-13.373-1.117-13.264,19.688,0,20.8
			c151.004,12.639,302.513,5.986,453.258-6.932C480.819,361.691,480.925,340.877,467.56,342.029z"/>
		<path d="M467.56,373.229c-150.745,12.924-302.254,19.575-453.258,6.932c-13.373-1.117-13.264,19.688,0,20.799
			c151.004,12.64,302.513,5.987,453.258-6.931C480.819,392.891,480.925,372.076,467.56,373.229z"/>
		<path d="M87.725,137.788c0-0.173,0.041-0.333,0.025-0.505c-0.521-6.764-2.531-13.401-7.884-17.936
			c-5.583-4.735-12.916-6.14-20.065-5.464c-0.566,0.051-1.122,0.162-1.658,0.302c-6.578,0.69-12.601,3.151-17.503,7.835
			c-0.666,0.635-1.132,1.315-1.508,2.003c-0.442,0.645-0.843,1.335-1.147,2.089c-2.158,5.284-2.669,10.895-1.531,16.448
			c-0.129,1.539,0.178,3.115,1.016,4.512c3.285,5.512,7.924,9.636,13.198,13.197c0.368,0.249,0.769,0.437,1.175,0.6
			c0.587,0.338,1.231,0.635,1.991,0.838c8.351,2.229,16.775,0.998,24.204-3.387c0.843-0.498,1.488-1.092,2.034-1.722
			c0.069-0.051,0.135-0.092,0.198-0.145c5.256-4.591,8.178-11.54,7.482-18.517C87.746,137.882,87.73,137.839,87.725,137.788z
			 M71.76,142.409c-0.01-0.239-0.909,1.513-1.082,1.765c0.599-0.874-0.681,0.478-1.211,1.013c-3.519,1.892-7.066,2.486-10.991,1.554
			c-2.361-1.607-4.816-3.758-6.642-6.282c-0.036-0.233-0.046-0.467-0.109-0.701c-0.637-2.511-0.373-4.669,0.396-7.061
			c2.501-2.188,5.482-3.15,8.985-3.214c0.437-0.011,0.823-0.084,1.222-0.145c2.574-0.048,4.92,0.279,6.703,1.295
			c0.863,0.488,1.348,1.148,1.894,2.036c0.67,1.099,1.097,2.887,1.227,4.614c0.005,0.04,0.015,0.078,0.021,0.114
			c0,0.183-0.041,0.353-0.021,0.535c0.099,0.947,0.104,1.872,0.063,2.818C72.156,140.602,71.907,141.777,71.76,142.409z"/>
		<path d="M446.517,132.588c0-0.173,0.04-0.333,0.025-0.505c-0.523-6.764-2.534-13.401-7.886-17.936
			c-5.581-4.735-12.914-6.139-20.063-5.464c-0.568,0.051-1.122,0.163-1.66,0.302c-6.576,0.691-12.599,3.151-17.504,7.835
			c-0.665,0.635-1.133,1.315-1.509,2.003c-0.441,0.645-0.843,1.336-1.147,2.09c-2.158,5.284-2.666,10.895-1.528,16.447
			c-0.132,1.539,0.178,3.115,1.016,4.512c3.285,5.513,7.922,9.636,13.197,13.198c0.366,0.249,0.768,0.437,1.174,0.599
			c0.589,0.338,1.233,0.635,1.99,0.838c8.354,2.229,16.777,0.998,24.207-3.387c0.843-0.498,1.487-1.092,2.031-1.722
			c0.07-0.051,0.137-0.091,0.197-0.145c5.256-4.59,8.181-11.54,7.485-18.517C446.538,132.682,446.522,132.639,446.517,132.588z
			 M430.552,137.209c-0.011-0.238-0.909,1.514-1.082,1.765c0.6-0.873-0.681,0.478-1.214,1.013
			c-3.519,1.892-7.063,2.486-10.988,1.554c-2.361-1.607-4.819-3.758-6.643-6.282c-0.035-0.234-0.045-0.467-0.111-0.701
			c-0.635-2.511-0.371-4.669,0.396-7.061c2.503-2.188,5.484-3.151,8.987-3.214c0.437-0.01,0.823-0.084,1.219-0.145
			c2.575-0.048,4.921,0.279,6.703,1.295c0.863,0.487,1.351,1.147,1.895,2.036c0.67,1.1,1.097,2.887,1.229,4.613
			c0.005,0.041,0.016,0.079,0.021,0.114c0,0.183-0.041,0.353-0.021,0.536c0.097,0.947,0.102,1.872,0.061,2.818
			C430.948,135.401,430.699,136.577,430.552,137.209z"/>
	</g>
</g>
<g>
</g>
<g>
</g>
<g>
</g>
<g>
</g>
<g>
</g>
<g>
</g>
<g>
</g>
<g>
</g>
<g>
</g>
<g>
</g>
<g>
</g>
<g>
</g>
<g>
</g>
<g>
</g>
<g>
</g>
</svg>
