<?xml version="1.0" encoding="iso-8859-1"?>
<!-- Generator: Adobe Illustrator 16.0.0, SVG Export Plug-In . SVG Version: 6.00 Build 0)  -->
<!DOCTYPE svg PUBLIC "-//W3C//DTD SVG 1.1//EN" "http://www.w3.org/Graphics/SVG/1.1/DTD/svg11.dtd">
<svg version="1.1" id="Capa_1" xmlns="http://www.w3.org/2000/svg" xmlns:xlink="http://www.w3.org/1999/xlink" x="0px" y="0px"
	 width="477.021px" height="477.02px" viewBox="0 0 477.021 477.02" style="enable-background:new 0 0 477.021 477.02;"
	 xml:space="preserve">
<g>
	<g>
		<path d="M464.035,77.613c-2.22-4.37-6.408-7.759-12.619-8.138C306.612,60.55,161.588,56.084,16.508,57.435
			C5.999,57.534,1.23,66.406,2.104,74.492c-0.35,1.242-0.604,2.554-0.645,4.014c-2.798,102.567-1.437,205.133,2.923,307.642
			c-3.047,7.688-0.749,16.879,9.635,18.372c147.467,21.17,296.475,14.27,444.93,14.081c3.701-0.005,6.682-1.112,8.978-2.89
			c5.275-1.782,9.389-6.326,9.079-13.664c-4.412-104.292-7.414-208.624-7.525-313.017C469.474,83.795,467.244,80.02,464.035,77.613z
			 M34.123,377.088c-3.935-96.502-5.174-193.062-2.76-289.622c136.13-0.896,272.202,3.271,408.094,11.413
			c0.27,96.604,2.956,193.158,6.932,289.676C309.01,389.098,170.649,395.212,34.123,377.088z"/>
		<path d="M60.153,99.57c-19.411,0-19.411,30.097,0,30.097C79.566,129.667,79.561,99.57,60.153,99.57z"/>
		<path d="M413.296,135.684c19.413,0,19.413-30.097,0-30.097S393.888,135.684,413.296,135.684z"/>
		<path d="M66.17,336.333c-19.411,0-19.411,30.098,0,30.098S85.581,336.333,66.17,336.333z"/>
		<path d="M419.318,346.367c-19.413,0-19.413,30.093,0,30.093C438.721,376.464,438.721,346.367,419.318,346.367z"/>
		<path d="M406.293,195.586c-1.817-6.235-7.632-8.455-12.472-8.455c-1.04,0-2.097,0.096-3.153,0.294
			c-9.303,1.76-17.737,3.225-26.659,3.349c-7.475,0.104-11.014,5.025-11.837,9.595l-0.229,0.759
			c-1.249,7.508-1.985,15.465-2.305,24.902l-0.062,1.861l-1.787,0.541c-6.195,1.856-12.608,3.415-19.596,4.758
			c-5.353,1.023-8.501,6.096-8.852,10.58l-0.142,0.67c-3.118,8.724-6.099,16.585-9.11,24.034l-1.731,4.28l-2.763-3.701
			c-8.724-11.7-17.026-27.152-25.055-42.094c-5.738-10.679-11.161-20.771-16.574-29.27c-2.961-4.654-7.099-5.626-10.05-5.626
			c-5.758,0-11.506,3.812-13.075,8.684l-0.335,0.678c-0.711,1.033-1.199,1.976-1.547,2.963
			c-4.857,13.833-9.734,30.679-14.449,46.974c-4.52,15.6-9.188,31.737-13.812,45.113l-1.247,3.605l-2.902-2.483
			c-1.597-1.361-2.882-3.885-4.237-6.571c-0.912-1.792-2.039-4.017-2.788-4.722c-2.361-2.199-5.537-3.402-8.955-3.402l-0.934-0.107
			c-3.026-0.889-6.226-0.335-9.318,1.585c-3.283,2.041-6.652,4.951-10.214,8.043c-4.591,3.977-9.333,8.09-14.247,10.517
			l-1.668,0.823l-4.187-4.169c-6.609-6.612-13.441-13.441-20.889-19.398c-2.828-2.27-6.213-3.519-9.526-3.519
			c-3.186,0-6.108,1.168-8.444,3.371l-1.475,1.468c-0.178,0.132-0.355,0.259-0.526,0.422c-4.499,4.372-8.528,11.019-12.428,17.447
			c-3.194,5.261-6.203,10.232-9.552,14.239c-3.801,4.555-5.855,11.334-0.208,16.671c2.272,2.147,5.938,3.483,9.572,3.483
			c1.983,0,5.657-0.422,8.028-3.26c2.326-2.778,4.687-7.114,6.97-11.31c2.392-4.387,4.872-8.932,7.502-12.101l1.783-2.138
			l2.013,1.92c3.291,3.143,6.525,6.348,9.76,9.541l5.71,5.632l0.203,0.568c0.249,0.716,0.566,1.387,0.944,1.991
			c2.237,3.615,6.122,5.687,10.651,5.687c2.267,0,4.585-0.533,6.713-1.538c5.266-2.488,10.699-6.693,15.958-10.755
			c4.321-3.347,8.788-6.805,13.177-9.309l1.584-0.903l1.389,1.183c2.45,2.082,4.768,5.479,7.01,8.77
			c1.965,2.88,3.994,5.855,5.812,7.47l0.511,0.452l0.223,0.646c1.503,4.341,6.599,7.373,12.398,7.373
			c5.756,0,10.257-3.052,12.053-8.16c4.728-13.467,9.478-29.95,14.076-45.891c4.397-15.249,8.942-31.016,13.441-44.033l1.706-4.938
			l2.91,4.337c5.169,7.693,10.303,16.895,15.741,26.619c7.627,13.659,15.513,27.771,23.714,37.957
			c0.604,0.757,1.274,1.422,2.047,2.052l0.522,0.584c1.036,1.569,2.382,2.798,4.108,3.758c1.777,0.99,4.083,1.533,6.479,1.533
			c3.707,0,8.704-1.432,10.593-5.483c6.713-14.422,12.984-29.61,19.169-46.443l0.482-1.326l1.376-0.314
			c7.268-1.671,13.736-3.564,19.77-5.804l0.873-0.274c5.098-0.645,10.542-3.895,10.547-11.08v-1.191
			c0-6.568-0.005-13.363,0.563-20.066l0.178-2.112l2.107-0.249c7.333-0.873,14.442-2.153,20.419-3.28
			c2.909-0.546,5.423-2.351,7.099-5.075C406.598,201.959,407.142,198.509,406.293,195.586z"/>
	</g>
</g>
<g>
</g>
<g>
</g>
<g>
</g>
<g>
</g>
<g>
</g>
<g>
</g>
<g>
</g>
<g>
</g>
<g>
</g>
<g>
</g>
<g>
</g>
<g>
</g>
<g>
</g>
<g>
</g>
<g>
</g>
</svg>
