<?xml version="1.0" encoding="iso-8859-1"?>
<!-- Generator: Adobe Illustrator 16.0.0, SVG Export Plug-In . SVG Version: 6.00 Build 0)  -->
<!DOCTYPE svg PUBLIC "-//W3C//DTD SVG 1.1//EN" "http://www.w3.org/Graphics/SVG/1.1/DTD/svg11.dtd">
<svg version="1.1" id="Capa_1" xmlns="http://www.w3.org/2000/svg" xmlns:xlink="http://www.w3.org/1999/xlink" x="0px" y="0px"
	 width="478.45px" height="478.45px" viewBox="0 0 478.45 478.45" style="enable-background:new 0 0 478.45 478.45;"
	 xml:space="preserve">
<g>
	<g>
		<path d="M449.997,258.475c-59.107-20.507-88.519-73.582-116.605-125.565c-19.367-35.853-39.964-72.564-70.421-100.3
			C247.736,18.736,231.479,9.453,211.612,4c-9.397-2.58-54.38-11.669-53.197,10.847c2.95,55.807,2.612,111.715,1.503,167.566
			c-0.551,27.789-1.31,55.57-1.95,83.359c-0.566,24.567,2.283,51.501-1.658,75.764c0.551-3.387-43.713-8.155-47.413-8.236
			c-17.549-0.411-35.353,2.122-51.572,9.054c-40.865,17.463-50.292,63.15-21.386,98.975c54.162,67.131,146.604,32.316,197.485-18.59
			c0.744-0.746,1.356-1.514,1.876-2.295c2.193-2.148,3.712-5.124,3.859-9.019c3.052-82.446,2.109-164.923,1.855-247.399
			c52.631,47.477,96.982,105.49,170.217,119.18c1.803,1.016,3.925,1.676,6.479,1.712c7.394,0.106,14.188,1.62,21.546,3.112
			c5.377,1.087,10.831-0.559,14.096-4.57C461.337,278.167,462.129,262.689,449.997,258.475z M237.017,125.562
			c-11.56-8.978-27.18,3.501-22.973,13.967c0.074,88.705,1.46,177.419-1.617,266.091c-39.694,38.583-105.797,69.167-152.042,22.907
			c-11.291-11.289-19.205-29.306-11.372-44.575c10.247-19.997,38.315-24.206,60.229-25.176c19.357,0.096,37.339,6.565,54.04,17.62
			c9.887,6.541,19.261-2.179,19.708-11.42c0.317-1.163,0.541-2.402,0.541-3.794c0-86.889,4.446-173.715,4.047-260.604
			c-0.109-23.8-3.397-49.041-1.3-72.623c0.269-3.047,35.472,9.371,38.057,10.707C237.058,45.24,248.544,54.5,258.34,64.9
			c34.637,36.78,54.299,85.082,80.612,127.599c11.44,18.486,24.593,36.498,40.101,51.828
			C323.881,217.798,286.04,163.656,237.017,125.562z"/>
	</g>
</g>
<g>
</g>
<g>
</g>
<g>
</g>
<g>
</g>
<g>
</g>
<g>
</g>
<g>
</g>
<g>
</g>
<g>
</g>
<g>
</g>
<g>
</g>
<g>
</g>
<g>
</g>
<g>
</g>
<g>
</g>
</svg>
