<?xml version="1.0" encoding="iso-8859-1"?>
<!-- Generator: Adobe Illustrator 16.0.0, SVG Export Plug-In . SVG Version: 6.00 Build 0)  -->
<!DOCTYPE svg PUBLIC "-//W3C//DTD SVG 1.1//EN" "http://www.w3.org/Graphics/SVG/1.1/DTD/svg11.dtd">
<svg version="1.1" id="Capa_1" xmlns="http://www.w3.org/2000/svg" xmlns:xlink="http://www.w3.org/1999/xlink" x="0px" y="0px"
	 width="454.67px" height="454.67px" viewBox="0 0 454.67 454.67" style="enable-background:new 0 0 454.67 454.67;"
	 xml:space="preserve">
<g>
	<g>
		<path d="M422.832,51.106c3.677,22.074,16.88,62.345,6.409,87.009c-16.539-36.201-65.577-55.427-103.291-55.432
			c-1.904,0-3.54,0.406-4.937,1.077c-40.151,5.04-73.163,32.766-80.699,70.198h-26.481c-7.716-46.417-65.242-71.274-108.13-71.279
			c-1.904,0-3.537,0.406-4.936,1.076c-34.322,4.307-63.431,25.2-75.89,54.543c-8.325-26.223,1.196-58.141,4.139-84.566
			c1.602-14.398-20.898-14.241-22.483,0c-4.567,41-16.838,83.843,11.964,118.317c0.099,4.598,0.437,9.257,1.305,14.035
			c9.328,51.128,65.138,70.53,110.352,64.011c39.303-5.667,76.773-33.477,83.481-73.656h25.192c0.229,3.171,0.629,6.391,1.224,9.646
			c9.328,51.128,65.14,70.53,110.354,64.011c40.192-5.8,78.562-34.716,83.975-76.375c0.295-2.232,0.437-4.416,0.523-6.568
			c33.179-29.716,15.985-83.703,9.607-122.029C442.138,30.852,420.476,36.931,422.832,51.106z M132.892,226.725
			c-31.567,8.409-65.275-0.815-83.931-28.335c-27.919-41.172,12.23-88.354,54.504-92.557c1.115-0.109,2.107-0.391,3.052-0.733
			c38.766,0.276,84.665,20.108,85.439,64.703C192.487,200.736,158.559,219.893,132.892,226.725z M353.137,226.725
			c-31.565,8.409-65.272-0.815-83.93-28.335c-27.918-41.172,12.233-88.354,54.502-92.557c1.117-0.109,2.107-0.391,3.058-0.733
			c38.76,0.276,84.66,20.108,85.437,64.703C412.737,200.736,378.806,219.893,353.137,226.725z"/>
		<path d="M435.481,305.886c-1.244,0.477-2.482,1.157-3.656,2.183c-38.349,33.657-79.855,2.601-118.098-14.502
			c-29.468-13.178-59.261-16.519-86.821,1.046c-27.561-17.564-57.361-14.224-86.823-1.046
			c-38.24,17.103-79.755,48.159-118.099,14.502c-1.17-1.03-2.407-1.711-3.656-2.183c-6.993-3.789-17.408-0.768-16.473,9.19
			c10.24,108.456,153.573,131.651,225.051,66.187c71.48,65.465,214.812,42.27,225.048-66.187
			C452.893,305.119,442.479,302.097,435.481,305.886z M237.654,360.322c-1.407-3.818-4.743-6.84-10.052-6.84
			c-0.249,0-0.457,0.061-0.696,0.076c-0.238-0.016-0.447-0.076-0.698-0.076c-5.309,0-8.64,3.021-10.049,6.84
			c-49.825,50.455-159.179,48.221-186.171-20.932c22.209,9.638,45.826,7.668,71.343-2.747
			c38.026-15.528,77.785-48.642,117.792-20.286c2.724,1.93,5.403,2.341,7.789,1.797c2.39,0.544,5.065,0.138,7.793-1.797
			c39.999-28.355,79.76,4.763,117.783,20.286c25.517,10.415,49.135,12.38,71.346,2.747
			C396.828,408.542,287.473,410.777,237.654,360.322z"/>
	</g>
</g>
<g>
</g>
<g>
</g>
<g>
</g>
<g>
</g>
<g>
</g>
<g>
</g>
<g>
</g>
<g>
</g>
<g>
</g>
<g>
</g>
<g>
</g>
<g>
</g>
<g>
</g>
<g>
</g>
<g>
</g>
</svg>
