<?xml version="1.0" encoding="iso-8859-1"?>
<!-- Generator: Adobe Illustrator 16.0.0, SVG Export Plug-In . SVG Version: 6.00 Build 0)  -->
<!DOCTYPE svg PUBLIC "-//W3C//DTD SVG 1.1//EN" "http://www.w3.org/Graphics/SVG/1.1/DTD/svg11.dtd">
<svg version="1.1" id="Capa_1" xmlns="http://www.w3.org/2000/svg" xmlns:xlink="http://www.w3.org/1999/xlink" x="0px" y="0px"
	 width="473.395px" height="473.396px" viewBox="0 0 473.395 473.396" style="enable-background:new 0 0 473.395 473.396;"
	 xml:space="preserve">
<g>
	<g>
		<path d="M462.72,211.831c-24.607-18.169-50.231-39.336-75.017-59.811c-29.671-24.506-60.342-49.855-90.246-70.909
			c-3.011-2.123-6.185-3.199-9.43-3.199c-7.439,0-14.142,5.944-16.052,14.18c-0.645,1.648-1.03,3.156-1.203,4.717
			c-1.863,16.547-2.788,42.924-3.133,54.698C135.153,164.142,63.426,267.239,6.561,363.081c-0.808,1.361-1.409,2.793-1.841,4.347
			c-4.41,4.256-5.84,9.983-3.824,15.554c2.627,7.247,10.285,12.502,18.209,12.502c4.037,0,7.932-1.366,11.253-3.936
			c68.748-53.247,144.766-102.514,234.701-102.514h0.392c0.756,7.444,0.451,29.985,0.157,37.485
			c-0.31,7.673,2.006,18.129,7.846,24.202c3.082,3.204,6.905,4.895,11.06,4.895c2.895,0,5.941-0.817,9.064-2.427
			c30.752-15.884,60.093-36.312,88.468-56.066c26.594-18.52,54.091-37.658,82.477-52.836c5.134-2.742,8.262-7.195,8.79-12.538
			c0.574-5.723-1.904-11.7-6.505-15.724C465.64,214.367,464.3,212.989,462.72,211.831z M423.869,226.936
			c-20.565,12.264-40.745,26.543-60.316,40.396c-20.321,14.386-41.283,29.219-62.596,41.721
			c-0.411-12.375-1.615-29.564-3.615-39.481c-0.803-3.966-2.712-7.257-5.546-9.547c-3.097-3.58-7.357-5.611-12.38-5.896
			c-65.089-3.61-128.663,15.311-199.971,59.981c44.658-63.455,104.487-124.233,203.343-128.524c1.279-0.056,2.539-0.244,3.844-0.571
			c7.668-0.713,15.788-6.271,15.833-16.978c0.041-9.717,0.361-27.305,0.96-40.042c20.921,15.094,42.233,33.547,62.906,51.448
			C385.241,195.82,404.755,212.72,423.869,226.936z"/>
	</g>
</g>
<g>
</g>
<g>
</g>
<g>
</g>
<g>
</g>
<g>
</g>
<g>
</g>
<g>
</g>
<g>
</g>
<g>
</g>
<g>
</g>
<g>
</g>
<g>
</g>
<g>
</g>
<g>
</g>
<g>
</g>
</svg>
