<?xml version="1.0" encoding="iso-8859-1"?>
<!-- Generator: Adobe Illustrator 16.0.0, SVG Export Plug-In . SVG Version: 6.00 Build 0)  -->
<!DOCTYPE svg PUBLIC "-//W3C//DTD SVG 1.1//EN" "http://www.w3.org/Graphics/SVG/1.1/DTD/svg11.dtd">
<svg version="1.1" id="Capa_1" xmlns="http://www.w3.org/2000/svg" xmlns:xlink="http://www.w3.org/1999/xlink" x="0px" y="0px"
	 width="461.961px" height="461.961px" viewBox="0 0 461.961 461.961" style="enable-background:new 0 0 461.961 461.961;"
	 xml:space="preserve">
<g>
	<g>
		<path d="M448.497,205.388c-0.264-2.417-1.016-4.494-2.082-6.276c-0.106-5.413-3.219-10.333-10.379-11.42
			c-19.012-2.885-38.05-5.241-57.112-7.221c-3.707-22.645-4.402-45.28-2.366-68.228c0.117-1.305,0.041-2.491-0.168-3.578
			c0.071-0.541,0.168-1.066,0.168-1.622c0,0,0-1.3-0.016-1.435c19.51,0.051,39.01,0.129,58.514,0.134
			c16.772,0.005,16.772-25.994,0-26c-139.101-0.03-278.197-1.3-417.288-2.6c-16.775-0.157-16.76,25.842,0,25.999
			c19.609,0.183,39.212,0.358,58.816,0.536c-0.13,0.67-0.277,1.33-0.317,2.064c-1.191,22.239-3.4,44.199-8.227,65.902
			c-24.481,0.147-64.731-12.877-67.857,20.805C0.135,192.944,0,193.371,0,193.892v164.831c0,1.503,0.249,2.833,0.587,4.093
			c0.421,6.86,4.991,13.649,13.787,14.117c143.666,7.606,287.725,13.07,431.25,0c3.433-0.315,6.226-1.574,8.379-3.418
			c4.813-1.772,8.419-6.043,7.911-12.873C458.085,308.837,454.108,257.046,448.497,205.388z M102.182,103.912
			c82.799,0.739,165.601,1.348,248.397,1.633c0,0.068-0.021,0.129-0.021,0.198v1.3c0,1.102,0.188,2.158,0.457,3.187
			c-0.157,0.667-0.392,1.279-0.457,2.013c-1.955,22.099-1.193,43.917,1.833,65.704c-85.66-7.261-171.727-7.002-257.781-6.461
			c4.332-21.658,6.47-43.648,7.66-65.737C102.301,105.093,102.225,104.511,102.182,103.912z M159.568,354.478
			c0.046-16.742-0.561-33.464-1.285-50.181c0.982,0.376,1.95,0.624,2.902,0.731c0.863,0.223,1.752,0.386,2.668,0.477
			c16.945,1.707,33.2-5.316,43.859-18.539c1.175-1.458,2.087-3.058,2.719-4.713c1.061-1.731,1.8-3.772,1.95-6.215
			c0.777-12.365-1.747-24.415-9.513-34.262c-20.987-26.583-66.07-9.947-70.615,21.998c-0.878,1.727-1.409,3.763-1.331,6.195
			c0.884,27.898,2.631,55.741,2.587,83.654c-34.931-1.249-69.853-2.89-104.756-4.697V200.571
			c130.694-0.343,262.188-4.958,391.906,13.769c4.722,44.915,8.297,89.92,11.648,134.953
			C341.524,356.844,250.527,357.194,159.568,354.478z M158.824,265.277c1.473-19.189,27.34-10.293,27.647,6.454
			c0.089,4.789-9.905,6.851-17.908,4.702C162.973,274.936,158.357,271.381,158.824,265.277z"/>
		<path d="M43.704,269.649c-2.095,17.271,11.813,33.957,27.337,39.359c17.252,6.008,37.138-3.041,48.264-16.844
			c1.176-1.457,2.087-3.057,2.719-4.712c1.062-1.731,1.8-3.768,1.95-6.216c0.777-12.364-1.747-24.414-9.513-34.261
			C93.285,220.154,47.647,237.231,43.704,269.649z M79.229,284.894c-4.555-3.128-10.923-7.891-9.493-13.868
			c4.715-19.515,28.015-11.912,28.337,5.906C92.754,282.304,86.854,284.898,79.229,284.894z"/>
		<path d="M373.241,236.526c-8.53-5.759-18.493-7.506-27.827-5.7c-7.565,1.46-14.716,5.258-20.342,11.144
			c-15.153,15.843-16.361,42.243-11.7,62.657c1.818,7.978,10.857,11.507,17.804,8.059c8.409-4.169,7.394-12.314,6.927-20.18
			c-0.736-12.411-2.458-39.847,17.899-35.602c20.992,4.377,12.629,31.173,14.802,44.487c2.499,15.29,24.207,14.498,26.162-1.086
			C399.87,277.099,393.381,250.125,373.241,236.526z"/>
		<path d="M283.402,287.55c-6.271,1.645-12.761,1.808-18.789,0.259c8.841-7.917,17.377-16.143,24.943-25.324
			c2.488-3.016,3.804-6.667,3.631-10.242c0.624-4.57-0.849-9.46-5.611-12.776c-12.106-8.417-27.492-13.596-42.005-8.5
			c-12.685,4.458-21.828,15.782-24.433,28.868c-7.856,39.445,35.812,61.53,69.18,52.791
			C306.517,308.374,299.642,283.3,283.402,287.55z M246.231,269.421c-0.102-0.979-0.132-1.914-0.021-2.681
			c0.873-5.992,2.874-8.852,8.023-11.446c1.787-0.903,4.22-0.767,6.85-0.065C256.316,260.144,251.335,264.851,246.231,269.421z"/>
	</g>
</g>
<g>
</g>
<g>
</g>
<g>
</g>
<g>
</g>
<g>
</g>
<g>
</g>
<g>
</g>
<g>
</g>
<g>
</g>
<g>
</g>
<g>
</g>
<g>
</g>
<g>
</g>
<g>
</g>
<g>
</g>
</svg>
