<?xml version="1.0" encoding="iso-8859-1"?>
<!-- Generator: Adobe Illustrator 16.0.0, SVG Export Plug-In . SVG Version: 6.00 Build 0)  -->
<!DOCTYPE svg PUBLIC "-//W3C//DTD SVG 1.1//EN" "http://www.w3.org/Graphics/SVG/1.1/DTD/svg11.dtd">
<svg version="1.1" id="Capa_1" xmlns="http://www.w3.org/2000/svg" xmlns:xlink="http://www.w3.org/1999/xlink" x="0px" y="0px"
	 width="483.282px" height="483.282px" viewBox="0 0 483.282 483.282" style="enable-background:new 0 0 483.282 483.282;"
	 xml:space="preserve">
<g>
	<g>
		<path d="M435.839,134.637c-1.274-2.417-2.971-3.999-4.854-4.971c-1.854-1.508-4.275-2.501-7.256-2.63
			c-0.909-0.038-1.808-0.03-2.707-0.063c-1.782-0.962-3.91-1.539-6.489-1.43c-109.827,4.664-219.544,12.672-329.541,11.05
			c-3.537-0.051-6.276,1.102-8.32,2.897c-0.089,0.066-0.193,0.114-0.274,0.18c-1.503,0.635-2.97,1.666-4.326,3.199
			c-23.702,26.951-46.624,54.553-68.903,82.682c-0.693,0.874-1.213,1.775-1.645,2.689c-1.147,1.811-1.762,4.108-1.435,6.992
			c4.321,38.107,9.694,76.005,17.793,113.506c1.587,7.348,7.759,9.673,13.444,8.475c1.063,0.295,2.199,0.508,3.473,0.513
			c138.532,0.65,276.951-10.669,415.467-4.077c4.347,0.208,7.449-1.528,9.399-4.123c0.137-0.168,0.259-0.366,0.386-0.544
			c0.178-0.264,0.355-0.522,0.513-0.808c0.625-1.025,1.174-2.157,1.519-3.523c9.485-37.374,17.088-74.981,20.637-113.404
			c0.904-2.808,0.808-6.027-0.939-9.351L435.839,134.637z M423.267,180.963c0.853-4.285,1.665-8.582,2.513-12.87
			c8.815,16.748,17.636,33.497,26.446,50.244c-5.448,0.143-10.897,0.315-16.351,0.47c-3.723-12.007-8.212-23.737-13.604-35.094
			C422.697,182.909,423.058,182.017,423.267,180.963z M407.824,151.854c-1.285,6.584-2.564,13.17-3.864,19.749
			c-98.609,4.321-197.153,10.438-295.871,11.679c-2.552-6.873-5.116-13.743-7.627-20.634
			C203.039,163.351,305.386,156.32,407.824,151.854z M109.265,204.061c98.147-1.274,196.126-7.338,294.172-11.634
			c4.22,8.811,7.846,17.836,10.902,27.094c-26.156,0.944-52.298,2.254-78.409,4.496c-2.006,0.17-3.747,0.739-5.245,1.577
			c-2.859,0.903-5.443,2.874-7.368,5.509c-6.383,8.737-13.249,16.999-20.957,24.565c-44.788,0.01-89.575,0.203-134.343,1.894
			c-6.545-8.673-12.261-17.971-17.501-27.477c-2.564-4.654-6.657-6.297-10.671-5.964c-0.629-0.063-1.251-0.135-1.945-0.104
			c-14.658,0.666-29.305,0.899-43.952,0.904C99.484,218.292,104.595,211.33,109.265,204.061z M81.051,169.955
			c3.062,8.376,6.165,16.742,9.29,25.096c-6.586,9.973-14.002,19.232-22.442,27.792c-0.577,0.589-1.062,1.191-1.46,1.81
			c-10.136-0.213-20.269-0.5-30.41-0.894C50.746,205.579,65.741,187.639,81.051,169.955z M440.734,328.781
			c-133.693-5.58-267.305,4.819-401.018,4.459c-5.776-28.274-10.103-56.746-13.586-85.392c35.612,1.564,71.196,2.239,106.825,0.812
			c5.939,10.09,12.479,19.708,19.758,28.935c0.937,1.183,2.138,2.016,3.448,2.6c1.856,1.346,4.268,2.123,7.259,2.006
			c47.281-1.899,94.582-2.041,141.894-2.047c1.036,0,1.996-0.111,2.895-0.31c2.646-0.081,5.353-1.03,7.811-3.274
			c9.358-8.567,17.361-18.312,24.948-28.422c38.633-3.153,77.337-4.469,116.066-5.434
			C453.652,271.786,447.717,300.349,440.734,328.781z"/>
	</g>
</g>
<g>
</g>
<g>
</g>
<g>
</g>
<g>
</g>
<g>
</g>
<g>
</g>
<g>
</g>
<g>
</g>
<g>
</g>
<g>
</g>
<g>
</g>
<g>
</g>
<g>
</g>
<g>
</g>
<g>
</g>
</svg>
