<?xml version="1.0" encoding="iso-8859-1"?>
<!-- Generator: Adobe Illustrator 16.0.0, SVG Export Plug-In . SVG Version: 6.00 Build 0)  -->
<!DOCTYPE svg PUBLIC "-//W3C//DTD SVG 1.1//EN" "http://www.w3.org/Graphics/SVG/1.1/DTD/svg11.dtd">
<svg version="1.1" id="Capa_1" xmlns="http://www.w3.org/2000/svg" xmlns:xlink="http://www.w3.org/1999/xlink" x="0px" y="0px"
	 width="469.179px" height="469.18px" viewBox="0 0 469.179 469.18" style="enable-background:new 0 0 469.179 469.18;"
	 xml:space="preserve">
<g>
	<g>
		<path d="M384.377,4.599c-0.93-0.208-1.828-0.317-2.727-0.338c-14.493-0.36-30.514-0.853-47.521-1.384
			C290.486,1.531,241.016,0,193.725,0c-45.151,0-80.687,1.399-108.636,4.271c-5.542,0.566-9.864,3.966-11.773,9.183
			c-4.357,2.194-6.921,6.437-6.921,11.581c-0.025,63.635-0.472,132.538-0.909,199.168c-0.426,65.389-0.863,132.992-0.906,195.532
			c-1.183,1.442-1.938,3.113-2.488,4.84c-0.178,0.543-0.417,1.066-0.536,1.62c-0.033,0.146-0.059,0.294-0.084,0.437
			c-0.244,1.381-0.353,2.772-0.173,4.144c0.511,3.849,2.735,7.17,6.282,9.344c32.266,19.819,79.45,29.061,148.498,29.061
			c0.01,0,0.01,0,0.016,0c33.362,0,67.831-2.158,98.249-4.057c24.592-1.539,47.834-2.996,67.263-3.139
			c3.783-0.03,7.038-1.381,9.419-3.899c2.433-2.569,3.758-6.206,3.672-10.034c0.259-1.092,0.386-2.133,0.396-3.199
			c0.229-46.067,3.179-92.958,6.312-142.6c6.073-96.388,12.359-196.063-3.107-287.815C397.123,7.457,391.339,3.423,384.377,4.599z
			 M374.582,303.115c-2.98,46.026-5.799,89.534-6.362,132.18c-14.665,0.533-31.809,1.67-49.906,2.884
			c-31.596,2.112-67.4,4.499-102.2,4.499c-54.697,0-94.47-6.119-121.389-18.646c9.364-7.81,18.72-15.625,27.414-24.181
			c10.029-9.882-5.398-25.294-15.429-15.427c-4.854,4.783-9.945,9.303-15.094,13.746c0.03-15.311,0.083-30.859,0.14-46.55
			c9.516-9.999,19.89-19.104,30.384-28.102c10.689-9.166-4.811-24.521-15.429-15.422c-4.992,4.28-9.935,8.606-14.812,13.015
			c0.099-18.093,0.203-36.272,0.317-54.421c11.463-10.445,22.587-21.251,33.558-32.22c9.953-9.955-5.469-25.377-15.427-15.427
			c-5.938,5.938-11.908,11.842-17.94,17.682c0.028-4.266,0.059-8.539,0.084-12.786c0.089-13.64,0.178-27.383,0.267-41.147
			c10.643-9.158,21.218-18.402,31.199-28.292c9.999-9.912-5.426-25.323-15.419-15.424c-5.07,5.024-10.3,9.858-15.609,14.622
			c0.099-16.618,0.183-33.205,0.262-49.658c11.146-10.087,22.051-20.507,34.017-29.618c11.022-8.404,0.18-27.357-11.009-18.829
			c-7.934,6.043-15.475,12.525-22.894,19.134c0.045-14.934,0.081-29.711,0.091-44.193c26.017-2.354,58.915-3.504,100.447-3.504
			c48.733,0,99.404,1.564,144.111,2.948c12.639,0.391,24.607,0.759,35.652,1.066C386.606,117.304,380.498,211.754,374.582,303.115z"
			/>
	</g>
</g>
<g>
</g>
<g>
</g>
<g>
</g>
<g>
</g>
<g>
</g>
<g>
</g>
<g>
</g>
<g>
</g>
<g>
</g>
<g>
</g>
<g>
</g>
<g>
</g>
<g>
</g>
<g>
</g>
<g>
</g>
</svg>
