<?xml version="1.0" encoding="iso-8859-1"?>
<!-- Generator: Adobe Illustrator 16.0.0, SVG Export Plug-In . SVG Version: 6.00 Build 0)  -->
<!DOCTYPE svg PUBLIC "-//W3C//DTD SVG 1.1//EN" "http://www.w3.org/Graphics/SVG/1.1/DTD/svg11.dtd">
<svg version="1.1" id="Capa_1" xmlns="http://www.w3.org/2000/svg" xmlns:xlink="http://www.w3.org/1999/xlink" x="0px" y="0px"
	 width="452.986px" height="452.986px" viewBox="0 0 452.986 452.986" style="enable-background:new 0 0 452.986 452.986;"
	 xml:space="preserve">
<g>
	<g>
		<path d="M443.328,4.513c-1.971-1.031-4.347-1.467-7.073-0.863c-7.399,1.63-14.828,3.153-22.369,3.96
			c-1.868,0.203-3.62,0.772-5.164,1.625c-0.061,0.025-0.116,0.066-0.173,0.092c-0.178,0.106-0.365,0.198-0.538,0.31
			c-1.519,0.817-2.899,2.082-3.966,3.991c-29.935,53.537-53.812,110.238-83.005,164.187
			c-30.138,55.685-67.283,115.676-125.291,145.57c-27.299-7.216-22.006-44.148-20.18-67.05c0.478-5.972-3.41-9.236-7.955-9.861
			c-0.688-0.401-1.437-0.757-2.277-1.031c-39.916-12.953-81.067-9.668-121.656-1.731c-1,0.193-1.851,0.513-2.638,0.894
			c-11.448,2.509-22.421,6.571-32.778,12.289c-3.349,1.849-4.778,4.631-4.986,7.516c-0.843,1.635-1.239,3.453-1.066,5.296
			c-8.32,66.816,5.553,121.663,63.65,160.47c53.103,35.459,117.964,18.347,164.795-18.784
			c55.965-44.376,93.648-105.662,127.874-167.329c39.766-71.66,71.289-148.033,94.003-226.752
			C454.616,10.028,449.157,5.117,443.328,4.513z M56.129,262.896c0.889-0.116,1.684-0.446,2.433-0.843
			c26.108-4.524,52.191-6.337,78.028-2.052c-30.907,15.371-75.382,26.223-105.441,9.252
			C39.156,266.171,47.481,264.089,56.129,262.896z M256.397,358.926c-38.43,43.178-92.876,82.44-153.269,65.861
			c-65.719-18.048-84.756-77.896-81.694-137.146c39.182,21.338,94.981,7.744,132.337-13.146
			c-0.749,30.772,4.624,64.998,40.688,69.862c2.217,0.305,4.197-0.061,5.934-0.812c1.239-0.132,2.511-0.446,3.811-1.097
			c56.236-28.046,93.554-82.68,124.337-135.506c33.854-58.092,59.112-120.632,91.616-179.415c2.661-0.371,5.316-0.808,7.973-1.249
			C392.833,143.665,338.051,267.187,256.397,358.926z"/>
		<path d="M94.374,157.67c-6.975,17.615-4.42,37.227,12.301,50.693c21.498,17.316,52.067,9.694,67.608-11.542
			c13.015-17.788,8.181-45.133-7.325-59.539c-17.587-16.341-40.154-9.979-58.16,1.625c-1.96,0.3-3.905,1.346-5.591,3.479
			c-0.234,0.299-0.437,0.609-0.666,0.909c-1.866,1.407-3.687,2.839-5.403,4.291C93.557,150.637,93.084,154.415,94.374,157.67z
			 M117.319,157.924c9.704-7.236,21.904-13.253,33.129-7.135c10.354,5.642,12.682,21.15,8.366,31.164
			c-5.578,12.943-22.473,18.869-35.005,12.923C108.699,187.701,108.422,169.984,117.319,157.924z"/>
		<path d="M23.478,130.366c21.498,17.316,52.067,9.694,67.608-11.542c13.015-17.788,8.181-45.133-7.325-59.539
			c-17.587-16.341-40.154-9.979-58.161,1.625c-1.96,0.3-3.905,1.346-5.591,3.479c-0.233,0.299-0.437,0.609-0.665,0.909
			c-1.866,1.407-3.687,2.838-5.403,4.291c-3.588,3.052-4.06,6.83-2.773,10.084C4.202,97.288,6.761,116.894,23.478,130.366z
			 M34.122,79.926c9.704-7.236,21.904-13.253,33.129-7.134c10.354,5.642,12.682,21.15,8.366,31.164
			c-5.578,12.944-22.473,18.87-35.005,12.924C25.501,109.703,25.225,91.986,34.122,79.926z"/>
		<path d="M51.63,86.477c6.01,0,9.308,4.189,9.933,8.8c7.403-4.844,5.558-19.2-5.596-19.2c-7.398,0-10.697,6.327-9.932,12.004
			C47.532,87.102,49.373,86.477,51.63,86.477z"/>
		<path d="M139.165,163.606c6.012,0,9.308,4.189,9.927,8.8c7.404-4.845,5.563-19.2-5.596-19.2c-7.399,0-10.697,6.328-9.933,12.005
			C135.062,164.23,136.907,163.606,139.165,163.606z"/>
	</g>
</g>
<g>
</g>
<g>
</g>
<g>
</g>
<g>
</g>
<g>
</g>
<g>
</g>
<g>
</g>
<g>
</g>
<g>
</g>
<g>
</g>
<g>
</g>
<g>
</g>
<g>
</g>
<g>
</g>
<g>
</g>
</svg>
