<?xml version="1.0" encoding="iso-8859-1"?>
<!-- Generator: Adobe Illustrator 16.0.0, SVG Export Plug-In . SVG Version: 6.00 Build 0)  -->
<!DOCTYPE svg PUBLIC "-//W3C//DTD SVG 1.1//EN" "http://www.w3.org/Graphics/SVG/1.1/DTD/svg11.dtd">
<svg version="1.1" id="Capa_1" xmlns="http://www.w3.org/2000/svg" xmlns:xlink="http://www.w3.org/1999/xlink" x="0px" y="0px"
	 width="474.207px" height="474.207px" viewBox="0 0 474.207 474.207" style="enable-background:new 0 0 474.207 474.207;"
	 xml:space="preserve">
<g>
	<g>
		<path d="M394.639,11.292c-0.889-4.941-4.529-9.43-10.928-9.754C282.371-3.675,181.321,5.67,80.143,10.21
			c-7.195,0.32-10.895,5.926-11.123,11.537c-1.392,1.795-2.184,4.187-1.887,7.254c13.739,142.282,4.842,285.469,15.902,427.891
			c0.071,0.939,0.238,1.812,0.472,2.625c0.218,5.627,3.905,11.34,11.09,11.832c97.868,6.759,195.726,0.178,293.451-5.784
			c0.995-0.061,1.914-0.233,2.772-0.482c5.581-0.273,11.197-3.955,11.685-11.08c9.882-144.804,2.036-291.785-5.784-436.566
			C396.594,14.966,395.797,12.945,394.639,11.292z M380.055,442.927c-91.408,5.586-182.921,11.278-274.449,5.876
			c-10.036-138.477-2.044-277.639-15.01-415.965c94.438-4.522,188.784-12.604,283.367-8.589
			C381.452,163.136,388.667,303.974,380.055,442.927z"/>
		<path d="M216.966,148.062c-0.467,0.005-0.914-0.025-1.419,0.036c-60.392,7.5-99.264,65.008-76.083,123.448
			c20.035,50.495,75.23,67.861,124.87,58.772c45.133-8.268,88.174-43.696,89.418-91.815
			C355.646,165.751,274.931,142.941,216.966,148.062z M274.144,303.628c-32.945,12.208-71.175,7.861-97.065-16.747
			c-41.979-39.923-17.93-108.656,38.468-115.658c0,0,0.021-0.005,0.031-0.005c0.317-0.005,0.599,0.036,0.932,0.005
			c48.108-4.38,101.844,5.667,113.563,60.151C337.593,266.31,302.454,293.132,274.144,303.628z"/>
		<path d="M226.15,207.29c-0.084-14.914-23.211-14.919-23.13,0c0.074,12.558,0.967,25.067,1.93,37.587
			c1.135,14.771,24.268,14.879,23.13,0C227.117,232.357,226.221,219.847,226.15,207.29z"/>
		<path d="M251.202,206.327c0.919,11.873,0.965,23.758,0.965,35.655c0,14.914,23.13,14.914,23.13,0
			c0-11.897-0.04-23.79-0.959-35.655C273.184,191.555,250.049,191.443,251.202,206.327z"/>
		<path d="M242.143,262.71c-7.736-0.279-16.618,8.216-15.938,16.463c1.244,14.949,15.876,18.072,26.499,10.379
			c7.049-5.113,7.755-12.345,4.576-18.012C254.553,266.671,248.993,262.955,242.143,262.71z"/>
		<path d="M215.537,108.794c11.2,5.319,25.875,7.216,36.528-0.178c11.288-7.835,21.322-23.39,18.484-37.699
			c-5.454-27.492-44.852-30.892-63.285-15.097C187.791,72.52,193.717,98.43,215.537,108.794z M244.616,69.638
			c8.968,5.771-0.726,17.499-7.942,19.35c-6.177,1.584-13.586-1.617-14.363-8.019c-0.086-0.708-0.092-1.457,0-2.242
			C223.321,69.742,237.375,64.974,244.616,69.638z"/>
		<path d="M216.649,379.641c-19.474,16.691-13.545,42.599,8.272,52.968c11.207,5.327,25.875,7.216,36.529-0.178
			c11.283-7.835,21.317-23.389,18.483-37.698C274.485,367.241,235.082,363.843,216.649,379.641z M246.063,412.8
			c-6.175,1.584-13.586-1.62-14.36-8.019c-0.089-0.711-0.089-1.457,0-2.244c1.008-8.983,15.062-13.751,22.312-9.09
			C262.978,399.221,253.279,410.947,246.063,412.8z"/>
	</g>
</g>
<g>
</g>
<g>
</g>
<g>
</g>
<g>
</g>
<g>
</g>
<g>
</g>
<g>
</g>
<g>
</g>
<g>
</g>
<g>
</g>
<g>
</g>
<g>
</g>
<g>
</g>
<g>
</g>
<g>
</g>
</svg>
