<?xml version="1.0" encoding="iso-8859-1"?>
<!-- Generator: Adobe Illustrator 16.0.0, SVG Export Plug-In . SVG Version: 6.00 Build 0)  -->
<!DOCTYPE svg PUBLIC "-//W3C//DTD SVG 1.1//EN" "http://www.w3.org/Graphics/SVG/1.1/DTD/svg11.dtd">
<svg version="1.1" id="Capa_1" xmlns="http://www.w3.org/2000/svg" xmlns:xlink="http://www.w3.org/1999/xlink" x="0px" y="0px"
	 width="478.783px" height="478.782px" viewBox="0 0 478.783 478.782" style="enable-background:new 0 0 478.783 478.782;"
	 xml:space="preserve">
<g>
	<g>
		<path d="M423.644,347.668c-1.3,0-2.609,0.062-3.94,0.168c-8.8,0.762-16.798,3.072-24.536,5.312
			c-6.79,1.96-13.198,3.813-19.495,4.397c-12.948,1.193-27.248,0.29-44.346-2.874c-2.143-0.396-4.286-0.812-6.413-1.249
			c-18.164-3.748-36.531-9.125-54.289-14.325c-18.067-5.291-36.686-10.734-55.713-14.706c2.168-13.502,3.567-28.254,4.347-45.985
			c21.503-1.148,40.2-19.032,43.084-41.673c1.89-14.904-4.007-29.914-15.777-40.169c-5.342-4.659-11.872-8.252-19.393-10.68
			c-2.163-0.703-4.408-1.03-6.784-1.383c-0.338-0.053-0.739-0.109-1.155-0.173c0.135-1.797,0.437-3.915,0.64-5.324
			c0.292-2.019,0.551-3.93,0.686-5.642c0.267-3.514,0.485-7.036,0.698-10.549c0.404-6.553,0.785-12.746,1.48-18.949
			c3.521-31.346,17.047-47.73,40.205-48.688c3.306-0.134,6.845-0.229,10.526-0.229c32.032,0,46.271,7.328,52.572,13.472
			c3.316,3.224,4.916,8.434,6.779,14.467c2.051,6.667,4.377,14.221,9.638,21.091c9.095,11.875,23.547,18.964,38.653,18.964
			c4.154,0,8.242-0.546,12.172-1.627c24.502-6.741,39.07-32.058,33.17-57.63c-6.338-27.472-22.13-53.268-43.336-70.765
			c-24.344-20.083-53.582-26.281-76.332-29.432C295.07,1.866,279.608,0,263.831,0c-15.636,0-29.275,1.782-41.695,5.458
			c-27.314,8.086-55.14,30.456-69.226,55.675c-11.689,20.913-19.807,47.359-24.128,78.606c-2.044,14.736-2.631,29.146-3.032,43.793
			c-4.296,0.099-8.589,0.218-12.891,0.343c-30.503,0.942-46.09,25.438-45.727,49.154c0.343,22.574,15.858,45.44,44.838,45.44
			l1.684-0.025c3.755-0.111,7.5-0.218,11.222-0.305c-0.036,0.955-0.074,1.92-0.109,2.899c-0.452,12.604-0.972,26.888-4.931,37.136
			c-1.34,3.463-4.014,4.57-13.19,6.84c-2.922,0.727-5.865,1.468-8.711,2.407c-10.107,3.346-23.247,8.267-35.223,16.772
			c-17.143,12.192-40.001,32.433-51.577,59.687c-6.837,16.117-7,34.154-0.417,48.251c5.373,11.521,14.79,19.611,27.216,23.409
			c7.045,2.153,14.576,3.24,22.381,3.24c25.504,0,50.183-11.69,66.402-21.511c11.755-7.109,22.739-16.072,32.654-26.629
			c1.275-1.366,2.595-2.854,3.963-4.397c4.68-5.291,11.09-12.532,15.719-12.532c0.259,0,0.521,0.02,0.785,0.061
			c16.168,2.433,32.588,6.713,48.459,10.847l3.031,0.792c6.462,1.681,12.972,3.428,19.527,5.189
			c38.715,10.395,78.749,21.15,119.073,21.15c29.001,0,54.614-5.551,78.308-16.976c19.062-9.191,28.062-27.381,23.476-47.47
			C466.548,364.71,445.88,347.668,423.644,347.668z M436.954,411.356c-20.094,9.684-42.015,14.396-67.019,14.396
			c-36.902,0-75.246-10.303-112.336-20.256c-6.616-1.782-13.195-3.549-19.72-5.245l-3.021-0.787
			c-16.534-4.306-33.631-8.77-51.161-11.4c-1.582-0.233-3.13-0.34-4.649-0.34c-16.343,0-27.236,12.309-35.193,21.297
			c-1.191,1.351-2.333,2.65-3.453,3.829c-8.292,8.836-17.43,16.3-27.152,22.19c-13.386,8.1-33.436,17.753-52.945,17.753
			c-5.226,0-10.202-0.711-14.79-2.107c-5.334-1.63-9.011-4.753-11.25-9.542c-3.402-7.302-3.095-17.94,0.79-27.101
			c9.199-21.647,28.297-38.405,42.701-48.643c9.158-6.499,19.946-10.506,28.325-13.278c2.224-0.736,4.521-1.295,6.81-1.854
			c9.859-2.453,24.772-6.149,31.184-22.693c5.538-14.325,6.142-30.931,6.667-45.585c0.083-2.199,0.155-4.357,0.249-6.449
			c0.282-6.205-1.914-12.075-6.177-16.539c-4.212-4.402-10.151-6.927-16.795-6.927c-0.01,0-0.015,0-0.025,0
			c-5.045,0.112-10.087,0.239-15.147,0.392l-0.889,0.015c-17.648,0-18.793-16.523-18.844-19.837
			c-0.125-8.216,4.055-22.259,20.528-22.765c5.02-0.154,10.026-0.287,15.033-0.396c12.563-0.27,22.66-10.337,22.993-22.925
			c0.386-14.69,0.896-29.046,2.861-43.241c3.872-28.028,10.961-51.407,21.068-69.482c10.832-19.38,33-37.234,53.903-43.424
			c9.994-2.953,21.221-4.392,34.322-4.392c14.193,0,28.498,1.731,39.385,3.245c29.138,4.035,48.084,11.136,63.354,23.727
			c16.879,13.929,29.467,34.543,34.55,56.553c2.804,12.152-3.534,23.638-14.73,26.723c-8.125,2.229-18.062-1.255-23.293-8.082
			c-2.428-3.166-3.813-7.695-5.434-12.936c-2.412-7.833-5.418-17.583-13.472-25.433c-14.396-14.035-37.526-20.853-70.727-20.853
			c-4.057,0-7.962,0.104-11.603,0.249c-36.331,1.508-60.017,27.665-64.965,71.764c-0.769,6.853-1.191,13.665-1.597,20.258
			c-0.208,3.395-0.416,6.787-0.675,10.177c-0.089,1.186-0.292,2.516-0.495,3.92c-1.048,7.333-2.491,17.372,3.308,25.854
			c4.743,6.927,13.066,8.153,19.152,9.052c1.048,0.157,2.031,0.271,2.587,0.406c4.161,1.34,7.629,3.209,10.313,5.542
			c5.291,4.613,7.865,10.91,7.056,17.28c-1.17,9.138-8.95,19.014-19.484,19.014l-5.685-0.127c-10.049,0-17.451,9.222-17.997,22.445
			c-0.764,18.931-2.209,34.139-4.544,47.88c-2.164,12.791,4.405,24.004,15.282,26.086c19.855,3.788,39.852,9.643,59.192,15.3
			c18.26,5.347,37.14,10.872,56.355,14.843c2.305,0.473,4.626,0.93,6.941,1.351c19.489,3.605,36.14,4.631,51.46,3.189
			c8.749-0.808,16.656-3.098,24.313-5.307c6.83-1.976,13.289-3.834,19.545-4.378c12.391-1.097,22.15,9.329,24.436,19.353
			C448.237,401.297,445.074,407.446,436.954,411.356z"/>
	</g>
</g>
<g>
</g>
<g>
</g>
<g>
</g>
<g>
</g>
<g>
</g>
<g>
</g>
<g>
</g>
<g>
</g>
<g>
</g>
<g>
</g>
<g>
</g>
<g>
</g>
<g>
</g>
<g>
</g>
<g>
</g>
</svg>
