<?xml version="1.0" encoding="iso-8859-1"?>
<!-- Generator: Adobe Illustrator 16.0.0, SVG Export Plug-In . SVG Version: 6.00 Build 0)  -->
<!DOCTYPE svg PUBLIC "-//W3C//DTD SVG 1.1//EN" "http://www.w3.org/Graphics/SVG/1.1/DTD/svg11.dtd">
<svg version="1.1" id="Capa_1" xmlns="http://www.w3.org/2000/svg" xmlns:xlink="http://www.w3.org/1999/xlink" x="0px" y="0px"
	 width="496.083px" height="496.083px" viewBox="0 0 496.083 496.083" style="enable-background:new 0 0 496.083 496.083;"
	 xml:space="preserve">
<g>
	<g>
		<path d="M176.594,179.875c-1.173,1.668-0.533,4.778-0.31,5.692l2.136,8.683l-4.207,7.894c-5.767,10.832-9.176,22.054-10.42,34.289
			c-1.803,17.697,10.176,39.816,32.052,59.189c1.866,1.646,3.692,2.569,5.923,2.976l2.928,0.538l2.699,1.254
			c16.333,7.572,32.654,11.405,48.525,11.405c18.564,0,35.668-5.347,50.825-15.898c1.574-1.097,3.017-2.479,4.286-4.104l1.265-1.62
			l1.522-1.381c1.569-1.412,2.758-2.661,3.626-3.804c12.151-16.076,17.189-38.349,14.188-62.751c-0.163-0.754-0.274-1.3-0.376-1.855
			l-0.442-2.519l0.112-2.552c0.076-1.785,0-3.151-0.224-4.182c-3.936-17.814-12.645-33.109-24.512-43.082
			c-11.309-9.493-24.287-15.208-42.111-18.527l-4.367-0.81l-3.763-2.361c-1.798-1.122-3.575-1.691-5.296-1.691
			C216.733,145.075,193.235,156.267,176.594,179.875z M189.383,219.351c5.434-28.579,30.024-50.132,57.191-50.132
			c10.336,0,25.809,3.125,40.834,18.024c15.533,15.396,21.754,37.064,16.65,57.958c-6.291,25.758-27.721,43.063-53.318,43.063
			c-7.65,0-15.439-1.543-23.166-4.595C199.084,272.426,184.089,247.178,189.383,219.351z"/>
		<path d="M182.215,151.623c3.547-2.922,4.103-7.982,2.699-12.24c-0.333-1.016-0.749-2.003-1.3-2.887
			c0.49-2.547-0.071-5.375-2.303-8.211c-2.506-3.187-4.918-6.432-7.327-9.682c-22.25-30.062-40.2-62.581-55.444-96.827
			c-1.945-4.362-5.228-6.193-8.668-6.261c-3.422-2.813-8.201-3.623-13.038-0.224C48.642,49.186,17.729,99.063,0.597,154.835
			c-1.191,3.87-0.505,7.13,1.231,9.605c0.327,4.539,3.052,8.771,8.835,10.15c38.121,9.074,76.322,16.895,115.217,21.086
			c5.949,0.637,11.908,1.206,17.882,1.668c3.506,0.269,6.157-0.77,8.051-2.512c2.209-2.033,3.369-5.024,3.448-8.19
			c1.569-1.008,2.899-2.361,3.702-4.144C164.448,170.274,171.859,160.157,182.215,151.623z M137.674,170.508
			c-0.269,0.599-0.467,1.206-0.655,1.82c-2.257-0.203-4.501-0.462-6.754-0.69c-34.949-3.58-69.299-10.422-103.514-18.373
			c14.508-43.162,38.572-82.677,74.519-110.938c14.871,32.24,32.291,62.876,53.621,91.277c1.493,1.988,2.953,3.994,4.489,5.967
			C150.242,148.389,142.889,158.887,137.674,170.508z"/>
		<path d="M399.246,20.492c-4.835-3.399-9.613-2.59-13.035,0.224c-3.448,0.068-6.729,1.894-8.669,6.261
			c-15.025,33.753-32.666,65.841-54.471,95.537c-2.712,3.687-5.464,7.358-8.303,10.971c-2.229,2.842-2.793,5.665-2.301,8.211
			c-0.284,0.452-0.518,0.947-0.746,1.435c-2.066,4.504-1.818,10.427,2.143,13.693c10.359,8.539,17.769,18.656,23.252,30.882
			c0.803,1.782,2.133,3.13,3.702,4.144c0.143,5.875,3.91,11.288,11.502,10.702c0.102-0.01,0.213-0.02,0.314-0.031
			c7.881-0.614,15.722-1.437,23.542-2.356c36.83-4.321,73.082-11.763,109.247-20.368c5.789-1.379,8.506-5.611,8.836-10.151
			c1.731-2.476,2.417-5.736,1.229-9.605C478.351,104.264,447.44,54.385,399.246,20.492z M368.447,176.566
			c-3.122,0.333-6.25,0.681-9.384,0.962c-0.192-0.614-0.391-1.221-0.655-1.82c-5.215-11.621-12.567-22.12-21.703-30.942
			c1.849-2.366,3.615-4.786,5.403-7.183c20.916-28.059,38.044-58.28,52.704-90.056c35.952,28.262,60.012,67.775,74.52,110.938
			C435.975,166.22,402.49,172.915,368.447,176.566z"/>
		<path d="M300.484,351.124c-3.905-6.957-7.952-13.848-12.142-20.667c-1.052-1.717-2.062-3.453-3.133-5.159
			c-4.048-6.449-10.634-6.256-15.442-2.869c-1.752-0.66-3.626-0.93-5.535-0.513c-13.086,2.869-25.628,2.939-38.653-0.3
			c-4.936-1.229-9.809,2.016-12.215,6.307c-0.292,0.513-0.561,1.036-0.774,1.574c-2.341,1.122-4.281,3.255-5.233,6.738
			c-1.196,4.383-2.491,8.709-3.821,13.025c-10.882,35.267-26.187,68.599-44.392,100.818c-2.349,4.158-1.866,7.881,0.132,10.688
			c-0.224,4.423,1.97,8.745,7.582,10.608c55.923,18.55,114.401,13.695,169.411-5.733c3.818-1.351,6.027-3.839,6.987-6.703
			c3.453-2.965,5.23-7.678,2.895-13.146C332.338,413.467,317.647,381.693,300.484,351.124z M185.945,451.719
			c16.821-30.712,30.912-62.489,41.01-96.024c0.858-2.844,1.736-5.677,2.534-8.546c12.525,2.082,25.339,1.747,37.781-0.985
			c0.64-0.143,1.249-0.34,1.858-0.554c2.33,3.819,4.61,7.673,6.845,11.542c16.453,28.482,30.377,58.204,43.478,88.408
			C276.125,459.6,230.05,463.784,185.945,451.719z"/>
	</g>
</g>
<g>
</g>
<g>
</g>
<g>
</g>
<g>
</g>
<g>
</g>
<g>
</g>
<g>
</g>
<g>
</g>
<g>
</g>
<g>
</g>
<g>
</g>
<g>
</g>
<g>
</g>
<g>
</g>
<g>
</g>
</svg>
