<?xml version="1.0" encoding="iso-8859-1"?>
<!-- Generator: Adobe Illustrator 16.0.0, SVG Export Plug-In . SVG Version: 6.00 Build 0)  -->
<!DOCTYPE svg PUBLIC "-//W3C//DTD SVG 1.1//EN" "http://www.w3.org/Graphics/SVG/1.1/DTD/svg11.dtd">
<svg version="1.1" id="Capa_1" xmlns="http://www.w3.org/2000/svg" xmlns:xlink="http://www.w3.org/1999/xlink" x="0px" y="0px"
	 width="424.204px" height="424.204px" viewBox="0 0 424.204 424.204" style="enable-background:new 0 0 424.204 424.204;"
	 xml:space="preserve">
<g>
	<g>
		<path d="M422.645,366.816v-107.48c0-7.419-5.316-11.37-11.034-11.938c-1.346-0.411-2.828-0.64-4.545-0.528
			c-20.342,1.412-40.694,2.442-61.047,3.301c-1.442-37.445-2.885-74.895-4.378-112.34c-0.051-1.168-0.259-2.229-0.543-3.229
			c5.21-2.631,9.328-6.643,11.685-11.548c2.996-6.24,2.976-13.446-0.056-20.302c-4.159-9.399-13.568-15.533-25.436-16.706
			c-2.483-2.311-6.17-2.971-9.613-1.529c-1.879,0.792-3.742,1.732-5.54,2.798c-1.95,0.604-3.61,1.752-4.804,3.3
			c-9.201,7.378-13.304,17.682-11.268,28.375c1.884,9.862,9.603,16.56,20.672,18.596c0,0.086-0.015,0.163-0.01,0.249
			c1.508,37.75,2.955,75.504,4.407,113.259c-102.199,3.255-204.497,0.26-306.613-5.773c-3.047-0.183-5.502,0.579-7.389,1.92
			c-3.641,1.823-6.436,5.321-6.629,10.547c-1.343,36.424,0.094,72.727,3.115,109.039c0.071,0.879,0.244,1.696,0.452,2.479
			c0.041,6.21,4.05,12.634,12.007,13.101c130.717,7.678,261.59,12.289,392.551,10.902c0.478-0.005,0.863-0.137,1.31-0.188
			c0.595,0.092,1.188,0.188,1.803,0.188c6.795,0,12.467-5.667,12.462-12.461c0-4.758-0.31-9.333-1.6-13.594
			C422.609,367.096,422.645,366.969,422.645,366.816z M315.348,114.857c-1.352-3.859,2.239-7.399,4.26-9.024
			c6.059-1.132,11.162,0.35,14.711,4.373c1.528,1.731,1.26,2.843,1.168,3.204c-0.376,1.563-2.179,3.204-4.469,4.093
			c-2.254,0.868-4.981,1.371-7.49,1.371C320.436,118.874,316.516,118.173,315.348,114.857z M27.914,358.128
			c-2.194-29.076-3.288-58.168-2.729-87.316c19.753,1.123,39.506,2.082,59.272,2.951c-20.779,14.157-35.678,36.551-27.154,62.732
			c3.275,10.06,9.74,18.251,17.887,24.191C59.435,359.885,43.668,359.031,27.914,358.128z M78.018,328.284
			c-5.562-17.098,9.293-30.533,22.684-38.506c17.278,0.822,37.178,7.814,46.522,22.785c11.347,18.169-22.999,35.662-37.08,36.749
			C96.032,350.404,82.413,341.771,78.018,328.284z M397.723,360.905c-1.265,2.341-1.682,4.961-1.311,7.521
			c-86.077,0.665-172.123-1.239-258.101-4.839c20.695-10.705,37.729-31.229,31.517-54.527
			c-4.156-15.569-17.712-26.573-33.398-33.367c87.103,2.676,174.261,2.295,261.298-3.357v88.57H397.723z"/>
		<path d="M218.581,324.761c39.472,0.005,78.938,0.096,118.388,1.559c16.082,0.594,16.026-24.328,0-24.923
			c-39.45-1.462-78.911-1.554-118.388-1.559C202.51,299.833,202.51,324.755,218.581,324.761z"/>
		<path d="M372.794,326.314c16.077,0,16.077-24.923,0-24.923C356.723,301.392,356.723,326.314,372.794,326.314z"/>
		<path d="M246.576,92.936c5.784,3.849,11.639,7.175,18.732,7.51c5.094,0.234,9.354-4.433,9.354-9.349
			c0-5.271-4.26-9.11-9.354-9.343c1.569,0.076-1.401-0.32-1.518-0.355c-2.118-0.62,0.279,0.233-1.772-0.838
			c-2.087-1.092-4.042-2.458-6.008-3.763c-4.239-2.829-10.323-0.848-12.786,3.356C240.533,84.74,242.341,90.122,246.576,92.936z"/>
		<path d="M308.975,68.013c4.687-2.747,5.52-8.176,3.356-12.786c-2.234-4.758-1.839-10.354-1.839-15.534
			c-0.005-12.055-18.696-12.055-18.691,0c0.005,8.77,0.624,16.93,4.387,24.968C298.352,69.272,304.882,70.41,308.975,68.013z"/>
		<path d="M355.621,68.013c4.59,2.687,9.968,0.879,12.786-3.356l9.349-14.015c2.828-4.246,0.843-10.329-3.356-12.787
			c-4.591-2.691-9.969-0.878-12.787,3.352l-9.349,14.021C349.436,59.467,351.421,65.55,355.621,68.013z"/>
		<path d="M379.025,114.461c6.53-0.005,13.319,0.03,19.621-1.894c4.864-1.483,7.906-6.479,6.525-11.497
			c-1.32-4.809-6.627-8.013-11.497-6.525c-2.539,0.777-3.829,0.919-6.083,1.066c-2.849,0.193-5.713,0.158-8.566,0.158
			C366.975,95.774,366.975,114.466,379.025,114.461z"/>
	</g>
</g>
<g>
</g>
<g>
</g>
<g>
</g>
<g>
</g>
<g>
</g>
<g>
</g>
<g>
</g>
<g>
</g>
<g>
</g>
<g>
</g>
<g>
</g>
<g>
</g>
<g>
</g>
<g>
</g>
<g>
</g>
</svg>
