<?xml version="1.0" encoding="iso-8859-1"?>
<!-- Generator: Adobe Illustrator 16.0.0, SVG Export Plug-In . SVG Version: 6.00 Build 0)  -->
<!DOCTYPE svg PUBLIC "-//W3C//DTD SVG 1.1//EN" "http://www.w3.org/Graphics/SVG/1.1/DTD/svg11.dtd">
<svg version="1.1" id="Capa_1" xmlns="http://www.w3.org/2000/svg" xmlns:xlink="http://www.w3.org/1999/xlink" x="0px" y="0px"
	 width="461.63px" height="461.63px" viewBox="0 0 461.63 461.63" style="enable-background:new 0 0 461.63 461.63;"
	 xml:space="preserve">
<g>
	<g>
		<path d="M388.307,137.529c-2.818-2.671-6.647-4.474-11.613-4.575c-5.378-0.106-10.659,0.213-15.868,0.777
			c-15.707-0.68-31.479,1.077-45.88,5.205c-9.501,2.728-13.142,10.659-12.456,18.301c-18.068,14.361-31.504,34.525-37.349,59.27
			c-6.739,28.543,1.157,54.984,17.65,75.043H173.575c15.257-18.57,24.73-42.254,25.296-66.883
			c1.13-49.134-32.712-77.307-73.295-87.102c-2.818-2.676-6.647-4.479-11.613-4.581c-5.375-0.106-10.659,0.213-15.869,0.777
			c-15.704-0.681-31.481,1.076-45.88,5.205c-9.498,2.727-13.139,10.659-12.458,18.306c-18.062,14.355-31.499,34.52-37.343,59.265
			c-13.188,55.837,29.549,103.687,83.327,111.274c9.884,1.391,19.456,1,28.645-0.625H344.86c1.204,0.213,2.397,0.427,3.61,0.6
			c60.854,8.576,111.797-44.793,113.133-103.145C462.73,175.502,428.89,147.33,388.307,137.529z M102.222,291.544h-6.073
			c-1.221,0-2.346,0.152-3.443,0.346c-7.77-0.295-15.452-1.899-22.625-4.967c-29.757-12.73-39.402-42.36-30.372-71.731
			c8.633-28.076,35.063-43.127,62.398-46.057c33.273,2.625,61.913,21.525,60.969,62.854
			C162.296,265.835,133.004,288.559,102.222,291.544z M365.065,291.544h-13.979c-6.276-0.645-12.446-2.163-18.271-4.651
			c-29.762-12.73-39.405-42.36-30.376-71.731c8.632-28.076,35.062-43.127,62.397-46.057c33.276,2.625,61.916,21.525,60.972,62.854
			C425.026,265.764,395.807,288.513,365.065,291.544z"/>
	</g>
</g>
<g>
</g>
<g>
</g>
<g>
</g>
<g>
</g>
<g>
</g>
<g>
</g>
<g>
</g>
<g>
</g>
<g>
</g>
<g>
</g>
<g>
</g>
<g>
</g>
<g>
</g>
<g>
</g>
<g>
</g>
</svg>
