<?xml version="1.0" encoding="iso-8859-1"?>
<!-- Generator: Adobe Illustrator 16.0.0, SVG Export Plug-In . SVG Version: 6.00 Build 0)  -->
<!DOCTYPE svg PUBLIC "-//W3C//DTD SVG 1.1//EN" "http://www.w3.org/Graphics/SVG/1.1/DTD/svg11.dtd">
<svg version="1.1" id="Capa_1" xmlns="http://www.w3.org/2000/svg" xmlns:xlink="http://www.w3.org/1999/xlink" x="0px" y="0px"
	 width="462.182px" height="462.182px" viewBox="0 0 462.182 462.182" style="enable-background:new 0 0 462.182 462.182;"
	 xml:space="preserve">
<g>
	<g>
		<path d="M431.583,148.054c-15.341-11.1-35.277-13.533-53.934-12.261c-2.458-0.68-5.139-1.054-8.1-1.008
			c-84.269,1.341-184.084-4.049-268.333-2.214c6.111-5.383,12.175-10.826,18.174-16.338c25.479-23.415-12.489-61.188-37.872-37.872
			c-23.019,21.152-46.854,41.335-71.404,60.7c-11.481,9.057-9.412,28.457,0,37.869c15.345,15.335,37.523,24.227,54.433,37.907
			c13.203,10.687,27.23,29.884,46.601,25.781c19.817-4.199,29.79-29.627,13.596-44.438c-3.867-3.537-7.855-6.921-11.814-10.349
			c39.583-0.562,79.168,0.333,118.738,1.229c27.398,0.617,70.424-0.812,97.8,0.82c12.237,0.729,24.45,1.747,36.709,1.071
			c10.806-0.592,27.567-4.217,36.383,4.223c0.062,0.068,0.082,0.094,0.147,0.172c6.353,12.317,5.291,33.558,5.627,47.26
			c0.33,13.188,1.533,26.543,0.894,39.726c-0.879,17.986-10.354,57.803-36.003,56.264c-0.63-0.035-1.234-0.091-1.884-0.091
			c-90.459-0.071-196.525-1.564-286.952,1.782c-1.236,0.046-2.417,0.178-3.572,0.351c-0.599-0.102-1.176-0.27-1.783-0.351
			c-30.17-4.048-28.053-31.296-22.381-55.365c7.919-33.586-43.716-47.845-51.641-14.239c-6.634,28.133-7.985,55.238,4.035,82.005
			c20.124,44.782,76.017,40.862,116.26,39.969c20.423-0.457,40.86-0.716,61.289-0.854c40.54-0.264,96.682-0.051,137.219,0.117
			c36.734,0.152,87.037,3.936,112.716-28.29c20.576-25.816,22.993-61.646,24.339-93.292c0.665-15.701,1.945-33.778,0.935-51.526
			C460.283,190.009,453.54,163.946,431.583,148.054z"/>
	</g>
</g>
<g>
</g>
<g>
</g>
<g>
</g>
<g>
</g>
<g>
</g>
<g>
</g>
<g>
</g>
<g>
</g>
<g>
</g>
<g>
</g>
<g>
</g>
<g>
</g>
<g>
</g>
<g>
</g>
<g>
</g>
</svg>
