<?xml version="1.0" encoding="iso-8859-1"?>
<!-- Generator: Adobe Illustrator 16.0.0, SVG Export Plug-In . SVG Version: 6.00 Build 0)  -->
<!DOCTYPE svg PUBLIC "-//W3C//DTD SVG 1.1//EN" "http://www.w3.org/Graphics/SVG/1.1/DTD/svg11.dtd">
<svg version="1.1" id="Capa_1" xmlns="http://www.w3.org/2000/svg" xmlns:xlink="http://www.w3.org/1999/xlink" x="0px" y="0px"
	 width="498.962px" height="498.962px" viewBox="0 0 498.962 498.962" style="enable-background:new 0 0 498.962 498.962;"
	 xml:space="preserve">
<g>
	<g>
		<path d="M402.82,219.864c10.426-14.127,19.546-34.863,19.657-35.18c0.99-2.615,0.879-5.522-0.305-8.062
			c-1.183-2.536-3.341-4.486-5.977-5.418c-1.544-0.541-3.204-1.147-4.951-1.788c-8.861-3.235-19.418-7.089-29.782-8.589
			c3.823-14.03,3.945-29.681,3.148-38.085c-0.264-2.813-1.655-5.397-3.864-7.155c-2.209-1.762-5.058-2.559-7.841-2.178
			c-11.009,1.444-24.572,3.458-37.846,6.723c-0.224-1.458-0.438-2.933-0.66-4.441c-1.641-11.144-3.336-22.66-7.703-33.616
			c-1.798-4.494-6.439-7.183-11.243-6.429c-13.649,2.103-24.633,11.258-34.322,19.34c-0.721,0.597-1.427,1.19-2.133,1.772
			c-4.961-7.825-10.187-15.49-15.284-22.973c-2.036-2.978-4.058-5.954-6.068-8.927c-1.927-2.872-5.159-4.588-8.617-4.588
			s-6.693,1.722-8.623,4.588c-2.849,4.223-5.481,8.668-8.028,12.972c-4.133,6.99-8.043,13.589-12.652,19.058
			c-0.421,0.5-0.779,0.922-1.086,1.27c-1.117-0.592-2.329-1.285-2.958-1.643c-9.516-5.418-19.588-13.292-28.683-20.398
			c-0.01-0.005-0.02-0.015-0.03-0.022c-4.52-3.534-11.06-2.734-14.602,1.79c-1.752,2.242-2.44,4.981-2.133,7.597
			c-0.27,1.944-1.247,6.802-4.085,18.463c-0.444,1.826-0.744,3.101-0.812,3.469c-0.452,2.351-0.769,4.598-1.071,6.708
			c-0.297,2.072-0.675,4.778-1.102,6.19c-0.645,0.061-1.866,0.076-3.171-0.043c-7.254-0.649-15.184-2.61-22.859-4.506
			c-4.217-1.041-8.399-2.077-12.512-2.925c-3.43-0.711-6.987,0.355-9.458,2.831c-2.48,2.48-3.542,6.035-2.829,9.463
			c0.203,0.988,0.602,3.717,1.158,7.368c1.95,12.906,3.476,22.354,4.895,29.312c-13.878,2.105-30.493,7.612-36.328,9.826
			c-3.197,1.211-5.533,3.989-6.348,7.312c-0.817,3.323,0.109,6.893,2.387,9.452c2.61,2.938,15.63,21.112,21.251,30.372
			c-8.901,8.378-19.862,16.125-31.465,22.199c-3.067,1.602-5.131,4.631-5.522,8.063c-0.378,3.443,0.98,6.845,3.616,9.09
			c4.191,3.544,9.899,6.215,15.952,9.044c5.398,2.514,14.939,6.981,17.362,10.638c-3.087,7.089-15.168,25.848-19.868,30.737
			c-2.709,1.254-4.867,3.671-5.69,6.789c-1.455,5.556,1.859,11.243,7.417,12.705c0.005,0,0.01,0,0.021,0.005
			c3.963,1.036,9.584,1.569,16.1,2.174c6.286,0.594,18.469,1.736,23.777,3.646c-0.333,8.647-4.212,29.3-6.446,35.205
			c-1.965,2.265-2.938,5.353-2.41,8.546c0.958,5.657,6.261,9.45,11.987,8.536c0.01-0.01,0.02-0.01,0.035-0.015
			c4.9-0.828,10.167-2.707,15.737-4.688c6.868-2.447,14.658-5.23,20.264-5.23c1.643,0,2.948,0.244,3.519,0.488
			c3.25,3.107,4.702,19.591,5.319,26.629c0.447,5.098,0.838,9.506,1.551,12.969c0.993,4.834,5.25,8.308,10.187,8.308
			c3.648,0,3.648,0,19.03-12.075c3.463-2.712,6.418-5.038,6.855-5.373c3.791-2.833,9.785-7.388,12.718-6.479
			c4.212,4.326,16.697,21.557,19.317,27.604c-0.005,3.509,1.765,6.926,4.966,8.896c1.696,1.036,3.573,1.533,5.424,1.533
			c3.501,0,6.916-1.767,8.876-4.966c0.005-0.006,0.01-0.016,0.016-0.021c1.995-3.26,3.864-7.221,5.85-11.41
			c4.174-8.831,10.404-22.003,16.803-22.993c5.479,1.935,22.064,11.436,26.883,16.052c0.828,3.107,3.093,5.788,6.327,7.027
			c5.353,2.047,11.375-0.619,13.432-5.986l0.005-0.006c0-0.005,0-0.005,0-0.01c0.386-1.006,1.3-3.433,5.804-26.228
			c0.894-4.54,1.625-8.272,2.225-11.359c0.868,0.233,1.741,0.477,2.63,0.721c10.461,2.849,22.318,6.078,33.038,6.078
			c1.695,0,3.356-0.076,4.956-0.248c5.565-0.564,9.684-5.444,9.317-11.02c-0.157-2.438-1.411-8.734-5.352-27.705
			c-0.803-3.865-1.701-8.182-2.453-11.842c1.869-0.549,3.718-1.107,5.54-1.656c10.41-3.138,20.241-6.104,30.153-6.393
			c3.483-0.107,6.688-1.945,8.526-4.9c1.843-2.961,2.076-6.647,0.624-9.821c-4.986-10.902-12.654-21.825-20.23-31.94
			c2.874-1.873,6.362-4.25,10.623-7.251c19.789-13.903,21.597-17.052,22.566-18.737c2.382-4.145,1.636-9.375-1.803-12.678
			C424.479,232.762,413.597,226.125,402.82,219.864z M384.261,266.635c-1.422,0.319-2.803,0.939-4.037,1.879
			c-4.57,3.483-5.448,10.003-1.97,14.573l1.66,2.184c5.484,7.19,11.44,15,16.396,22.719c-6.627,1.401-13.024,3.331-19.307,5.221
			c-4.813,1.452-9.363,2.823-13.954,3.95c-9.846,2.407-7.952,11.853-6.581,18.748c0.803,4.001,1.92,9.384,3.083,14.949
			c0.812,3.94,1.817,8.755,2.706,13.106c-5.967-1.011-12.472-2.782-18.834-4.514c-5.032-1.371-9.785-2.672-14.335-3.605
			c-5.611-1.163-11.111,2.427-12.289,8.043c-0.106,0.498-0.167,0.995-0.203,1.493c-0.446,2.96-2.925,15.995-5.164,27.106
			c-10.958-7.262-24.685-13.96-30.098-14.025c-16.295,0-25.646,13.73-32.339,26.821c-6.827-10.115-15.114-20.353-18.641-22.384
			c-3.608-2.071-7.528-3.128-11.651-3.128c-10.125,0-18.755,6.449-24.466,10.725c-0.267,0.188-2.356,1.828-5.106,3.991
			c-1.518-15.061-4.311-30.315-15.543-36.063c-3.895-2.001-8.386-3.006-13.363-3.006c-7.383,0-15.013,2.193-22.104,4.621
			c3.021-13.843,5.715-32.007,0.929-38.329c-5.86-7.738-17.659-9.958-34.822-11.71c7.528-10.811,17.362-26.659,16.171-34.159
			c-2.158-13.563-15.13-20.642-26.669-26.116c9.557-6.449,18.309-13.776,25.522-21.426c7.025-7.444,0.972-16.311-10.027-32.4
			c-1.97-2.879-4.227-6.104-6.431-9.184c8.849-2.567,19.03-4.934,25.246-4.934c1.414,0,1.995,0.14,2.016,0.145
			c5.55,1.378,11.223-1.975,12.621-7.553c0.838-3.324-0.03-6.678-2.054-9.138c-1.592-4.705-3.925-18.801-5.443-28.536
			c7.482,1.836,15.173,3.588,22.947,4.283c1.381,0.127,2.656,0.183,3.841,0.183c19.479,0,21.698-15.698,22.889-24.133
			c0.256-1.798,0.525-3.712,0.878-5.573c0.083-0.381,0.312-1.31,0.625-2.6c0.521-2.128,0.998-4.104,1.435-5.934
			c5.7,4.197,11.624,8.257,17.587,11.659c5.573,3.176,9.598,5.261,14.429,5.261c7.774,0,12.434-5.527,15.828-9.567
			c5.354-6.37,9.681-13.505,13.817-20.477c6.134,9.016,12.309,18.255,17.731,27.512c1.458,2.481,3.865,4.243,6.668,4.877
			c2.793,0.63,5.733,0.089,8.119-1.519c4.276-2.887,8.45-6.36,12.472-9.719c5.241-4.367,10.593-8.828,15.904-11.73
			c1.509,6.147,2.474,12.692,3.474,19.489c0.797,5.454,1.625,11.096,2.777,16.623c0.6,2.876,2.387,5.362,4.921,6.85
			c2.539,1.485,5.565,1.833,8.379,0.95c11.004-3.458,23.511-5.83,34.261-7.488c-0.411,11.316-2.772,23.671-7.104,29.948
			c-2.483,3.598-2.448,8.371,0.091,11.933c2.534,3.567,7.038,5.157,11.248,3.994c1.3-0.36,2.879-0.541,4.687-0.541
			c7.328,0,16.859,2.938,25.096,5.84c-4.972,9.115-12.289,21.562-15.874,25.832c-2.036,0.838-3.813,2.323-5.007,4.361
			c-2.885,4.931-1.249,11.258,3.646,14.181c2.584,1.539,5.255,3.085,7.946,4.644c7.247,4.187,14.65,8.471,21.201,13.195
			C401.531,255.458,388.806,264.237,384.261,266.635z"/>
		<path d="M449.391,210.972c3.108-4.362,6.779-10.181,11.319-17.887c7.185-12.202,15.193-27.205,16.798-31.468
			c0.99-2.615,0.878-5.522-0.3-8.062c-1.188-2.537-3.341-4.492-5.977-5.418c-2.077-0.731-4.312-1.544-6.657-2.402
			c-12.873-4.694-28.478-10.395-43.214-11.809c5.738-18.121,6.576-40.121,5.307-53.562c-0.264-2.813-1.655-5.398-3.864-7.155
			c-2.214-1.765-5.053-2.554-7.841-2.178c-15.66,2.054-35.185,4.969-53.928,9.859c-0.519-3.194-0.99-6.449-1.482-9.788
			c-2.163-14.688-4.403-29.876-10.085-44.135c-1.793-4.499-6.419-7.165-11.243-6.429c-17.29,2.663-31.569,14.576-44.179,25.085
			c-2.025,1.686-4.001,3.339-5.94,4.908c-7.236-11.621-14.985-22.988-22.536-34.058c-2.712-3.968-5.403-7.924-8.074-11.888
			C255.56,1.722,252.33,0,248.872,0c-3.463,0-6.693,1.722-8.625,4.585c-3.745,5.565-7.239,11.461-10.613,17.167
			c-5.611,9.473-10.91,18.417-17.25,25.956c-1.617,1.919-2.666,3.064-3.344,3.739c-1.892-0.833-4.986-2.595-6.482-3.447
			c-12.944-7.368-26.52-17.981-38.813-27.586c0,0,0,0-0.005-0.005c-4.517-3.529-10.897-2.604-14.434,1.925
			c-3.453,4.42-2.615,10.875,1.643,14.467l-0.005,0.005c-3.161-2.47-3.875-5.898-3.806-7.368c-0.109,2.427-2.006,11.23-5.637,26.165
			c-0.586,2.43-0.988,4.118-1.082,4.575c-0.586,3.085-1.008,6.032-1.404,8.8c-1.607,11.372-1.607,11.372-6.545,11.372
			c-0.917,0-1.894-0.053-2.956-0.147c-9.953-0.894-20.69-3.544-31.072-6.114c-5.596-1.384-11.154-2.75-16.61-3.885
			c-3.448-0.713-6.987,0.353-9.458,2.828c-2.48,2.476-3.542,6.033-2.829,9.458c0.274,1.348,0.82,5.05,1.574,10.017
			c3.021,19.999,5.269,33.502,7.312,42.7c-18.784,2.222-43.31,10.331-51.552,13.462c-3.214,1.224-5.591,3.989-6.391,7.338
			c-0.8,3.349,0.135,6.911,2.455,9.452c4.014,4.411,23.539,31.969,30.222,43.577c-12.471,12.146-28.185,23.43-44.866,32.161
			c-3.062,1.604-5.126,4.629-5.515,8.062c-0.381,3.442,0.978,6.845,3.613,9.079c5.24,4.443,12.677,7.917,20.545,11.599
			c9.831,4.59,23.069,10.775,25.578,17.285c-3.184,8.77-21.83,37.811-28.365,44.138c-2.981,1.178-5.383,3.707-6.261,7.043
			c-1.455,5.551,1.856,11.237,7.414,12.7c5.025,1.32,12.423,2.016,20.987,2.823c9.694,0.904,29.1,2.727,35,5.972
			c0.328,10.399-5.807,43.406-9.12,51.313c-2.224,2.29-3.364,5.58-2.793,8.982c0.952,5.657,6.262,9.455,11.982,8.531
			c6.266-1.057,13.177-3.524,20.492-6.135c9.453-3.366,20.174-7.19,28.276-7.19c2.798,0,5.012,0.447,6.782,1.352
			c5.413,2.772,7.751,29.36,8.526,38.104c0.589,6.713,1.104,12.502,2.014,16.93c0.993,4.84,5.25,8.313,10.186,8.313
			c3.677,0,3.677,0,23.479-15.539c4.59-3.601,8.48-6.657,9.046-7.084c6.386-4.783,15.237-11.659,21.092-8.835
			c5.486,5.169,24.313,31.199,27.362,39.212c-0.251,3.737,1.529,7.479,4.938,9.577c1.696,1.035,3.578,1.533,5.429,1.533
			c3.501,0,6.911-1.762,8.873-4.961c0,0,0,0,0-0.005c2.58-4.205,5.053-9.425,7.663-14.95c6.419-13.588,15.173-32.098,26.07-32.804
			c7.059,2.093,32.687,16.728,38.699,23.227c0.609,3.479,2.986,6.562,6.53,7.912c5.353,2.052,11.375-0.63,13.432-5.992
			c0-0.011,0.005-0.021,0.005-0.021c0.406-1.056,1.63-4.356,7.586-34.489c1.605-8.12,2.809-14.214,3.687-18.87
			c2.336,0.614,4.738,1.27,7.196,1.939c13.767,3.758,29.365,8.004,43.229,8.004c2.143,0,4.235-0.102,6.267-0.315
			c5.565-0.563,9.684-5.443,9.317-11.024c-0.198-3.021-1.949-11.796-7.104-36.612c-1.311-6.321-2.804-13.513-3.9-18.966
			c3.529-1.006,7.023-2.057,10.451-3.088c14.151-4.266,27.522-8.292,41.237-8.693c3.484-0.102,6.684-1.939,8.531-4.895
			c1.844-2.966,2.072-6.652,0.63-9.821c-7.022-15.351-18.194-30.874-28.935-45.067c4.271-2.706,9.861-6.454,17.261-11.653
			c25.821-18.159,28.157-22.211,29.147-23.948c2.376-4.133,1.63-9.363-1.808-12.672
			C480.396,229.042,464.696,219.823,449.391,210.972z M430.882,275.755c-1.574,0.279-3.108,0.929-4.469,1.965
			c-4.57,3.479-5.454,10.004-1.976,14.574c0.006,0,0.006,0,0.006,0l2.193,2.879c8.419,11.029,17.661,23.146,24.841,35.018
			c-10.511,1.838-20.611,4.885-30.493,7.86c-6.475,1.95-12.593,3.788-18.905,5.343c-9.79,2.488-8.079,11.034-6.104,20.931
			c1.066,5.327,2.555,12.497,4.098,19.927c1.412,6.809,3.229,15.538,4.616,22.465c-9.476-1.092-20.124-3.991-30.493-6.825
			c-6.688-1.817-13-3.534-18.986-4.773l-2.188,10.572l-10.268-1.229c-0.381,3.158-4.672,25.634-8.064,42.147
			c-14.554-10.329-35.49-21.089-42.614-21.176c-21.968,0-34.063,21.292-42.787,39.334c-9.25-14.482-22.234-31.057-27.126-33.87
			c-4.286-2.468-8.94-3.717-13.833-3.717c-12.38,0-22.922,7.886-30.607,13.63c-0.427,0.319-4.532,3.544-9.417,7.373
			c-0.779,0.609-1.589,1.249-2.407,1.889c-1.886-21.155-4.555-44.168-19.494-51.831c-4.705-2.407-10.176-3.631-16.265-3.631
			c-11.342,0-23.44,4.194-34.226,8.033c4.326-18.433,9.188-46.458,3.11-54.491c-7.622-10.07-25.573-12.548-50.122-14.863
			c9.942-13.898,26.037-38.436,24.519-48.027c-2.841-17.89-22.152-26.914-37.668-34.165c-0.562-0.264-1.13-0.528-1.696-0.792
			c14.597-9.275,27.987-20.152,38.745-31.567c6.863-7.289,2.267-15.485-13.754-38.93c-3.479-5.09-7.665-11.019-11.425-16.194
			c13.022-3.999,29.713-8.168,39.479-8.168c2.095,0,3.166,0.208,3.542,0.302c0.005,0,0.01,0,0.015,0
			c5.553,1.404,11.215-1.988,12.619-7.561c0.884-3.532-0.15-7.094-2.447-9.59c-2.524-6.703-6.454-31.547-8.445-44.582
			c0.353,0.089,0.711,0.175,1.064,0.264c11.144,2.752,22.663,5.601,34.195,6.634c1.731,0.157,3.339,0.231,4.827,0.231
			c23.003,0,25.489-17.608,27.142-29.255c0.343-2.455,0.718-5.07,1.216-7.718c0.109-0.493,0.432-1.818,0.881-3.659
			c1.206-4.977,2.254-9.268,3.123-12.989c8.821,6.654,18.113,13.233,27.426,18.537c6.972,3.974,11.958,6.573,17.565,6.573
			c8.767,0,14.147-6.403,18.474-11.545c7.452-8.851,13.441-18.963,19.23-28.749c0.576-0.979,1.152-1.944,1.721-2.902
			c9.227,13.536,18.717,27.507,26.954,41.541c1.453,2.476,3.864,4.237,6.662,4.877c2.788,0.635,5.733,0.089,8.115-1.518
			c5.57-3.756,11.07-8.341,16.392-12.776c8.409-7.016,17.031-14.206,25.791-18.022c2.722,9.572,4.235,19.837,5.819,30.559
			c1.066,7.254,2.168,14.752,3.691,22.041c0.6,2.877,2.387,5.362,4.916,6.851c2.533,1.48,5.565,1.835,8.379,0.944
			c16.36-5.142,35.113-8.496,50.459-10.753c-0.061,16.875-3.422,36.26-10.217,46.118c-2.488,3.598-2.447,8.371,0.087,11.934
			c2.539,3.567,7.032,5.159,11.247,3.994c2.047-0.566,4.469-0.854,7.211-0.854c11.588,0,26.111,4.877,38.577,9.382
			c-6.854,12.852-18.945,33.651-24.166,39.436c-2.341,0.759-4.418,2.354-5.758,4.644c-2.874,4.928-1.239,11.25,3.655,14.173
			c3.438,2.049,6.988,4.098,10.573,6.177c11.177,6.464,22.647,13.093,32.428,20.657C458.46,257.829,437.326,272.494,430.882,275.755
			z"/>
		<path d="M160.85,221.113c-6.609-11.129-6.246-13.218,6.972-13.873c11.679-0.577,11.735-18.781,0-18.2
			c-25.4,1.259-35.947,16.551-23.727,39.42c5.781,10.831,13.645,20.451,19.842,31.044c6.122,10.466,6.761,15.173-6.515,16.636
			c-11.532,1.279-11.659,19.489,0,18.199c25.806-2.854,35.432-18.921,23.28-42.127C174.998,241.321,167.122,231.67,160.85,221.113z"
			/>
		<path d="M223.002,184.559c-4.532-5.426-13.462-2.112-15.208,4.014c-9.11,31.948-11.362,65.052-14.622,97.967
			c-1.16,11.68,17.049,11.562,18.2,0c0.701-7.073,1.378-14.137,2.069-21.205c6.438,0.802,12.88,1.365,19.365,1.579
			c0.942,7.317,1.831,14.533,2.938,21.394c1.876,11.562,19.411,6.642,17.549-4.835C247.745,249.268,246.193,212.29,223.002,184.559z
			 M215.38,247.379c1.31-11.172,2.859-22.298,5.061-33.327c4.897,10.687,7.695,22.526,9.716,34.535
			C225.213,248.374,220.283,248.009,215.38,247.379z"/>
		<path d="M293.269,274.19c-5.302,0.487-10.029,0.386-15-0.162c-2.428-27.721-4.962-55.421-8.399-83.038
			c-1.432-11.486-19.644-11.626-18.199,0c3.771,30.257,6.459,60.624,9.1,91c0.32,3.737,2.498,8.084,6.683,8.774
			c8.688,1.433,16.991,2.448,25.816,1.625C304.852,291.304,304.958,273.104,293.269,274.19z"/>
		<path d="M338.971,199.072c11.572-1.115,11.684-19.116,0-17.994c-7.83,0.757-15.483,1.508-23.217,2.892
			c-3.94,0.704-6.683,4.951-6.683,8.674v89.093c0,2.021,0.573,3.677,1.493,4.986c0.873,3.555,3.676,6.581,8.475,6.581h18.199
			c11.735,0,11.735-17.996,0-17.996h-9.968v-28.264h9.1c4.962,0,9.1-4.091,9.1-8.996c0-4.902-4.138-8.996-9.1-8.996h-9.1v-28.693
			C331.16,199.841,335.061,199.39,338.971,199.072z"/>
	</g>
</g>
<g>
</g>
<g>
</g>
<g>
</g>
<g>
</g>
<g>
</g>
<g>
</g>
<g>
</g>
<g>
</g>
<g>
</g>
<g>
</g>
<g>
</g>
<g>
</g>
<g>
</g>
<g>
</g>
<g>
</g>
</svg>
