<?xml version="1.0" encoding="iso-8859-1"?>
<!-- Generator: Adobe Illustrator 16.0.0, SVG Export Plug-In . SVG Version: 6.00 Build 0)  -->
<!DOCTYPE svg PUBLIC "-//W3C//DTD SVG 1.1//EN" "http://www.w3.org/Graphics/SVG/1.1/DTD/svg11.dtd">
<svg version="1.1" id="Capa_1" xmlns="http://www.w3.org/2000/svg" xmlns:xlink="http://www.w3.org/1999/xlink" x="0px" y="0px"
	 width="485.838px" height="485.839px" viewBox="0 0 485.838 485.839" style="enable-background:new 0 0 485.838 485.839;"
	 xml:space="preserve">
<g>
	<g>
		<path d="M91.016,358.226c-0.635-0.675-1.346-1.314-2.242-1.873c-3.072-1.92-8.053-4.627-9.531-8.227
			c-1.153-2.809,2.882-5.2,5.195-6.749c11.093-7.408,0.693-25.431-10.496-17.961c-8.607,5.749-16.333,13.66-15.757,24.775
			c0.589,11.233,9.562,19.251,18.417,25.024c1.062,1.229,2.407,2.285,4.154,3.012c10.583,4.393,20.619,10.607,28.449,19.012
			c8.066,8.652,0.774,11.705-8.518,14.665c-12.728,4.047-7.29,24.136,5.527,20.053c17.321-5.509,34.299-18.722,25.006-38.679
			C123.827,375.369,106.793,365.238,91.016,358.226z"/>
		<path d="M130.743,298.179c-8.752-7.83-21.19,2.523-17.301,11.237c9.442,29.976,19.078,59.896,28.521,89.881
			c4.017,12.74,24.098,7.297,20.058-5.53c-1.29-4.104-2.605-8.195-3.9-12.299c4.976-2.854,9.935-5.729,14.718-8.892
			c1.046-0.69,1.935-1.544,2.689-2.478c3.283,3.458,6.647,6.834,9.844,10.384c9,9.983,23.661-4.773,14.706-14.706
			C178.42,341.758,154.828,319.729,130.743,298.179z M151.672,361.166c-2.318-7.297-4.624-14.6-6.947-21.886
			c5.568,5.266,11.035,10.648,16.473,16.051C158.073,357.353,154.891,359.287,151.672,361.166z"/>
		<path d="M227.834,341.515c-2.397,1.955-5.533,4.031-8.762,5.824c-17.476-22.1-32.936-45.596-47.702-69.584
			c-7.016-11.399-25.012-0.959-17.961,10.496c16.717,27.168,34.375,53.578,54.489,78.369c1.201,1.482,2.531,2.401,3.9,2.95
			c2.199,1.122,4.717,1.513,7.081,0.589c8.747-3.407,16.397-8.008,23.656-13.939c4.393-3.595,3.707-11.004,0-14.705
			C238.234,337.208,232.219,337.929,227.834,341.515z"/>
		<path d="M266.833,304.247c-1.396,1.138-3.661,2.625-5.814,3.915c-0.878,0.523-1.812,1-2.736,1.478
			c-4.129-4.971-8.019-10.09-11.796-15.284c2.069-1.306,4.113-2.656,6.083-4.113c4.55-3.356,6.83-8.942,3.737-14.224
			c-2.636-4.499-9.658-7.104-14.229-3.732c-2.32,1.711-4.743,3.271-7.193,4.783c-3.836-6.175-7.523-12.456-10.872-18.956
			c3.552-1.792,7.002-3.783,10.362-5.997c4.723-3.112,6.713-9.135,3.735-14.226c-2.745-4.692-9.491-6.855-14.226-3.735
			c-4.966,3.275-10.156,6.34-15.714,8.49c-3.517,1.356-6.241,3.981-7.224,7.303c-1.14,2.585-1.325,5.651,0.14,8.841
			c11.944,25.902,28.097,49.027,46.689,70.568c2.696,3.123,5.946,3.88,8.896,3.153c0.706-0.065,1.402-0.213,2.088-0.477
			c8.419-3.245,15.792-7.369,22.79-13.071c4.402-3.59,3.701-11.004,0-14.706C277.227,299.936,271.225,300.667,266.833,304.247z"/>
		<path d="M475.725,27c-17.884-25.557-51.566-20.165-76.758-10.509c-14.514,5.563-29.301,12.406-42.731,20.249
			c-43.112,25.161-126.229,81.352-117.169,140.49c-76.34,46.928-163.239,97.626-232.718,137.524
			c-1.646,0.945-2.803,2.128-3.621,3.418c-2.828,2.904-3.935,7.211-0.978,11.68c7.607,11.48,14.701,23.267,21.549,35.215
			c0.045,0.102,0.068,0.209,0.119,0.315C40.599,400.429,58.674,435,77.147,469.378c0.556,1.041,1.234,1.854,1.945,2.559
			c1.904,4.007,6.028,6.703,11.535,4.819c106.102-36.282,227.28-121.896,314.845-189.865c2.985-2.315,3.895-5.134,3.509-7.81
			c0.355-2.031,0.102-4.251-1.016-6.525c-6.8-13.843-14.539-27.041-22.765-39.913c9.196-6.807,17.702-14.419,25.08-21.652
			c23.49-23.024,43.985-49.305,57.884-79.245c9.866-21.267,20.266-52.052,17.093-78.409C484.099,43.749,481.149,34.746,475.725,27z
			 M386.161,275.749c-81.065,62.922-196.254,143.174-293.662,178.247c-16.229-30.274-32.111-60.717-47.34-91.505
			c-0.213-1.071-0.556-2.163-1.186-3.275c-6-10.623-12.314-21.048-18.859-31.331c84.914-48.967,199.61-115.902,282.13-168.794
			c17.072,23.519,34.81,46.504,51.028,70.495c-5.104,2.679-10.277,4.753-15.422,5.979c-1.097-6.545-3.672-12.672-7.784-17.331
			c-0.563-0.645-1.158-1.251-1.768-1.835c-18.159-17.217-53.431-5.081-62.627,16.806c-4.666,11.098,0.325,30.932,10.39,38.336
			c11.893,8.744,31.118,10.846,44.417,4.291c8.801-4.337,14.355-12.843,16.707-22.349c8.627-1.65,17.199-5.062,25.481-9.567
			C374.237,254.26,380.467,264.827,386.161,275.749z M308.767,227.412c3.428-0.338,7.032,0.625,10.511,3.661
			c1.504,1.315,2.564,2.75,3.301,4.253C317.795,233.887,313.165,231.322,308.767,227.412z M318.116,252.884
			c-4.362,4.468-10.567,7.316-16.225,6.189c-3.529-0.701-6.007-2.209-7.606-4.199c-3.367-4.199-2.823-10.562-0.025-16.12
			c0.127,0.135,0.213,0.279,0.355,0.414C302.125,246.368,310.037,250.71,318.116,252.884z M467.012,53.342
			c0.665,51.303-21.566,89.499-53.608,127.47c-8.795,10.42-22.369,25.489-37.709,37.382c-17.89-26.286-37.582-51.387-56.127-77.368
			c-0.676-0.947-1.452-1.676-2.265-2.315c-2.834-3.692-7.729-5.563-12.832-2.283c-15.098,9.699-31.189,19.827-47.881,30.187
			c1.523-42.754,65.745-85.902,95.131-105.406C379.477,42.589,454.541-2.63,467.052,52.89
			C467.047,53.045,467.012,53.179,467.012,53.342z"/>
	</g>
</g>
<g>
</g>
<g>
</g>
<g>
</g>
<g>
</g>
<g>
</g>
<g>
</g>
<g>
</g>
<g>
</g>
<g>
</g>
<g>
</g>
<g>
</g>
<g>
</g>
<g>
</g>
<g>
</g>
<g>
</g>
</svg>
