<?xml version="1.0" encoding="iso-8859-1"?>
<!-- Generator: Adobe Illustrator 16.0.0, SVG Export Plug-In . SVG Version: 6.00 Build 0)  -->
<!DOCTYPE svg PUBLIC "-//W3C//DTD SVG 1.1//EN" "http://www.w3.org/Graphics/SVG/1.1/DTD/svg11.dtd">
<svg version="1.1" id="Capa_1" xmlns="http://www.w3.org/2000/svg" xmlns:xlink="http://www.w3.org/1999/xlink" x="0px" y="0px"
	 width="478.415px" height="478.415px" viewBox="0 0 478.415 478.415" style="enable-background:new 0 0 478.415 478.415;"
	 xml:space="preserve">
<g>
	<g>
		<path d="M463.041,23.733c-1.021-1.442-2.356-2.653-3.977-3.582c-12.329-7.12-25.552-10.728-39.309-10.728
			c-27.08,0-55.685,13.119-90.017,41.287c-29.346,24.08-54.024,53.364-77.896,81.684c-11.044,13.104-22.462,26.654-34.172,39.477
			c-1.166,1.27-2.034,2.699-2.595,4.232l-0.328,0.396c-7.297,10.042-14.998,20.695-22.272,31.521l-1.201-1.051
			c-0.968-0.853-2.039-1.539-3.275-2.09c-2.049-1.721-4.654-2.63-7.81-2.63c-0.005,0-0.01,0-0.015,0
			c-8.696,0.18-16.074,3.176-21.335,8.673c-6.21,6.49-7.774,15.064-7.968,21.257c-0.947,3.141-0.322,6.499,1.785,9.501
			c7.663,10.947,16.529,21.327,26.362,30.869c-24.689,24.592-49.975,49.322-74.451,73.26c-26.015,25.45-52.915,51.755-79.112,77.906
			c-3.791,3.788-27.761,34.475-25.276,42.477c0.457,1.468,1.587,2.474,3.1,2.753l0.556,0.046c5.061,0,38.786-27.549,39.065-27.828
			c26.208-26.156,53.128-52.49,79.163-77.946c24.867-24.323,50.559-49.449,75.636-74.434c9.308,7.125,19.375,13.6,29.948,19.267
			c1.856,0.995,3.831,1.498,5.86,1.498l0.322,0.005c0.343,0.061,0.691,0.111,1.066,0.132c1.379,0.051,2.765,0.081,4.164,0.081
			c0,0,0,0,0.005,0c9.354,0,22.679-1.27,30.498-12.237c5.795-8.13,4.108-18.85-5.006-31.88
			c47.107-26.34,107.033-61.891,158.138-105.226c31.793-26.962,79.511-80.318,41.919-134.793
			C464.127,24.93,463.599,24.3,463.041,23.733z M212.46,222.465c7.582-11.377,15.661-22.567,23.311-33.085
			c0.498-0.693,0.924-1.419,1.29-2.222c11.188-12.34,22.12-25.202,32.692-37.641c17.595-20.695,35.789-42.109,55.543-61.524
			c25.613-25.185,59.352-54.078,93.282-54.078c5.743,0,11.318,0.967,16.712,2.676c-25.796,68.545-83.726,116.669-148.526,147.406
			c-12.115,5.746-1.554,23.676,10.496,17.961c66.445-31.517,124.365-80.806,153.695-148.772
			c13.111,39.357-27.649,77.025-66.272,106.236c-38.577,29.179-83.487,57.724-141.231,89.764
			C232.01,241.457,221.595,232.486,212.46,222.465z M175.625,230.925c0.129-0.452,0.218-0.919,0.294-1.36l1.026-1.846
			c0.124-0.079,0.249-0.147,0.373-0.219c0.005-0.005,0.005-0.005,0.01-0.005c24.519,21.559,45.854,38.62,67.075,53.615
			c0.528,0.371,1.087,0.701,1.681,0.99c0.569,0.925,1.021,1.717,1.265,2.225c-0.335,0.092-0.681,0.173-1.011,0.254
			c-2.335,0.549-5.689,0.635-9.178,0.513c-25.06-13.894-45.77-31.956-61.568-53.682L175.625,230.925z M216.936,177.929
			L216.936,177.929l-0.005-0.005L216.936,177.929z"/>
	</g>
</g>
<g>
</g>
<g>
</g>
<g>
</g>
<g>
</g>
<g>
</g>
<g>
</g>
<g>
</g>
<g>
</g>
<g>
</g>
<g>
</g>
<g>
</g>
<g>
</g>
<g>
</g>
<g>
</g>
<g>
</g>
</svg>
