<?xml version="1.0" encoding="iso-8859-1"?>
<!-- Generator: Adobe Illustrator 16.0.0, SVG Export Plug-In . SVG Version: 6.00 Build 0)  -->
<!DOCTYPE svg PUBLIC "-//W3C//DTD SVG 1.1//EN" "http://www.w3.org/Graphics/SVG/1.1/DTD/svg11.dtd">
<svg version="1.1" id="Capa_1" xmlns="http://www.w3.org/2000/svg" xmlns:xlink="http://www.w3.org/1999/xlink" x="0px" y="0px"
	 width="479.721px" height="479.721px" viewBox="0 0 479.721 479.721" style="enable-background:new 0 0 479.721 479.721;"
	 xml:space="preserve">
<g>
	<g>
		<path d="M468.111,163.619c-0.248-3.115-0.432-6.23-0.66-9.346c-0.253-7.513-0.548-15.028-0.781-22.541
			c-0.041-1.102-0.224-2.1-0.493-3.037c-0.076-0.82-0.259-1.617-0.487-2.396c-1.173-22.318-1.858-44.646-1.924-67.021
			c-0.021-7.46-5.81-11.2-11.599-11.21c-0.903-0.224-1.854-0.368-2.895-0.381c-145.905-1.747-291.907-13.894-437.655-1.45
			c-4.012,0.343-6.906,2.323-8.75,4.976c-1.879,1.856-3.052,4.525-2.844,8.064l4.347,73.912c0.021,0.389,0.117,0.721,0.173,1.092
			c3.468,24.323,0.833,50.475,1.407,75.045c1.31,55.87,4.184,111.556,3.163,167.475c-0.305,16.387-0.873,32.768-1.848,49.124
			c-0.127,2.193,0.305,4.026,1.066,5.575c1.391,4.113,4.895,7.43,10.527,7.47c148.424,1.041,296.478-12.644,444.896-11.593
			c1.32,0.01,2.488-0.219,3.575-0.543c6.281,0.69,12.857-2.956,12.364-11.055c-5.052-82.889-8.917-165.842-11.816-248.839
			C468.097,165.922,468.213,164.841,468.111,163.619z M23.753,68.514c138.868-10.582,277.958,0.186,416.967,2.225
			c0.184,16.089,0.646,32.166,1.402,48.223c-138.497,3.349-276.989-1.361-415.496-1.673C25.668,101.028,24.713,84.769,23.753,68.514
			z M30.903,415.789c3.179-64.013,0.721-128.112-0.239-192.148c-0.254-17.217-0.406-34.434-0.305-51.651
			c0.01-1.924-3.103-31.511-2.427-31.511c138.497,0.337,276.979,5.038,415.47,1.643c0.264,4.144,0.579,8.29,0.879,12.428
			c2.803,83.269,6.616,166.499,11.577,249.667C314.097,403.703,172.66,416.048,30.903,415.789z"/>
		<path d="M404.312,331.367c-70.519-7.175-141.198-6.824-211.894-4.925v-9.374c0-14.335-11.664-25.999-26-25.999H147.57
			c-14.335,0-26,11.664-26,25.999v11.567c-16.25,0.528-32.504,1.025-48.749,1.432c-13.391,0.33-13.421,21.13,0,20.8
			c16.245-0.406,32.499-0.904,48.749-1.432v7.932c0,14.335,11.664,25.999,26,25.999h18.849c14.335,0,26-11.664,26-25.999v-10.126
			c70.696-1.899,141.375-2.249,211.894,4.926C417.652,353.523,417.525,332.708,404.312,331.367z M171.619,347.841v9.526
			c0,2.869-2.336,5.199-5.2,5.199H147.57c-2.864,0-5.2-2.33-5.2-5.199v-8.603v-20.799v-10.897c0-2.869,2.335-5.2,5.2-5.2h18.849
			c2.864,0,5.2,2.331,5.2,5.2v9.973V347.841z"/>
		<path d="M404.211,210.469c-16.245-0.406-32.499-0.904-48.749-1.43v-11.57c0-14.335-11.664-26-25.999-26h-18.85
			c-14.335,0-25.999,11.664-25.999,26v9.374c-70.696-1.896-141.376-2.249-211.894,4.926c-13.213,1.341-13.34,22.155,0,20.8
			c70.518-7.176,141.198-6.822,211.894-4.926v10.125c0,14.338,11.664,26.002,25.999,26.002h18.85
			c14.335,0,25.999-11.664,25.999-26.002v-7.929c16.25,0.525,32.504,1.023,48.749,1.429
			C417.632,231.601,417.602,210.801,404.211,210.469z M334.662,229.168v8.599c0,2.872-2.33,5.203-5.199,5.203h-18.85
			c-2.864,0-5.2-2.331-5.2-5.203v-9.526v-20.799v-9.973c0-2.869,2.336-5.2,5.2-5.2h18.85c2.869,0,5.199,2.331,5.199,5.2v10.9
			V229.168z"/>
		<path d="M52.891,78.304c-13.416,0-13.416,20.799,0,20.799C66.302,99.104,66.302,78.304,52.891,78.304z"/>
		<path d="M87.553,78.304c-13.411,0-13.411,20.799,0,20.799C100.969,99.104,100.969,78.304,87.553,78.304z"/>
		<path d="M124.82,78.304c-13.416,0-13.416,20.799,0,20.799S138.236,78.304,124.82,78.304z"/>
	</g>
</g>
<g>
</g>
<g>
</g>
<g>
</g>
<g>
</g>
<g>
</g>
<g>
</g>
<g>
</g>
<g>
</g>
<g>
</g>
<g>
</g>
<g>
</g>
<g>
</g>
<g>
</g>
<g>
</g>
<g>
</g>
</svg>
