<?xml version="1.0" encoding="iso-8859-1"?>
<!-- Generator: Adobe Illustrator 16.0.0, SVG Export Plug-In . SVG Version: 6.00 Build 0)  -->
<!DOCTYPE svg PUBLIC "-//W3C//DTD SVG 1.1//EN" "http://www.w3.org/Graphics/SVG/1.1/DTD/svg11.dtd">
<svg version="1.1" id="Capa_1" xmlns="http://www.w3.org/2000/svg" xmlns:xlink="http://www.w3.org/1999/xlink" x="0px" y="0px"
	 width="504.967px" height="504.967px" viewBox="0 0 504.967 504.967" style="enable-background:new 0 0 504.967 504.967;"
	 xml:space="preserve">
<g>
	<g>
		<path d="M388.728,133.291l-12.857,9.1c-15.035,10.638-26.309,18.271-34.997,23.688c0,0.025,0,0.048,0,0.068
			c6.449,1.539,12.01,4.269,16.56,7.835c4.367-2.869,9.186-6.124,14.63-9.884c-0.224,7.518-0.396,14.721-0.427,20.894
			c-1.097,1.155-2.174,2.247-3.261,3.369c2.483,6.172,3.129,13.154,1.676,20.446c4.905-4.801,9.861-9.833,14.935-15.231l2.255-2.252
			l-0.011-3.245c-0.035-10.476,0.452-25.037,0.945-39.049L388.728,133.291z"/>
		<path d="M479.944,114.362c1.844,0.665,3.783,1.003,5.754,1.003c8.338,0,16.305-6.146,18.55-14.3
			c2.731-9.952-2.696-19.852-12.898-23.533c-0.36-0.13-0.721-0.262-1.081-0.392c2.559-4.633,3.047-10.138,1.173-15.531
			c-2.804-8.048-9.943-13.472-17.809-13.541c0.619-10.021-4.783-18.204-13.884-20.705c-9.1-2.496-22.276,2.655-23.932,14.459
			c-1.519,10.832-3.524,21.909-6.13,33.779c-5.093,3.488-11.024,7.711-17.057,12.062c0.112-12.213,0.011-21.901-0.335-29.658
			c5.783-5.377,11.908-10.96,18.306-16.333c8.374-7.041,10.237-17.856,4.515-26.296c-3.524-5.205-9.983-8.574-16.453-8.574
			c-4.153,0-7.946,1.346-10.979,3.895c-0.324,0.269-0.64,0.541-0.954,0.805c-3.92-5.058-10.187-7.711-16.144-7.711
			c-5.266,0-10.236,2.008-13.634,5.512c-0.63,0.65-1.198,1.348-1.722,2.075c-3.077-2.245-6.57-3.415-10.237-3.415
			c-7.479,0-14.573,5.07-17.666,12.608c-3.077,7.498-1.396,15.704,4.393,21.409c7.068,6.972,14.594,14.335,22.373,21.495
			c0.279,6.251,0.371,14.185,0.27,23.981c-11.121-7.727-19.937-13.571-27.045-17.938c-1.173-7.586-2.407-16.026-3.266-24.306
			c-1.127-10.882-9.039-18.483-19.251-18.483c-5.387,0-10.877,2.511-14.665,6.718c-3.447,3.826-5.077,8.579-4.575,13.363
			c0.046,0.421,0.087,0.843,0.127,1.264c-8.236,0.495-15.757,6.546-18.139,14.757c-1.137,3.92-0.959,7.795,0.376,11.258
			c-7.692,2.834-12.313,10.113-11.471,18.631c0.884,8.917,8.033,18.397,19.555,18.397c1.346,0,2.712-0.134,4.078-0.412
			c9.704-1.939,19.987-4.029,30.341-6.479c9.104,5.586,20.688,13.604,30.757,20.759c-8.262,5.87-17.458,12.246-25.562,17.461
			c2.382,4.903,3.956,10.092,4.708,15.511c9.292-5.786,21.546-14.201,38.811-26.645l8.78-6.327l-8.78-6.329
			c-20.297-14.625-33.702-23.72-43.452-29.473l-2.727-1.61l-3.083,0.747c-11.136,2.706-22.327,4.986-32.844,7.094
			c-3.088,0.619-4.85-2.188-5.053-4.228c-0.203-2.034,0.746-2.387,2.006-2.636c3.636-0.729,7.276-1.467,10.918-2.216l19.062-3.93
			l-20.18-12.599c-1.422-0.906-1.539-1.622-1.244-2.623c0.654-2.267,3.549-4.606,6.337-2.844l15.884,9.953l-2.163-16.432
			c-0.549-4.207-1.087-8.412-1.519-12.644c-0.051-0.5,0.482-1.135,0.646-1.318c0.919-1.013,2.279-1.564,3.082-1.564
			c2.95,0,3.595,3.141,3.737,4.499c1.036,9.983,2.574,20.043,3.936,28.695l0.563,3.621l3.148,1.871
			c9.466,5.626,22.557,14.403,41.197,27.627l11.959,8.485l0.355-14.658c0.467-19.545,0.406-33.237-0.203-43.079l-0.193-3.164
			l-2.346-2.13c-8.399-7.635-16.6-15.663-24.283-23.229c-0.527-0.521-1.93-1.896-0.908-4.382c0.721-1.752,2.254-2.927,3.234-2.927
			c0.573,0,1.214,0.508,1.65,0.939c2.646,2.604,5.296,5.205,7.947,7.794l13.924,13.573l-0.854-23.754
			c-0.03-0.93,0.132-1.584,0.487-1.95c0.462-0.472,1.396-0.77,2.438-0.77c0.727,0,4.342,0.188,4.459,3.875l0.553,18.813
			l12.497-11.088c3.174-2.818,6.363-5.613,9.618-8.346c0.233-0.198,0.645-0.238,0.949-0.238c1.417,0,2.966,0.884,3.534,1.722
			c1.655,2.437-0.589,4.732-1.625,5.605c-7.667,6.437-14.853,13.081-21.565,19.337l-2.682,2.501l0.219,3.661
			c0.629,10.707,0.711,25.885,0.248,47.756l-0.33,15.75l12.726-9.285c10.806-7.884,23.064-16.786,31.813-22.673l3.448-2.318v-3.324
			c2.92-13.093,5.159-25.25,6.819-37.147c0.071-0.482,1.707-1.668,3.642-1.668c0.365,0,0.599,0.045,0.705,0.078
			c2.011,0.551,2.804,2.412,2.366,5.538c-0.533,3.816-1.147,7.627-1.792,11.428l-3.347,19.766l18.875-14.66
			c0.462-0.368,1.147-0.805,1.772-0.805c1.041,0,2.579,1.231,3.22,3.072c0.863,2.48-0.66,3.687-1.229,4.142
			c-1.081,0.858-2.173,1.693-3.271,2.526l-13.532,10.4l14.726,4.311c4.891,1.429,8.907,2.724,12.649,4.075
			c0.681,0.244,4.007,1.623,3.153,4.733c-0.381,1.404-2.219,2.767-3.966,2.762c-9.825-3.552-20.397-6.543-32.315-9.158l-3.271-0.718
			l-2.768,1.874c-10.42,7.041-25.06,17.63-37.979,26.972l-8.744,6.317l8.744,6.317c15.59,11.272,28.279,20.421,37.979,26.977
			l2.768,1.874l3.271-0.718c11.938-2.62,22.51-5.616,32.772-9.229c1.351,0,3.128,1.43,3.509,2.833
			c0.854,3.108-2.478,4.487-3.148,4.733c-3.722,1.34-7.865,2.676-12.654,4.08l-14.726,4.311l13.532,10.4
			c1.098,0.838,2.189,1.673,3.266,2.526c0.574,0.452,2.098,1.666,1.234,4.146c-0.641,1.835-2.179,3.067-3.22,3.067
			c-0.625,0-1.311-0.437-1.782-0.812l-18.865-14.652l3.347,19.766c0.645,3.801,1.259,7.607,1.792,11.433
			c0.438,3.12-0.355,4.981-2.371,5.532c-0.102,0.033-0.33,0.079-0.7,0.079c-1.935,0-3.58-1.186-3.642-1.663
			c-1.66-11.898-3.899-24.057-6.819-37.148v-3.323l-3.448-2.318c-8.82-5.938-21.145-14.889-33.021-23.546l-11.938-8.708
			l-0.452,14.771c-0.538,17.598-0.985,33.094-0.98,44.511v3.349l2.428,2.303c8.846,8.414,17.245,15.49,25.685,21.632
			c0.554,0.406,0.716,1.29,0.762,1.648c0.132,1.155-0.203,2.465-0.812,3.184c-1.407,1.653-3.667,1.513-5.688,0.035
			c-3.215-2.341-6.54-4.94-10.466-8.186l-11.816-9.77l-1.051,17.158c-0.076,1.333-0.147,2.663-0.254,3.983
			c-0.229,3.07-2.702,3.532-4.159,3.532c-1.158,0-2.255-0.371-2.782-0.947c-0.143-0.155-0.584-0.63-0.478-2.09l1.619-23.904
			l-14.548,13.901c-0.6,0.571-1.209,1.123-1.812,1.688c9.673,6.985,16.279,16.389,19.057,26.888
			c6.582-0.343,13.27-3.816,16.58-10.312c0.31,0.224,0.614,0.452,0.924,0.671c3.662,2.673,8.064,4.146,12.375,4.146
			c5.576,0,10.674-2.367,14.351-6.657c3.428-4.014,5.089-9.671,4.443-15.143c-0.086-0.726-0.213-1.435-0.365-2.13
			c4.763,6.749,14.147,9.344,21.145,7.414c9.109-2.506,14.508-10.697,13.888-20.706c7.861-0.069,15.006-5.492,17.809-13.541
			c1.874-5.393,1.396-10.899-1.173-15.531c0.36-0.129,0.727-0.262,1.082-0.391c10.206-3.687,15.635-13.581,12.897-23.539
			c-2.249-8.15-10.217-14.3-18.55-14.3c-1.976,0-3.91,0.338-5.753,1.003c-8.268,2.986-17.158,5.563-27.091,7.854
			c-7.165-4.916-15.874-11.139-26.056-18.481c9.171-6.614,18.52-13.302,26.056-18.476
			C462.77,108.787,471.662,111.366,479.944,114.362z M431.901,204.885c-7.113-5.177-14.233-11.095-21.688-18.037
			c0.051-7.312,0.249-16.11,0.528-25.911c6.835,4.943,13.4,9.631,18.956,13.432c2.604,11.864,4.61,22.947,6.129,33.778
			c0.046,0.333,0.102,0.655,0.168,0.978C434.887,207.49,433.511,206.056,431.901,204.885z"/>
		<path d="M353.152,315.752c-3.315,0-6.565,0.559-9.658,1.676c-14.01,5.063-29.051,9.42-45.823,13.284
			c-12.736-8.744-28.284-19.875-44.212-31.361c15.922-11.486,31.476-22.622,44.212-31.361c16.772,3.869,31.809,8.226,45.823,13.284
			c3.098,1.117,6.348,1.676,9.658,1.676c9.877,0,19.388-5.2,25.486-13.051c4.175-10.075,3.636-19.962-0.467-28.503
			c-3.113-6.469-8.247-12.149-14.93-16.546c-1.386-0.907-2.798-1.775-4.301-2.564c-0.665-0.353-1.168-0.78-1.559-1.251
			c-1.087-1.305-1.204-2.971-0.686-4.484c0.097-0.457,0.137-0.909,0.376-1.376c3.376-6.718,4.22-13.007,3.128-18.555
			c-1.371-6.927-5.779-12.672-12.324-16.524c-3.896-2.295-8.526-3.92-13.69-4.733c-0.706-0.109-1.285-0.322-1.772-0.609
			c-1.462-0.858-2.021-2.401-1.914-3.996c-0.046-0.355-0.163-0.657-0.132-1.056c0.208-2.699,0.183-5.342-0.031-7.937
			c-0.462-5.593-1.924-10.917-4.483-15.879c-0.229-0.446-0.482-0.883-0.727-1.32c-0.137-0.033-0.269-0.058-0.406-0.089
			c-3.92-4.544-9.1-7.982-15.416-9.724c-2.58-0.708-5.312-1.066-8.13-1.066c-13.812,0-29.747,8.881-32.048,25.344
			c-2.549,18.228-5.946,36.939-10.349,57.074c-8.678,5.943-18.814,13.157-29.114,20.586c0.208-20.82,0.025-37.288-0.556-50.455
			c9.491-8.817,20.134-18.537,30.93-27.608c14.081-11.822,17.209-29.988,7.606-44.179c-5.926-8.742-16.77-14.389-27.632-14.389
			c-6.964,0-13.327,2.263-18.418,6.53c-0.584,0.495-1.17,0.982-1.754,1.478c-6.561-8.589-17.158-13.099-27.21-13.099
			c-8.843,0-17.188,3.37-22.884,9.245c-1.107,1.14-2.1,2.351-2.986,3.625c-5.205-3.833-11.11-5.839-17.321-5.839
			c-12.545,0-24.468,8.511-29.663,21.183c-5.169,12.601-2.341,26.375,7.373,35.952c11.908,11.741,24.58,24.154,37.803,36.323
			c0.482,10.623,0.635,24.141,0.457,40.86c-18.928-13.152-33.903-23.087-45.956-30.488c-1.988-12.832-4.073-27.111-5.522-41.104
			c-1.899-18.284-15.191-31.05-32.324-31.05c-9.052,0-18.266,4.218-24.631,11.278c-5.794,6.429-8.528,14.398-7.69,22.447
			c0.079,0.762,0.155,1.523,0.239,2.285c-13.898,0.757-26.611,10.951-30.633,24.796c-1.922,6.632-1.609,13.192,0.683,19.042
			c-13.188,4.688-20.848,16.74-19.4,31.347c1.485,14.975,13.492,30.899,32.821,30.899c2.268,0,4.57-0.233,6.868-0.696
			c16.468-3.295,33.903-6.84,51.265-10.942c15.439,9.465,35.094,23.079,52.156,35.205c-17.067,12.132-36.722,25.746-52.156,35.206
			c-17.377-4.098-34.802-7.647-51.27-10.938c-2.293-0.463-4.604-0.691-6.863-0.691c-19.334,0-31.341,15.925-32.821,30.895
			c-1.447,14.604,6.213,26.659,19.4,31.342c-2.288,5.85-2.6,12.41-0.683,19.042c4.014,13.843,16.735,24.039,30.633,24.801
			c-0.084,0.757-0.16,1.523-0.239,2.28c-0.838,8.059,1.891,16.026,7.69,22.449c6.375,7.059,15.579,11.283,24.631,11.283
			c17.135,0,30.424-12.766,32.324-31.057c1.46-14.046,3.483-27.908,5.522-41.091c11.22-6.891,24.963-15.97,42.096-27.817
			c-0.383,12.863-0.68,25.167-0.739,35.643c-14.183,14.919-27.782,28.224-41.457,40.562c-5.934,5.353-9.138,13.046-9.023,21.647
			c0.127,9.639,4.514,19.312,11.44,25.237c11.844,10.126,28.881,9.897,42.01-0.304c0.8,1.188,1.701,2.32,2.688,3.387
			c5.875,6.332,14.579,9.963,23.882,9.963c11.664,0,23.884-5.997,29.716-17.595c0.574,0.416,1.14,0.832,1.707,1.249
			c6.167,4.483,13.545,6.956,20.789,6.956c9.371,0,17.925-3.966,24.09-11.166c5.759-6.738,8.552-16.25,7.479-25.436
			c-0.183-1.523-0.467-3.006-0.832-4.443c7.805,11.872,23.993,16.504,36.022,13.188c15.336-4.215,24.41-18.047,23.298-34.957
			c13.27-0.03,25.345-9.165,30.072-22.739c3.174-9.12,2.325-18.433-2.057-26.253c0.675-0.233,1.341-0.478,2.006-0.716
			c17.148-6.18,26.263-22.811,21.668-39.532C380.528,326.071,367.137,315.752,353.152,315.752z M262.261,434.333
			c-12.032-8.759-24.074-18.768-36.681-30.498c0.084-12.421,0.427-27.4,0.901-44.112c11.631,8.414,22.82,16.396,32.296,22.887
			c4.408,20.129,7.8,38.846,10.349,57.071c0.117,0.858,0.279,1.69,0.473,2.503C267.674,439.137,265.202,436.481,262.261,434.333z
			 M353.797,354.832c-6.292,2.275-13.274,4.525-21.348,6.887l-24.593,7.2l22.276,17.082c1.966,1.503,3.931,3.001,5.86,4.524
			c0.995,0.787,3.631,2.88,2.138,7.176c-1,2.874-3.569,5.301-5.596,5.301c-1.102,0-2.285-0.762-3.093-1.396
			c-1.03-0.817-2.082-1.619-3.133-2.422l-28.386-22.094l5.58,32.976c1.087,6.424,2.113,12.853,3.021,19.292
			c0.752,5.361-0.64,8.566-4.113,9.521c-0.188,0.056-0.599,0.143-1.233,0.143c-3.342,0-6.18-2.098-6.307-2.95
			c-2.839-20.302-6.683-41.152-11.746-63.734l-1.584-5.723l-3.945-2.65c-14.95-10.064-35.724-25.146-55.718-39.745l-19.893-14.523
			l-0.759,24.623c-0.947,30.783-1.67,55.858-1.661,75.113l0.005,5.576l4.037,3.839c14.917,14.188,29.097,26.121,43.345,36.5
			c0.983,0.722,1.262,2.255,1.341,2.885c0.233,1.995-0.348,4.255-1.409,5.504c-2.46,2.854-6.355,2.621-9.823,0.092
			c-5.438-3.956-11.055-8.343-17.664-13.822l-19.712-16.3l-1.721,28.437c-0.135,2.315-0.27,4.641-0.442,6.946
			c-0.409,5.515-5.157,6.108-7.18,6.108c-2.001,0-3.89-0.649-4.819-1.645c-0.262-0.279-1.036-1.117-0.843-3.651
			c0.104-1.335,0.175-2.666,0.254-3.996l2.396-35.855l-24.188,23.084c-4.705,4.499-9.453,8.958-14.295,13.325
			c-2.318,2.092-4.887,3.346-6.863,3.346c-0.769,0-1.846-0.162-3.329-1.416c-1.097-0.945-2.298-3.434-2.328-5.82
			c-0.018-1.03,0.206-1.787,0.442-1.99c15.307-13.822,30.496-28.771,46.225-45.498l3.824-3.819l-0.018-5.408
			c-0.051-17.574,0.759-42.197,1.592-65.917l0.927-26.232l-21.424,15.173c-30.181,21.358-51.463,35.606-66.997,44.828l-5.25,3.128
			l-0.952,6.038c-2.293,14.609-4.888,31.601-6.629,48.419c-0.244,2.325-1.358,7.733-6.464,7.733c-1.404,0-3.747-0.95-5.319-2.696
			c-0.294-0.32-1.231-1.442-1.143-2.356c0.744-7.13,1.627-14.229,2.567-21.333l3.625-27.426l-26.504,16.62
			c-1.29,0.817-2.491,1.214-3.656,1.214c-3.321,0-6.457-3.148-7.31-6.084c-0.516-1.777-0.322-3.031,2.173-4.61l33.748-21.054
			l-31.818-6.55c-6.137-1.265-12.271-2.509-18.418-3.743c-2.127-0.426-3.859-1.071-3.511-4.636c0.35-3.499,3.318-8.338,8.716-7.271
			c17.856,3.574,36.84,7.444,55.452,11.969l5.131,1.244l4.55-2.691c16.453-9.72,39.067-25.05,73.324-49.729l14.642-10.547
			l-14.642-10.542c-34.251-24.68-56.866-40.015-73.324-49.739l-4.55-2.688l-5.131,1.249c-18.606,4.522-37.59,8.392-55.447,11.966
			c-5.408,1.087-8.361-3.777-8.721-7.276c-0.348-3.562,1.384-4.202,3.511-4.628c6.147-1.226,12.281-2.481,18.418-3.743l31.78-6.548
			l-33.705-21.053c-2.496-1.582-2.699-2.838-2.178-4.614c0.848-2.938,3.994-6.083,7.31-6.083c1.17,0,2.366,0.401,3.651,1.211
			l26.509,16.63l-3.625-27.429c-0.939-7.099-1.828-14.206-2.567-21.33c-0.094-0.912,0.848-2.034,1.137-2.356
			c1.582-1.747,3.92-2.694,5.324-2.694c5.106,0,6.221,5.408,6.464,7.731c1.747,16.823,4.336,33.817,6.629,48.424l0.952,6.035
			l5.25,3.12c15.965,9.491,38.064,24.309,69.543,46.642l19.931,14.147l0.584-24.436c0.79-33.004,0.686-56.102-0.333-72.688
			l-0.323-5.273l-3.91-3.552c-14.294-12.984-28.086-26.487-40.992-39.212c-0.82-0.81-3.326-3.28-1.569-7.576
			c1.236-3.017,3.899-5.042,5.611-5.042c1.023,0,2.14,0.889,2.895,1.627c4.461,4.403,8.945,8.788,13.426,13.16l23.206,22.61
			l-1.272-35.635c-0.058-1.341-0.109-2.679-0.152-4.04c-0.051-1.618,0.247-2.768,0.869-3.413c0.807-0.833,2.43-1.346,4.222-1.346
			c1.249,0,7.487,0.322,7.686,6.718l1.086,31.275l20.686-18.38c5.352-4.758,10.737-9.47,16.234-14.081
			c0.431-0.363,1.165-0.442,1.696-0.442c2.453,0,5.131,1.533,6.104,2.963c2.867,4.228-0.993,8.181-2.788,9.689
			c-12.995,10.913-25.593,22.566-36.381,32.633l-4.463,4.169l0.355,6.102c1.064,18.042,1.196,43.655,0.419,80.607l-0.551,26.253
			l21.21-15.478c18.243-13.314,38.938-28.34,53.695-38.268l3.813-2.569l1.355-4.397l0.355-1.427c2.62-11.694,4.9-22.909,6.901-33.84
			c1.858-10.166,3.474-20.086,4.839-29.874c0.036-0.229,0.29-0.546,0.665-0.889c1.036-0.937,3.194-2.059,5.637-2.059
			c0.64,0,1.046,0.084,1.234,0.135c2.057,0.568,3.28,2.003,3.869,4.108c0.411,1.467,0.554,3.209,0.249,5.403
			c-0.478,3.379-1.051,6.744-1.584,10.115c-0.305,1.896-0.574,3.799-0.889,5.698c-0.193,1.166-0.351,2.335-0.549,3.494
			l-2.107,12.434l-3.479,20.545l10.136-7.888l13.162-10.24l5.067-3.94c0.98-0.749,1.955-1.498,2.92-2.257
			c0.082-0.061,0.163-0.12,0.239-0.183c0.802-0.637,1.99-1.391,3.093-1.391c2.036,0,4.595,2.422,5.596,5.296
			c1.492,4.296-1.143,6.388-2.133,7.167c-1.904,1.508-3.818,2.973-5.738,4.441l-12.096,9.285l-10.293,7.903l24.593,7.183
			c8.2,2.397,14.984,4.585,21.343,6.883c1.173,0.421,6.905,2.793,5.428,8.181c-0.756,2.742-4.656,5.575-6.906,4.769
			c-16.584-5.987-34.418-11.04-54.517-15.44l-5.443-1.19l-4.626,3.12c-17.479,11.819-41.175,28.947-64.084,45.517l-14.571,10.532
			l14.571,10.536c22.909,16.569,46.6,33.692,64.084,45.514l4.626,3.129l5.443-1.193c20.099-4.403,37.933-9.455,54.517-15.442
			c2.275-0.822,6.155,2.016,6.901,4.753C360.703,352.04,354.97,354.416,353.797,354.832z"/>
	</g>
</g>
<g>
</g>
<g>
</g>
<g>
</g>
<g>
</g>
<g>
</g>
<g>
</g>
<g>
</g>
<g>
</g>
<g>
</g>
<g>
</g>
<g>
</g>
<g>
</g>
<g>
</g>
<g>
</g>
<g>
</g>
</svg>
