<?xml version="1.0" encoding="iso-8859-1"?>
<!-- Generator: Adobe Illustrator 16.0.0, SVG Export Plug-In . SVG Version: 6.00 Build 0)  -->
<!DOCTYPE svg PUBLIC "-//W3C//DTD SVG 1.1//EN" "http://www.w3.org/Graphics/SVG/1.1/DTD/svg11.dtd">
<svg version="1.1" id="Capa_1" xmlns="http://www.w3.org/2000/svg" xmlns:xlink="http://www.w3.org/1999/xlink" x="0px" y="0px"
	 width="487.11px" height="487.11px" viewBox="0 0 487.11 487.11" style="enable-background:new 0 0 487.11 487.11;"
	 xml:space="preserve">
<g>
	<g>
		<path d="M412.91,183.97c8.038,6.008,18.529,9.323,28.4,9.323c0,0,0,0,0.006,0c0.832,0,1.649-0.025,2.462-0.071
			c20.176-1.186,36.491-17.664,36.369-36.727c-0.152-22.808-22.282-36.437-43.595-36.437c-1.468,0-2.925,0.068-4.342,0.203
			c-0.878,0.079-1.752,0.251-2.604,0.511c-1.128,0.114-2.26,0.396-3.361,0.833c-16.443,6.436-26.035,18.636-26.903,33.418
			c-53.821-6.911-104.53-34.414-128.433-85.153c13.432-5.901,22.896-18.906,22.8-33.428C293.557,13.629,271.427,0,250.12,0
			c-1.473,0-2.925,0.068-4.352,0.203c-0.878,0.084-1.747,0.254-2.595,0.511c-1.127,0.114-2.262,0.394-3.364,0.83
			c-19.202,7.521-29.166,22.868-26.654,41.058c1.716,12.408,10.971,21.554,22.277,26.489
			c-33.18,45.136-86.089,78.762-142.529,73.204c-0.516-0.188-1.023-0.391-1.592-0.479c-1.346-0.208-2.681-0.295-4.024-0.442
			c0.381-2.054,0.604-4.149,0.589-6.287c-0.152-22.811-22.282-36.439-43.592-36.439c-1.47,0-2.922,0.066-4.352,0.203
			c-0.874,0.081-1.742,0.254-2.59,0.503c-1.122,0.114-2.252,0.396-3.369,0.833c-19.203,7.523-29.166,22.874-26.654,41.058
			c2.648,19.177,23.3,30.643,41.738,30.643l0,0c0.828,0,1.646-0.025,2.46-0.073c6.777-0.401,13.094-2.552,18.522-5.918
			c46.321,37.529,54.156,144.044,1.69,178.184C63.842,338.854,53.993,336,44.294,336c-1.47,0-2.922,0.065-4.352,0.203
			c-0.878,0.081-1.742,0.254-2.59,0.508c-1.117,0.111-2.244,0.391-3.369,0.832c-19.202,7.516-29.165,22.872-26.654,41.061
			c2.648,19.175,23.295,30.636,41.729,30.636c0.833,0,1.655-0.021,2.47-0.076c20.175-1.184,36.493-17.656,36.369-36.724
			c-0.005-0.681-0.094-1.325-0.135-1.991c44.338-0.781,98.858,10.664,124.862,47.733c-15.277,8.171-22.998,22.084-20.761,38.288
			c2.646,19.174,23.3,30.641,41.739,30.641l0,0c0.828,0,1.643-0.021,2.46-0.071c20.172-1.188,36.482-17.661,36.361-36.724
			c-0.097-14.6-9.212-25.41-21.338-31.316c34.048-41.229,98.188-52.811,148.435-42.005c0.056,0.543,0.01,1.066,0.086,1.609
			c2.646,19.18,23.293,30.641,41.73,30.641c0.828,0,1.65-0.021,2.468-0.071c20.176-1.188,36.491-17.661,36.369-36.729
			c-0.152-22.806-22.282-36.435-43.595-36.435c-1.473,0-2.925,0.066-4.362,0.203c-0.873,0.081-1.741,0.254-2.579,0.508
			c-1.122,0.111-2.25,0.391-3.372,0.833c-6.713,2.63-12.223,6.266-16.539,10.593C367.183,302.018,357.291,221.753,412.91,183.97z
			 M433.958,145.532c0.188-0.071,0.365-0.145,0.543-0.224c0.528-0.025,1.066-0.04,1.605-0.04c1.828,0,17.844,0.327,18.88,11.725
			c0.192,2.138-0.452,4.042-1.976,5.81c-2.529,2.942-7.257,5.096-11.751,5.359c-6.606,0.346-15.01-3.191-16.965-10.174
			C422.69,152.304,429.372,147.333,433.958,145.532z M60.732,141.389c-2.532,2.942-7.259,5.096-11.75,5.362
			c-6.647,0.343-15.008-3.199-16.968-10.176c-1.597-5.69,5.091-10.661,9.656-12.454c0.193-0.074,0.376-0.15,0.551-0.229
			c0.531-0.028,1.066-0.043,1.607-0.043c1.826,0,17.842,0.327,18.875,11.728C62.9,137.717,62.255,139.622,60.732,141.389z
			 M60.732,378.741c-2.532,2.939-7.259,5.093-11.75,5.362c-6.647,0.391-15.008-3.199-16.968-10.182
			c-1.597-5.688,5.091-10.664,9.687-12.461c0.178-0.071,0.355-0.143,0.525-0.224c0.531-0.021,1.066-0.041,1.607-0.041
			c1.825,0,17.836,0.325,18.875,11.73C62.9,375.069,62.255,376.974,60.732,378.741z M424.63,369.534
			c1.544-3.737,5.981-6.753,9.328-8.063c0.188-0.076,0.365-0.152,0.543-0.224c0.528-0.03,1.066-0.045,1.605-0.045
			c1.828,0,17.839,0.33,18.88,11.734c0.192,2.133-0.452,4.032-1.976,5.805c-2.529,2.939-7.257,5.093-11.751,5.362
			c-6.606,0.391-15.01-3.199-16.965-10.182c-0.183-0.64-0.224-1.27-0.208-1.889C424.346,371.23,424.523,370.388,424.63,369.534z
			 M247.535,25.469c0.178-0.071,0.355-0.145,0.523-0.219c0.533-0.025,1.066-0.04,1.609-0.04c1.823,0,17.839,0.327,18.875,11.725
			c0.198,2.138-0.447,4.04-1.971,5.81c-2.533,2.942-7.261,5.096-11.75,5.359c-6.647,0.376-15.008-3.196-16.968-10.176
			C236.252,32.24,242.935,27.274,247.535,25.469z M245.266,456.611c-2.534,2.94-7.259,5.099-11.753,5.362
			c-6.604,0.438-15.011-3.188-16.973-10.176c-1.595-5.692,5.09-10.664,9.688-12.461c0.175-0.071,0.353-0.147,0.526-0.224
			c0.53-0.03,1.066-0.041,1.607-0.041c1.823,0,17.833,0.325,18.875,11.73C247.434,452.945,246.789,454.845,245.266,456.611z
			 M380.075,349.659c-53.831-5.677-113.427,13.482-147.804,54.832c-26.578-38.247-79.341-56.721-126.866-58.016
			c38.271-45.55,32.524-130.598-2.907-179.717c59.105,2.178,114.438-34.931,150.191-81.169
			c26.843,49.975,76.048,81.852,131.347,91.201C338.299,221.499,342.732,297.696,380.075,349.659z"/>
		<path d="M195.367,188.5c-6.713,2.506-9.577,8.305-9.582,14.012c-26.098,30.291-18.981,72.597,16.791,97.581
			c30.043,20.988,79.049,16.697,100.849-14.01c17.27-24.334,14.914-58.668-3.773-81.494
			C273.875,173.093,230.108,175.521,195.367,188.5z M285.077,260.022c-16.59,59.728-131.522-1.93-71.204-45.579
			c1.325-0.963,2.343-2.064,3.225-3.22c18.74-5.215,39.725-6.853,55.339,5.929C285.147,227.562,289.378,244.545,285.077,260.022z"/>
	</g>
</g>
<g>
</g>
<g>
</g>
<g>
</g>
<g>
</g>
<g>
</g>
<g>
</g>
<g>
</g>
<g>
</g>
<g>
</g>
<g>
</g>
<g>
</g>
<g>
</g>
<g>
</g>
<g>
</g>
<g>
</g>
</svg>
