<?xml version="1.0" encoding="iso-8859-1"?>
<!-- Generator: Adobe Illustrator 16.0.0, SVG Export Plug-In . SVG Version: 6.00 Build 0)  -->
<!DOCTYPE svg PUBLIC "-//W3C//DTD SVG 1.1//EN" "http://www.w3.org/Graphics/SVG/1.1/DTD/svg11.dtd">
<svg version="1.1" id="Capa_1" xmlns="http://www.w3.org/2000/svg" xmlns:xlink="http://www.w3.org/1999/xlink" x="0px" y="0px"
	 width="494.844px" height="494.843px" viewBox="0 0 494.844 494.843" style="enable-background:new 0 0 494.844 494.843;"
	 xml:space="preserve">
<g>
	<g>
		<path d="M479.884,146.21c-0.518,0-1.005,0.104-1.513,0.157c-0.503-0.043-0.949-0.162-1.482-0.157
			c-19.972,0.208-39.934,0.66-59.9,1.196c-0.198-27.86-2.128-55.457-6.484-82.995c-1.311-8.302-7.551-11.433-13.908-10.758
			c-1.092-0.193-2.26-0.282-3.515-0.223c-103.21,4.372-206.49,5.928-309.784,5.984c-9.442,0.005-14.231,7.175-14.434,14.497
			c-0.282,1.077-0.47,2.225-0.531,3.463c-1.3,27.414-2.569,54.827-3.859,82.235c-16.671,0.16-33.342,0.218-50.018,0.074
			c-12.208-0.104-16.663,11.804-13.441,20.632c-0.01,0.604-0.081,1.17-0.025,1.815C6.65,249.865,8.387,353.628,8.47,421.577
			c0.005,4.296,1.539,7.576,3.849,9.963c2.199,4.356,6.386,7.714,12.614,8.003c149.272,6.886,298.255-7.14,447.466-8.983
			c1.406-0.015,2.687-0.233,3.895-0.543c7.252-0.274,14.224-5.048,14.066-14.421c-1.158-67.73,2.604-171.313,2.955-239.036
			c0.955-1.958,1.528-4.108,1.528-6.398v-8.978C494.849,153.018,488.045,146.21,479.884,146.21z M97.711,89.279
			c95.174-0.183,190.338-1.706,285.443-5.565c2.731,21.424,3.813,42.957,3.935,64.577c-97.562,3.24-195.062,9.054-292.653,10.895
			C95.532,135.879,96.614,112.579,97.711,89.279z M460.304,400.828c-140.701,2.326-281.206,14.615-421.949,9.283
			c-0.249-61.606-2.029-159.032-6.901-220.45c144.083,0.281,287.891-11.2,431.938-13.314
			C463.076,239.211,459.862,337.953,460.304,400.828z"/>
		<path d="M152.652,226.346c-20.16-8.196-47.334-4.113-65.956,5.969c-20.065,10.867-29.081,34.638-34.411,55.376
			c-1.348,5.22-0.015,9.562,2.63,12.766c-0.059,20.891,8.955,41.121,29.176,55.248c35.782,24.994,88.872-0.68,104.164-37.394
			C203.371,282.034,189.582,241.359,152.652,226.346z M136.445,253.08c0.031,0.005,0.056,0.01,0.086,0.015
			c-2.625,4.139-5.246,8.282-7.851,12.437c-5.433-3.667-10.879-7.312-16.27-11.02C119.125,252.369,127.033,251.769,136.445,253.08z
			 M92.595,325.167c-2.43-2.661-4.276-5.738-5.548-9.11c2.839,1.346,5.652,2.722,8.45,4.134
			C94.534,321.855,93.552,323.505,92.595,325.167z M90.843,291.509c-1.633-0.711-3.235-1.025-4.786-1.076
			c1.76-7.729,5.114-15.011,9.387-20.729c0.853,1.889,2.204,3.646,4.268,5.067c5.413,3.728,10.885,7.368,16.333,11.04
			c-2.809,4.56-5.568,9.15-8.341,13.73C102.167,296.719,96.565,294.013,90.843,291.509z M111.355,334.296
			c0.779-1.361,1.582-2.712,2.371-4.062c2.407,1.432,4.804,2.895,7.17,4.408C117.73,334.865,114.531,334.749,111.355,334.296z
			 M147.51,324.08c-0.421-0.386-0.807-0.787-1.3-1.138c-6.604-4.743-13.416-9.1-20.332-13.259c2.465-4.077,4.923-8.16,7.421-12.218
			c7.965,5.327,15.937,10.654,23.841,16.072C154.503,317.539,151.238,321.083,147.51,324.08z M145.924,277.174
			c3.042-4.84,6.093-9.674,9.158-14.508c6.312,6.957,9.295,16.757,9.156,26.832C158.154,285.36,152.032,281.272,145.924,277.174z"/>
		<path d="M404.07,226.346c-20.165-8.196-47.332-4.113-65.953,5.969c-20.073,10.867-29.081,34.638-34.413,55.376
			c-1.341,5.22-0.011,9.562,2.635,12.766c-0.056,20.891,8.958,41.121,29.179,55.248c35.779,24.994,88.869-0.68,104.164-37.394
			C454.789,282.034,441.002,241.359,404.07,226.346z M405.604,261.757c3.9,3.945,6.683,8.887,8.303,14.365
			c-4.047-1.803-8.069-3.656-12.091-5.499C403.085,267.668,404.35,264.718,405.604,261.757z M386.927,252.988
			c-1.285,3.037-2.595,6.062-3.899,9.1c-5.876-2.696-11.751-5.403-17.656-8.023C371.515,252.369,378.64,251.942,386.927,252.988z
			 M351.792,330.965c-10.384-5.19-15.046-15.122-15.65-26.065c7.795,3.209,15.59,6.413,23.385,9.633
			C356.972,320.017,354.382,325.491,351.792,330.965z M340.483,280.978c1.452-3.535,3.301-6.724,5.307-9.674
			c0.295,0.152,0.533,0.33,0.848,0.472c9.009,3.905,17.926,7.998,26.838,12.106c-1.341,3.006-2.661,6.022-4.022,9.023
			C359.795,288.929,350.137,284.954,340.483,280.978z M373.003,334.545c1.895-4.042,3.788-8.079,5.667-12.132
			c4.732,1.95,9.46,3.895,14.193,5.845C386.81,331.752,379.995,333.92,373.003,334.545z M410.347,310.537
			c-1.016-0.894-2.184-1.691-3.601-2.28c-6.063-2.493-12.126-4.986-18.189-7.485c1.234-2.752,2.442-5.514,3.672-8.267
			c5.732,2.615,11.481,5.2,17.26,7.708c1.538,0.671,3.047,0.965,4.515,1.041C413.124,304.519,411.931,307.642,410.347,310.537z"/>
		<path d="M296.793,322.642c-2.361-2.097-5.642-3.301-9.963-2.833c-24.481,2.661-49.025,2.96-73.621,2.98
			c-8.787-3.163-20.665,1.32-20.659,13.478c0,14.497,0.152,28.954,1.498,43.396c0.759,8.115,6.236,14.965,14.965,14.965
			c0.256,0,0.51-0.065,0.764-0.081c0.729,0.051,1.438,0.127,2.232,0.081c25.428-1.579,50.843-2.895,76.325-2.99
			c7.774-0.036,12.354-4.926,13.873-10.726c0.665-1.681,1.092-3.564,1.092-5.737v-40.411
			C303.293,328.974,300.571,324.953,296.793,322.642z M273.363,361.931c-16.813,0.355-33.599,1.192-50.389,2.157
			c-0.16-3.798-0.279-7.606-0.348-11.41c16.935-0.111,33.852-0.497,50.737-1.787V361.931z"/>
		<path d="M206.019,230.012c26.924-1.384,53.862-1.493,80.812-1.498c19.301,0,19.301-29.93,0-29.93
			c-26.949,0.005-53.888,0.114-80.812,1.498C186.816,201.071,186.723,231.005,206.019,230.012z"/>
	</g>
</g>
<g>
</g>
<g>
</g>
<g>
</g>
<g>
</g>
<g>
</g>
<g>
</g>
<g>
</g>
<g>
</g>
<g>
</g>
<g>
</g>
<g>
</g>
<g>
</g>
<g>
</g>
<g>
</g>
<g>
</g>
</svg>
