<?xml version="1.0" encoding="iso-8859-1"?>
<!-- Generator: Adobe Illustrator 16.0.0, SVG Export Plug-In . SVG Version: 6.00 Build 0)  -->
<!DOCTYPE svg PUBLIC "-//W3C//DTD SVG 1.1//EN" "http://www.w3.org/Graphics/SVG/1.1/DTD/svg11.dtd">
<svg version="1.1" id="Capa_1" xmlns="http://www.w3.org/2000/svg" xmlns:xlink="http://www.w3.org/1999/xlink" x="0px" y="0px"
	 width="478.583px" height="478.584px" viewBox="0 0 478.583 478.584" style="enable-background:new 0 0 478.583 478.584;"
	 xml:space="preserve">
<g>
	<g>
		<path d="M361.292,186.499c-23.212-39.083-62.383-54.142-105.693-44.476c-15.962,3.562-9.201,28.033,6.749,24.471
			c41.492-9.262,73.925,14.81,86.98,54.172c9.928,29.922-5.027,60.491-25.375,81.859c-39.826,41.833-106.886,45.402-149.239,6.221
			c-29.582-27.375-39.517-72.231-29.627-110.443c11.402-44.074,51.255-60.999,93.587-55.467c16.188,2.115,15.985-23.29,0-25.382
			C104.189,99.879,79.668,278.39,177.19,342.651c63.172,41.63,147.774,12.056,185.534-49.062
			C383.438,260.054,380.934,219.6,361.292,186.499z"/>
		<path d="M99.479,281.727c-0.947-6.683-6.172-13.447-14.325-13.447c-1.468,0-2.986,0.224-4.509,0.671
			c-20.279,5.859-38.214,12.116-54.817,19.123c-8.549,3.605-10.976,12.096-9.6,18.911c1.398,6.926,6.459,11.588,12.596,11.588
			c0,0,0,0,0.005,0c1.861,0,3.801-0.427,5.761-1.249c16.379-6.917,34.122-13.102,54.246-18.921
			C97.466,295.904,100.404,288.226,99.479,281.727z"/>
		<path d="M38.859,78.668c23.925,15.851,49.769,31.907,83.812,52.062c2.496,1.478,5.091,2.224,7.706,2.229
			c6.64,0,12.626-4.913,14.548-11.943c1.836-6.703-0.769-13.088-6.812-16.661C104.124,84.229,78.342,68.213,54.532,52.43
			c-2.584-1.711-5.289-2.584-8.028-2.584c-6.167,0-11.877,4.669-13.893,11.362C30.551,68.055,32.943,74.748,38.859,78.668z"/>
		<path d="M255.091,381.727c-4.331,0-8.333,1.62-10.973,4.443c-2.531,2.712-3.732,6.357-3.453,10.537
			c1.239,18.605,2.486,37.211,3.806,55.802c0.688,9.607,8.65,14.625,16.171,14.625c4.336,0,8.333-1.625,10.963-4.449
			c2.524-2.711,3.707-6.357,3.407-10.536c-1.32-18.596-2.559-37.187-3.798-55.792C270.575,386.749,262.618,381.727,255.091,381.727z
			"/>
		<path d="M143.788,348.623c-5.21,0-9.676,2.539-12.588,7.15c-21.127,33.484-42.64,66.48-64.65,100.147
			c-3.047,4.662-3.379,9.709-0.942,14.224c2.729,5.053,8.569,8.439,14.538,8.439c0.005,0,0.005,0,0.005,0
			c5.195,0,9.684-2.493,12.646-7.022c21.965-33.586,43.44-66.521,64.691-100.214c2.976-4.708,3.24-9.815,0.744-14.346
			C155.472,351.995,149.658,348.623,143.788,348.623z"/>
		<path d="M348.958,127.262c5.19,0,9.685-2.465,12.67-6.941c7.815-11.725,15.355-23.285,21.714-35.77
			c2.554-5.015,2.392-10.328-0.447-14.959c-2.996-4.885-8.47-8.041-13.949-8.041c-5.175,0-9.598,2.856-12.131,7.838
			c-6.221,12.203-13.675,23.638-21.409,35.244c-3.082,4.628-3.453,9.65-1.041,14.155
			C337.071,123.85,342.936,127.257,348.958,127.262z"/>
		<path d="M449.136,389.334c-22.419-17.85-41.843-31.824-61.134-43.991c-2.549-1.614-5.205-2.427-7.901-2.427
			c-6.373,0-12.207,4.778-14.183,11.618c-1.96,6.784,0.533,13.33,6.505,17.103c18.362,11.588,36.531,24.567,55.538,39.7
			c2.925,2.325,6.348,3.555,9.896,3.555c0.006,0,0,0,0.006,0c6.967,0,13.654-4.662,15.894-11.07
			C455.641,398.448,453.951,393.178,449.136,389.334z"/>
		<path d="M239.474,99.317c4.352,0,8.32-1.627,10.88-4.461c2.458-2.719,3.529-6.365,3.103-10.539
			c-2.407-23.592-3.823-47.337-5.067-69.632C247.85,5.045,239.941,0,232.408,0c-4.326,0-8.34,1.617-11.009,4.44
			c-2.557,2.709-3.791,6.351-3.562,10.529c1.25,22.401,2.674,46.248,5.085,69.871C223.89,94.341,231.982,99.317,239.474,99.317z"/>
		<path d="M447.095,205.006c-8.871,1.178-35.079,1.241-40.243,1.246c-9.76,0-14.868,7.691-14.868,15.288
			c0.005,7.586,5.108,15.277,14.863,15.277h0.005c5.226,0,31.747-0.073,40.929-1.29c9.069-1.206,14.935-7.196,14.935-15.262
			C462.715,212.717,455.606,203.83,447.095,205.006z"/>
	</g>
</g>
<g>
</g>
<g>
</g>
<g>
</g>
<g>
</g>
<g>
</g>
<g>
</g>
<g>
</g>
<g>
</g>
<g>
</g>
<g>
</g>
<g>
</g>
<g>
</g>
<g>
</g>
<g>
</g>
<g>
</g>
</svg>
