<?xml version="1.0" encoding="iso-8859-1"?>
<!-- Generator: Adobe Illustrator 16.0.0, SVG Export Plug-In . SVG Version: 6.00 Build 0)  -->
<!DOCTYPE svg PUBLIC "-//W3C//DTD SVG 1.1//EN" "http://www.w3.org/Graphics/SVG/1.1/DTD/svg11.dtd">
<svg version="1.1" id="Capa_1" xmlns="http://www.w3.org/2000/svg" xmlns:xlink="http://www.w3.org/1999/xlink" x="0px" y="0px"
	 width="486.838px" height="486.838px" viewBox="0 0 486.838 486.838" style="enable-background:new 0 0 486.838 486.838;"
	 xml:space="preserve">
<g>
	<g>
		<path d="M478.628,107.995C436.791,74.478,399.391,35.857,357.077,2.906c-12.721-9.907-30.777,7.884-17.905,17.907
			c18.743,14.597,36.511,30.315,54.137,46.202c-7.871,10.689-16.453,20.81-25.015,30.942
			c-16.706-14.891-33.458-29.731-50.922-43.741c-3.94-6.035-12.913-9.42-19.981-3.197
			c-78.302,68.939-141.896,153.342-210.185,231.706c-1.513,1.731-2.397,3.58-2.872,5.443c-1.389,3.956-0.899,8.541,2.872,12.462
			c3.295,3.428,6.604,6.85,9.91,10.262c-0.353,0.311-0.734,0.584-1.051,0.955c-7.175,8.445-13.746,17.402-21.521,25.324
			c-1.826,1.858-2.833,3.879-3.313,5.905c-1.409,3.123-1.341,6.871,1.338,10.704c5.608,8.044,11.552,15.839,17.818,23.349
			c-0.213,0.198-0.437,0.341-0.65,0.559c-27.617,28.944-54.677,58.417-82.299,87.362c-11.268,11.811,6.614,29.741,17.91,17.909
			c27.533-28.857,54.515-58.239,82.047-87.097c6.34,6.429,12.959,12.588,19.931,18.382c3.229,5.378,9.927,8.774,17.009,4.854
			c13.982-7.738,27.19-16.895,38.687-28.03c2.694,2.158,5.309,4.393,8.043,6.505c5.004,3.859,9.933,2.904,13.386-0.254
			c0.64-0.295,1.279-0.589,1.93-1.016c90.075-59.361,169.998-133.145,231.183-222.319c2.011-2.933,2.488-5.809,2.006-8.404
			c0.208-4.105-1.295-8.382-5.281-11.454c-16.24-12.517-31.773-25.865-47.129-39.425c8.506-10.098,16.991-20.208,24.948-30.742
			c15.899,14.335,31.899,28.548,48.621,41.941C473.336,136.008,491.374,118.207,478.628,107.995z M140.399,392.06
			c-15.267-13.33-29.026-28.259-41.091-44.544c4.992-5.83,9.699-11.913,14.67-17.763c0.264-0.315,0.467-0.65,0.701-0.976
			c15.757,15.839,31.908,31.225,48.739,45.905C156.316,381.289,148.608,386.997,140.399,392.06z M411.086,167.72
			c-56.965,81.009-130.58,148.678-212.788,203.551c-30.514-24.278-57.983-52.044-85.028-80.08
			c6.033-7.003,12.027-14.046,18.015-21.109c7.383,5.368,14.419,10.964,20.497,17.885c4.555,5.19,13.264,4.637,17.907,0
			c5.116-5.118,4.55-12.726,0-17.91c-6.5-7.403-14.175-13.507-22.089-19.301c8.127-9.669,16.26-19.357,24.407-29.033
			c15.419,17.206,31.336,33.918,48.152,49.781c11.865,11.197,29.808-6.677,17.908-17.909c-17.332-16.352-33.71-33.604-49.569-51.372
			c10.847-12.756,21.797-25.423,32.893-37.95c7.223,9.064,14.675,17.936,22.823,26.192c11.481,11.639,29.381-6.276,17.91-17.907
			c-8.465-8.58-16.178-17.826-23.661-27.254c8.3-9.077,16.754-18.006,25.295-26.829c17.972,23.394,36.912,45.94,57.691,66.928
			c11.502,11.615,29.401-6.3,17.904-17.91c-20.789-20.992-39.902-43.465-57.746-66.999c7.978-7.838,16.036-15.584,24.309-23.11
			C341.68,106.69,375.017,138.793,411.086,167.72z"/>
	</g>
</g>
<g>
</g>
<g>
</g>
<g>
</g>
<g>
</g>
<g>
</g>
<g>
</g>
<g>
</g>
<g>
</g>
<g>
</g>
<g>
</g>
<g>
</g>
<g>
</g>
<g>
</g>
<g>
</g>
<g>
</g>
</svg>
