<?xml version="1.0" encoding="iso-8859-1"?>
<!-- Generator: Adobe Illustrator 16.0.0, SVG Export Plug-In . SVG Version: 6.00 Build 0)  -->
<!DOCTYPE svg PUBLIC "-//W3C//DTD SVG 1.1//EN" "http://www.w3.org/Graphics/SVG/1.1/DTD/svg11.dtd">
<svg version="1.1" id="Capa_1" xmlns="http://www.w3.org/2000/svg" xmlns:xlink="http://www.w3.org/1999/xlink" x="0px" y="0px"
	 width="482.719px" height="482.72px" viewBox="0 0 482.719 482.72" style="enable-background:new 0 0 482.719 482.72;"
	 xml:space="preserve">
<g>
	<g>
		<path d="M462.081,343.195c4.805-43.701-4.082-85.041-41.634-112.551c-28.264-20.71-66.583-23.777-100.361-25.156
			c-33.854-1.378-69.162-3.76-101.803-14.502c-44.199-14.543-45.031-65.48-41.454-104.19c0.287-3.082-0.645-5.413-2.208-7.056
			c-1.623-2.506-4.307-4.367-8.107-4.55c-48.749-2.387-97.429-2.334-146.116,1.15c-6.228-2.303-14.36,0.716-13.789,9.166
			c5.751,85.036-0.312,170.465,8.247,255.328h-1.805c-0.955,0-1.861,0.178-2.745,0.432c-4.918,0.305-9.791,3.591-10.151,9.887
			c-1.039,18.291,3.255,35.465,11.728,51.628c1.539,2.936,3.806,4.499,6.238,4.997c1.43,0.858,3.156,1.401,5.248,1.401
			c148.782-0.167,297.42-7.602,446.185-9.023c3.152-0.03,5.529-1.239,7.189-3.021c2.991-1.528,5.348-4.382,5.703-8.587
			c1.152-13.538-1.168-26.126-9.633-36.952C469.942,347.918,466.219,345.201,462.081,343.195z M442.069,338.148
			c-17.56-0.224-35.119-0.249-52.684-0.152c-1.646-35.303-6.054-70.224-13.238-104.797
			C426.571,246.684,447.339,286.851,442.069,338.148z M155.511,95.357c-2.039,29.419-0.246,60.648,16.202,85.193
			c-0.447,0.492-0.863,1.036-1.216,1.622c-3.532,5.824-7.521,11.313-11.606,16.765c-3.379,4.506-0.733,11.517,3.702,14.112
			c5.273,3.087,10.748,0.789,14.111-3.702c3.156-4.212,6.193-8.503,9.075-12.905c3.613,3.031,7.518,5.624,11.616,7.886
			c-3.176,6.188-6.297,12.388-8.6,18.992c-1.846,5.314,2.054,11.273,7.206,12.687c5.695,1.564,10.847-1.899,12.692-7.208
			c2.019-5.796,4.972-11.189,7.808-16.623c4.768,1.419,9.661,2.475,14.584,3.389c-1.247,6.137-2.625,12.205-4.893,18.07
			c-2.029,5.25,2.188,11.306,7.208,12.688c5.832,1.604,10.664-1.966,12.692-7.208c2.417-6.269,3.836-12.769,5.157-19.342
			c0.097-0.467,0.122-0.932,0.168-1.398c3.732,0.348,7.429,0.635,11.044,0.873c30.539,2.039,61.316,4.104,91.632,9.333
			c8.09,36.14,12.954,72.595,14.676,109.568c-10.227,0.106-20.459,0.279-30.687,0.457c-0.822-0.209-1.686-0.351-2.64-0.361
			c-77.82-0.838-155.676,1.641-233.466,0.021c-2.473-43.731-26.278-81.882-66.948-101.775c-1.528-0.749-3.032-1.097-4.471-1.137
			c-0.566-46.258-0.074-92.579-2.668-138.796C70.414,93.826,112.94,93.593,155.511,95.357z M81.276,337.742
			c-15.412-0.482-30.828-1.082-46.237-2.001c-2.442-25.969-3.519-51.999-4.09-78.044C61.434,275.039,78.755,303.689,81.276,337.742z
			 M27.912,388.517c-4.032-8.724-6.434-17.646-7.068-27.051h1.518c1.462,0.812,3.11,1.315,4.877,1.29
			c4.618-0.061,9.079-0.757,13.454-1.899c0.993,0.355,2.095,0.569,3.311,0.609c14.046,0.493,28.089,0.808,42.14,1.026
			c2.907,1.487,6.619,1.528,9.75,0.157c113.929,1.3,227.839-5.104,341.783-3.869c0.314,0.03,0.6,0.102,0.924,0.106
			c7.566,0.132,14.442,1.457,19.627,7.297c3.021,3.407,3.89,8.475,3.991,13.441C317.424,381.199,172.73,388.207,27.912,388.517z"/>
	</g>
</g>
<g>
</g>
<g>
</g>
<g>
</g>
<g>
</g>
<g>
</g>
<g>
</g>
<g>
</g>
<g>
</g>
<g>
</g>
<g>
</g>
<g>
</g>
<g>
</g>
<g>
</g>
<g>
</g>
<g>
</g>
</svg>
