<?xml version="1.0" encoding="iso-8859-1"?>
<!-- Generator: Adobe Illustrator 16.0.0, SVG Export Plug-In . SVG Version: 6.00 Build 0)  -->
<!DOCTYPE svg PUBLIC "-//W3C//DTD SVG 1.1//EN" "http://www.w3.org/Graphics/SVG/1.1/DTD/svg11.dtd">
<svg version="1.1" id="Capa_1" xmlns="http://www.w3.org/2000/svg" xmlns:xlink="http://www.w3.org/1999/xlink" x="0px" y="0px"
	 width="453.08px" height="453.079px" viewBox="0 0 453.08 453.079" style="enable-background:new 0 0 453.08 453.079;"
	 xml:space="preserve">
<g>
	<g>
		<path d="M363.083,7.065c-0.995-0.264-2.051-0.447-3.178-0.515C267.832,0.758,175.679-2.7,83.496,2.68
			C74.833,3.186,70.24,9.764,69.638,16.522c-1.592,2.174-2.58,4.961-2.58,8.389c0.099,142.018,3.697,255,5.695,396.997
			c-3.656,8.389,0.561,20.859,12.664,21.484c73.428,3.773,129.534,5.891,202.959,9.669c1.854,0.091,3.474-0.173,4.957-0.609
			c3.087-0.092,6.266-1.147,9.16-3.636c27.386-23.471,54.537-47.134,79.257-73.453c3.037-3.234,4.154-6.851,3.986-10.313
			c0.219-1.179,0.341-2.423,0.259-3.799c-7.505-122.927-5.921-217.113-7.729-340.193C378.125,11.496,370.488,6.852,363.083,7.065z
			 M297.42,414.936c-1.31-15.355-2.833-30.686-4.798-45.971c19.088-3.316,38.409-4.042,57.807-3.158
			C333.459,382.935,315.615,399.118,297.42,414.936z M272.929,343.397c-8.348,1.955-11.191,8.892-10.125,15.427
			c-0.173,1.376-0.224,2.808,0,4.342c2.945,19.885,4.718,39.893,6.297,59.92c-58.684-2.936-106.028-4.961-167.464-7.932
			c-1.98-137.689-5.365-246.358-5.558-384.065c84.492-4.207,168.959-1.295,253.355,3.831c1.417,110.398,0.589,191.864,6.317,302.145
			C327.95,335.395,300.086,337.034,272.929,343.397z"/>
		<path d="M153.079,132.189c46.436,0.005,92.856,0.14,139.177,3.864c18.646,1.498,18.504-27.507,0-28.995
			c-46.321-3.722-92.742-3.859-139.177-3.865C134.379,103.188,134.379,132.184,153.079,132.189z"/>
		<path d="M298.05,165.046H149.21c-18.697,0-18.697,28.995,0,28.995h148.84C316.752,194.041,316.752,165.046,298.05,165.046z"/>
		<path d="M282.588,236.566c-39.284-1.817-78.623-2.057-117.908-3.864c-18.705-0.863-18.616,28.138,0,28.995
			c39.286,1.813,78.624,2.052,117.908,3.859C301.285,266.42,301.204,237.43,282.588,236.566z"/>
	</g>
</g>
<g>
</g>
<g>
</g>
<g>
</g>
<g>
</g>
<g>
</g>
<g>
</g>
<g>
</g>
<g>
</g>
<g>
</g>
<g>
</g>
<g>
</g>
<g>
</g>
<g>
</g>
<g>
</g>
<g>
</g>
</svg>
