<?xml version="1.0" encoding="iso-8859-1"?>
<!-- Generator: Adobe Illustrator 16.0.0, SVG Export Plug-In . SVG Version: 6.00 Build 0)  -->
<!DOCTYPE svg PUBLIC "-//W3C//DTD SVG 1.1//EN" "http://www.w3.org/Graphics/SVG/1.1/DTD/svg11.dtd">
<svg version="1.1" id="Capa_1" xmlns="http://www.w3.org/2000/svg" xmlns:xlink="http://www.w3.org/1999/xlink" x="0px" y="0px"
	 width="491.978px" height="491.978px" viewBox="0 0 491.978 491.978" style="enable-background:new 0 0 491.978 491.978;"
	 xml:space="preserve">
<g>
	<g>
		<path d="M370.453,169.027c-22.911,0-44.549,7.353-62.834,21.305c-14.082-59.06-69.767-101.496-134.064-101.496
			c-5.205,0-10.479,0.287-15.661,0.853c-36.815,4.014-65.747,24.065-81.466,56.444c-16.521,34.038-14.869,75.2,4.095,108.6
			c-0.645-0.01-1.29-0.021-1.935-0.021c-41.155,0-72.468,27.37-77.914,68.111c-2.562,19.169,2.173,35.784,14.086,49.398
			c19.951,22.795,54.807,30.92,80.775,30.92c5.974,0,11.819-0.406,16.993-1.158c0.493,0.062,0.988,0.122,1.534,0.122
			c87.668,0,187.03,0,284.994-1.351c0.955-0.01,1.92-0.127,2.931-0.36c1.386,0.192,2.823,0.208,4.392-0.062
			c32.53-5.651,58.479-23.952,73.077-51.546c16.453-31.088,16.702-70.767,0.676-106.155
			C460.191,198.609,416.109,169.027,370.453,169.027z M109.024,285.617c6.132,0.976,12.647-2.955,15.023-8.937
			c1.915-4.81,0.69-9.912-3.26-13.645c-27.423-25.896-36.681-62.597-24.164-95.771c11.755-31.156,39.717-50.496,74.804-51.732
			c61.692-2.133,112.777,45.52,112.904,104.37c0.016,8.554,6.743,13.025,13.381,13.025c5.966,0,10.866-3.306,12.648-8.48
			c16.758-18.715,37.882-28.599,61.124-28.599c36.317,0,70.854,24.758,85.944,61.606c11.289,27.553,10.705,56.27-1.599,78.77
			c-11.01,20.129-29.945,33.221-54.771,37.872c-0.619-0.081-1.214-0.152-2.072-0.138c-97.908,1.356-197.259,1.356-284.917,1.356
			c-0.947,0-1.872,0.091-2.818,0.284c-1.003-0.071-2.06-0.041-3.166,0.132c-5.165,0.828-10.509,1.249-15.897,1.249
			c-29.81,0-64.716-13.035-64.983-49.764c-0.083-11.842,4.014-22.282,11.862-30.184c9.635-9.699,24.354-15.274,40.385-15.274
			c6.033,0,11.925,0.797,17.529,2.387c0.973,0.273,1.976,0.426,3.047,0.477C102.728,285.947,105.744,286.369,109.024,285.617z"/>
		<path d="M139.235,358.019l-0.327,0.457l0.452-0.335c1.483,1.422,3.428,2.285,5.522,2.285l0,0c1.731,0,3.438-0.584,4.925-1.696
			c36.493-27.178,74.997-56.447,109.372-89.312c0.314-0.305,0.609-0.63,0.879-0.975c2.325-2.397,3.123-6.135,1.93-9.349
			c-1.229-3.326-4.215-5.393-8.141-5.393c-0.005,0-0.01,0-0.015,0l-24.161,0.883h-0.041c2.844-11.969,6.848-23.861,10.743-35.426
			c3.324-9.859,6.754-20.05,9.488-30.381c1.433-2.242,1.682-4.987,0.609-7.511c-2.219-5.215-9.541-7.116-13.936-3.311
			c-10.684,9.282-18.37,16.988-24.786,24.854c-18.263,20.81-39.375,42.031-64.521,64.872l-0.467,0.478
			c-2.45,2.406-3.245,6.174-1.976,9.495c1.272,3.337,4.314,5.403,7.935,5.403c8.381,0,13.934,0.021,20.84,0.137
			c-1.47,3.123-2.912,6.23-4.342,9.323c-8.772,18.936-17.054,36.815-30.653,52.806c-1.768,2.072-2.466,4.723-1.94,7.348
			C136.902,354.779,137.859,356.638,139.235,358.019z M221.306,218.083c-4.494,14.543-7.993,28.556-10.603,42.368
			c-0.036,0.178-0.063,0.346-0.084,0.528c-0.815,2.528-0.493,5.321,0.912,7.536c1.523,2.396,4.07,3.777,7.34,3.777
			c0.005,0,0.018,0,0.022,0l12.131-0.447c-17.519,15.676-35.485,30.225-51.739,42.879c2.554-5.505,4.842-11.02,7.099-16.463
			c2.63-6.357,5.354-12.929,8.465-19.418c1.33-2.783,1.163-5.855-0.46-8.439c-1.652-2.631-4.555-4.256-7.563-4.256
			c-0.307,0-0.609,0.011-0.906,0.051c-4.477-0.142-7.924-0.233-11.313-0.294C192.031,249.431,207.39,233.698,221.306,218.083z"/>
	</g>
</g>
<g>
</g>
<g>
</g>
<g>
</g>
<g>
</g>
<g>
</g>
<g>
</g>
<g>
</g>
<g>
</g>
<g>
</g>
<g>
</g>
<g>
</g>
<g>
</g>
<g>
</g>
<g>
</g>
<g>
</g>
</svg>
