<?xml version="1.0" encoding="iso-8859-1"?>
<!-- Generator: Adobe Illustrator 16.0.0, SVG Export Plug-In . SVG Version: 6.00 Build 0)  -->
<!DOCTYPE svg PUBLIC "-//W3C//DTD SVG 1.1//EN" "http://www.w3.org/Graphics/SVG/1.1/DTD/svg11.dtd">
<svg version="1.1" id="Capa_1" xmlns="http://www.w3.org/2000/svg" xmlns:xlink="http://www.w3.org/1999/xlink" x="0px" y="0px"
	 width="484.801px" height="484.801px" viewBox="0 0 484.801 484.801" style="enable-background:new 0 0 484.801 484.801;"
	 xml:space="preserve">
<g>
	<g>
		<path d="M377.202,51.104C289.83-6.035,170.084,24.087,103.708,99.043c-24.552,27.731-38.042,58.811-44.229,91.32
			c-3.598-3.592-7.259-7.145-11.055-10.592c-24.417-22.199-65.48,10.94-40.804,33.372c12.855,11.685,24.54,24.273,35.6,37.358
			c3.405,4.027,6.774,8.09,10.057,12.218c3.026,3.804,6.058,7.597,8.991,11.472c4.289,5.667,11.443,8.216,18.786,8.267
			c9.125,1.863,18.903-1.005,25.091-11.359c1.279-2.138,2.65-4.179,3.999-6.256c6.119-9.45,12.911-18.23,20.398-26.4
			c12.39-13.521,26.624-25.423,42.967-35.869c12.202-7.799,11.537-26.141,2.844-35.38c-10.436-11.085-25.766-9.801-37.966-2.006
			c-7.871,5.027-15.267,10.603-22.422,16.425c1.526-5.086,3.304-10.144,5.373-15.179C140.8,119.099,193.94,83.599,245.805,72.97
			c86.884-17.793,156.244,53.705,177.094,124.542c24.156,82.061-12.05,195.553-113.319,213.823
			c-61.264,11.05-120.26-17.493-159.296-61.047c-0.125,0.07-0.259,0.127-0.383,0.197c-0.287-0.635-0.698-1.188-1.031-1.792
			c-1.508-2.687-3.483-5.058-5.88-7.028c-6.038-4.971-14.384-7.464-22.858-5.875c-14.424,2.712-24.258,16.143-21.607,29.533
			l0.49,2.453c0.577,2.935,1.8,5.601,3.369,8.028c0.708,1.087,1.514,2.092,2.382,3.052c0.713,0.787,1.424,1.554,2.237,2.255
			c39.476,43.701,95.925,73.874,158.705,81.064c115.25,13.208,197.955-77.698,215.758-175.952
			C497.469,197.889,454.804,101.856,377.202,51.104z"/>
		<path d="M249.407,280.695c30.547,14.995,60.299,31.325,89.218,49.119c28.284,17.402,54.217-26.202,26.105-43.503
			c-24.653-15.168-49.941-29.214-75.783-42.333c1.919-36.632,5.91-73.12,8.424-109.722c2.234-32.448-49.502-32.235-51.716,0
			c-2.773,40.324-7.472,80.503-9.049,120.907c-0.03,0.787-0.005,1.533,0.025,2.28C235.161,266.223,238.561,275.373,249.407,280.695z
			"/>
	</g>
</g>
<g>
</g>
<g>
</g>
<g>
</g>
<g>
</g>
<g>
</g>
<g>
</g>
<g>
</g>
<g>
</g>
<g>
</g>
<g>
</g>
<g>
</g>
<g>
</g>
<g>
</g>
<g>
</g>
<g>
</g>
</svg>
