<?xml version="1.0" encoding="iso-8859-1"?>
<!-- Generator: Adobe Illustrator 16.0.0, SVG Export Plug-In . SVG Version: 6.00 Build 0)  -->
<!DOCTYPE svg PUBLIC "-//W3C//DTD SVG 1.1//EN" "http://www.w3.org/Graphics/SVG/1.1/DTD/svg11.dtd">
<svg version="1.1" id="Capa_1" xmlns="http://www.w3.org/2000/svg" xmlns:xlink="http://www.w3.org/1999/xlink" x="0px" y="0px"
	 width="451.182px" height="451.182px" viewBox="0 0 451.182 451.182" style="enable-background:new 0 0 451.182 451.182;"
	 xml:space="preserve">
<g>
	<g>
		<path d="M75.769,418.886c0.759,2.265,1.96,4.007,3.39,5.362c1.453,2.118,3.651,3.854,6.756,4.789
			c82.698,24.902,179.235,34.307,260.172-1.28c1.498-0.66,2.646-1.503,3.616-2.427c4.082-0.686,7.611-3.458,8.581-8.983
			c9.228-52.476,15.274-105.353,19.226-158.407c10.902-3.59,21.373-8.46,31.072-14.782c60.361-39.318,20.413-101.057-23.1-133.594
			c-0.523-0.388-1.041-0.637-1.554-0.934c0.594-18.646,1.193-36.467-3.55-52.04c-4.662-15.32-14.508-28.475-34.611-38.13
			C312.304,2.375,268.541,2.48,232.133,0.469c-15.933-0.881-31.499-0.45-47.391,0.695C139.467,0.55-2.76,10.442,13.122,78.18
			C13.942,194.453,39.062,308.928,75.769,418.886z M383.096,141.749c15.295,12.733,29.798,28.817,30.234,49.007
			c0.391,18.298-18.605,30.887-33.789,37.575C381.268,199.502,382.38,170.626,383.096,141.749z M354.532,221.018
			c-0.473,5.261-0.995,10.369-1.519,15.336c-35.693,6.57-73.869-2.336-104.018-22.173c1.128-1.912,2.158-3.841,2.95-5.792
			c4.408-10.728,1.493-23.12-6.083-31.537c-7.683-8.543-19.944-10.369-30.671-8.201c-14.726,2.981-26.073,15.442-33.878,27.434
			c-1.003,1.538-1.574,3.064-1.787,4.529c-0.516,0.878-0.968,1.836-1.27,2.968c-2.854,10.593-3.105,23.712,6.162,31.385
			c13.804,11.436,31.496,8.19,45.664-1.163c33.415,24.268,77.964,35.652,119.73,30.32c-6.271,48.201-17.433,95.832-29.173,142.915
			c-0.346,1.396-0.406,2.691-0.351,3.94c-69.746,25.39-152.141,15.442-221.971-4.834C66.824,310.568,44.168,211.883,39.4,111.349
			c48.792,27.751,118.886,24.615,171.372,20.596c38.484-2.948,86.546-8.282,126.002-25.454
			c14.833,20.566,19.353,48.14,19.581,75.939C355.853,195.301,355.248,208.166,354.532,221.018z M199.296,214.399
			c0.048-1.122,0.401-2.442,1.021-4.725c0.129-0.48,0.155-0.921,0.229-1.384c0.17-0.229,0.363-0.406,0.525-0.655
			c2.801-4.301,5.941-8.077,9.76-11.517c1.013-0.917,2.532-1.967,4.565-3.168c0.686-0.406,1.409-0.736,2.125-1.082
			c-0.061,0.084,1.661-0.602,1.879-0.67c0.617-0.198,1.257-0.317,1.892-0.452c0.437-0.068,1.165-0.188,1.452-0.203
			c0.635-0.03,1.267,0.01,1.896,0.041c0.333,0.038,0.688,0.078,0.899,0.127c0.459,0.102,0.896,0.264,1.343,0.408
			c0.338,0.143,0.77,0.323,0.998,0.45c0.188,0.102,0.515,0.32,0.8,0.518c0.34,0.312,0.683,0.614,1.005,0.942
			c0.005,0.005,0.005,0.01,0.01,0.015c0.274,0.427,0.556,0.848,0.802,1.285c0.036,0.058,0.046,0.063,0.071,0.109
			c0.127,0.373,0.208,0.759,0.3,1.143c-0.152-0.305,0.03,1.421,0.097,2.702c-0.138,0.116-0.544,1.99-0.844,3.196
			c-0.198,0.378-0.698,1.519-0.807,1.716c-0.513,0.952-1.122,1.851-1.731,2.75c-0.145,0.219-0.213,0.323-0.305,0.468
			c-0.122,0.099-0.34,0.33-0.838,0.896c-0.838,0.967-1.757,1.856-2.679,2.745c-3.016,2.922-6.55,5.225-10.217,7.274
			c-0.521,0.053-1.026,0.073-1.572,0.198c-3.582,0.812-4.735,1.046-8.559,1.061c-0.582-0.005-1.158-0.048-1.737-0.089
			c-0.14-0.025-0.254-0.051-0.462-0.089c-0.244-0.056-0.485-0.14-0.729-0.208c-0.094-0.051-0.561-0.238-0.982-0.427
			c-0.041-0.154-0.089-0.312-0.125-0.467C199.671,218.128,199.275,215.029,199.296,214.399z M85.305,101.958
			c2.953-5.226,8.98-10.821,13.967-12.629c2.074-0.754,3.895-1.92,5.408-3.344c0.51-0.038,0.998-0.025,1.529-0.125
			c63.911-11.514,127.614-9.412,189.637,8.222c-30.945,8.089-64.384,10.856-91.208,12.911
			C168.965,109.727,123.992,111.895,85.305,101.958z M184.217,26.58c0.14-0.005,0.259,0.023,0.401,0.013
			c0.025,0,0.071-0.007,0.104-0.007c0.234,0.007,0.526,0,0.744,0.007c0.764,0.011,1.46-0.083,2.15-0.178
			c33.162-1.658,185.815-0.749,162.138,44.407c-6.302,4.42-13.229,8.211-20.516,11.565c-1.229-3.364-3.803-6.287-8.1-7.734
			C248.875,50.355,174.071,47.324,99.298,60.785c-2.913,0.525-5.055,1.762-6.579,3.387c-0.12,0.035-0.239,0.035-0.358,0.076
			c-14.186,5.134-25.428,15.658-31.605,29.244c-6.49-2.933-12.667-6.338-18.39-10.359C15.237,32.105,153.033,26.275,184.217,26.58z"
			/>
	</g>
</g>
<g>
</g>
<g>
</g>
<g>
</g>
<g>
</g>
<g>
</g>
<g>
</g>
<g>
</g>
<g>
</g>
<g>
</g>
<g>
</g>
<g>
</g>
<g>
</g>
<g>
</g>
<g>
</g>
<g>
</g>
</svg>
