<?xml version="1.0" encoding="iso-8859-1"?>
<!-- Generator: Adobe Illustrator 16.0.0, SVG Export Plug-In . SVG Version: 6.00 Build 0)  -->
<!DOCTYPE svg PUBLIC "-//W3C//DTD SVG 1.1//EN" "http://www.w3.org/Graphics/SVG/1.1/DTD/svg11.dtd">
<svg version="1.1" id="Capa_1" xmlns="http://www.w3.org/2000/svg" xmlns:xlink="http://www.w3.org/1999/xlink" x="0px" y="0px"
	 width="492.797px" height="492.798px" viewBox="0 0 492.797 492.798" style="enable-background:new 0 0 492.797 492.798;"
	 xml:space="preserve">
<g>
	<g>
		<path d="M427.144,69.683c-0.65-0.541-1.352-1.031-2.088-1.453c-5.794-3.821-13.202-3.052-17.976,1.721
			c-3.067,2.648-4.809,6.386-4.926,10.588c-1.279,43.96-28.838,79.828-86.727,112.868c-20.205,9.318-40.807,19.827-61.357,31.303
			c-0.325-0.666-0.655-1.331-0.975-2.003c-2.423-5.022-7.071-8.018-12.444-8.018c-5.205,0-10.41,2.935-13.264,7.472
			c-2.762,4.4-3.037,9.636-0.759,14.363c0.505,1.051,1.019,2.095,1.539,3.141c-4.398,2.62-8.777,5.271-13.114,7.927l-1.518-2.402
			c-2.788-4.412-7.323-6.938-12.449-6.938c-5.672,0-11.07,3.141-13.749,7.99c-2.471,4.474-2.245,9.831,0.594,14.325l1.861,2.955
			c-5.373,3.463-10.44,6.764-15.288,9.973c-0.411-0.548-0.822-1.092-1.229-1.64c-2.922-3.945-7.404-6.21-12.291-6.21
			c-5.929,0-11.591,3.351-14.107,8.343c-2.292,4.555-1.747,9.861,1.45,14.188c0.5,0.671,0.993,1.341,1.498,2.006
			c-35.193,24.253-69.606,49.724-104.632,75.85H17.092c-4.316,0-8.122,1.625-10.852,4.626c-5.862,4.423-7.863,11.822-4.847,18.448
			c5.599,12.33,13.427,23.156,23.257,32.194c2.788,3.54,7.368,5.698,12.258,5.698c6.576,0,12.083-3.748,14.371-9.791
			c3.448-9.12,8.483-18.072,14.97-26.618c1.219-1.61,2.066-3.367,2.523-5.195c2.531-1.884,5.065-3.772,7.602-5.656
			c12.495,17.839,32.39,27.238,57.755,27.238c33.883,0,69.111-16.103,85.419-24.654c0.467,0.63,0.929,1.265,1.386,1.904
			c2.907,4.042,7.401,6.357,12.339,6.357c5.855,0,11.497-3.325,14.036-8.271c2.329-4.54,1.846-9.856-1.29-14.233
			c-0.168-0.233-0.338-0.468-0.511-0.701c3.354-2.036,6.84-4.179,10.507-6.469c0.091,0.111,0.173,0.218,0.264,0.33
			c2.955,3.763,7.409,5.926,12.208,5.926c6.058,0,11.791-3.413,14.254-8.485c2.188-4.499,1.584-9.664-1.61-13.883
			c3.479-2.285,6.937-4.581,10.364-6.887c1.99,2.412,4.007,4.805,6.043,7.176c2.808,3.265,6.576,5.067,10.618,5.067
			c5.656,0,11.141-3.666,13.649-9.12c2.458-5.362,1.589-11.486-2.275-15.98c-1.143-1.325-2.27-2.666-3.382-4.006
			c39.491-28.081,79.237-64.633,64.028-105.673c-0.279-2.059-1-4.024-2.168-5.855c-2.103-3.313-4.474-6.287-7.1-8.915
			c32.723-11.039,66.75-10.811,102.631,0.554c1.569,0.493,3.144,0.741,4.688,0.741c7.17,0,13.106-5.454,14.122-12.812
			c0.319-1.27,0.462-2.501,0.446-3.742C492.253,139.86,468.321,97.73,427.144,69.683z M163.432,365.192
			c-12.558,1.255-25.542,2.555-38.913,7.038c-0.556,0.178-1.102,0.392-1.638,0.65c-9.536,1.127-17.113-2.58-22.498-10.923
			c19.337-14.229,42.805-31.255,67.362-48.145c3.486,4.55,6.975,9.095,10.463,13.64c7.726,10.064,15.455,20.129,23.087,30.255
			C189.205,362.607,176.617,363.872,163.432,365.192z M227.597,343.175c-8.049-10.689-16.199-21.312-24.357-31.936
			c-3.592-4.688-7.195-9.374-10.786-14.071c4.4-2.895,8.806-5.758,13.236-8.612c9.582,14.965,20.518,31.641,32.385,48.251
			C234.607,338.939,231.116,341.067,227.597,343.175z M263.348,320.943c-11.78-16.483-22.762-33.251-32.402-48.312
			c3.661-2.249,7.378-4.493,11.121-6.723c9.532,16.863,19.998,33.134,31.235,48.535
			C270.163,316.525,266.852,318.684,263.348,320.943z M323.147,276.49c-7.557,6.941-15.92,13.817-25.446,20.916
			c-10.684-14.629-20.678-30.208-29.812-46.453c19.235-10.768,38.633-20.735,57.777-29.686c1.111-0.333,2.138-0.77,3.128-1.325
			l3.539-1.785c1.219-0.576,2.442-1.152,3.605-1.678c0.935-0.125,1.833-0.193,2.691-0.193c3.285,0,8.12,0.764,12.781,7.18
			c0.152,0.439,0.33,0.881,0.538,1.323C360.155,242.488,338.03,262.815,323.147,276.49z M420.42,162.914
			c-6.952,0-13.909,0.396-20.825,1.186c14.244-17.133,23.856-35.69,28.727-55.467c17.144,16.552,28.411,36.78,32.621,58.607
			C447.318,164.366,433.735,162.914,420.42,162.914z"/>
	</g>
</g>
<g>
</g>
<g>
</g>
<g>
</g>
<g>
</g>
<g>
</g>
<g>
</g>
<g>
</g>
<g>
</g>
<g>
</g>
<g>
</g>
<g>
</g>
<g>
</g>
<g>
</g>
<g>
</g>
<g>
</g>
</svg>
