<?xml version="1.0" encoding="iso-8859-1"?>
<!-- Generator: Adobe Illustrator 16.0.0, SVG Export Plug-In . SVG Version: 6.00 Build 0)  -->
<!DOCTYPE svg PUBLIC "-//W3C//DTD SVG 1.1//EN" "http://www.w3.org/Graphics/SVG/1.1/DTD/svg11.dtd">
<svg version="1.1" id="Capa_1" xmlns="http://www.w3.org/2000/svg" xmlns:xlink="http://www.w3.org/1999/xlink" x="0px" y="0px"
	 width="488.037px" height="488.037px" viewBox="0 0 488.037 488.037" style="enable-background:new 0 0 488.037 488.037;"
	 xml:space="preserve">
<g>
	<g>
		<path d="M392.335,278.282c-14.229-13.97-29.56-26.599-45.179-38.925c10.714-12.403,21.403-24.814,32.133-37.202
			c1.768-2.039,2.834-4.207,3.418-6.391c3.387-5.875,2.65-13.639-2.331-18.621l-2.174-2.173c-1.797-1.788-3.966-2.973-6.251-3.682
			c-11.48-9.815-22.216-20.438-32.899-31.115c-5.729-5.726-12.716-5.434-18.058-2.194c-1.646,0.734-3.26,1.762-4.778,3.281
			l-37.115,37.112c-12.232-11.695-24.811-23.021-36.841-34.934c-5.657-5.598-12.515-5.396-17.823-2.313
			c-1.727,0.733-3.423,1.811-5.02,3.399l-36.971,36.978c-3.199,3.197-4.466,6.797-4.456,10.28c-0.021,0.208-0.01,0.409-0.021,0.617
			c0.01,0.183,0,0.371,0.015,0.556c-0.01,3.496,1.257,7.094,4.461,10.298c12.698,12.692,25.484,25.275,38.717,37.407l-40.89,40.891
			c-6.459,6.459-5.294,14.518-0.828,20.012c0.584,2.473,1.836,4.926,4.088,7.181l39.148,39.151
			c4.946,4.945,10.837,5.382,15.798,3.336c3.146-0.249,6.345-1.559,9.209-4.434l40.685-40.685
			c14.422,13.127,28.492,26.64,43.057,39.593c6.55,5.83,14.487,4.773,19.997,0.676c1.345-0.716,2.676-1.595,3.925-2.849
			l38.064-38.06c4.88-4.891,5.373-10.689,3.418-15.609C397.215,285.976,395.99,281.872,392.335,278.282z M341.783,313.609
			c-13.604-12.502-26.954-25.268-40.807-37.501c-0.833-0.736-1.701-1.335-2.574-1.863c-5.443-5.403-14.355-7.312-21.343-0.315
			l-42.411,42.412l-22.844-22.841l42.414-42.411c6.2-6.201,5.393-13.901,1.376-19.363c-0.808-1.579-1.925-3.128-3.555-4.56
			c-12.697-11.209-24.902-22.937-36.939-34.832l16.468-16.468c11.177,10.574,22.59,20.903,33.527,31.725
			c1.041,1.033,2.138,1.812,3.255,2.473c5.388,5.746,14.574,7.973,21.759,0.787l38.115-38.115
			c6.48,6.348,13.117,12.525,19.962,18.489c-10.658,12.339-21.302,24.699-31.971,37.023c-0.955,1.097-1.661,2.236-2.26,3.397
			c-5.981,5.375-8.044,14.21,0.081,20.53c16.687,12.979,33.185,26.137,48.678,40.492L341.783,313.609z"/>
		<path d="M467.575,81.437c-1.478-0.446-3.058-0.764-4.85-0.764H182.302c-1.727,0-3.25,0.297-4.687,0.706
			c-2.089,0.053-4.258,0.485-6.477,1.458c-66.539,29.102-118.022,79.48-166.37,132.383c-19.703,21.579,27.215,64.135,39.814,77.774
			c32.624,35.312,63.528,71.152,101.174,101.447c3.915,3.153,8.262,4.134,12.324,3.646c2.476,2.306,5.756,3.905,9.963,4.159
			c101.309,6.078,202.726,6.21,304.153,3.168c9.186-0.279,14.197-6.865,15.111-13.959c0.447-1.533,0.762-3.174,0.727-5.048
			c-1.976-96.847-1.29-193.199-6.302-289.892C481.255,87.411,474.644,82.399,467.575,81.437z M168.043,370.564
			c-0.551-0.031-1.041,0.045-1.564,0.061c-50.216-40.705-92.112-89.286-130.497-141.117c-0.203-0.281-0.452-0.479-0.665-0.738
			c43.117-46.502,88.864-89.723,147.145-116.416H450.98c5.017,87.295,2.604,174.368,5.012,261.795
			C359.968,376.709,263.953,376.322,168.043,370.564z"/>
	</g>
</g>
<g>
</g>
<g>
</g>
<g>
</g>
<g>
</g>
<g>
</g>
<g>
</g>
<g>
</g>
<g>
</g>
<g>
</g>
<g>
</g>
<g>
</g>
<g>
</g>
<g>
</g>
<g>
</g>
<g>
</g>
</svg>
