<?xml version="1.0" encoding="iso-8859-1"?>
<!-- Generator: Adobe Illustrator 16.0.0, SVG Export Plug-In . SVG Version: 6.00 Build 0)  -->
<!DOCTYPE svg PUBLIC "-//W3C//DTD SVG 1.1//EN" "http://www.w3.org/Graphics/SVG/1.1/DTD/svg11.dtd">
<svg version="1.1" id="Capa_1" xmlns="http://www.w3.org/2000/svg" xmlns:xlink="http://www.w3.org/1999/xlink" x="0px" y="0px"
	 width="489.104px" height="489.104px" viewBox="0 0 489.104 489.104" style="enable-background:new 0 0 489.104 489.104;"
	 xml:space="preserve">
<g>
	<g>
		<path d="M260.224,387.685c-0.387-96.05-4.814-192.049-3.748-288.107c7.871-1.975,15.401-5.038,21.475-9.546
			c15.737-11.68,21.221-25.474,19.876-38.712c-2.915-28.569-37.644-54.53-69.901-50.996c-26.515,2.907-49.294,25.834-51.557,52.197
			c-2.734,31.958,23.772,48.858,52.272,49.944c-0.944,95.562,3.438,191.069,3.786,286.626
			c-21.833,6.906-39.194,27.137-41.149,49.968c-2.856,33.266,25.999,50.271,55.789,50.043c15.087-0.117,33.434-3.361,45.793-12.532
			c15.731-11.68,21.221-25.477,19.875-38.715C310.348,414.411,286.523,392.752,260.224,387.685z M232.881,31.14
			c31.679-3.288,48.203,33.964,10.669,41.347c-0.495-0.005-0.942-0.076-1.46-0.04C209.955,74.559,191.496,35.428,232.881,31.14z
			 M258.452,459.025c-0.492-0.005-0.939-0.076-1.463-0.046c-32.133,2.118-50.586-37.013-9.206-41.304
			C279.464,414.39,295.978,451.637,258.452,459.025z"/>
	</g>
</g>
<g>
</g>
<g>
</g>
<g>
</g>
<g>
</g>
<g>
</g>
<g>
</g>
<g>
</g>
<g>
</g>
<g>
</g>
<g>
</g>
<g>
</g>
<g>
</g>
<g>
</g>
<g>
</g>
<g>
</g>
</svg>
