<?xml version="1.0" encoding="iso-8859-1"?>
<!-- Generator: Adobe Illustrator 16.0.0, SVG Export Plug-In . SVG Version: 6.00 Build 0)  -->
<!DOCTYPE svg PUBLIC "-//W3C//DTD SVG 1.1//EN" "http://www.w3.org/Graphics/SVG/1.1/DTD/svg11.dtd">
<svg version="1.1" id="Capa_1" xmlns="http://www.w3.org/2000/svg" xmlns:xlink="http://www.w3.org/1999/xlink" x="0px" y="0px"
	 width="480.985px" height="480.985px" viewBox="0 0 480.985 480.985" style="enable-background:new 0 0 480.985 480.985;"
	 xml:space="preserve">
<g>
	<g>
		<path d="M399.238,113.2c-0.944-28.553-1.467-67.125-1.188-95.697c0.01-1.274-0.193-2.397-0.482-3.453
			c0.559-6.226-3.098-12.797-11.07-12.589C285.862,4.098,185.248,0.157,84.61,0c-8.374-0.016-12.038,7.343-11.009,13.799
			c-0.333,1.125-0.566,2.326-0.551,3.705c1.519,120.089,5.646,292.639,5.776,412.749c0,2.691,0.764,4.88,1.988,6.616
			c0.736,5.088,4.397,9.587,11.017,9.425c26.764-0.665,53.54-1.224,80.303-2.021v-23.754c-34.373,0.898-70.231,1.889-70.231,2.147
			c-0.285-115.61-4.108-283.668-5.652-399.266c92.912,0.406,185.809,3.598,278.72,1.607c-0.355,94.913,8.059,232.117,8.557,307.128
			c-14.411-4.55-29.311-6.469-44.691-5.438c-1.198,0.076-2.265,0.355-3.27,0.701c-7.084,0.04-13.924,5.57-10.761,14.065
			c6.368,17.088,9.277,38.304-0.513,54.645c-9.064,15.138-23.582,18.361-38.897,20.185v24.09
			c21.398-1.188,42.573-3.717,60.972-9.993c13.105-4.479,24.831-11.101,34.891-20.683c18.377-17.519,24.653-41.035,26.232-65.82
			c1.519-23.801-1.285-48.77-1.843-70.701C404.21,216.532,401.103,169.843,399.238,113.2z M344.641,406.416
			c9.328-15.899,11.658-35.409,6.804-56.559c11.238,0.437,22.318,2.604,32.814,7.053c0.04,0.127,0.076,0.265,0.116,0.396
			C380.973,382.371,365.12,397.742,344.641,406.416z"/>
		<path d="M301.411,361.633c7.114-0.452,13.111-10.512,6.389-17.326c-23.166-23.45-46.327-46.9-69.487-70.35
			c-1.519-3.809-5.144-6.724-9.044-6.724c-0.165,0-0.338,0-0.505,0.01c-0.165-0.01-0.337-0.01-0.502-0.01
			c-3.895,0-7.521,2.915-9.039,6.724c-23.163,23.449-46.324,46.899-69.484,70.35c-6.729,6.814-0.734,16.874,6.386,17.326
			c0.432,0.111,0.858,0.249,1.33,0.305c8.346,0.975,16.712,1.249,25.09,1.341v56.965v23.714v25.329c0,4.991,2.58,8.114,5.807,9.358
			c1.437,1.417,3.359,2.341,5.819,2.341h31.272h6.665h31.26c2.463,0,4.383-0.924,5.824-2.341c3.22-1.244,5.799-4.367,5.799-9.358
			v-28.417V417.43v-54.162c8.379-0.081,16.748-0.36,25.091-1.33C300.553,361.882,300.975,361.744,301.411,361.633z M265.814,342.662
			c-5.951,0-8.901,5.209-8.876,10.389c-0.183,0.833-0.305,1.717-0.305,2.687v51.999c0.112,0.868,0.178,1.787,0.178,2.777
			c0,2.752-0.051,5.494-0.091,8.236c-0.021,1.686-0.041,3.382-0.092,5.067v17.57v18.94h-24.547h-6.667h-24.542v-13.659
			c0-0.011-0.005-0.021-0.005-0.041c-0.079-1.122-0.063-2.239-0.109-3.356c-0.163-4.24-0.145-8.475,0.109-12.689v-10.816v-64.023
			c0-0.975-0.12-1.848-0.307-2.681c0.025-5.19-2.928-10.399-8.876-10.399c-4.283,0-8.559-0.031-12.837-0.107
			c16.628-16.833,33.258-33.672,49.891-50.516c16.636,16.844,33.263,33.683,49.894,50.516
			C274.376,342.631,270.101,342.662,265.814,342.662z"/>
	</g>
</g>
<g>
</g>
<g>
</g>
<g>
</g>
<g>
</g>
<g>
</g>
<g>
</g>
<g>
</g>
<g>
</g>
<g>
</g>
<g>
</g>
<g>
</g>
<g>
</g>
<g>
</g>
<g>
</g>
<g>
</g>
</svg>
