<?xml version="1.0" encoding="iso-8859-1"?>
<!-- Generator: Adobe Illustrator 16.0.0, SVG Export Plug-In . SVG Version: 6.00 Build 0)  -->
<!DOCTYPE svg PUBLIC "-//W3C//DTD SVG 1.1//EN" "http://www.w3.org/Graphics/SVG/1.1/DTD/svg11.dtd">
<svg version="1.1" id="Capa_1" xmlns="http://www.w3.org/2000/svg" xmlns:xlink="http://www.w3.org/1999/xlink" x="0px" y="0px"
	 width="482.322px" height="482.322px" viewBox="0 0 482.322 482.322" style="enable-background:new 0 0 482.322 482.322;"
	 xml:space="preserve">
<g>
	<g>
		<path d="M479.342,48.389c5.367-7.414,2.036-21.007-10.05-21.276c-119.18-2.641-332.17-4.992-451.086,5.2
			c-2.45,0.208-4.497,1.003-6.228,2.123c-3.7,1.935-6.523,5.553-6.771,10.877c-3.662,78.82-2.778,256.537-5.2,335.393
			c-0.041,1.341,0.14,2.534,0.412,3.661c0.208,4.946,2.978,9.704,9.13,11.477c45.27,12.994,105.396,17.529,169.079,17.788
			c-0.48-8.576-0.526-17.158-0.531-25.756c-57.64-0.254-111.624-4.036-151.902-14.462c1.439-51.038,1.612-166.306,2.62-235.829
			c140.937-1.374,281.858-4.946,422.812-3.89c-0.432,70.868,1.046,187.588,4.118,239.921c-36.841,2.529-84.589,6.465-135.901,9.567
			c0.178,8.617,1.102,17.128,2.315,25.618c54.177-3.301,104.789-7.485,144.534-9.892c3.945-0.239,6.932-1.909,9.019-4.266
			c4.001-1.757,6.946-5.5,6.581-11.334C477.376,304.601,476.051,131.035,479.342,48.389z M451.875,107.689
			c-140.889-1.062-281.752,2.506-422.625,3.885c0.368-19.588,0.838-37.976,1.45-54.172c109.42-8.582,312.827-7.015,422.48-4.634
			C452.57,69.247,452.144,87.878,451.875,107.689z"/>
		<path d="M62.404,70.011c-16.765,0-16.765,26,0,26C79.174,96.01,79.174,70.011,62.404,70.011z"/>
		<path d="M107.903,68.711c-16.765,0-16.765,25.999,0,25.999C124.673,94.71,124.673,68.711,107.903,68.711z"/>
		<path d="M156.001,66.111c-16.765,0-16.765,25.999,0,25.999C172.771,92.11,172.771,66.111,156.001,66.111z"/>
		<path d="M369.002,322.231c3.372-3.626,4.616-8.912,1.011-14.381c-29.564-44.884-65.019-84.787-104.729-120.932
			c-7.794-7.092-17.983-2.433-21.357,4.811c-35,40.896-66.532,84.672-104.929,122.585c-9.557,9.435,0.307,23.043,10.747,22.089
			c0.355,0.025,0.678,0.106,1.046,0.106h42.259c-0.62,11.136-1.013,24.379-1.216,38.182c-0.063,4.356-0.109,8.754-0.134,13.177
			c-0.053,8.688-0.033,17.388,0.056,25.766c0.084,7.876,0.218,15.463,0.417,22.43c-0.094,0.162-0.163,0.335-0.244,0.498
			c-4.108,7.911-0.541,19.728,10.862,19.108c0.713-0.036,1.429-0.046,2.143-0.087c1.123,0.071,2.245,0.062,3.344-0.122
			c28.854-1.34,57.603-1.016,86.374,1.94c7.622,0.782,11.685-4.24,12.314-10.075c0.843-1.574,1.396-3.412,1.549-5.524
			c0.035-0.508,0.071-1.052,0.106-1.564c0.63-9.227,1.107-19.702,1.487-30.727c0.285-8.419,0.519-17.123,0.711-25.796
			c0.102-4.55,0.193-9.074,0.279-13.548c0.26-13.609,0.457-26.665,0.691-37.745c15.396-0.335,30.767-1.133,46.128-2.417
			C363.492,329.539,367.164,326.278,369.002,322.231z M298.124,306.606c-9.867,0.03-13.884,9.044-12.132,16.453
			c0,0.005,0,0.01,0,0.015c-0.324,14.193-0.563,31.067-0.898,48.378c-0.086,4.55-0.183,9.1-0.284,13.675
			c-0.198,8.745-0.442,17.388-0.747,25.791c-0.127,3.692-0.273,7.308-0.432,10.857c-0.127,2.939-0.254,5.91-0.406,8.719
			c-15.183-1.209-30.366-1.722-45.564-1.701c-2.953,0.005-5.913,0.04-8.871,0.086c-3.593,0.056-7.19,0.102-10.791,0.214
			c-0.025-1.199-0.041-2.488-0.066-3.713c-0.079-3.939-0.147-7.962-0.193-12.09c-0.094-8.374-0.124-17.026-0.073-25.766
			c0.043-6.982,0.137-13.955,0.282-20.84c0.312-15.011,0.868-29.483,1.747-41.884c0.229-3.214-0.561-5.794-1.97-7.77
			c-1.899-3.737-5.553-6.53-11.029-6.53h-28.198c27.73-30.549,52.638-63.52,79.277-95.067
			c29.168,27.596,55.857,57.292,79.125,89.989C323.991,306.149,311.072,306.565,298.124,306.606z"/>
	</g>
</g>
<g>
</g>
<g>
</g>
<g>
</g>
<g>
</g>
<g>
</g>
<g>
</g>
<g>
</g>
<g>
</g>
<g>
</g>
<g>
</g>
<g>
</g>
<g>
</g>
<g>
</g>
<g>
</g>
<g>
</g>
</svg>
