<?xml version="1.0" encoding="iso-8859-1"?>
<!-- Generator: Adobe Illustrator 16.0.0, SVG Export Plug-In . SVG Version: 6.00 Build 0)  -->
<!DOCTYPE svg PUBLIC "-//W3C//DTD SVG 1.1//EN" "http://www.w3.org/Graphics/SVG/1.1/DTD/svg11.dtd">
<svg version="1.1" id="Capa_1" xmlns="http://www.w3.org/2000/svg" xmlns:xlink="http://www.w3.org/1999/xlink" x="0px" y="0px"
	 width="474.5px" height="474.5px" viewBox="0 0 474.5 474.5" style="enable-background:new 0 0 474.5 474.5;" xml:space="preserve"
	>
<g>
	<g>
		<path d="M120.252,169c15.843,11.233,33.784,17.167,51.879,17.167c23.687,0,47.017-9.958,65.688-28.043
			c4.979-4.827,10.189-10.468,11.591-12.131c0.609-0.729,1.163-1.566,1.646-2.476c17.936-33.883,14.934-68.928-8.227-96.151
			c-5.497-6.457-10.369-11.933-12.121-13.627c-0.901-0.868-2.008-1.645-3.283-2.3c-16.123-8.292-32.451-12.5-48.53-12.5
			c-22.099,0-43.439,7.836-63.416,23.285c-0.899,0.696-1.668,1.455-2.283,2.247c-1.424,1.836-6.033,8.127-10.146,14.157
			C76.479,97.605,83.556,142.99,120.252,169z M131.753,63.812c0.406-0.432,0.769-0.883,1.102-1.34
			c1.404-1.945,7.426-7.185,14.416-10.697c15.282-7.681,32.388-9.328,49.435-4.783c7.992,2.133,19.042,8.955,24.62,15.208
			c14.429,16.161,18.984,34.974,13.178,54.398c-2.184,7.305-5.746,13.784-6.965,15.068c-13.238,17.778-31.77,27.424-52.417,27.424
			c-25.21,0-49.13-14.665-58.166-35.668C112.104,112.134,107.56,89.369,131.753,63.812z"/>
		<path d="M346.358,286.354c-8.18,0.208-15.935,0.427-22.901,0.66c0.143,2.488,0.32,4.986,0.447,7.475
			c1.193,24.521,1.976,49.048,2.579,73.59c0.335,13.903,0.462,27.807,0.528,41.711c-16.417,0.015-32.819,0.188-49.221,1.035
			c-0.884-35.159-2.671-79.236-4.148-105.602c-0.808-14.432-23.318-14.513-22.506,0c1.833,32.764,4.164,93.019,4.621,129.347
			c-51.56-0.193-103.116-1.006-154.678-1.184c-0.16-36.19-0.843-94.439-0.904-126.294c-0.025-14.513-22.531-14.513-22.505,0
			c0.045,23.714,0.437,62.083,0.703,95.075c-18.184,0.838-36.383,1.021-54.583,1.051c-2.544-50.525-0.589-101.042,0.421-151.604
			c4.581-9.449,11.824-16.328,21.896-19.646c31.91-3.361,63.987-4.74,96.06-5.21c32.194-0.467,64.391,0.016,96.578,0.355
			c11.44,0.12,22.871-0.033,34.312-0.089c3.147-6.058,7.362-9.006,11.004-10.404c-4.905-2.288-8.542-6.724-11.01-12.256
			c-7.616,0.16-15.238,0.427-22.77,0.358c-16.559-0.15-33.116-0.368-49.672-0.515c-33.134-0.29-66.288-0.279-99.396,1.206
			c-18.583,0.838-37.153,2.127-55.652,4.093c-1.419-0.16-2.966-0.046-4.634,0.464c-16.09,4.913-29.744,15.958-36.727,31.427
			c-0.645,1.428-1.061,2.91-1.244,4.388c-0.731,1.427-1.196,3.093-1.231,5.042c-1.056,53.786-3.291,107.512,0,161.277
			c0.287,4.626,2.808,7.759,6.058,9.425c1.663,1.584,3.94,2.63,6.911,2.63c21.287,0,42.566-0.092,63.828-1.076
			c0.046,7.14,0.079,13.767,0.089,19.479c0.005,1.991,0.457,3.672,1.186,5.119c1.277,3.65,4.431,6.565,9.463,6.57
			c60.179,0.071,120.351,1.239,180.527,1.311c9.414,0.01,12.238-10.146,8.521-16.315c-0.021-2.377-0.051-4.9-0.086-7.516
			c17.229-0.878,34.479-1.021,51.744-1.021c2.722,0,4.87-0.884,6.5-2.244c6.18,0.924,13.147-2.646,13.132-10.725
			c-0.071-35.222-1.478-70.325-2.574-105.521C346.76,303.619,346.628,294.986,346.358,286.354z"/>
		<path d="M287.952,146.964c1.03,0.521,2.229,0.838,3.646,0.838c0.381,0,0.782-0.028,1.198-0.074
			c20.927-2.506,149.801-3.801,170.834-5.04c12.812-0.754,8.475-16.676,8.562-24.616c0.102-8.736,4.895-24.028-9.882-24.028l0,0
			c-21.424,0-150.658,0.094-172.088,1.259c-11.857,0.645-9.039,13.188-8.282,21.36C282.818,126.106,277.156,141.502,287.952,146.964
			z M453.951,112.951c0,0-2.225,6.246,0.381,11.408c-14.849,0.906-137.532,1.944-152.319,3.479
			c0.152-8.877-2.133-14.059-2.133-14.059C315.281,113.16,438.539,112.982,453.951,112.951z"/>
		<path d="M464.665,160.545c-21.398-1.166-150.658-1.257-172.087-1.257c-15.249,0-16.646,33.72-7.525,44.973
			c1.716,2.115,3.768,3.529,6.205,3.672c3.869,0.229,11.415,0.457,21.241,0.695c43.584,1.062,132.515,2.298,149.592,4.342
			c0.411,0.054,0.812,0.074,1.198,0.074c1.412,0,2.61-0.317,3.642-0.838c4.352-2.199,5.748-5.215,5.997-8.668
			c0.324-4.601-1.401-9.978-0.904-15.213c0.62-6.515,4.864-16.704,0.595-22.668C471.236,162.901,468.596,160.758,464.665,160.545z
			 M452.874,193.087c-14.792-1.536-137.471-2.574-152.323-3.479c2.609-5.159,0.381-11.41,0.381-11.41
			c15.411,0.03,138.669,0.208,154.07,0.828C455.007,179.026,452.717,184.206,452.874,193.087z"/>
		<path d="M469.043,227.374c-1.523-1.701-3.763-2.838-6.733-2.838l0,0c-14.808,0-81.07,0.045-127.691,0.457
			c-20.854,0.183-37.79,0.441-44.412,0.802c-1.346,0.071-2.508,0.557-3.6,1.201c-11.918,7.066-8.902,45.278,1.341,50.457
			c1.03,0.523,2.229,0.838,3.646,0.838c0.381,0,0.782-0.025,1.198-0.071c4.937-0.594,15.925-1.117,30.042-1.584
			c7.032-0.233,14.832-0.462,23.089-0.67c45.438-1.158,104.104-1.98,117.702-2.783c13.808-0.822,8.506-25.958,10.304-35.434
			C474.847,232.944,472.404,229.283,469.043,227.374z M344.485,256.953c-8.46,0.172-16.245,0.345-22.846,0.527
			c-9.603,0.265-16.723,0.549-19.627,0.849c0.152-8.877-2.133-14.062-2.133-14.062c2.93-0.121,9.791-0.218,19.053-0.305
			c6.738-0.061,14.771-0.121,23.501-0.172c42.289-0.244,101.174-0.325,111.518-0.351c0,0-2.225,6.246,0.381,11.41
			C444.415,255.46,386.343,256.125,344.485,256.953z"/>
	</g>
</g>
<g>
</g>
<g>
</g>
<g>
</g>
<g>
</g>
<g>
</g>
<g>
</g>
<g>
</g>
<g>
</g>
<g>
</g>
<g>
</g>
<g>
</g>
<g>
</g>
<g>
</g>
<g>
</g>
<g>
</g>
</svg>
