<?xml version="1.0" encoding="iso-8859-1"?>
<!-- Generator: Adobe Illustrator 16.0.0, SVG Export Plug-In . SVG Version: 6.00 Build 0)  -->
<!DOCTYPE svg PUBLIC "-//W3C//DTD SVG 1.1//EN" "http://www.w3.org/Graphics/SVG/1.1/DTD/svg11.dtd">
<svg version="1.1" id="Capa_1" xmlns="http://www.w3.org/2000/svg" xmlns:xlink="http://www.w3.org/1999/xlink" x="0px" y="0px"
	 width="474.862px" height="474.862px" viewBox="0 0 474.862 474.862" style="enable-background:new 0 0 474.862 474.862;"
	 xml:space="preserve">
<g>
	<g>
		<path d="M421.948,27.62c-0.076-0.452,0.614-5.185-2.225-9.055c-1.528-2.082-3.91-3.681-7.276-4.377
			C353.975,2.047,293.603-0.055,234.061,0.001c-30.242,0.025-60.458,1.005-90.68,2.153C97.138,3.906,43.194-8.018,45.546,56.412
			c1.092,29.919,0.556,59.803,1.122,89.732c1.254,66.72,1.98,133.49,1.955,200.22c-0.016,36.836,0.381,73.672,0.391,110.507
			c0,2.133,0.427,3.981,1.163,5.571c1.338,2.868,5.129,6.646,7.993,7.982c1.582,0.741,3.433,1.162,5.561,1.168
			c105.218,0.091,243.298,3.27,348.509,3.27c3.011,0,5.479-0.832,7.414-2.203c3.549-2.514,5.794-7.765,6.565-9.979
			c0.432-1.249,0.695-2.641,0.736-4.174c4.291-144.062,3.067-286.216-4.91-430.074C422.029,28.153,421.994,27.884,421.948,27.62z
			 M335.384,437.504c-0.188,5.921-5.062,10.674-10.979,10.613c-3.895-0.041-7.81-0.076-11.745-0.122
			c-5.916-0.061-10.659-0.523-10.598-1.016c0.035-0.289,0.061-0.584,0.061-0.904c0-23.79-0.142-99.543-1.828-123.283
			c-1.244-17.528-28.67-17.65-27.416,0c1.691,23.74,1.823,99.498,1.823,123.283c0,0.26,0.025,0.503,0.051,0.742
			c0.056,0.411-4.702,0.69-10.623,0.614c-21.231-0.259-42.627-0.533-63.785-0.792c-5.918-0.076-10.875-4.926-11.014-10.847
			c-0.467-20.028-0.536-92.054-0.541-112.092c0-17.677-27.418-17.677-27.418,0c0,19.926,0.078,91.851,0.535,111.767
			c0.135,5.916-4.514,10.664-10.438,10.603c-4.497-0.046-8.968-0.091-13.403-0.137c-5.918-0.056-10.42-4.886-10.125-10.796
			c1.757-34.738,2.029-121.521,3.631-156.27c0.269-5.911,2.943-14.106,7.404-15.909c2.595-1.052,5.466-1.468,8.549-1.417
			c58.965-0.686,117.732,1.787,176.521,3.666c0.203,0.005,0.396-0.01,0.584-0.025c0.319-0.03,0.731-0.035,0.914-0.01
			c0.106,0.015,0.213,0.03,0.33,0.035c3.504,0.071,5.682,0.579,8.282,2.128c0.061,0.04,0.111,0.076,0.157,0.111
			c0.091,0.056,0.492,0.452,0.909,0.884c0.416,0.427,1.147,1.3,1.584,2.001c0.259,0.421,0.513,0.848,0.752,1.279
			c0.056,0.087,0.091,0.163,0.127,0.224c0.07,0.122,0.451,5.017,0.66,10.933C339.578,317.06,336.476,403.232,335.384,437.504z
			 M401.331,437.91c-0.157,5.921-5.093,10.715-11.009,10.694c-5.596-0.021-11.293-0.056-17.067-0.086
			c-5.915-0.036-10.643-4.87-10.455-10.786c1.102-34.794,4.307-121.485,2.955-156.29c-0.233-5.916-0.457-11.75-0.584-13.03
			c-0.081-0.757-0.229-1.519-0.477-2.265c-5.851-17.666-20.246-27.984-38.816-28.345c-0.193-0.005-0.381,0.015-0.563,0.036
			c-0.315,0.036-0.722,0.041-0.914,0.005c-0.117-0.02-0.224-0.035-0.351-0.041c-58.488-1.878-116.946-4.316-175.475-3.656
			c-0.317,0.005-0.614-0.005-0.917,0c-16.676-0.432-31.016,7.835-40.169,21.413c-0.81,1.204-1.346,2.509-1.643,3.87
			c-0.498,2.274-0.566,5.129-0.835,6.332c-0.157,0.695-0.267,1.422-0.307,2.204c-2.112,38.303-2.237,128.671-4.171,166.974
			c-0.294,5.911-5.393,10.669-11.309,10.639c-1.13-0.005-2.252-0.011-3.369-0.016c-5.918-0.025-10.717-4.85-10.727-10.765
			c0-69.96-2.778-139.884-4.182-209.817c-0.701-35.104-1.097-70.233-0.551-105.333c0.277-17.59,0.858-35.18,1.544-52.76
			c0.351-8.892-2.044-25.775,2.366-34.027c0.277-0.518,0.381-1.021,0.566-1.132c0.188-0.117,5.139-0.437,11.05-0.742
			c91.185-4.677,209.55-10.257,299.867,4.809c5.84,0.975,10.816,6.672,11.115,12.583
			C403.561,178.583,404.733,307.548,401.331,437.91z"/>
		<path d="M279.374,98.635c-0.863-0.828-1.915-1.584-3.174-2.234c-28.538-14.681-57.338-11.573-82.563,7.941
			c-0.917,0.706-1.661,1.452-2.257,2.225c-1.076,1.386-4.356,5.875-7.259,10.136c-18.418,27.009-16.468,61.712,12.995,82.593
			c29.102,20.627,63.586,14.939,87.265-8.003c3.702-3.58,7.389-7.591,8.403-8.805c0.574-0.691,1.107-1.473,1.585-2.377
			c13.197-24.933,11.004-51.379-6.23-71.63C284.797,104.551,280.923,100.128,279.374,98.635z M276.002,158.443
			c-1.478,4.937-3.772,8.841-4.042,9.125c-0.157,0.163-0.314,0.33-0.457,0.523c-31.821,42.884-101.651-0.817-61.55-43.178
			c0.406-0.432,0.764-0.869,1.082-1.311c0.551-0.767,4.202-4.083,8.811-6.393c10.202-5.119,21.241-6.007,32.153-3.097
			c4.981,1.325,12.086,5.743,15.519,9.587C276.551,133.815,279.876,145.505,276.002,158.443z"/>
	</g>
</g>
<g>
</g>
<g>
</g>
<g>
</g>
<g>
</g>
<g>
</g>
<g>
</g>
<g>
</g>
<g>
</g>
<g>
</g>
<g>
</g>
<g>
</g>
<g>
</g>
<g>
</g>
<g>
</g>
<g>
</g>
</svg>
