<?xml version="1.0" encoding="iso-8859-1"?>
<!-- Generator: Adobe Illustrator 16.0.0, SVG Export Plug-In . SVG Version: 6.00 Build 0)  -->
<!DOCTYPE svg PUBLIC "-//W3C//DTD SVG 1.1//EN" "http://www.w3.org/Graphics/SVG/1.1/DTD/svg11.dtd">
<svg version="1.1" id="Capa_1" xmlns="http://www.w3.org/2000/svg" xmlns:xlink="http://www.w3.org/1999/xlink" x="0px" y="0px"
	 width="477.188px" height="477.187px" viewBox="0 0 477.188 477.187" style="enable-background:new 0 0 477.188 477.187;"
	 xml:space="preserve">
<g>
	<g>
		<path d="M477.02,36.096c-0.015-1.181-0.188-2.257-0.441-3.271c0.086-6.568-4.093-13.197-12.558-13.197h-32.932
			c-0.635,0-1.203,0.104-1.787,0.178c-3.595-0.693-7.5,0.186-10.872,3.628c-7.586,7.749-14.035,16.517-19.854,25.657h-17.026
			c-4.713-6.282-8.79-13.041-12.832-19.763c-1.193-5.228-5.216-9.704-12.157-9.704h-214.93c-0.713,0-1.346,0.109-1.996,0.198
			c-3.969-0.569-8.14,0.412-10.661,3.608c-6.391,8.112-11.7,16.433-15.803,25.656H90.822c-3.405-7.19-6.729-14.424-10.768-21.294
			c-0.35-0.587-0.749-1.059-1.14-1.564c-1.544-4.623-5.482-8.34-11.829-8.34c-14.731,0-38.057-4.862-51.755-0.5
			C-9.443,25.275,3.054,61.506,3.869,79.8c1.244,27.83,0.229,55.937,0.381,83.797c0.343,63.375,0.987,126.756,1.815,190.125
			c0.373,28.752,0.706,57.493,1.231,86.229c0.073,4.094,1.696,7.171,4.083,9.263c0.883,5.637,5.007,10.669,12.385,10.669
			c12.74-0.005,25.479-0.066,38.13-1.731c0.988-0.127,1.94-0.341,2.869-0.604c5.403,0.229,10.958-2.407,13.131-8.938
			c2.567-7.713,4.867-15.447,6.203-23.389h25.215c2.208,5.199,3.587,10.639,3.712,16.468c0.045,2.128,0.515,3.981,1.279,5.565
			c1.564,4.712,5.474,8.688,11.72,9.166c62.885,4.844,157.087,5.194,220.125,5.199c1.233,0,2.351-0.178,3.401-0.441
			c5.332,0.193,10.694-2.493,12.604-9.104c2.433-8.435,5.109-16.783,7.846-25.121h18.524c3.407,6.489,6.81,12.989,9.222,19.921
			c0.32,0.919,0.736,1.787,1.204,2.61c1.726,4.392,5.483,8.063,11.329,8.663c15.568,1.604,31.168,1.731,46.798,1.731
			c1.27,0,2.407-0.188,3.483-0.462c6.617,0.162,13.233-3.997,12.984-12.538C470.515,342.849,478.421,140.134,477.02,36.096z
			 M447.329,433.801c-9.095-0.082-18.185-0.249-27.254-0.854c-3.661-8.739-8.15-17.077-12.431-25.553
			c-2.387-4.728-7.892-6.896-12.949-6.266c-0.573-0.071-1.122-0.178-1.741-0.178h-32.931c-7.521,0-11.64,5.235-12.416,11.004
			c-0.036,0.097-0.087,0.173-0.122,0.273c-2.59,7.77-5.088,15.56-7.495,23.385c-56.985-0.03-145.136-0.498-201.997-4.372
			c-1.544-8.983-4.768-17.56-9.404-25.578c-2.917-5.037-7.526-6.692-11.957-6.17c-0.863-0.162-1.762-0.269-2.739-0.269H72.295
			c-7.597,0-11.71,5.342-12.429,11.177c-0.312,1.097-0.541,2.254-0.571,3.554c-0.149,6.48-1.711,12.721-3.607,18.875
			c-7.478,0.701-14.988,0.945-22.501,1.021c-1.711-94.445-3.303-287.686-3.359-382.151c0-2.61-0.666-4.788-1.731-6.583v-1.216
			h31.141c4.458,8.059,8.15,16.509,12.235,24.763c2.148,4.342,6.964,6.452,11.649,6.307c0.441,0.041,0.848,0.129,1.31,0.129h36.399
			c4.634,0,7.939-2.019,10.014-4.893c1.894-1.647,3.377-3.844,4.255-6.38c2.239-6.469,5.538-12.568,9.478-18.189h203.64
			c5.099,8.257,10.44,16.27,16.478,23.925c1.371,1.736,3.25,2.765,5.297,3.318c1.925,1.366,4.361,2.219,7.363,2.219h29.467
			c6.917,0,10.928-4.436,12.142-9.636c4.316-7.015,8.968-13.685,14.401-19.827h17.691
			C451.858,142.117,445.333,337.309,447.329,433.801z"/>
		<path d="M117.362,104.562H72.295c-9.567,0-13.65,8.46-12.304,15.729c-0.409,1.274-0.696,2.644-0.696,4.207v23.529
			c-3.488,7.695,0.234,18.933,11.268,18.933c15.049-0.005,30.097-0.01,45.067-1.731c0.904-0.104,1.79-0.274,2.646-0.5
			c6.177-0.378,12.085-4.512,12.085-12.5v-29.467c0-1.369-0.224-2.585-0.546-3.728C130.501,112.081,126.378,104.562,117.362,104.562
			z M104.362,140.192c-6.35,0.406-12.703,0.602-19.068,0.681v-10.311h19.068V140.192z"/>
		<path d="M117.362,208.56H72.295c-9.567,0-13.65,8.46-12.304,15.729c-0.409,1.274-0.696,2.643-0.696,4.207v23.529
			c-3.488,7.692,0.234,18.931,11.268,18.931c15.049-0.006,30.097-0.011,45.067-1.732c0.904-0.102,1.79-0.273,2.646-0.497
			c6.177-0.381,12.085-4.515,12.085-12.502v-29.465c0-1.369-0.224-2.585-0.546-3.728C130.501,216.078,126.378,208.56,117.362,208.56
			z M104.362,244.189c-6.35,0.406-12.703,0.6-19.068,0.681v-10.311h19.068V244.189z"/>
		<path d="M117.362,312.554H72.295c-9.567,0-13.65,8.46-12.304,15.731c-0.409,1.274-0.696,2.641-0.696,4.204v23.532
			c-3.488,7.692,0.234,18.93,11.268,18.93c15.049-0.005,30.097-0.01,45.067-1.731c0.904-0.102,1.79-0.274,2.646-0.497
			c6.177-0.381,12.085-4.515,12.085-12.502v-29.468c0-1.366-0.224-2.585-0.546-3.728
			C130.501,320.075,126.378,312.554,117.362,312.554z M104.362,348.186c-6.35,0.406-12.703,0.6-19.068,0.681v-10.313h19.068V348.186
			z"/>
		<path d="M398.153,104.562h-45.066c-9.567,0-13.65,8.46-12.305,15.729c-0.411,1.274-0.695,2.644-0.695,4.207v23.529
			c-3.488,7.695,0.233,18.933,11.268,18.933c15.047-0.005,30.098-0.01,45.067-1.731c0.904-0.104,1.787-0.274,2.646-0.5
			c6.175-0.378,12.086-4.512,12.086-12.5v-29.467c0-1.369-0.224-2.585-0.549-3.728C411.29,112.081,407.167,104.562,398.153,104.562z
			 M385.154,140.192c-6.353,0.406-12.705,0.602-19.068,0.681v-10.311h19.068V140.192z"/>
		<path d="M398.153,208.56h-45.066c-9.567,0-13.65,8.46-12.305,15.729c-0.411,1.274-0.695,2.643-0.695,4.207v23.529
			c-3.488,7.692,0.233,18.931,11.268,18.931c15.047-0.006,30.098-0.011,45.067-1.732c0.904-0.102,1.787-0.273,2.646-0.497
			c6.175-0.381,12.086-4.515,12.086-12.502v-29.465c0-1.369-0.224-2.585-0.549-3.728C411.29,216.078,407.167,208.56,398.153,208.56z
			 M385.154,244.189c-6.353,0.406-12.705,0.6-19.068,0.681v-10.311h19.068V244.189z"/>
		<path d="M398.153,312.554h-45.066c-9.567,0-13.65,8.46-12.305,15.731c-0.411,1.274-0.695,2.641-0.695,4.204v23.532
			c-3.488,7.692,0.233,18.93,11.268,18.93c15.047-0.005,30.098-0.01,45.067-1.731c0.904-0.102,1.787-0.274,2.646-0.497
			c6.175-0.381,12.086-4.515,12.086-12.502v-29.468c0-1.366-0.224-2.585-0.549-3.728
			C411.29,320.075,407.167,312.554,398.153,312.554z M385.154,348.186c-6.353,0.406-12.705,0.6-19.068,0.681v-10.313h19.068V348.186
			z"/>
		<path d="M282.985,217.291c-28.152-25.423-66.311-44.843-101.499-58.531c-29.317-11.387-12.2,149.29-11.258,159.863
			c0.025,0.314,0.119,0.578,0.167,0.873c-1.3,9.212,8.595,19.738,19.396,13.817c28.586-15.676,56.749-32.134,83.799-50.349
			c22.145-14.909,33.327-28.056,26.091-44.75C296.929,231.855,291.496,224.977,282.985,217.291z M194.849,300.722
			c-2.387-32.123-3.712-64.264-3.821-96.499c-0.005-1.254-0.193-2.382-0.467-3.448c0.274-1.076,0.467-2.214,0.467-3.483v-6.51
			c31.9,14.449,61.012,33.893,86.838,57.647C251.177,267.441,223.354,284.605,194.849,300.722z"/>
	</g>
</g>
<g>
</g>
<g>
</g>
<g>
</g>
<g>
</g>
<g>
</g>
<g>
</g>
<g>
</g>
<g>
</g>
<g>
</g>
<g>
</g>
<g>
</g>
<g>
</g>
<g>
</g>
<g>
</g>
<g>
</g>
</svg>
