<?xml version="1.0" encoding="iso-8859-1"?>
<!-- Generator: Adobe Illustrator 16.0.0, SVG Export Plug-In . SVG Version: 6.00 Build 0)  -->
<!DOCTYPE svg PUBLIC "-//W3C//DTD SVG 1.1//EN" "http://www.w3.org/Graphics/SVG/1.1/DTD/svg11.dtd">
<svg version="1.1" id="Capa_1" xmlns="http://www.w3.org/2000/svg" xmlns:xlink="http://www.w3.org/1999/xlink" x="0px" y="0px"
	 width="490.128px" height="490.128px" viewBox="0 0 490.128 490.128" style="enable-background:new 0 0 490.128 490.128;"
	 xml:space="preserve">
<g>
	<g>
		<path d="M304.953,164.324c-0.163-22.841-17.312-44.635-29.229-62.642c-9.647-14.574-20.408-28.432-28.843-43.777
			c-4.499-8.186-7.764-17.034-9.811-26.134c-1.655-7.384-0.625-18.418-4.372-25.07c-5.728-10.153-22.516-8.901-23.211,4.664
			c-2.58,50.628-51.019,84.63-59.427,134.054c-7.475,43.892,29.137,77.066,68.705,85.762
			C262.003,240.68,305.263,209.305,304.953,164.324z M218.308,206.538c-21.186-4.654-38.288-20.556-44.189-41.167
			c-6.124-21.408,9.196-44.798,19.738-62.022c9.318-15.231,19.134-29.879,26.695-45.408c8.303,16.89,20.246,32.37,30.092,49.031
			c10.476,17.725,23.542,33.165,29.548,53.225C291.547,198.113,245.068,212.418,218.308,206.538z"/>
		<path d="M360.902,233.91c-4.5-8.186-7.765-17.034-9.806-26.134c-1.661-7.386-0.625-18.417-4.378-25.07
			c-5.728-10.156-22.51-8.902-23.211,4.665c-2.58,50.625-51.019,84.627-59.428,134.051c-7.47,43.894,29.138,77.068,68.705,85.762
			c43.239,9.501,86.498-21.876,86.188-66.852c-0.162-22.846-17.311-44.636-29.229-62.642
			C380.092,263.111,369.336,249.254,360.902,233.91z M332.323,382.54c-21.186-4.656-38.293-20.556-44.188-41.167
			c-6.124-21.408,9.196-44.798,19.738-62.027c9.317-15.229,19.134-29.879,26.694-45.405c8.308,16.892,20.246,32.37,30.093,49.031
			c10.48,17.727,23.541,33.164,29.548,53.227C405.562,374.121,359.089,388.421,332.323,382.54z"/>
		<path d="M168.949,315.155c-4.499-8.186-7.764-17.036-9.806-26.136c-1.66-7.384-0.625-18.418-4.377-25.07
			c-5.728-10.156-22.511-8.901-23.211,4.667c-2.58,50.622-51.019,84.624-59.428,134.048c-7.469,43.895,29.143,77.068,68.705,85.762
			c43.239,9.501,86.499-21.875,86.188-66.852c-0.163-22.846-17.311-44.635-29.229-62.642
			C188.144,344.354,177.384,330.501,168.949,315.155z M140.371,463.788c-21.186-4.657-38.293-20.556-44.188-41.167
			c-6.124-21.409,9.201-44.799,19.738-62.027c9.318-15.229,19.134-29.879,26.695-45.402c8.308,16.889,20.246,32.367,30.092,49.027
			c10.481,17.728,23.542,33.164,29.549,53.228C213.61,455.363,167.137,469.668,140.371,463.788z"/>
		<path d="M160.911,407.798c8.109,9.334,9.146,18.062-1.793,25.269c-11.151,7.343-0.741,25.364,10.497,17.961
			c9.577-6.308,17.595-14.895,18.682-26.812c1.097-12.064-5.042-22.338-12.674-31.123
			C166.801,382.951,152.151,397.729,160.911,407.798z"/>
		<path d="M354.047,328.709c8.119,9.333,9.146,18.057-1.793,25.268c-11.146,7.343-0.736,25.364,10.496,17.961
			c9.577-6.307,17.601-14.894,18.683-26.812c1.097-12.065-5.048-22.338-12.68-31.123
			C359.938,303.862,345.287,318.639,354.047,328.709z"/>
		<path d="M241.123,153.006c8.11,9.333,9.146,18.06-1.792,25.265c-11.151,7.343-0.741,25.365,10.496,17.961
			c9.577-6.307,17.596-14.894,18.682-26.812c1.103-12.062-5.042-22.338-12.674-31.12
			C247.013,128.159,232.368,142.934,241.123,153.006z"/>
	</g>
</g>
<g>
</g>
<g>
</g>
<g>
</g>
<g>
</g>
<g>
</g>
<g>
</g>
<g>
</g>
<g>
</g>
<g>
</g>
<g>
</g>
<g>
</g>
<g>
</g>
<g>
</g>
<g>
</g>
<g>
</g>
</svg>
