<?xml version="1.0" encoding="iso-8859-1"?>
<!-- Generator: Adobe Illustrator 16.0.0, SVG Export Plug-In . SVG Version: 6.00 Build 0)  -->
<!DOCTYPE svg PUBLIC "-//W3C//DTD SVG 1.1//EN" "http://www.w3.org/Graphics/SVG/1.1/DTD/svg11.dtd">
<svg version="1.1" id="Capa_1" xmlns="http://www.w3.org/2000/svg" xmlns:xlink="http://www.w3.org/1999/xlink" x="0px" y="0px"
	 width="478.782px" height="478.783px" viewBox="0 0 478.782 478.783" style="enable-background:new 0 0 478.782 478.783;"
	 xml:space="preserve">
<g>
	<g>
		<path d="M260.179,203.239c-8.973-3.39-18.615-3.641-28.886-0.719c-3.181-1.046-6.594-0.759-9.765,0.833
			c-19.743,9.879-37.372,31.334-29.399,55.106c6.759,20.175,29.14,27.335,46.252,27.335l0,0c6.822,0,13.479-1.066,19.273-3.067
			c12.294-4.256,23.309-14.249,28.741-26.081c4.556-9.922,4.987-20.149,1.255-29.586
			C283.437,216.418,274.453,208.624,260.179,203.239z M216.214,249.588c-1.554-4.637,0.046-9.496,4.764-14.45
			c1.14-0.323,2.173-0.764,3.141-1.346c5.553-3.329,15.112-7.213,23.785-7.213c7.995,0,13.348,3.28,15.901,9.75
			c1.214,3.057,1.062,6.276-0.446,9.557c-2.895,6.312-9.893,11.146-15.176,12.975c-2.74,0.944-6.287,1.467-9.988,1.467
			C229.719,260.328,218.873,257.515,216.214,249.588z"/>
		<path d="M362.095,159.657c-2.626-6.708-8.496-9.328-13.97-8.962c-2.057-0.053-4.22,0.394-6.435,1.653
			c-12.537,7.109-25.201,13.962-37.607,21.355c-15.264,9.105,3.656,34.305,6.733,46.098c5.479,20.962,2.077,43.041-8.922,61.297
			c-0.817,1.355-1.3,2.696-1.63,4.017c-0.721,0.792-1.254,1.757-1.858,2.65c-3.864,4.275-5.632,11.542-2.112,16.523
			c8.551,12.096,19.372,21.511,31.793,28.817c2.158,1.265,4.271,1.758,6.276,1.752c3.352,0.473,6.921-0.548,10.034-3.89
			C387.905,284.341,384.422,216.647,362.095,159.657z M332.642,304.1c-3.199-2.27-6.286-4.758-9.069-7.551
			c0.127-0.519,0.285-1.026,0.351-1.564c0.025-0.04,0.051-0.061,0.076-0.102c19.408-32.204,19.256-70.16,3.555-103.656
			c5.113-2.923,10.253-5.81,15.387-8.693C356.163,223.563,359.235,269.168,332.642,304.1z"/>
		<path d="M422.091,82.363c-2.372-0.054-4.87,0.396-7.435,1.653c-14.492,7.109-29.132,13.961-43.462,21.355
			c-13.224,6.828-1.809,27.086,2.798,34.508c9.755,15.709,16.971,31.313,22.068,49.398c9.339,33.149,10.893,64.952,0.686,98.224
			c-6.083,19.829-16.447,38.39-28.076,55.086c-0.944,1.355-1.498,2.696-1.884,4.017c-0.828,0.792-1.452,1.752-2.147,2.655
			c-4.469,4.271-6.505,11.537-2.438,16.514c9.876,12.096,22.384,21.516,36.739,28.823c2.498,1.269,4.936,1.746,7.256,1.746
			c3.869,0.478,7.998-0.543,11.599-3.885c91.957-85.264,63.749-205.487,20.448-301.124C435.207,84.625,428.418,82,422.091,82.363z
			 M404.201,365.599c-3.697-2.274-7.262-4.758-10.477-7.551c0.143-0.522,0.325-1.03,0.401-1.569c0.025-0.03,0.061-0.061,0.086-0.102
			c55.711-79.993,48.15-152.182,4.108-233.472c5.916-2.922,11.853-5.807,17.783-8.694
			C448.974,202.505,476.511,283.397,404.201,365.599z"/>
		<path d="M178.51,285.103c-0.333-1.32-0.81-2.655-1.633-4.021c-10.999-18.25-14.394-40.329-8.922-61.291
			c3.077-11.794,21.995-36.993,6.733-46.098c-12.403-7.394-25.07-14.244-37.605-21.355c-2.222-1.26-4.385-1.707-6.434-1.653
			c-5.469-0.365-11.347,2.26-13.972,8.963c-22.328,56.99-25.812,124.685,17.697,171.306c3.118,3.341,6.685,4.356,10.034,3.89
			c2.003,0.005,4.113-0.482,6.276-1.752c12.428-7.308,23.244-16.727,31.793-28.822c3.519-4.972,1.752-12.243-2.112-16.514
			C179.77,286.861,179.229,285.896,178.51,285.103z M146.136,304.1c-26.591-34.932-23.514-80.542-10.301-121.566
			c5.131,2.889,10.27,5.771,15.386,8.693c-15.704,33.497-15.854,71.452,3.552,103.656c0.025,0.03,0.051,0.062,0.078,0.102
			c0.066,0.538,0.224,1.046,0.348,1.564C152.422,299.347,149.334,301.831,146.136,304.1z"/>
		<path d="M111.994,346.603c-0.386-1.32-0.942-2.656-1.886-4.017C98.479,325.89,88.117,307.33,82.031,287.5
			c-10.212-33.267-8.65-65.074,0.688-98.224c5.096-18.085,12.312-33.689,22.066-49.398c4.608-7.422,16.021-27.68,2.798-34.508
			c-14.335-7.394-28.972-14.246-43.46-21.355c-2.564-1.257-5.065-1.707-7.437-1.653C50.36,82,43.578,84.625,40.542,91.328
			c-43.302,95.639-71.513,215.859,20.447,301.124c3.603,3.342,7.733,4.357,11.601,3.89c2.32,0,4.758-0.478,7.254-1.757
			c14.363-7.302,26.862-16.717,36.741-28.812c4.068-4.977,2.029-12.248-2.438-16.523
			C113.443,348.355,112.827,347.39,111.994,346.603z M74.577,365.599C2.261,283.397,29.804,202.505,62.669,114.211
			c5.931,2.892,11.87,5.771,17.783,8.694c-44.039,81.291-51.605,153.479,4.108,233.472c0.025,0.041,0.061,0.062,0.089,0.102
			c0.076,0.539,0.259,1.047,0.398,1.569C81.841,360.841,78.273,363.325,74.577,365.599z"/>
	</g>
</g>
<g>
</g>
<g>
</g>
<g>
</g>
<g>
</g>
<g>
</g>
<g>
</g>
<g>
</g>
<g>
</g>
<g>
</g>
<g>
</g>
<g>
</g>
<g>
</g>
<g>
</g>
<g>
</g>
<g>
</g>
</svg>
