<?xml version="1.0" encoding="iso-8859-1"?>
<!-- Generator: Adobe Illustrator 16.0.0, SVG Export Plug-In . SVG Version: 6.00 Build 0)  -->
<!DOCTYPE svg PUBLIC "-//W3C//DTD SVG 1.1//EN" "http://www.w3.org/Graphics/SVG/1.1/DTD/svg11.dtd">
<svg version="1.1" id="Capa_1" xmlns="http://www.w3.org/2000/svg" xmlns:xlink="http://www.w3.org/1999/xlink" x="0px" y="0px"
	 width="482.327px" height="482.327px" viewBox="0 0 482.327 482.327" style="enable-background:new 0 0 482.327 482.327;"
	 xml:space="preserve">
<g>
	<g>
		<path d="M479.341,65.105c5.368-7.414,2.036-21.007-10.049-21.276c-119.181-2.641-332.171-4.992-451.087,5.2
			c-2.45,0.208-4.499,1.003-6.23,2.123c-3.697,1.935-6.521,5.548-6.769,10.877c-3.661,78.82-2.778,266.937-5.2,345.793
			c-0.041,1.34,0.14,2.533,0.411,3.661c0.208,4.945,2.978,9.704,9.135,11.476c118.068,33.891,337.076,10.334,457.145,3.062
			c3.945-0.239,6.932-1.909,9.019-4.266c4.001-1.757,6.946-5.5,6.581-11.334C477.376,331.716,476.051,147.751,479.341,65.105z
			 M30.699,74.119c109.42-8.582,312.826-7.016,422.48-4.634c-0.609,16.478-1.036,35.109-1.3,54.921
			c-140.889-1.062-281.752,2.506-422.63,3.885C29.618,108.702,30.087,90.315,30.699,74.119z M26.198,400.523
			c1.44-51.038,1.612-176.706,2.621-246.229c140.937-1.373,281.857-4.945,422.808-3.89c-0.432,70.868,1.046,197.982,4.118,250.321
			C344.851,408.338,135.301,428.767,26.198,400.523z"/>
		<path d="M62.404,86.727c-16.765,0-16.765,25.999,0,25.999S79.169,86.727,62.404,86.727z"/>
		<path d="M107.902,85.427c-16.765,0-16.765,25.999,0,25.999C124.667,111.426,124.667,85.427,107.902,85.427z"/>
		<path d="M156.001,82.828c-16.765,0-16.765,25.999,0,25.999C172.766,108.827,172.766,82.828,156.001,82.828z"/>
		<path d="M373.095,189.424c-95.293,3.732-190.693,2.813-285.992,6.5c-16.707,0.645-16.775,26.649,0,25.999
			c95.298-3.687,190.699-2.768,285.992-6.5C389.801,214.768,389.872,188.769,373.095,189.424z"/>
		<path d="M373.095,246.625c-95.293,3.731-190.693,2.812-285.992,6.499c-16.707,0.646-16.775,26.649,0,25.999
			c95.298-3.686,190.699-2.767,285.992-6.499C389.801,271.969,389.872,245.97,373.095,246.625z"/>
		<path d="M373.095,309.023c-95.293,3.732-190.693,2.813-285.992,6.5c-16.707,0.646-16.775,26.649,0,25.999
			c95.298-3.687,190.699-2.768,285.992-6.5C389.801,334.368,389.872,308.368,373.095,309.023z"/>
	</g>
</g>
<g>
</g>
<g>
</g>
<g>
</g>
<g>
</g>
<g>
</g>
<g>
</g>
<g>
</g>
<g>
</g>
<g>
</g>
<g>
</g>
<g>
</g>
<g>
</g>
<g>
</g>
<g>
</g>
<g>
</g>
</svg>
