<?xml version="1.0" encoding="iso-8859-1"?>
<!-- Generator: Adobe Illustrator 16.0.0, SVG Export Plug-In . SVG Version: 6.00 Build 0)  -->
<!DOCTYPE svg PUBLIC "-//W3C//DTD SVG 1.1//EN" "http://www.w3.org/Graphics/SVG/1.1/DTD/svg11.dtd">
<svg version="1.1" id="Capa_1" xmlns="http://www.w3.org/2000/svg" xmlns:xlink="http://www.w3.org/1999/xlink" x="0px" y="0px"
	 width="468.037px" height="468.037px" viewBox="0 0 468.037 468.037" style="enable-background:new 0 0 468.037 468.037;"
	 xml:space="preserve">
<g>
	<g>
		<path d="M464.863,82.682c0.203-6.312-3.737-12.75-11.877-12.692c-146.916,1.077-293.728-3.958-440.652,1.097
			c-18.255,0.64-10.996,27.86-10.481,37.782c3.009,57.661-1.442,115.712,1.633,173.573c0.978,18.361,2.724,36.089,5.896,54.182
			c2.173,12.38-5.995,51.404,12.007,53.969c143.661,20.465,288.114-0.284,431.598-11.877c0.848-0.066,1.625-0.234,2.387-0.432
			c6.276,0.152,12.669-3.788,12.664-11.883c-0.071-77.733-1.31-209.918-1.371-277.245C466.661,86.556,465.955,84.428,464.863,82.682
			z M27.296,95.295c138.278-3.806,276.473-0.14,414.757-0.645c0.015,10.047,0.091,9.148,0.137,19.195
			c-0.508-0.028-0.98-0.099-1.528-0.068c-138.142,7.69-276.48,1.881-414.724,3.999C26.245,104.9,26.667,108.17,27.296,95.295z
			 M25.552,142.412c138.375-2.13,276.841,3.696,415.109-3.999c0.589-0.03,1.106-0.16,1.655-0.254
			c0.076,11.496,0.178,22.988,0.279,34.484c-0.198,0.005-0.36-0.03-0.563-0.015c-138.477,9.453-277.243,13.495-416.026,10.966
			C25.621,169.873,25.471,156.145,25.552,142.412z M35.848,367.823c-4.527-29.549-7.31-129.844-8.843-159.591
			c138.456,2.491,276.887-1.549,415.028-10.979c0.269-0.021,0.513-0.097,0.767-0.129c0.249,29.054,0.478,128.719,0.549,157.77
			C308.203,366.218,171.176,385.616,35.848,367.823z"/>
		<path d="M109.379,304.876c-1.097-0.671-2.422-1.097-4.035-1.087c-12.781,0.071-25.458,0.965-38.13,2.6
			c-4.705,0.609-7.165,4.499-7.383,8.252c-1.041,1.59-1.529,3.601-1.003,5.956c1.564,7.054,3.191,14.138,4.05,21.323
			c0.063,0.502,0.155,1,0.282,1.487c-0.127,3.991,2.369,8.069,7.518,8.049c12.434-0.056,24.839-0.808,37.268-0.868
			c0.874-0.006,1.638-0.163,2.361-0.381c4.202,0.406,8.49-2.036,8.038-7.419c-0.903-10.842-1.871-21.678-3.75-32.408
			C114.008,307.014,111.87,305.313,109.379,304.876z M77.51,335.7c-0.759-4.88-1.684-9.729-2.689-14.574
			c8.46-0.889,16.938-1.432,25.448-1.625c0.749,5.189,1.348,10.39,1.815,15.61C93.894,335.248,85.706,335.527,77.51,335.7z"/>
		<path d="M379.599,308.324c-31.813,15.94-68.746,11.101-102.946,8.247c-34.494-2.879-68.88-4.829-102.321,5.702
			c-9.557,3.012-5.477,18.078,4.149,15.046c68.04-21.434,143.813,17.148,208.984-15.522
			C396.467,317.282,388.561,303.831,379.599,308.324z"/>
	</g>
</g>
<g>
</g>
<g>
</g>
<g>
</g>
<g>
</g>
<g>
</g>
<g>
</g>
<g>
</g>
<g>
</g>
<g>
</g>
<g>
</g>
<g>
</g>
<g>
</g>
<g>
</g>
<g>
</g>
<g>
</g>
</svg>
