<?xml version="1.0" encoding="iso-8859-1"?>
<!-- Generator: Adobe Illustrator 19.0.0, SVG Export Plug-In . SVG Version: 6.00 Build 0)  -->
<svg version="1.1" id="Layer_1" xmlns="http://www.w3.org/2000/svg" xmlns:xlink="http://www.w3.org/1999/xlink" x="0px" y="0px"
	 viewBox="0 0 415.2 415.2" style="enable-background:new 0 0 415.2 415.2;" xml:space="preserve">
<path style="fill:#2FB4C2;" d="M399.2,46.4v322.4c0,14.4-12,26.4-26.4,26.4H272V248.8h84c4.8,0,8-4,8-8V184c0-4.8-3.2-8-8-8h-84
	v-22.4c0-16.8,13.6-29.6,29.6-29.6h56.8c4.8,0,8-3.2,8-8V59.2c0-4.8-3.2-8-8-8h-72.8c-50.4,0.8-86.4,44-86.4,102.4V176h-41.6
	c-4.8,0-8,3.2-8,8v56.8c0,4,3.2,8,8,8h40.8v146.4h-156c-14.4,0-26.4-12-26.4-26.4V46.4C16,32,28,20,42.4,20h330.4
	C387.2,20,399.2,32,399.2,46.4z"/>
<path style="fill:#42210B;" d="M207.2,411.2H42.4C19.2,411.2,0,392,0,368.8V46.4C0,23.2,19.2,4,42.4,4h330.4
	c23.2,0,42.4,19.2,42.4,42.4v322.4c0,23.2-19.2,42.4-42.4,42.4H264c-4,0-8-4-8-8V240.8c0-4.8,4-8,8-8h84V192h-84c-4,0-8-4-8-8v-30.4
	c0-25.6,20.8-45.6,45.6-45.6h48.8V67.2h-64.8c-40.8,0.8-70.4,36.8-70.4,86.4V184c0,4-3.2,8-8,8h-41.6v40.8h40.8c4.8,0,8,3.2,8,8
	v162.4C215.2,408,211.2,411.2,207.2,411.2z M149.6,240.8V184c0-4.8,3.2-8,8-8h40.8v-22.4c0-59.2,36-102.4,86.4-102.4h73.6
	c4.8,0,8,3.2,8,8V116c0,4.8-3.2,8-8,8h-56.8c-16.8,0-29.6,13.6-29.6,29.6V176h84c4.8,0,8,3.2,8,8v56.8c0,4-3.2,8-8,8h-84v146.4
	h100.8c14.4,0,26.4-12,26.4-26.4V46.4c0-14.4-12-26.4-26.4-26.4H42.4C28,20,16,32,16,46.4v322.4c0,14.4,12,26.4,26.4,26.4h156V248.8
	h-40.8C153.6,248.8,149.6,245.6,149.6,240.8z"/>
<path style="fill:#1D9AAE;" d="M92.8,20l-57.6,1.6c-10.4,3.2-18.4,13.6-18.4,24.8v322.4c0,9.6,5.6,18.4,13.6,23.2V83.2
	c0-29.6,23.2-54.4,53.6-56L240.8,20C240.8,20,92.8,20,92.8,20z"/>
<g>
</g>
<g>
</g>
<g>
</g>
<g>
</g>
<g>
</g>
<g>
</g>
<g>
</g>
<g>
</g>
<g>
</g>
<g>
</g>
<g>
</g>
<g>
</g>
<g>
</g>
<g>
</g>
<g>
</g>
</svg>
